<?xml version="1.0" encoding="iso-8859-1"?>
<!-- Generator: Adobe Illustrator 19.0.0, SVG Export Plug-In . SVG Version: 6.00 Build 0)  -->
<svg version="1.1" id="Layer_1" xmlns="http://www.w3.org/2000/svg" xmlns:xlink="http://www.w3.org/1999/xlink" x="0px" y="0px"
	 viewBox="0 0 512 512" style="enable-background:new 0 0 512 512;" xml:space="preserve">
<polygon style="fill:#FFC5BF;" points="471.149,51.745 394.894,256 471.149,460.255 503.83,460.255 503.83,51.745 "/>
<polygon style="fill:#FFD8D4;" points="8.17,51.745 8.17,460.255 106.213,460.255 256,427.574 405.787,460.255 471.149,460.255 
	471.149,51.745 "/>
<polygon style="fill:#81433D;" points="40.851,84.426 40.851,117.106 438.468,427.574 471.149,427.574 471.149,84.426 "/>
<rect x="40.851" y="117.106" style="fill:#945F5A;" width="397.617" height="310.468"/>
<path style="fill:#F89890;" d="M373.106,394.894h-32.681l32.681,65.362h32.681v-32.681
	C405.787,409.6,391.081,394.894,373.106,394.894z"/>
<path style="fill:#FFC5BF;" d="M373.106,427.574v32.681H106.213v-32.681c0-17.974,14.706-32.681,32.681-32.681h201.532
	C358.4,394.894,373.106,409.6,373.106,427.574z"/>
<g>
	<path style="fill:#FFFFFF;" d="M171.574,275.064h-24.511v-19.715c24.663-3.929,43.574-25.342,43.574-51.093
		c0-28.531-23.213-51.745-51.745-51.745s-51.745,23.213-51.745,51.745c0,25.751,18.911,47.164,43.574,51.093v19.715h-24.511
		c-4.512,0-8.17,3.658-8.17,8.17c0,4.512,3.658,8.17,8.17,8.17h24.511v27.234c0,4.512,3.658,8.17,8.17,8.17s8.17-3.658,8.17-8.17
		v-27.234h24.511c4.512,0,8.17-3.658,8.17-8.17C179.745,278.722,176.087,275.064,171.574,275.064z M103.489,204.255
		c0-19.521,15.883-35.404,35.404-35.404s35.404,15.883,35.404,35.404s-15.883,35.404-35.404,35.404S103.489,223.777,103.489,204.255
		z"/>
	<path style="fill:#FFFFFF;" d="M416.681,169.262H384c-4.513,0-8.17,3.658-8.17,8.17s3.657,8.17,8.17,8.17h12.956l-30.802,30.802
		c-8.773-6.383-19.297-9.836-30.354-9.836c-13.822,0-26.816,5.383-36.589,15.156c-9.774,9.774-15.155,22.768-15.155,36.588
		c0,13.822,5.383,26.816,15.155,36.588c9.774,9.774,22.768,15.156,36.589,15.156s26.816-5.383,36.588-15.156
		c9.774-9.773,15.156-22.767,15.156-36.588c0-11.058-3.453-21.581-9.836-30.354l30.802-30.802v12.956c0,4.512,3.657,8.17,8.17,8.17
		c4.513,0,8.17-3.658,8.17-8.17v-32.681C424.851,172.92,421.194,169.262,416.681,169.262z M360.834,283.347
		c-6.686,6.687-15.578,10.37-25.034,10.37s-18.348-3.683-25.035-10.37c-6.686-6.686-10.37-15.578-10.37-25.035
		s3.683-18.347,10.371-25.035c6.686-6.687,15.578-10.37,25.034-10.37s18.348,3.683,25.034,10.37
		c6.688,6.688,10.371,15.578,10.371,25.035S367.521,276.661,360.834,283.347z"/>
	<path style="fill:#FFFFFF;" d="M254.366,231.489h-38.128c-4.512,0-8.17-3.658-8.17-8.17c0-4.512,3.658-8.17,8.17-8.17h38.128
		c4.513,0,8.17,3.658,8.17,8.17C262.536,227.831,258.879,231.489,254.366,231.489z"/>
	<path style="fill:#FFFFFF;" d="M254.366,264.17h-38.128c-4.512,0-8.17-3.658-8.17-8.17s3.658-8.17,8.17-8.17h38.128
		c4.513,0,8.17,3.658,8.17,8.17S258.879,264.17,254.366,264.17z"/>
</g>
<path d="M40.851,435.745h32.681c4.512,0,8.17-3.658,8.17-8.17c0-4.512-3.658-8.17-8.17-8.17H49.021V92.596h413.957v326.809h-24.511
	c-4.513,0-8.17,3.658-8.17,8.17c0,4.512,3.657,8.17,8.17,8.17h32.681c4.513,0,8.17-3.658,8.17-8.17V84.426
	c0-4.512-3.657-8.17-8.17-8.17H40.851c-4.512,0-8.17,3.658-8.17,8.17v343.149C32.681,432.087,36.339,435.745,40.851,435.745z"/>
<path d="M503.83,43.574H8.17c-4.512,0-8.17,3.658-8.17,8.17v408.511c0,4.512,3.658,8.17,8.17,8.17h495.66
	c4.513,0,8.17-3.658,8.17-8.17V51.745C512,47.233,508.343,43.574,503.83,43.574z M397.617,452.085H114.383v-24.511
	c0-13.516,10.995-24.511,24.511-24.511h234.213c13.515,0,24.511,10.995,24.511,24.511V452.085z M495.66,452.085h-81.702v-24.511
	c0-22.526-18.325-40.851-40.851-40.851H138.894c-22.526,0-40.851,18.325-40.851,40.851v24.511H16.34V59.915H495.66V452.085z"/>
<g>
</g>
<g>
</g>
<g>
</g>
<g>
</g>
<g>
</g>
<g>
</g>
<g>
</g>
<g>
</g>
<g>
</g>
<g>
</g>
<g>
</g>
<g>
</g>
<g>
</g>
<g>
</g>
<g>
</g>
</svg>
