<?xml version="1.0" encoding="utf-8"?>
<!-- Generator: Adobe Illustrator 27.5.0, SVG Export Plug-In . SVG Version: 6.00 Build 0)  -->
<svg version="1.1" xmlns="http://www.w3.org/2000/svg" xmlns:xlink="http://www.w3.org/1999/xlink" x="0px" y="0px"
	 viewBox="0 0 500 500" style="enable-background:new 0 0 500 500;" xml:space="preserve">
<g id="Floor">
	<ellipse id="Floor_9_" style="fill:#F0F0F0;" cx="251.301" cy="344.191" rx="226.164" ry="125.104"/>
</g>
<g id="Shadows">
	<path id="Shadow_18_" style="fill:#E0E0E0;" d="M136.03,433.946l-94.939-54.813c-1.078-0.622-1.078-1.631,0-2.253l49.93-28.828
		c1.078-0.622,2.825-0.622,3.902,0l94.994,54.845c1.078,0.622,1.077,1.63-0.001,2.251l-49.983,28.8
		C138.855,434.569,137.108,434.568,136.03,433.946z"/>
	<path id="Shadow_30_" style="fill:#E0E0E0;" d="M227.316,425.468c-10.829-6.252-28.385-6.252-39.214,0
		c-10.829,6.252-10.829,16.388,0,22.64s28.385,6.252,39.214,0C238.145,441.857,238.145,431.72,227.316,425.468z"/>
	<ellipse id="Shadow_17_" style="fill:#E0E0E0;" cx="402.1" cy="317.797" rx="52.625" ry="30.383"/>
	<path id="Shadow_16_" style="fill:#E0E0E0;" d="M407.049,362.918l-95.382-55.034l28.158-16.257c1.77-1.022,1.771-2.68,0.001-3.704
		l-110.875-64.111c-1.77-1.023-4.639-1.023-6.408,0L64.918,314.985c-1.77,1.023-1.77,2.683,0,3.707l110.7,64.036
		c1.769,1.024,4.639,1.025,6.409,0.003l23.123-13.277l95.384,55.033L407.049,362.918z"/>
</g>
<g id="Plant">
	<g id="Plants_1_">
		<g id="XMLID_3896_">
			<g id="XMLID_4191_">
				<path id="XMLID_4195_" style="fill:#27DEBF;" d="M70.731,272.794c1.154-7.884-2.157-25.049-8.84-36.483
					c-6.682-11.434-18.449-20.802-28.044-19.014c-8.936,1.665-9.649,12.964-0.407,21.874c9.242,8.91,23.402,20.475,26.07,33.928
					l7.23,17.086L70.731,272.794z"/>
			</g>
			<g id="XMLID_4045_" style="opacity:0.15;">
				<path id="XMLID_4190_" d="M70.731,272.794c1.154-7.884-2.157-25.049-8.84-36.483c-6.682-11.434-18.449-20.802-28.044-19.014
					c-8.936,1.665-9.649,12.964-0.407,21.874c9.242,8.91,23.402,20.475,26.07,33.928l7.23,17.086L70.731,272.794z"/>
			</g>
			<g id="XMLID_3897_">
				<path id="XMLID_3959_" style="fill:#FFFFFF;" d="M69.733,283.667c-0.248-0.057-0.438-0.273-0.451-0.539
					c-1.339-27.685-19.908-52.748-32.231-59.489c-0.282-0.154-0.386-0.508-0.231-0.79c0.153-0.281,0.501-0.392,0.79-0.231
					c12.558,6.869,31.476,32.349,32.835,60.454c0.016,0.321-0.232,0.593-0.553,0.609C69.837,283.684,69.784,283.679,69.733,283.667z
					"/>
			</g>
		</g>
		<g id="XMLID_3881_">
			<g id="XMLID_3890_">
				<path id="XMLID_3895_" style="fill:#27DEBF;" d="M68.653,309.233c-0.618-4.617-4.96-12.723-12.831-20.046
					c-8.707-8.101-20.514-12.968-22.578-18.583c-2.479-6.745,3.652-11.878,13.42-9.188c9.768,2.69,25.273,18.825,25.077,39.671
					L68.653,309.233z"/>
			</g>
			<g id="XMLID_3883_">
				<path id="XMLID_3884_" style="fill:#FFFFFF;" d="M71.259,304.865c-0.216-0.05-0.394-0.221-0.441-0.453
					c-4.878-24.264-21.284-34.931-29.276-37.182c-0.309-0.087-0.49-0.409-0.403-0.718c0.087-0.31,0.396-0.492,0.718-0.403
					c8.838,2.488,25.124,13.307,30.103,38.074c0.063,0.315-0.142,0.622-0.456,0.685C71.42,304.885,71.337,304.883,71.259,304.865z"
					/>
			</g>
		</g>
	</g>
</g>
<g id="Clouds">
	<g id="Clouds_2_">
		<g id="XMLID_3850_">
			<path id="XMLID_3851_" style="fill:#EBEBEB;" d="M166.562,67.175l-6.113,3.529c0.03-0.273,0.051-0.544,0.051-0.809v-1.771
				c0-3.151-2.212-4.429-4.942-2.853c-1.105,0.638-2.122,1.649-2.945,2.832c-0.447-3.963-3.556-5.439-7.332-3.259
				c-4.083,2.357-7.393,8.09-7.393,12.805v2.649c0,1.221,0.226,2.25,0.626,3.069l-5.077,2.931c-1.514,0.874-2.741,3-2.741,4.748
				c0,1.748,1.227,2.457,2.741,1.583l33.125-19.124c1.514-0.874,2.741-3,2.741-4.748C169.303,67.01,168.076,66.301,166.562,67.175z"
				/>
		</g>
		<g id="XMLID_3848_">
			<path id="XMLID_3849_" style="fill:#EBEBEB;" d="M104.298,71.378l-3.372,1.297v-7.428c0-5.888-4.697-7.3-9.797-4.356l0,0
				c-5.1,2.944-9.234,10.105-9.234,15.993v1.079c-1.157-0.462-2.651-0.283-4.285,0.66l0,0c-3.67,2.119-6.645,7.272-6.645,11.509
				v0.49l-4.701,2.715c-2.417,1.395-4.376,4.788-4.376,7.579c0,2.79,1.959,3.922,4.376,2.526l38.034-21.959
				c2.417-1.395,4.376-4.788,4.376-7.579C108.674,71.114,106.715,69.983,104.298,71.378z"/>
		</g>
	</g>
</g>
<g id="Printer">
	<g id="Printer_1_">
		<g id="Printer_4_">
			<g>
				<path id="XMLID_3880_" style="fill:#27DEBF;" d="M184.114,374.881l142.513-82.28c3.243-1.873,5.873-6.427,5.873-10.172l0-50.053
					c0-3.745-2.63-8.299-5.873-10.172l-98.44-56.834c-3.243-1.873-8.502-1.873-11.745,0l-142.513,82.28
					c-3.243,1.873-5.873,6.427-5.873,10.172l0,50.052c0,3.746,2.63,8.3,5.873,10.172l98.439,56.835
					C175.612,376.754,180.871,376.754,184.114,374.881z"/>
				<path id="XMLID_3873_" style="fill:#263238;" d="M178.241,371.491v-50.053c0-3.745-2.629-8.299-5.873-10.172l-98.44-56.834
					c-3.243-1.872-5.873-0.355-5.873,3.39l0,50.052c0,3.746,2.63,8.3,5.873,10.172l98.439,56.835
					C175.612,376.754,178.242,375.236,178.241,371.491z"/>
				<path id="XMLID_3872_" style="fill:#27DEBF;" d="M329.777,225.103l-154.248,89.055c-0.913-1.209-1.998-2.221-3.158-2.887
					l-98.431-56.828c-2.936-1.702-5.355-0.642-5.799,2.344c0.395-3.503,2.838-7.427,5.799-9.13l142.502-82.294
					c3.233-1.875,8.513-1.875,11.746,0l98.431,56.853C327.802,222.882,328.864,223.893,329.777,225.103z"/>
				<path id="XMLID_3871_" style="fill:#455A64;" d="M329.777,225.103l-154.248,89.055c-0.913-1.209-1.998-2.221-3.158-2.887
					l-98.431-56.828c-2.936-1.702-5.355-0.642-5.799,2.344c0.395-3.503,2.838-7.427,5.799-9.13l142.502-82.294
					c3.233-1.875,8.513-1.875,11.746,0l98.431,56.853C327.802,222.882,328.864,223.893,329.777,225.103z"/>
				<path id="XMLID_3868_" style="fill:#37474F;" d="M332.491,232.382v50.042c0,3.751-2.616,8.316-5.873,10.166l-142.502,82.294
					c-2.986,1.703-7.625,1.851-10.857,0.42c2.813,1.16,4.984-0.42,4.984-3.825v-50.042c0-2.418-1.086-5.157-2.715-7.28
					l154.248-89.055C331.43,227.249,332.491,229.988,332.491,232.382z"/>
				<path style="fill:#27DEBF;" d="M302.073,249.202v13.239c0,3.004-2.099,6.643-4.693,8.145l-80.04,46.229
					c-2.594,1.502-4.702,0.289-4.702-2.706V300.87c0-2.5-0.793-4.889-2.22-6.857l89.453-51.649
					C301.281,244.322,302.073,246.711,302.073,249.202z"/>
				<path style="opacity:0.15;" d="M302.073,249.202v13.239c0,3.004-2.099,6.643-4.693,8.145l-80.04,46.229
					c-2.594,1.502-4.702,0.289-4.702-2.706V300.87c0-2.5-0.793-4.889-2.22-6.857l89.453-51.649
					C301.281,244.322,302.073,246.711,302.073,249.202z"/>
				<path style="fill:#27DEBF;" d="M299.872,242.363l-89.453,51.649c-0.942-1.334-2.174-2.472-3.648-3.321l-66.558-38.429
					c-2.594-1.493-2.594-3.928,0-5.421l80.039-46.238c2.594-1.493,6.801-1.493,9.395,0l66.558,38.429
					C297.679,239.882,298.92,241.02,299.872,242.363z"/>
				<path style="fill:#FAFAFA;" d="M211.151,242.453c-6.462,3.73-6.461,9.778,0,13.509c6.462,3.731,16.939,3.731,23.402,0.001
					c6.463-3.73,6.462-9.778,0-13.509C228.09,238.724,217.613,238.723,211.151,242.453z"/>
			</g>
			<g>
				<path style="fill:#263238;" d="M199.803,344.744c0-2.576,1.809-5.709,4.04-6.997l109.403-63.164
					c2.231-1.288,4.04-0.244,4.04,2.332l0,21.07l-117.482,67.843L199.803,344.744"/>
				<polygon id="XMLID_3867_" points="203.633,350.894 203.633,344.533 313.818,280.918 313.818,287.279 				"/>
			</g>
			<g>
				<polygon id="XMLID_3866_" style="fill:#263238;" points="101.111,244.68 211.296,181.064 216.689,184.189 106.52,247.804 				
					"/>
				<polygon id="XMLID_3865_" style="fill:#37474F;" points="103.665,246.182 87.835,176.178 198.02,112.563 213.85,182.567 				"/>
				<polygon id="XMLID_3864_" style="fill:#263238;" points="87.835,176.178 85.281,174.675 101.111,244.68 103.665,246.182 				"/>
				<polygon id="XMLID_3863_" style="fill:#455A64;" points="85.281,174.675 87.835,176.178 198.02,112.563 195.466,111.06 				"/>
			</g>
			<g>
				<polygon id="XMLID_3862_" style="fill:#E0E0E0;" points="106.86,244.336 87.729,159.679 188.642,101.419 207.773,186.076 				
					"/>
				<polygon id="XMLID_3861_" style="fill:#FAFAFA;" points="109.666,245.982 90.535,161.325 191.448,103.065 210.579,187.722 				
					"/>
				<polygon id="XMLID_3860_" style="fill:#E0E0E0;" points="90.535,161.325 87.729,159.679 107.514,247.23 109.666,245.982 				"/>
				<polygon id="XMLID_3855_" style="fill:#EBEBEB;" points="87.729,159.679 90.535,161.325 191.448,103.065 188.642,101.419 				
					"/>
			</g>
			<g>
				<g>
					<path style="fill:#263238;" d="M193.31,296.214v-1.269c0.001-0.492-0.323-0.984-0.973-1.359l-2.647-1.528
						c-1.297-0.749-3.4-0.749-4.697,0l-9.99,5.768c-0.652,0.377-0.975,0.871-0.972,1.364h-0.002v1.286h0.003
						c0.008,0.485,0.329,0.968,0.97,1.338l2.647,1.528c1.297,0.749,3.4,0.749,4.697,0l9.991-5.768
						c0.645-0.372,0.968-0.86,0.972-1.348h0.001v-0.005C193.31,296.218,193.31,296.216,193.31,296.214z"/>
					<path style="fill:#37474F;" d="M177.65,302.066l-2.647-1.528c-1.297-0.749-1.297-1.963,0-2.712l9.99-5.768
						c1.297-0.749,3.4-0.749,4.697,0l2.647,1.528c1.297,0.749,1.297,1.963,0,2.712l-9.991,5.768
						C181.05,302.815,178.947,302.815,177.65,302.066z"/>
					<g>
						<path style="fill:#FAFAFA;" d="M180.14,301c-0.724,0-1.448-0.159-2-0.478c-0.458-0.265-0.754-0.608-0.854-0.994
							c-0.079-0.303-0.031-0.614,0.14-0.9c0.061-0.102,0.194-0.135,0.295-0.075c0.102,0.061,0.136,0.193,0.075,0.295
							c-0.111,0.187-0.143,0.379-0.093,0.571c0.071,0.271,0.296,0.523,0.653,0.729c0.984,0.567,2.584,0.568,3.567,0
							c0.436-0.252,0.676-0.573,0.676-0.906c0-0.332-0.24-0.654-0.676-0.905c-0.675-0.39-1.703-0.525-2.616-0.343
							c-0.12,0.019-0.23-0.053-0.253-0.169c-0.023-0.117,0.053-0.23,0.169-0.253c1.026-0.204,2.142-0.055,2.916,0.392
							c0.575,0.332,0.891,0.786,0.891,1.278c0,0.493-0.316,0.947-0.891,1.279C181.588,300.841,180.864,301,180.14,301z"/>
						<path style="fill:#FAFAFA;" d="M180.235,299.514c-0.037,0-0.074-0.009-0.108-0.029l-2.462-1.421
							c-0.103-0.06-0.138-0.191-0.079-0.294c0.06-0.103,0.191-0.138,0.295-0.079l2.462,1.421c0.103,0.06,0.138,0.191,0.079,0.294
							C180.381,299.476,180.309,299.514,180.235,299.514z"/>
					</g>
				</g>
				<g>
					<path style="fill:#263238;" d="M164.514,299.257l21.947-12.722c0.669-0.388,0.668-1.015-0.001-1.402l-12.735-7.353
						c-0.669-0.386-1.754-0.385-2.423,0.002l-21.947,12.722c-0.669,0.388-0.668,1.015,0.001,1.401l12.735,7.353
						C162.76,299.646,163.845,299.645,164.514,299.257z"/>
					<path style="fill:#27DEBF;" d="M173.724,279.6c-0.669-0.387-1.754-0.385-2.423,0.002l-21.585,12.512l12.375,7.145
						c0.67,0.387,1.754,0.385,2.423-0.002l21.585-12.512L173.724,279.6z"/>
					<g style="opacity:0.4;">
						<path d="M156.939,292.695c1.232-0.711,2.772-0.766,3.841-0.149c1.151,0.665,1.101,1.581-0.13,2.292l-1.062,0.613l1.419,0.819
							l-0.94,0.542l-5.129-2.961L156.939,292.695z M159.184,295.217l0.859-0.496c0.834-0.482,0.753-1.043-0.235-1.614
							c-0.9-0.519-1.831-0.542-2.665-0.06l-0.859,0.496L159.184,295.217z"/>
						<path d="M159.802,291.043l2.123-1.226c1.093-0.631,2.448-0.748,3.337-0.233c0.771,0.445,0.819,1.062,0.194,1.665
							c0.341-0.066,0.811-0.065,1.014-0.052l2.511,0.197l-0.566,0.758L166,291.88c-0.931-0.089-1.345-0.131-1.92,0.201l-0.293,0.168
							l2.091,1.207l-0.948,0.548L159.802,291.043z M161.155,290.73l2.229,1.286l1.077-0.623c0.6-0.345,0.527-0.846-0.162-1.243
							c-0.697-0.403-1.434-0.406-2.106-0.019L161.155,290.73z"/>
						<path d="M165.687,287.645l5.129,2.961l-0.94,0.543l-5.129-2.961L165.687,287.645z"/>
						<path d="M167.511,286.593l6.246,0.594l0.219,0.024l0.009-0.006l-1.548-0.893c-0.689-0.398-1.969-0.977-2.358-1.202
							l0.672-0.388l5.129,2.961l-0.648,0.374l-6.368-0.607l-0.34-0.047l-0.008,0.005l1.702,0.982l2.22,1.282l-0.616,0.356
							c-0.389-0.226-1.434-0.922-2.123-1.319l-2.925-1.689L167.511,286.593z"/>
						<path d="M175.818,281.796l0.518,0.299c-0.34,0.197-1.312,0.628-1.798,0.908l4.723,2.727l-0.948,0.547l-4.723-2.726
							c-0.486,0.28-1.232,0.841-1.573,1.038l-0.518-0.299L175.818,281.796z"/>
					</g>
				</g>
			</g>
			<path style="fill:#EBEBEB;" d="M210.579,187.722"/>
		</g>
		<g id="Invoice_2_">
			<g>
				<g>
					<path style="fill:#E0E0E0;" d="M205.79,348.227c11.032,2.029,20.425,6.527,27.759,11.238
						c9.584,6.155,17.478,14.602,23.172,24.466l0,0c6.358,11.012,15.503,20.157,26.515,26.515l17.298,9.987v-4.399l-17.298-9.987
						c-11.012-6.358-19.089-16.174-25.447-27.186l0,0c-5.695-9.864-14.657-17.639-24.24-23.794
						c-6.672-4.285-15.046-8.394-24.809-10.629l-2.91,1.68L205.79,348.227z"/>
				</g>
				<g style="opacity:0.05;">
					<path d="M205.79,348.227c11.032,2.029,20.425,6.527,27.759,11.238c9.584,6.155,17.478,14.602,23.172,24.466l0,0
						c6.358,11.012,15.503,20.157,26.515,26.515l17.298,9.987v-4.399l-17.298-9.987c-11.012-6.358-19.089-16.174-25.447-27.186l0,0
						c-5.695-9.864-14.657-17.639-24.24-23.794c-6.672-4.285-15.046-8.394-24.809-10.629l-2.91,1.68L205.79,348.227z"/>
				</g>
				<g>
					<polygon style="fill:#EBEBEB;" points="401.198,357.838 300.535,416.033 300.535,420.432 401.198,362.212 					"/>
				</g>
				<g>
					<path style="fill:#FAFAFA;" d="M300.535,416.033l-17.298-9.987c-11.012-6.358-19.089-16.174-25.447-27.186l0,0
						c-5.695-9.864-14.657-17.639-24.24-23.794c-6.672-4.285-15.046-8.394-24.809-10.629l100.631-58.203
						c9.776,2.233,18.161,6.347,24.84,10.636c9.584,6.155,18.264,14.311,23.959,24.175l0,0
						c6.358,11.012,14.716,20.448,25.728,26.805l17.298,9.987L300.535,416.033z"/>
				</g>
			</g>
			<g>
				<g>
					<path style="fill:#E0E0E0;" d="M227.752,344.21c-0.322,0-0.636-0.167-0.809-0.466c-0.258-0.447-0.105-1.017,0.342-1.275
						l58.975-34.153c0.445-0.258,1.016-0.106,1.275,0.342c0.258,0.446,0.105,1.017-0.342,1.275l-58.975,34.153
						C228.071,344.169,227.911,344.21,227.752,344.21z"/>
				</g>
				<g>
					<path style="fill:#E0E0E0;" d="M237.311,348.815c-0.323,0-0.636-0.167-0.809-0.466c-0.258-0.446-0.105-1.017,0.342-1.275
						l58.974-34.152c0.444-0.258,1.016-0.106,1.275,0.342c0.258,0.446,0.105,1.017-0.342,1.275l-58.974,34.152
						C237.63,348.775,237.469,348.815,237.311,348.815z"/>
				</g>
				<g>
					<path style="fill:#E0E0E0;" d="M245.986,354.375c-0.323,0-0.636-0.167-0.809-0.466c-0.258-0.447-0.105-1.017,0.342-1.275
						l58.975-34.153c0.444-0.258,1.016-0.106,1.275,0.342c0.258,0.446,0.105,1.017-0.342,1.275l-58.975,34.153
						C246.304,354.335,246.144,354.375,245.986,354.375z"/>
				</g>
				<g>
					<path style="fill:#E0E0E0;" d="M254.424,361.214c-0.323,0-0.636-0.167-0.809-0.466c-0.258-0.446-0.105-1.017,0.342-1.275
						l58.975-34.152c0.445-0.258,1.016-0.106,1.275,0.342c0.258,0.447,0.105,1.017-0.342,1.275l-58.975,34.152
						C254.743,361.173,254.583,361.214,254.424,361.214z"/>
				</g>
				<g>
					<path style="fill:#E0E0E0;" d="M261.746,369.154c-0.323,0-0.636-0.167-0.809-0.467c-0.258-0.446-0.105-1.017,0.342-1.275
						l58.974-34.153c0.445-0.259,1.016-0.106,1.275,0.342c0.258,0.446,0.105,1.017-0.342,1.275l-58.974,34.153
						C262.065,369.114,261.904,369.154,261.746,369.154z"/>
				</g>
				<g>
					<path style="fill:#E0E0E0;" d="M267.631,378.231c-0.323,0-0.636-0.167-0.809-0.467c-0.258-0.446-0.105-1.017,0.342-1.275
						l58.975-34.152c0.444-0.257,1.016-0.107,1.275,0.342c0.258,0.446,0.105,1.017-0.342,1.275l-58.975,34.152
						C267.949,378.191,267.789,378.231,267.631,378.231z"/>
				</g>
				<g>
					<path style="fill:#E0E0E0;" d="M273.881,387.11c-0.323,0-0.636-0.167-0.809-0.466c-0.258-0.446-0.105-1.017,0.342-1.275
						l58.974-34.152c0.445-0.259,1.016-0.106,1.275,0.342c0.258,0.447,0.105,1.017-0.342,1.275l-58.974,34.152
						C274.2,387.07,274.039,387.11,273.881,387.11z"/>
				</g>
			</g>
			<g>
				<g>
					<path style="fill:#E0E0E0;" d="M297.155,304.035c-0.322,0-0.635-0.167-0.808-0.466c-0.259-0.446-0.107-1.016,0.34-1.275
						l15.102-8.753c0.446-0.259,1.017-0.107,1.275,0.34c0.259,0.445,0.107,1.016-0.34,1.275l-15.102,8.753
						C297.475,303.995,297.314,304.035,297.155,304.035z"/>
				</g>
				<g>
					<path style="fill:#E0E0E0;" d="M306.713,308.642c-0.322,0-0.635-0.167-0.808-0.466c-0.259-0.445-0.107-1.016,0.34-1.275
						l15.103-8.753c0.445-0.26,1.016-0.106,1.275,0.34c0.259,0.446,0.107,1.016-0.34,1.275l-15.103,8.753
						C307.033,308.601,306.871,308.642,306.713,308.642z"/>
				</g>
				<g>
					<path style="fill:#E0E0E0;" d="M315.388,314.2c-0.322,0-0.635-0.167-0.808-0.466c-0.259-0.445-0.107-1.016,0.34-1.275
						l15.103-8.752c0.445-0.259,1.017-0.107,1.275,0.34c0.259,0.445,0.107,1.016-0.34,1.275l-15.103,8.752
						C315.708,314.16,315.547,314.2,315.388,314.2z"/>
				</g>
				<g>
					<path style="fill:#E0E0E0;" d="M323.827,321.04c-0.322,0-0.635-0.167-0.808-0.466c-0.259-0.445-0.107-1.016,0.34-1.275
						l15.103-8.753c0.445-0.259,1.017-0.106,1.275,0.34c0.259,0.446,0.107,1.016-0.34,1.275l-15.103,8.753
						C324.147,321,323.985,321.04,323.827,321.04z"/>
				</g>
				<g>
					<path style="fill:#E0E0E0;" d="M331.148,328.979c-0.322,0-0.635-0.167-0.808-0.465c-0.259-0.446-0.107-1.016,0.34-1.275
						l15.103-8.753c0.445-0.258,1.017-0.106,1.275,0.34c0.259,0.445,0.107,1.016-0.34,1.275l-15.103,8.753
						C331.467,328.939,331.306,328.979,331.148,328.979z"/>
				</g>
				<g>
					<path style="fill:#E0E0E0;" d="M337.033,338.057c-0.322,0-0.635-0.167-0.808-0.466c-0.259-0.445-0.107-1.016,0.34-1.275
						l15.103-8.753c0.445-0.259,1.017-0.106,1.275,0.34c0.259,0.446,0.107,1.016-0.34,1.275l-15.103,8.753
						C337.353,338.017,337.192,338.057,337.033,338.057z"/>
				</g>
				<g>
					<path style="fill:#E0E0E0;" d="M343.283,346.936c-0.322,0-0.635-0.167-0.808-0.466c-0.259-0.445-0.107-1.016,0.34-1.275
						l15.103-8.753c0.445-0.259,1.017-0.106,1.275,0.34c0.259,0.445,0.107,1.016-0.34,1.275l-15.103,8.753
						C343.602,346.896,343.441,346.936,343.283,346.936z"/>
				</g>
			</g>
			<g>
				<path style="fill:#27DEBF;" d="M359.292,350.882c0.833-0.332,1.655-0.57,2.466-0.715c0.811-0.145,1.576-0.217,2.294-0.217
					c0.718,0,1.367,0.06,1.948,0.18c0.582,0.121,1.059,0.272,1.433,0.454c0.186,0.091,0.272,0.203,0.258,0.335
					c-0.015,0.133-0.1,0.245-0.259,0.336l-1.507,0.87c-0.244,0.141-0.474,0.22-0.69,0.236c-0.215,0.017-0.452,0.009-0.71-0.025
					c-0.574-0.083-1.213-0.074-1.917,0.025c-0.703,0.099-1.485,0.398-2.347,0.895c-0.374,0.215-0.69,0.444-0.948,0.684
					c-0.259,0.241-0.438,0.477-0.539,0.708c-0.1,0.233-0.115,0.452-0.043,0.659c0.072,0.207,0.245,0.389,0.517,0.547
					c0.33,0.191,0.678,0.301,1.044,0.33c0.366,0.029,0.801-0.015,1.303-0.131c0.502-0.116,1.095-0.296,1.777-0.541
					c0.682-0.244,1.503-0.545,2.466-0.901c1.048-0.39,1.995-0.684,2.842-0.883c0.848-0.199,1.637-0.307,2.369-0.323
					c0.733-0.016,1.41,0.06,2.035,0.23c0.625,0.17,1.231,0.425,1.819,0.765c0.559,0.323,0.977,0.688,1.249,1.094
					c0.272,0.406,0.399,0.84,0.377,1.299c-0.022,0.46-0.197,0.935-0.527,1.424c-0.33,0.49-0.819,0.979-1.465,1.467l1.465,0.845
					c0.158,0.091,0.237,0.203,0.237,0.336c-0.001,0.133-0.079,0.244-0.237,0.335l-1.745,1.007c-0.158,0.092-0.352,0.137-0.581,0.137
					c-0.23,0-0.424-0.046-0.581-0.137l-1.465-0.846c-0.746,0.315-1.521,0.568-2.326,0.759c-0.804,0.191-1.59,0.309-2.357,0.354
					c-0.768,0.046-1.508,0.013-2.219-0.099c-0.711-0.112-1.352-0.317-1.928-0.615c-0.186-0.091-0.273-0.203-0.257-0.336
					c0.013-0.133,0.099-0.245,0.257-0.336l1.508-0.871c0.244-0.141,0.475-0.223,0.69-0.248c0.215-0.025,0.452-0.012,0.71,0.037
					c0.288,0.05,0.597,0.087,0.927,0.112c0.331,0.026,0.69,0.009,1.077-0.049c0.388-0.058,0.812-0.166,1.271-0.323
					c0.458-0.158,0.961-0.394,1.506-0.709c0.431-0.249,0.815-0.508,1.154-0.777c0.336-0.269,0.581-0.535,0.731-0.796
					c0.151-0.261,0.209-0.509,0.173-0.746c-0.036-0.236-0.219-0.45-0.549-0.64c-0.315-0.182-0.675-0.273-1.077-0.274
					c-0.402,0-0.88,0.077-1.432,0.23c-0.553,0.154-1.195,0.367-1.927,0.641c-0.732,0.274-1.594,0.58-2.585,0.92
					c-0.89,0.315-1.723,0.559-2.498,0.733c-0.774,0.174-1.512,0.263-2.208,0.267c-0.696,0.004-1.363-0.079-2.002-0.248
					c-0.64-0.17-1.282-0.442-1.928-0.815c-0.559-0.323-0.969-0.684-1.228-1.081c-0.258-0.398-0.386-0.816-0.388-1.256
					c0.002-0.439,0.141-0.885,0.421-1.336c0.28-0.452,0.678-0.893,1.195-1.324l-1.464-0.846c-0.158-0.091-0.237-0.203-0.237-0.336
					c0-0.133,0.078-0.244,0.237-0.336l1.745-1.007c0.158-0.092,0.351-0.137,0.581-0.137c0.23,0.001,0.424,0.046,0.581,0.137
					L359.292,350.882z"/>
			</g>
			<g>
				<g>
					<polygon style="fill:#455A64;" points="314.498,381.888 325.127,388.025 326.654,387.144 316.025,381.007 					"/>
				</g>
				<g>
					<polygon style="fill:#455A64;" points="326.296,375.076 336.926,381.213 338.452,380.332 327.823,374.195 					"/>
				</g>
				<g>
					<polygon style="fill:#455A64;" points="336.198,369.36 346.827,375.497 347.817,374.927 337.188,368.79 					"/>
				</g>
				<g>
					<polygon style="fill:#455A64;" points="320.556,378.391 331.186,384.528 331.95,384.087 321.32,377.95 					"/>
				</g>
				<g>
					<polygon style="fill:#455A64;" points="328.88,373.584 339.51,379.721 340.274,379.281 329.644,373.144 					"/>
				</g>
				<g>
					<polygon style="fill:#455A64;" points="334.249,370.485 344.878,376.622 345.642,376.181 335.012,370.044 					"/>
				</g>
				<g>
					<polygon style="fill:#455A64;" points="317.209,380.323 327.838,386.46 330.552,384.893 319.923,378.756 					"/>
				</g>
				<g>
					<polygon style="fill:#455A64;" points="322.632,377.191 333.262,383.328 335.976,381.762 325.346,375.625 					"/>
				</g>
				<g>
					<polygon style="fill:#455A64;" points="330.772,372.492 341.402,378.629 343.256,377.56 332.626,371.423 					"/>
				</g>
				<g>
					<polygon style="fill:#455A64;" points="289.322,396.423 299.952,402.56 301.479,401.679 290.849,395.542 					"/>
				</g>
				<g>
					<polygon style="fill:#455A64;" points="301.12,389.611 311.75,395.748 313.277,394.867 302.647,388.73 					"/>
				</g>
				<g>
					<polygon style="fill:#455A64;" points="311.022,383.895 321.652,390.032 323.178,389.15 312.549,383.013 					"/>
				</g>
				<g>
					<polygon style="fill:#455A64;" points="295.381,392.926 306.01,399.063 306.774,398.622 296.144,392.485 					"/>
				</g>
				<g>
					<polygon style="fill:#455A64;" points="303.645,388.149 314.275,394.286 315.038,393.845 304.409,387.708 					"/>
				</g>
				<g>
					<polygon style="fill:#455A64;" points="309.073,385.02 319.702,391.157 320.466,390.716 309.837,384.579 					"/>
				</g>
				<g>
					<polygon style="fill:#455A64;" points="292.033,394.858 302.663,400.995 304.668,399.839 294.039,393.702 					"/>
				</g>
				<g>
					<polygon style="fill:#455A64;" points="297.457,391.727 308.086,397.864 310.295,396.59 299.665,390.453 					"/>
				</g>
				<g>
					<polygon style="fill:#455A64;" points="305.692,386.971 316.322,393.109 318.413,391.914 307.784,385.777 					"/>
				</g>
				<g>
					<polygon style="fill:#455A64;" points="338.713,367.907 349.343,374.044 350.87,373.163 340.24,367.026 					"/>
				</g>
				<g>
					<polygon style="fill:#455A64;" points="341.497,366.302 352.126,372.439 352.89,371.998 342.261,365.861 					"/>
				</g>
				<g>
					<polygon style="fill:#455A64;" points="346.666,363.316 357.296,369.453 358.059,369.012 347.43,362.875 					"/>
				</g>
				<g>
					<polygon style="fill:#455A64;" points="343.722,365.017 354.351,371.154 356.533,369.893 345.904,363.756 					"/>
				</g>
			</g>
		</g>
	</g>
</g>
<g id="Coins">
	<g id="Coins_2_">
		<g id="XMLID_3721_">
			<g id="XMLID_3794_">
				<path id="XMLID_3795_" style="fill:#27DEBF;" d="M231.926,429.198c-1.224-2.065-3.26-4.006-6.114-5.654
					c-9.995-5.771-26.201-5.771-36.197,0c-2.854,1.648-4.89,3.589-6.114,5.654h-1.383v5.23h0.018
					c0.184,3.636,2.672,7.24,7.479,10.015c9.996,5.771,26.202,5.771,36.197,0c4.806-2.775,7.313-6.38,7.497-10.015v0v-5.23H231.926z
					"/>
			</g>
			<g id="XMLID_3790_" style="opacity:0.25;">
				<g>
					<path id="XMLID_31_" d="M231.926,429.198c-1.224-2.065-3.26-4.006-6.114-5.654c-9.995-5.771-26.201-5.771-36.197,0
						c-2.854,1.648-4.89,3.589-6.114,5.654h-1.383v5.23h0.018c0.184,3.636,2.672,7.24,7.479,10.015
						c9.996,5.771,26.202,5.771,36.197,0c4.806-2.775,7.313-6.38,7.497-10.015v0v-5.23H231.926z"/>
				</g>
			</g>
			<path id="XMLID_3789_" style="opacity:0.1;" d="M207.715,419.216c-6.551,0-13.102,1.443-18.1,4.328
				c-2.854,1.648-4.89,3.589-6.114,5.654h-1.383v5.23h0.018c0.184,3.636,2.673,7.24,7.479,10.015
				c4.998,2.886,11.549,4.328,18.1,4.328V419.216z"/>
			<path id="XMLID_3788_" style="opacity:0.1;" d="M193.735,421.615c-1.457,0.55-2.84,1.191-4.12,1.929
				c-2.854,1.648-4.89,3.589-6.114,5.654h-1.383v5.23h0.018c0.184,3.636,2.673,7.24,7.479,10.015c1.279,0.739,2.663,1.38,4.12,1.929
				V421.615z"/>
			<path id="XMLID_3787_" style="opacity:0.5;fill:#27DEBF;" d="M221.693,421.615c1.457,0.55,2.84,1.191,4.12,1.929
				c2.854,1.648,4.89,3.589,6.114,5.654h1.383v5.229v0c-0.184,3.636-2.69,7.24-7.497,10.015c-1.279,0.739-2.663,1.38-4.12,1.929
				V421.615z"/>
			<g id="XMLID_3772_">
				<path id="XMLID_3781_" style="fill:#27DEBF;" d="M225.812,418.752c-9.995-5.771-26.201-5.771-36.197,0
					c-9.996,5.771-9.996,15.128,0,20.898c9.996,5.771,26.202,5.771,36.197,0C235.808,433.879,235.808,424.523,225.812,418.752z"/>
				<path id="XMLID_3779_" style="opacity:0.2;" d="M225.812,418.752c-9.995-5.771-26.201-5.771-36.197,0
					c-9.996,5.771-9.996,15.128,0,20.898c9.996,5.771,26.202,5.771,36.197,0C235.808,433.879,235.808,424.523,225.812,418.752z"/>
				<g id="XMLID_3773_">
					<path id="XMLID_3778_" style="fill:#27DEBF;" d="M219.5,422.576c-3.166-1.62-7.349-2.514-11.788-2.514
						c-4.434,0-8.622,0.894-11.784,2.514c-3.351,1.717-5.196,4.073-5.196,6.627c0,2.554,1.845,4.905,5.196,6.623
						c3.162,1.625,7.349,2.519,11.784,2.519c4.439,0,8.622-0.894,11.788-2.519c3.347-1.717,5.192-4.069,5.192-6.623
						C224.692,426.649,222.847,424.293,219.5,422.576z"/>
					<path id="XMLID_3777_" style="opacity:0.4;" d="M219.5,422.576c-3.166-1.62-7.349-2.514-11.788-2.514
						c-4.434,0-8.622,0.894-11.784,2.514c-3.351,1.717-5.196,4.073-5.196,6.627c0,2.554,1.845,4.905,5.196,6.623
						c3.162,1.625,7.349,2.519,11.784,2.519c4.439,0,8.622-0.894,11.788-2.519c3.347-1.717,5.192-4.069,5.192-6.623
						C224.692,426.649,222.847,424.293,219.5,422.576z"/>
					<path id="XMLID_3774_" style="fill:#27DEBF;" d="M225.256,419.718c-4.667-2.696-10.899-4.183-17.544-4.183
						c-6.644,0-12.871,1.487-17.538,4.183c-4.478,2.584-6.939,5.948-6.939,9.485c0,3.531,2.462,6.901,6.939,9.485
						c4.667,2.69,10.894,4.177,17.538,4.177c6.644,0,12.876-1.487,17.544-4.177c4.472-2.584,6.939-5.954,6.939-9.485
						C232.195,425.666,229.728,422.302,225.256,419.718z M219.5,435.826c-3.166,1.625-7.349,2.519-11.788,2.519
						c-4.434,0-8.622-0.894-11.784-2.519c-3.351-1.717-5.196-4.069-5.196-6.623c0-2.554,1.845-4.91,5.196-6.627
						c3.162-1.62,7.349-2.514,11.784-2.514c4.439,0,8.622,0.894,11.788,2.514c3.347,1.717,5.192,4.073,5.192,6.627
						C224.692,431.757,222.847,434.108,219.5,435.826z"/>
				</g>
			</g>
			<g id="XMLID_3764_">
				<ellipse id="XMLID_3771_" style="opacity:0.2;" cx="207.714" cy="429.2" rx="16.098" ry="8.261"/>
				<ellipse id="XMLID_3770_" style="fill:#27DEBF;" cx="207.714" cy="429.2" rx="16.098" ry="8.261"/>
				<ellipse id="XMLID_3768_" style="opacity:0.6;" cx="207.714" cy="429.2" rx="16.098" ry="8.261"/>
				<path id="XMLID_3767_" style="fill:#27DEBF;" d="M219.097,425.547c-6.287-3.226-16.48-3.226-22.766,0
					c-2.6,1.334-4.121,3.011-4.571,4.747c0.45,1.736,1.971,3.413,4.571,4.747c6.287,3.226,16.48,3.226,22.766,0
					c2.6-1.334,4.121-3.011,4.571-4.747C223.218,428.558,221.696,426.881,219.097,425.547z"/>
				<path id="XMLID_3765_" style="opacity:0.5;" d="M219.097,425.547c-6.287-3.226-16.48-3.226-22.766,0
					c-2.6,1.334-4.121,3.011-4.571,4.747c0.45,1.736,1.971,3.413,4.571,4.747c6.287,3.226,16.48,3.226,22.766,0
					c2.6-1.334,4.121-3.011,4.571-4.747C223.218,428.558,221.696,426.881,219.097,425.547z"/>
			</g>
			<g id="XMLID_3730_">
				<polygon id="XMLID_3763_" style="fill:#27DEBF;" points="209.238,423.484 209.238,425.845 208.432,426.695 206.942,428.256 
					206.942,425.8 				"/>
				<polygon id="XMLID_3762_" style="opacity:0.3;" points="209.238,423.484 209.238,425.845 208.432,426.695 206.942,428.256 
					206.942,425.8 				"/>
				<path id="XMLID_3761_" style="fill:#27DEBF;" d="M206.942,425.797v1.393c-0.972,0.339-1.705,0.568-2.292,0.651
					c-0.367,0.046-0.688,0.046-0.981-0.037c-0.165-0.046-0.312-0.11-0.467-0.193c-0.568-0.339-0.66-0.843,0.422-1.467
					C204.77,425.477,205.952,425.412,206.942,425.797z"/>
				<path id="XMLID_3759_" style="opacity:0.45;" d="M206.942,425.797v1.393c-0.972,0.339-1.705,0.568-2.292,0.651
					c-0.367,0.046-0.688,0.046-0.981-0.037c-0.165-0.046-0.312-0.11-0.467-0.193c-0.568-0.339-0.66-0.843,0.422-1.467
					C204.77,425.477,205.952,425.412,206.942,425.797z"/>
				<path id="XMLID_3758_" style="fill:#27DEBF;" d="M217.627,432.501v2.037l-2.581,1.49l-1.91-1.104
					c-2.028,0.878-4.676,1.369-7.394,0.334v-2.04l1.174-1.164l-1.174,0.324c-1.852,0.427-3.791,0.478-5.759-0.659
					c-1.158-0.667-1.695-1.398-1.693-2.15v-1.984l0.209-0.867l-0.704-0.41v-2.039l1.91,1.104c-0.932,0.723-1.427,1.467-1.415,2.19
					v0.023c0.021,0.733,0.564,1.444,1.693,2.096c2.511,1.45,4.999,0.972,7.278,0.24c2.119-0.692,3.663-1.504,4.885-0.8
					c0.758,0.439,0.528,0.971-0.323,1.465c-1.359,0.783-2.834,0.545-3.64,0.211l-2.44,2.42c0.452,0.174,0.903,0.302,1.349,0.396
					c2.233,0.468,4.355,0.004,6.045-0.727l1.91,1.104L217.627,432.501z"/>
				<path id="XMLID_3756_" style="opacity:0.35;" d="M198.29,427.563v0.023c0.021,0.733,0.564,1.444,1.693,2.096
					c2.511,1.45,4.999,0.972,7.278,0.24c2.119-0.692,3.663-1.504,4.885-0.8c0.758,0.439,0.528,0.971-0.323,1.465
					c-1.359,0.783-2.834,0.545-3.64,0.211l-2.44,2.42c0.452,0.174,0.903,0.302,1.349,0.396c2.233,0.468,4.355,0.004,6.045-0.727
					l1.91,1.104l2.581-1.49v2.037l-2.581,1.49l-1.91-1.104c-2.028,0.878-4.676,1.369-7.394,0.334v-2.04l1.174-1.164l-1.174,0.324
					c-1.852,0.427-3.791,0.478-5.759-0.659c-1.158-0.667-1.695-1.398-1.693-2.15v-1.984l0.209-0.867"/>
				<path id="XMLID_3754_" style="opacity:0.45;" d="M197.795,424.269v2.039l0.704,0.41l-0.004,0.006
					c0.226-0.452,0.635-0.906,1.21-1.352L197.795,424.269z"/>
				<g id="XMLID_3752_">
					<path id="XMLID_3753_" style="fill:#27DEBF;" d="M217.199,431.169c0,0.376-0.073,0.706-0.192,0.972l-1.292-0.742
						c0,0,1.302-0.532,1.466-1.962C217.19,429.996,217.199,431.114,217.199,431.169z"/>
				</g>
				<g id="XMLID_3749_" style="opacity:0.3;">
					<path id="XMLID_3751_" d="M217.199,431.169c0,0.376-0.073,0.706-0.192,0.972l-1.292-0.742c0,0,1.302-0.532,1.466-1.962
						C217.19,429.996,217.199,431.114,217.199,431.169z"/>
				</g>
				<g id="XMLID_3745_">
					<path id="XMLID_3746_" style="fill:#27DEBF;" d="M217.195,432.254l-1.478-0.857c0,0,1.478-0.608,1.478-2.264
						c0-0.07-0.006-0.134-0.013-0.198c-0.064-0.704-0.582-1.388-1.65-2.002c0-0.006,0-0.006,0-0.006
						c-1.139-0.652-2.303-0.896-3.435-0.896c-0.096,0-0.198,0.007-0.294,0.007h-0.032c-0.102,0.006-0.205,0.013-0.307,0.019
						c-0.09,0.006-0.179,0.013-0.269,0.026c-0.038,0.007-0.077,0.007-0.109,0.013c-0.07,0.006-0.141,0.013-0.205,0.026
						c-0.576,0.077-1.132,0.205-1.669,0.345c-0.262,0.07-0.525,0.147-0.78,0.23c-0.371,0.115-0.736,0.237-1.081,0.352
						c-0.141,0.051-0.275,0.096-0.409,0.141c-0.972,0.339-1.701,0.576-2.29,0.653c-0.371,0.051-0.691,0.045-0.985-0.038
						c-0.16-0.045-0.314-0.109-0.461-0.192c-0.576-0.333-0.665-0.838,0.416-1.465c1.151-0.665,2.328-0.736,3.32-0.345l2.296-2.316
						c-2.207-0.716-4.58-0.595-6.927,0.384l-1.912-1.1l-2.603,1.503l1.913,1.1c-0.934,0.723-1.433,1.471-1.42,2.194v0.019
						c0.026,0.736,0.563,1.446,1.695,2.098c2.514,1.452,5.002,0.972,7.279,0.237c2.117-0.691,3.659-1.503,4.88-0.799
						c0.761,0.441,0.531,0.972-0.32,1.465c-1.356,0.787-2.834,0.55-3.639,0.211l-2.444,2.424c0.454,0.173,0.908,0.301,1.35,0.397
						c0.804,0.168,1.595,0.215,2.356,0.172c1.351-0.076,2.609-0.435,3.689-0.902l1.913,1.107l2.578-1.49L217.195,432.254z"/>
				</g>
				<polygon id="XMLID_3734_" style="fill:#27DEBF;" points="213.135,432.887 213.135,434.925 215.047,436.028 215.047,433.991 				
					"/>
				<polygon id="XMLID_3731_" style="opacity:0.45;" points="213.135,432.887 213.135,434.925 215.047,436.028 215.047,433.991 				
					"/>
			</g>
			<g id="XMLID_3723_">
				<polygon id="XMLID_3729_" style="fill:#F5F5F5;" points="197.795,424.271 200.398,422.768 202.311,423.868 200.415,423.075 				
					"/>
				<path id="XMLID_3728_" style="fill:#F5F5F5;" d="M203.622,426.145c1.151-0.665,2.328-0.736,3.32-0.345l2.296-2.316l-2.296,2.077
					C206.942,425.561,205.11,424.862,203.622,426.145z"/>
				<path id="XMLID_3727_" style="fill:#F5F5F5;" d="M205.739,433.22c0.454,0.173,0.908,0.301,1.35,0.397
					c0.804,0.168,1.595,0.215,2.356,0.172c0,0-1.837,0.048-3.32-0.664l2.058-2.329L205.739,433.22z"/>
				<polygon id="XMLID_3726_" style="fill:#F5F5F5;" points="213.135,432.887 215.047,433.749 217.624,432.503 215.047,433.991 				
					"/>
				<path id="XMLID_3725_" style="fill:#F5F5F5;" d="M190.37,420.061c6.777-4.117,17.342-4.526,17.342-4.526
					c-6.644,0-12.871,1.487-17.538,4.183c-4.478,2.584-6.939,5.948-6.939,9.485C183.235,429.203,183.477,424.249,190.37,420.061z"/>
				<path id="XMLID_3724_" style="fill:#F5F5F5;" d="M205.739,443.935c7.192,0.319,14.573-1.109,20.074-4.284
					c5.72-3.303,8.167-7.779,7.34-12.086c0,0,1.068,7.019-7.772,11.823C216.539,444.19,205.739,443.935,205.739,443.935z"/>
			</g>
		</g>
		<g id="XMLID_794_">
			<g id="XMLID_3719_">
				<path id="XMLID_3720_" style="fill:#27DEBF;" d="M233.455,422.012c-1.224-2.066-3.26-4.006-6.114-5.654
					c-9.996-5.771-26.201-5.771-36.197,0c-2.854,1.648-4.89,3.589-6.114,5.654h-1.383v5.229h0.018
					c0.184,3.636,2.672,7.24,7.479,10.015c9.995,5.771,26.202,5.771,36.197,0c4.807-2.775,7.313-6.379,7.497-10.015v0v-5.229
					H233.455z"/>
			</g>
			<g id="XMLID_3668_" style="opacity:0.25;">
				<g>
					<path id="XMLID_16_" d="M233.455,422.012c-1.224-2.066-3.26-4.006-6.114-5.654c-9.996-5.771-26.201-5.771-36.197,0
						c-2.854,1.648-4.89,3.589-6.114,5.654h-1.383v5.229h0.018c0.184,3.636,2.672,7.24,7.479,10.015
						c9.995,5.771,26.202,5.771,36.197,0c4.807-2.775,7.313-6.379,7.497-10.015v0v-5.229H233.455z"/>
				</g>
			</g>
			<path id="XMLID_3667_" style="opacity:0.1;" d="M209.244,412.029c-6.551,0-13.102,1.443-18.1,4.328
				c-2.854,1.648-4.89,3.589-6.114,5.654h-1.383v5.229h0.018c0.184,3.636,2.673,7.24,7.479,10.015
				c4.998,2.886,11.549,4.328,18.1,4.328V412.029z"/>
			<path id="XMLID_3666_" style="opacity:0.1;" d="M195.264,414.428c-1.457,0.55-2.84,1.191-4.12,1.929
				c-2.854,1.648-4.89,3.589-6.114,5.654h-1.383v5.229h0.018c0.184,3.636,2.673,7.24,7.479,10.015
				c1.279,0.739,2.663,1.38,4.12,1.929V414.428z"/>
			<path id="XMLID_3665_" style="opacity:0.5;fill:#27DEBF;" d="M223.221,414.428c1.457,0.55,2.84,1.191,4.12,1.929
				c2.854,1.648,4.89,3.589,6.114,5.654h1.383v5.229v0c-0.184,3.636-2.69,7.24-7.497,10.015c-1.279,0.739-2.663,1.38-4.12,1.929
				V414.428z"/>
			<g id="XMLID_1271_">
				<path id="XMLID_3663_" style="fill:#27DEBF;" d="M227.341,411.565c-9.996-5.771-26.201-5.771-36.197,0
					c-9.995,5.771-9.995,15.127,0,20.898c9.995,5.771,26.202,5.771,36.197,0C237.337,426.692,237.337,417.336,227.341,411.565z"/>
				<path id="XMLID_3661_" style="opacity:0.2;" d="M227.341,411.565c-9.996-5.771-26.201-5.771-36.197,0
					c-9.995,5.771-9.995,15.127,0,20.898c9.995,5.771,26.202,5.771,36.197,0C237.337,426.692,237.337,417.336,227.341,411.565z"/>
				<g id="XMLID_1334_">
					<path id="XMLID_3660_" style="fill:#27DEBF;" d="M221.029,415.389c-3.166-1.62-7.349-2.514-11.788-2.514
						c-4.434,0-8.622,0.894-11.783,2.514c-3.351,1.717-5.196,4.073-5.196,6.627c0,2.554,1.845,4.905,5.196,6.623
						c3.162,1.625,7.349,2.519,11.783,2.519c4.439,0,8.622-0.894,11.788-2.519c3.346-1.717,5.192-4.069,5.192-6.623
						C226.221,419.462,224.376,417.106,221.029,415.389z"/>
					<path id="XMLID_3659_" style="opacity:0.4;" d="M221.029,415.389c-3.166-1.62-7.349-2.514-11.788-2.514
						c-4.434,0-8.622,0.894-11.783,2.514c-3.351,1.717-5.196,4.073-5.196,6.627c0,2.554,1.845,4.905,5.196,6.623
						c3.162,1.625,7.349,2.519,11.783,2.519c4.439,0,8.622-0.894,11.788-2.519c3.346-1.717,5.192-4.069,5.192-6.623
						C226.221,419.462,224.376,417.106,221.029,415.389z"/>
					<path id="XMLID_3656_" style="fill:#27DEBF;" d="M226.785,412.531c-4.667-2.696-10.899-4.183-17.544-4.183
						c-6.644,0-12.871,1.487-17.538,4.183c-4.478,2.584-6.939,5.948-6.939,9.485c0,3.531,2.462,6.901,6.939,9.485
						c4.667,2.69,10.894,4.177,17.538,4.177c6.644,0,12.876-1.487,17.544-4.177c4.472-2.584,6.939-5.954,6.939-9.485
						C233.724,418.479,231.257,415.115,226.785,412.531z M221.029,428.638c-3.166,1.625-7.349,2.519-11.788,2.519
						c-4.434,0-8.622-0.894-11.783-2.519c-3.351-1.717-5.196-4.069-5.196-6.623c0-2.554,1.845-4.91,5.196-6.627
						c3.162-1.62,7.349-2.514,11.783-2.514c4.439,0,8.622,0.894,11.788,2.514c3.346,1.717,5.192,4.073,5.192,6.627
						C226.221,424.57,224.376,426.921,221.029,428.638z"/>
				</g>
			</g>
			<g id="XMLID_1242_">
				<ellipse id="XMLID_1252_" style="opacity:0.2;" cx="209.242" cy="422.013" rx="16.098" ry="8.261"/>
				<ellipse id="XMLID_1249_" style="fill:#27DEBF;" cx="209.242" cy="422.013" rx="16.098" ry="8.261"/>
				<ellipse id="XMLID_1247_" style="opacity:0.6;" cx="209.242" cy="422.013" rx="16.098" ry="8.261"/>
				<path id="XMLID_1246_" style="fill:#27DEBF;" d="M220.625,418.36c-6.287-3.226-16.48-3.226-22.766,0
					c-2.599,1.334-4.121,3.011-4.57,4.747c0.45,1.736,1.971,3.413,4.571,4.747c6.287,3.226,16.48,3.226,22.766,0
					c2.6-1.334,4.121-3.011,4.571-4.747C224.747,421.371,223.225,419.694,220.625,418.36z"/>
				<path id="XMLID_1244_" style="opacity:0.5;" d="M220.625,418.36c-6.287-3.226-16.48-3.226-22.766,0
					c-2.599,1.334-4.121,3.011-4.57,4.747c0.45,1.736,1.971,3.413,4.571,4.747c6.287,3.226,16.48,3.226,22.766,0
					c2.6-1.334,4.121-3.011,4.571-4.747C224.747,421.371,223.225,419.694,220.625,418.36z"/>
			</g>
			<g id="XMLID_988_">
				<polygon id="XMLID_1022_" style="fill:#27DEBF;" points="210.767,416.297 210.767,418.658 209.961,419.509 208.471,421.069 
					208.471,418.613 				"/>
				<polygon id="XMLID_1020_" style="opacity:0.3;" points="210.767,416.297 210.767,418.658 209.961,419.509 208.471,421.069 
					208.471,418.613 				"/>
				<path id="XMLID_1019_" style="fill:#27DEBF;" d="M208.471,418.611v1.393c-0.972,0.339-1.705,0.568-2.292,0.651
					c-0.367,0.046-0.688,0.046-0.981-0.037c-0.165-0.046-0.311-0.11-0.467-0.193c-0.568-0.339-0.66-0.843,0.422-1.467
					C206.298,418.29,207.481,418.225,208.471,418.611z"/>
				<path id="XMLID_1015_" style="opacity:0.45;" d="M208.471,418.611v1.393c-0.972,0.339-1.705,0.568-2.292,0.651
					c-0.367,0.046-0.688,0.046-0.981-0.037c-0.165-0.046-0.311-0.11-0.467-0.193c-0.568-0.339-0.66-0.843,0.422-1.467
					C206.298,418.29,207.481,418.225,208.471,418.611z"/>
				<path id="XMLID_1013_" style="fill:#27DEBF;" d="M219.156,425.315v2.037l-2.581,1.49l-1.91-1.104
					c-2.028,0.878-4.676,1.369-7.394,0.333v-2.039l1.173-1.164l-1.173,0.324c-1.852,0.427-3.791,0.478-5.759-0.659
					c-1.158-0.667-1.695-1.398-1.693-2.15v-1.984l0.209-0.867l-0.704-0.41v-2.04l1.91,1.104c-0.932,0.723-1.427,1.467-1.415,2.19
					v0.023c0.021,0.733,0.563,1.444,1.693,2.097c2.511,1.45,4.999,0.972,7.278,0.24c2.119-0.692,3.663-1.504,4.885-0.799
					c0.758,0.439,0.528,0.971-0.323,1.465c-1.359,0.783-2.834,0.545-3.64,0.211l-2.44,2.42c0.452,0.174,0.903,0.302,1.349,0.396
					c2.233,0.468,4.355,0.004,6.045-0.727l1.91,1.104L219.156,425.315z"/>
				<path id="XMLID_1007_" style="opacity:0.35;" d="M199.819,420.376v0.023c0.021,0.733,0.563,1.444,1.693,2.097
					c2.511,1.45,4.999,0.972,7.278,0.24c2.119-0.692,3.663-1.504,4.885-0.799c0.758,0.439,0.528,0.971-0.323,1.465
					c-1.359,0.783-2.834,0.545-3.64,0.211l-2.44,2.42c0.452,0.174,0.903,0.302,1.349,0.396c2.233,0.468,4.355,0.004,6.045-0.727
					l1.91,1.104l2.581-1.489v2.037l-2.581,1.49l-1.91-1.104c-2.028,0.878-4.676,1.369-7.394,0.333v-2.039l1.173-1.164l-1.173,0.324
					c-1.852,0.427-3.791,0.478-5.759-0.659c-1.158-0.667-1.695-1.398-1.693-2.15v-1.984l0.209-0.867"/>
				<path id="XMLID_1005_" style="opacity:0.45;" d="M199.324,417.082v2.04l0.704,0.41l-0.004,0.006
					c0.226-0.452,0.635-0.906,1.21-1.352L199.324,417.082z"/>
				<g id="XMLID_1000_">
					<path id="XMLID_1001_" style="fill:#27DEBF;" d="M218.728,423.982c0,0.376-0.073,0.706-0.192,0.972l-1.292-0.742
						c0,0,1.301-0.532,1.466-1.962C218.719,422.809,218.728,423.927,218.728,423.982z"/>
				</g>
				<g id="XMLID_998_" style="opacity:0.3;">
					<path id="XMLID_999_" d="M218.728,423.982c0,0.376-0.073,0.706-0.192,0.972l-1.292-0.742c0,0,1.301-0.532,1.466-1.962
						C218.719,422.809,218.728,423.927,218.728,423.982z"/>
				</g>
				<g id="XMLID_995_">
					<path id="XMLID_996_" style="fill:#27DEBF;" d="M218.724,425.067l-1.478-0.857c0,0,1.478-0.608,1.478-2.264
						c0-0.07-0.007-0.134-0.013-0.198c-0.064-0.704-0.582-1.388-1.65-2.002c0-0.007,0-0.007,0-0.007
						c-1.139-0.652-2.303-0.895-3.435-0.895c-0.096,0-0.198,0.006-0.294,0.006H213.3c-0.102,0.006-0.205,0.013-0.307,0.019
						c-0.09,0.007-0.179,0.013-0.269,0.026c-0.038,0.006-0.077,0.006-0.109,0.013c-0.07,0.006-0.141,0.013-0.205,0.026
						c-0.576,0.077-1.132,0.205-1.669,0.345c-0.262,0.07-0.524,0.147-0.78,0.23c-0.371,0.115-0.736,0.237-1.081,0.352
						c-0.141,0.051-0.275,0.096-0.409,0.141c-0.972,0.339-1.701,0.576-2.29,0.652c-0.371,0.051-0.691,0.045-0.985-0.038
						c-0.16-0.045-0.313-0.109-0.46-0.192c-0.576-0.333-0.665-0.838,0.416-1.465c1.151-0.665,2.328-0.736,3.32-0.345l2.296-2.316
						c-2.207-0.716-4.58-0.595-6.927,0.384l-1.913-1.1l-2.603,1.503l1.913,1.1c-0.934,0.723-1.433,1.471-1.42,2.194v0.019
						c0.026,0.736,0.563,1.446,1.695,2.098c2.514,1.452,5.002,0.972,7.279,0.237c2.117-0.691,3.659-1.503,4.88-0.799
						c0.761,0.441,0.531,0.972-0.32,1.465c-1.356,0.787-2.834,0.55-3.64,0.211l-2.444,2.424c0.454,0.173,0.908,0.301,1.35,0.396
						c0.804,0.168,1.595,0.215,2.356,0.172c1.351-0.076,2.609-0.435,3.689-0.902l1.913,1.107l2.578-1.49L218.724,425.067z"/>
				</g>
				<polygon id="XMLID_994_" style="fill:#27DEBF;" points="214.664,425.7 214.664,427.738 216.575,428.841 216.575,426.804 				"/>
				<polygon id="XMLID_989_" style="opacity:0.45;" points="214.664,425.7 214.664,427.738 216.575,428.841 216.575,426.804 				"/>
			</g>
			<g id="XMLID_795_">
				<polygon id="XMLID_987_" style="fill:#F5F5F5;" points="199.324,417.084 201.927,415.581 203.84,416.681 201.944,415.888 				
					"/>
				<path id="XMLID_961_" style="fill:#F5F5F5;" d="M205.151,418.958c1.151-0.665,2.328-0.736,3.32-0.345l2.296-2.316l-2.296,2.077
					C208.471,418.374,206.639,417.675,205.151,418.958z"/>
				<path id="XMLID_960_" style="fill:#F5F5F5;" d="M207.268,426.033c0.454,0.173,0.908,0.301,1.35,0.396
					c0.804,0.168,1.595,0.215,2.356,0.172c0,0-1.837,0.048-3.32-0.664l2.058-2.329L207.268,426.033z"/>
				<polygon id="XMLID_852_" style="fill:#F5F5F5;" points="214.664,425.7 216.575,426.562 219.153,425.316 216.575,426.804 				"/>
				<path id="XMLID_824_" style="fill:#F5F5F5;" d="M191.899,412.874c6.777-4.117,17.342-4.526,17.342-4.526
					c-6.644,0-12.871,1.487-17.538,4.183c-4.478,2.584-6.939,5.948-6.939,9.485C184.764,422.016,185.006,417.062,191.899,412.874z"
					/>
				<path id="XMLID_805_" style="fill:#F5F5F5;" d="M207.268,436.748c7.192,0.32,14.573-1.109,20.074-4.284
					c5.72-3.302,8.167-7.779,7.34-12.086c0,0,1.068,7.019-7.772,11.823C218.068,437.003,207.268,436.748,207.268,436.748z"/>
			</g>
		</g>
	</g>
</g>
<g id="Money">
	<g id="Money_2_">
		<g id="XMLID_414_">
			<g id="XMLID_742_">
				<polygon id="XMLID_791_" style="fill:#27DEBF;" points="184.865,392.747 90.917,338.51 43.945,365.629 137.893,419.866 				"/>
				<path id="XMLID_780_" style="opacity:0.4;" d="M48.888,365.63l89.005,51.382l42.029-24.265l-89.004-51.382L48.888,365.63z
					 M51.361,365.629l39.556-22.838l86.532,49.955l-39.556,22.838L51.361,365.629z"/>
				<g id="XMLID_757_">
					<g id="XMLID_766_" style="opacity:0.4;">
						<g>
							<path id="XMLID_24_" d="M116.16,393.233c-6.402,0-12.973-1.479-18.035-4.401l0,0c-4.93-2.846-7.757-6.728-7.757-10.653
								c0-3.598,2.316-6.917,6.521-9.344c8.977-5.183,24.138-4.863,33.797,0.714c4.93,2.846,7.757,6.729,7.757,10.654
								c0,3.598-2.316,6.917-6.521,9.344C127.648,392.012,121.973,393.233,116.16,393.233z M112.651,365.976
								c-5.662,0-11.184,1.187-15.341,3.587c-3.934,2.271-6.1,5.331-6.1,8.616c0,3.616,2.674,7.233,7.337,9.925l0,0
								c9.426,5.442,24.209,5.763,32.954,0.714c3.934-2.272,6.1-5.331,6.1-8.616c0-3.616-2.674-7.234-7.336-9.926
								C125.319,367.422,118.899,365.976,112.651,365.976z"/>
						</g>
					</g>
					<g id="XMLID_759_" style="opacity:0.2;">
						<path id="XMLID_764_" d="M116.156,390.202c-6.084,0-12.102-1.46-16.51-4.006c-3.963-2.288-6.235-5.21-6.235-8.018
							c0-2.465,1.775-4.848,4.999-6.709c3.677-2.123,8.735-3.293,14.242-3.293c6.084,0,12.102,1.46,16.511,4.006
							c3.963,2.288,6.236,5.211,6.236,8.019c0,2.465-1.775,4.847-5,6.708C126.723,389.033,121.665,390.202,116.156,390.202z"/>
					</g>
				</g>
				<g id="XMLID_749_">
					<path id="XMLID_754_" style="opacity:0.2;" d="M132.946,410.565l-25.825-14.999l2.069,0.266
						c1.834,0.236,3.708,0.356,5.57,0.356c6.753,0,13.89-2.376,17.967-4.73c4.57-2.637,9.181-7.357,9.181-11.958
						c0-1.563-0.352-3.121-1.045-4.633l-0.553-1.205l28.28,16.418l-3.1,1.793c-0.527,0.302-0.817,0.679-0.817,1.06
						c-0.001,0.383,0.289,0.761,0.816,1.066l3.105,1.789l-25.76,14.776l-2.68-1.544c-1.247-0.721-3.279-0.724-4.529-0.007
						L132.946,410.565z"/>
					<g id="XMLID_751_">
						<path id="XMLID_752_" style="fill:#27DEBF;" d="M144.314,400.083c-1.532,0-3.103-0.353-4.312-1.051
							c-1.238-0.714-1.947-1.71-1.947-2.732c0-0.948,0.591-1.811,1.663-2.43c2.154-1.245,5.789-1.172,8.1,0.164
							c1.237,0.714,1.947,1.71,1.947,2.732c0,0.949-0.59,1.812-1.663,2.431C147.075,399.789,145.711,400.083,144.314,400.083z"/>
					</g>
				</g>
				<g id="XMLID_743_">
					<path id="XMLID_747_" style="opacity:0.2;" d="M88.564,384.686l-28.226-16.257l3.103-1.789
						c0.524-0.304,0.813-0.682,0.812-1.065c0-0.382-0.288-0.758-0.811-1.059l-3.106-1.799l25.715-14.645l2.679,1.552
						c1.225,0.705,3.297,0.706,4.522-0.001l2.68-1.551l25.819,14.86l-2.093-0.27c-1.826-0.236-3.702-0.356-5.575-0.356
						c-6.118,0-13.426,1.849-18.186,4.599c-5.947,3.432-8.962,7.114-8.962,10.943c0,1.602,0.406,4.152,1.086,5.646L88.564,384.686z"
						/>
					<g id="XMLID_744_">
						<path id="XMLID_745_" style="fill:#27DEBF;" d="M85.194,366.086c-1.532,0-3.103-0.353-4.313-1.051l0,0
							c-1.237-0.714-1.947-1.71-1.947-2.732c0-0.949,0.59-1.812,1.663-2.43c2.155-1.245,5.789-1.171,8.1,0.164
							c1.237,0.714,1.947,1.71,1.947,2.732c0,0.949-0.59,1.812-1.663,2.431C87.954,365.792,86.59,366.086,85.194,366.086z"/>
					</g>
				</g>
			</g>
			<g id="XMLID_532_">
				<polygon id="XMLID_604_" style="fill:#27DEBF;" points="184.865,392.747 184.865,404.167 137.893,431.287 137.893,419.866 				
					"/>
				<g id="XMLID_544_" style="opacity:0.1;">
					<polygon id="XMLID_545_" points="184.865,392.747 184.865,404.167 137.893,431.287 137.893,419.866 					"/>
				</g>
				<g id="XMLID_533_" style="opacity:0.1;">
					<polygon id="XMLID_538_" points="137.893,422.412 152.724,414.16 137.89,423.105 					"/>
					<polygon id="XMLID_536_" points="184.864,398.17 179.919,401.314 184.862,398.747 					"/>
					<polygon id="XMLID_535_" points="184.863,400.892 160.145,415.584 184.863,401.732 					"/>
					<polygon id="XMLID_534_" points="137.89,425.13 162.613,411.305 137.89,426.027 					"/>
				</g>
			</g>
			<g id="XMLID_446_">
				<polygon id="XMLID_531_" style="fill:#27DEBF;" points="137.893,431.287 43.944,377.049 43.945,365.629 137.893,419.866 				"/>
				<g id="XMLID_528_" style="opacity:0.2;">
					<polygon id="XMLID_530_" points="137.893,431.287 43.944,377.049 43.945,365.629 137.893,419.866 					"/>
				</g>
				<g id="XMLID_447_">
					<g id="XMLID_521_" style="opacity:0.3;">
						<polygon id="XMLID_525_" points="137.893,422.412 132.941,419.866 137.89,423.105 						"/>
					</g>
					<g id="XMLID_519_" style="opacity:0.3;">
						<polygon id="XMLID_520_" points="137.89,425.13 113.033,411.237 137.89,426.027 						"/>
					</g>
					<g id="XMLID_516_" style="opacity:0.3;">
						<polygon id="XMLID_518_" points="43.944,371.004 61.251,381.331 43.945,371.675 						"/>
					</g>
					<g id="XMLID_454_" style="opacity:0.3;">
						<polygon id="XMLID_466_" points="43.944,373.874 53.834,379.903 43.945,374.514 						"/>
					</g>
				</g>
			</g>
		</g>
		<g id="XMLID_287_">
			<g>
				<polygon id="XMLID_406_" style="fill:#455A64;" points="145.207,367.954 96.598,396.024 82.637,387.968 131.241,359.895 				"/>
				<polygon id="XMLID_376_" style="fill:#37474F;" points="82.637,387.968 82.637,400.391 96.598,408.448 96.598,396.024 				"/>
				<polygon id="XMLID_372_" style="fill:#263238;" points="96.598,408.448 97.467,407.945 96.598,407.444 				"/>
				<polygon id="XMLID_362_" style="fill:#263238;" points="145.207,367.954 145.207,369.851 143.566,368.902 				"/>
			</g>
			<g id="XMLID_354_" style="opacity:0.3;">
				<polygon id="XMLID_361_" points="97.466,407.94 97.466,396.528 96.598,396.024 96.598,407.439 				"/>
			</g>
			<g id="XMLID_316_" style="opacity:0.2;">
				<polygon id="XMLID_348_" points="97.466,396.528 144.435,369.405 143.566,368.902 96.598,396.024 				"/>
			</g>
			<g>
				<polygon id="XMLID_309_" style="fill:#FAFAFA;" points="133.609,361.26 84.994,389.326 84.24,388.894 132.849,360.832 				"/>
				<polygon id="XMLID_289_" style="fill:#E0E0E0;" points="84.994,389.326 84.994,401.746 84.235,401.314 84.24,388.894 				"/>
				<polygon id="XMLID_273_" style="fill:#FAFAFA;" points="143.628,367.022 95.012,395.087 94.258,394.656 142.868,366.594 				"/>
				<polygon id="XMLID_265_" style="fill:#E0E0E0;" points="95.012,395.087 95.012,407.508 94.253,407.075 94.258,394.656 				"/>
			</g>
		</g>
	</g>
</g>
<g id="Character">
	<g id="Character_3_">
		<g id="Character_18_">
			<g>
				<path style="fill:#FFA8A7;" d="M388.014,111.562c-7.354-0.624-10.817,1.369-14.063,8.239
					c-2.808,5.941-10.25,25.32-10.825,28.561c-0.515,2.899,4.633,17.778,4.633,17.778l10.675-2.035l-4.053-12.848l10.175-23.12
					L388.014,111.562z"/>
				<path style="fill:#27DEBF;" d="M389.352,111.562c-5.546-0.926-9.639-2.081-13.311,2.425
					c-3.672,4.506-11.941,28.881-12.948,31.713c-1.007,2.832-0.522,4.903,1.604,10.752c0,0,6.888-3.402,11.188-1.235l-1.281-4.258
					l11.004-23.278L389.352,111.562z"/>
				<path style="opacity:0.15;" d="M389.352,111.562c-5.546-0.926-9.639-2.081-13.311,2.425
					c-3.672,4.506-11.941,28.881-12.948,31.713c-1.007,2.832-0.522,4.903,1.604,10.752c0,0,6.888-3.402,11.188-1.235l-1.281-4.258
					l11.004-23.278L389.352,111.562z"/>
			</g>
			<g>
				<path id="XMLID_3846_" style="fill:#37474F;" d="M426.45,302.344c0.64,3.044,1.009,4.439,1.496,8.223
					c0.4,3.112,0.648,5.417,1.554,10.731c0.826,4.848,1.45,8.551-1.974,12.196c-3.012,3.205-8.325,4.437-10.073,0.792
					c-1.998-4.168-1.737-10.927-1.467-15.139c0.27-4.212,0.208-5.442,0.242-8.795c0.03-2.955,0.178-4.164,0.34-6.712
					C419.801,303.471,423.216,302.596,426.45,302.344z"/>
				<path style="fill:#FFA8A7;" d="M426.45,302.344c-0.046-3.961,0.004-9.226,0.362-16.207c0.417-8.129,0.475-14.466,0.443-23.074
					c-0.024-6.525-0.366-12.286-2.676-24.783c2.447-25.089,3.34-51.023,0.377-60.556c-2.544-8.183-5.134-10.913-7.424-14.914
					c-1.191-2.071-3.365-5.149-3.365-7.927c0,0-7.901,3.435-18.126,3.527c-11.632,0.107-15.698-3.051-15.698-3.051
					s-5.246,60.79-4.152,80.632c0.647,11.741,1.592,29.122,1.941,37.661c0.269,6.587,1.029,15.159,0.959,18.792
					c-0.06,3.098-0.692,5.678-1.85,9.258c-1.073,3.316-2.258,6.267-3.81,9.388c-0.392,0.788-0.815,1.574-1.409,2.223
					c-0.751,0.82-1.301,1.402-2.603,2.525c-1.878,1.621-2.817,2.419-2.656,3.921c0.162,1.512,1.278,2.103,2.548,2.483
					c3.014,0.902,6.43,0.529,9.445-0.009c3.102-0.554,6.394-1.96,7.68-4.837c0.374-0.838,0.551-1.749,0.72-2.651
					c0.555-2.964,1.062-5.991,2.309-8.759c0.538-1.195,0.926-2.318,1.679-3.397c0.796-1.142,1.762-2.387,1.908-3.82
					c0.121-1.192-0.797-2.875-1.994-4.681c-0.009-0.013-0.017-0.026-0.026-0.039c-1.041-1.566-0.755-2.651-0.391-7.584
					c0.787-10.674,2.96-18.352,4.787-31.318c0.907-6.44,0.706-11.598-0.377-18.759c1.238-8.496,3.387-17.408,4.65-23.27
					c2.044,12.269,3.359,16.754,4.474,26.036c1.544,12.869,8.783,39.806,9.933,46.731c1.15,6.926,1.875,11.575,2.412,17.204
					c0.465,4.878,0.825,14.7,1.438,19.17c0.981,7.15,8.35,4.965,9.543-1.345C428.293,316.715,426.514,307.822,426.45,302.344z"/>
				<g>
					<path style="fill:#263238;" d="M390.639,318.028l-1.109-0.163c-0.072-3.488,0.128-6.678-0.737-8.322l1.582-4.28
						L390.639,318.028z"/>
					<path style="fill:#263238;" d="M393.372,302.146c-0.249,2.391-1.607,4.844-1.706,9.554c-0.099,4.71,0.124,6.022,0.124,6.022
						l-1.151,0.306l-0.263-12.765L393.372,302.146z"/>
					<path style="fill:#263238;" d="M367.064,321.237c0,0,0.053,1.396,0.655,1.851c0.601,0.456,1.865,1.837,8.004,1.474
						c6.139-0.363,8.288-1.877,10.385-3.791c2.097-1.914,2.65-6.939,2.963-9.309c0.607-4.594,2.518-7,4.301-9.315
						c0.5-1.131,0.18-2.384,0.18-2.384s-3.556,0.592-5.754,6.212c-2.198,5.62-5.434,11.272-10.398,12.832
						C372.437,320.366,367.064,321.237,367.064,321.237z"/>
					<path style="fill:#37474F;" d="M393.015,296.269c-0.871-1.542-1.673-1.976-2.515-3.306c-0.886,0.636-1.606,2.011-1.981,3.239
						c-0.375,1.227-1.359,7.252-2.841,12.047c-1.113,3.598-2.981,5.505-5.551,6.485c-1.605,0.612-3.356,0.8-5.058,0.569
						c-0.008-0.001-0.016-0.002-0.024-0.003c-3.188-0.439-2.444-2.734-2.444-2.734c-0.74,1.014-3.779,3.498-5.58,5.322
						c-1.023,1.036-0.543,2.61,0.233,3.621c0.888,0.765,2.967,2.298,10.588,1.192c6.765-0.981,8.349-4.107,8.99-5.517
						c0.49-1.077,0.91-3.383,1.404-6.35c0.394-2.365,1.171-4.661,2.373-6.736c0.152-0.262,0.301-0.505,0.444-0.715l0,0c0,0,0,0,0,0
						c0.455-0.67,0.994-1.41,1.602-2.147c0.472-0.572,0.843-0.84,0.983-1.385C393.777,298.533,393.775,297.614,393.015,296.269z"/>
				</g>
				<g>
					<path style="fill:#455A64;" d="M378.343,277.809c-0.083-1.428-0.157-2.833-0.211-4.157c-0.349-8.54-1.294-25.92-1.941-37.661
						c-1.094-19.841,4.152-80.632,4.152-80.632s4.066,3.159,15.698,3.051c10.225-0.092,18.126-3.527,18.126-3.527
						c0,2.778,2.174,5.856,3.365,7.927c2.29,4.001,4.88,6.732,7.424,14.914c2.964,9.533,2.07,35.467-0.377,60.556
						c2.31,12.497,2.783,18.727,2.807,25.252c0.032,8.609-0.085,13.007-0.502,21.137c-4.129,3.087-12.778,1.217-12.778,1.217
						c-1.15-6.926-8.388-33.862-9.933-46.731c-1.114-9.282-2.429-13.768-4.474-26.036l-4.65,23.27
						c1.082,7.161,1.284,12.319,0.377,18.759c-1.328,9.43-2.84,16.063-3.868,23.086
						C389.717,280.164,381.091,280.668,378.343,277.809z"/>
					<path style="fill:#37474F;" d="M380.054,153.468l-0.117,6.762c0,0,4.454,3.411,12.632,3.956
						c8.177,0.545,19.656-2.672,22.834-5.074c0,0-1.475-2.761-0.859-6.541c0,0-8.813,5.073-20.261,4.528
						C382.833,156.554,380.054,153.468,380.054,153.468z"/>
					<path style="fill:#37474F;" d="M399.7,213.117l-4.788-28.197c0,0-7.46-1.902-11.424-8.038
						c0.621,1.947,2.044,7.414,8.672,10.232l5.353,26.398l-2.051,20.224L399.7,213.117z"/>
				</g>
			</g>
			<g id="XMLID_3843_">
				<path id="XMLID_3844_" style="fill:#27DEBF;" d="M378.652,142.333c0.176,3.372,1.691,13.027,1.691,13.027
					c13.766,9.319,33.823-0.476,33.823-0.476l3.755-22.845c0,0-8.234-8.44-1.493-19.035l-10.923-0.701l-11.501-0.51l-5.991-0.229
					c-4.206,3.085-11.628,11.55-12.978,15.008C373.657,130.1,372.535,135.13,378.652,142.333z"/>
				<path style="opacity:0.1;fill:#263238;" d="M392.161,141.77c1.189,1.545,6.717,3.447,11.263,1.426
					c4.546-2.021,6.091-5.824,6.329-8.32c0,0,1.298,7.013-5.71,9.866C397.034,147.595,392.517,143.316,392.161,141.77z"/>
			</g>
			<g>
				<path style="fill:#263238;" d="M417.154,85.021c0-0.047,0.005-0.088,0.005-0.136c0-0.1-0.006-0.196-0.008-0.295
					c0-0.071-0.001-0.147-0.001-0.216l-0.004-0.001c-0.283-12.712-10.98-18.937-21.69-18.937h0c-7.197,0-13.491,3.795-16.915,9.457
					c-6.197,1.593-4.61,10.181,1.59,11.718l0.023,0.078c0,2.123,0.005,4.364,0.019,6.388c0.042,6.466-4.203,8.802-4.203,8.802
					s6.584,8.391,24.661,7.498C418.209,108.51,417.222,92.825,417.154,85.021z"/>
				<path id="XMLID_3841_" style="fill:#263238;" d="M412.109,66.015l-1.022,5.45c1.555,0.333,3.044-0.618,3.327-2.123
					C414.695,67.837,413.664,66.348,412.109,66.015z"/>
				<path id="XMLID_3840_" style="fill:#263238;" d="M417.153,70.554l-5.616,0.605c0.122,1.557,1.478,2.683,3.029,2.516
					C416.117,73.507,417.275,72.11,417.153,70.554z"/>
				<g id="XMLID_3796_">
					<g id="XMLID_3797_">
						<g id="XMLID_3838_">
							<path id="XMLID_3839_" style="fill:#FFA8A7;" d="M405.499,113.003V97.115c0,0,2.047,2.032,5.039-0.162
								c2.684-1.967,3.806-6.191,1.926-8.367c-1.333-1.542-5.458-2.39-7.073,0.929c0,0-4.779-0.23-11.017-4.66
								c-6.349-4.507-7.723-8.339-11.548-8.777c-1.796,1.371-3.54,5.407-3.356,16.059c0.137,7.881,3.667,11.645,5.469,12.997
								c1.47,1.103,3.345,1.258,6.524,0.738v7.467l-3.513,14.342L405.499,113.003z"/>
						</g>
						<path style="fill:#263238;" d="M405.392,88.783v4.369l0,0c-1.719,0-3.112-1.367-3.112-3.052v-4.219L405.392,88.783z"/>
						<g id="XMLID_3836_">
							<path id="XMLID_3837_" style="fill:#263238;" d="M393.729,89.448c-0.042,0.81,0.569,1.496,1.363,1.533
								c0.795,0.037,1.473-0.589,1.514-1.399c0.041-0.81-0.569-1.496-1.364-1.533C394.448,88.012,393.771,88.638,393.729,89.448z"/>
						</g>
						<g id="XMLID_3834_">
							<path id="XMLID_3835_" style="fill:#263238;" d="M381.203,85.368l2.964-2.05c-0.551-0.831-1.661-1.045-2.48-0.479
								C380.869,83.405,380.652,84.537,381.203,85.368z"/>
						</g>
						<g id="XMLID_3832_">
							<path id="XMLID_3833_" style="fill:#F28F8F;" d="M395.039,97.177l-4.096,1.552c0.407,1.141,1.654,1.718,2.785,1.289
								C394.859,99.59,395.446,98.318,395.039,97.177z"/>
						</g>
						<g id="XMLID_3813_">
							<path id="XMLID_3814_" style="fill:#263238;" d="M382.728,88.52c-0.042,0.81,0.569,1.496,1.364,1.533
								c0.795,0.037,1.472-0.589,1.514-1.399c0.042-0.81-0.569-1.496-1.364-1.533C383.448,87.083,382.77,87.71,382.728,88.52z"/>
						</g>
						<g id="XMLID_3803_">
							<polygon id="XMLID_3804_" style="fill:#F28F8F;" points="390.129,87.79 389.921,95.524 385.772,94.263 							"/>
						</g>
						<g id="XMLID_3798_">
							<path id="XMLID_3799_" style="fill:#F28F8F;" d="M391.464,105.873c3.349-0.431,10.24-2.372,11.314-5.045
								c0,0-0.358,1.679-2.416,3.41c-2.058,1.731-8.897,3.68-8.897,3.68V105.873z"/>
						</g>
					</g>
				</g>
				<path style="fill:#263238;" d="M400.564,65.918c-6.919-1.58-9.681,0.424-16.678-0.318c-2.875-0.305-5.498-0.439-7.42,0.529
					c-2.189,1.102-3.468,3.515-3.173,6.627c0.498,5.255,6.164,6.599,6.164,6.599s4.805-10.813,11.186-10.728
					C397.025,68.713,400.564,65.918,400.564,65.918z"/>
			</g>
		</g>
		<g id="Prints">
			<g id="Character_11_">
				<g>
					<g>
						<g>
							<polygon style="fill:#E0E0E0;" points="314.516,175.73 372.413,209.219 372.413,192.833 314.515,159.343 							"/>
						</g>
						<g>
							<polygon style="fill:#F0F0F0;" points="412.547,186.047 372.413,209.219 372.413,192.833 412.549,169.661 							"/>
						</g>
						<polygon style="fill:#FAFAFA;" points="314.515,159.344 354.652,136.173 412.549,169.661 372.413,192.833 						"/>
						<g>
							<path style="fill:#27DEBF;" d="M394.088,165.4c0.385-0.154,0.767-0.264,1.143-0.331c0.377-0.068,0.73-0.101,1.063-0.101
								c0.332,0,0.634,0.028,0.904,0.084c0.27,0.056,0.49,0.126,0.663,0.21c0.087,0.043,0.127,0.095,0.121,0.156
								c-0.007,0.062-0.048,0.113-0.121,0.156l-0.699,0.404c-0.113,0.066-0.22,0.102-0.32,0.11c-0.1,0.007-0.209,0.004-0.329-0.011
								c-0.266-0.038-0.563-0.035-0.889,0.011c-0.326,0.046-0.69,0.184-1.089,0.415c-0.173,0.1-0.318,0.206-0.439,0.317
								c-0.12,0.112-0.202,0.221-0.249,0.329c-0.047,0.108-0.054,0.209-0.021,0.305c0.033,0.096,0.115,0.181,0.24,0.254
								c0.153,0.089,0.314,0.139,0.484,0.153c0.171,0.013,0.37-0.007,0.604-0.06c0.233-0.054,0.507-0.138,0.824-0.251
								c0.315-0.114,0.697-0.253,1.142-0.419c0.486-0.18,0.926-0.317,1.318-0.409c0.393-0.092,0.758-0.142,1.099-0.15
								c0.339-0.008,0.654,0.028,0.943,0.107c0.29,0.079,0.572,0.197,0.845,0.355c0.259,0.15,0.453,0.319,0.58,0.507
								c0.126,0.188,0.184,0.389,0.174,0.602c-0.01,0.213-0.091,0.433-0.245,0.66c-0.153,0.227-0.379,0.454-0.678,0.68l0.679,0.392
								c0.073,0.042,0.109,0.094,0.109,0.155c0.001,0.062-0.036,0.114-0.109,0.156l-0.808,0.467
								c-0.074,0.043-0.163,0.064-0.271,0.063c-0.106,0-0.197-0.021-0.27-0.063l-0.679-0.392c-0.345,0.146-0.704,0.263-1.078,0.352
								c-0.372,0.089-0.737,0.144-1.094,0.164c-0.355,0.021-0.698,0.006-1.028-0.046c-0.33-0.052-0.627-0.147-0.894-0.285
								c-0.086-0.043-0.127-0.095-0.12-0.156c0.007-0.061,0.047-0.113,0.12-0.156l0.699-0.403c0.113-0.066,0.22-0.104,0.319-0.116
								c0.101-0.011,0.209-0.006,0.33,0.017c0.133,0.023,0.276,0.04,0.43,0.052c0.153,0.011,0.318,0.004,0.498-0.023
								c0.18-0.027,0.377-0.077,0.59-0.15c0.212-0.073,0.445-0.183,0.698-0.329c0.2-0.115,0.378-0.236,0.535-0.36
								c0.156-0.124,0.27-0.248,0.339-0.369c0.071-0.121,0.096-0.236,0.079-0.346c-0.017-0.109-0.101-0.208-0.254-0.296
								c-0.147-0.085-0.313-0.128-0.499-0.127c-0.186,0-0.408,0.035-0.664,0.107c-0.256,0.071-0.555,0.17-0.895,0.296
								c-0.338,0.127-0.738,0.27-1.197,0.427c-0.413,0.146-0.799,0.259-1.158,0.34c-0.36,0.081-0.701,0.122-1.024,0.124
								c-0.323,0.002-0.633-0.037-0.929-0.115c-0.296-0.079-0.595-0.205-0.894-0.378c-0.26-0.15-0.449-0.317-0.569-0.501
								c-0.121-0.185-0.179-0.378-0.179-0.582c-0.001-0.204,0.064-0.41,0.193-0.62c0.131-0.209,0.315-0.413,0.555-0.613
								l-0.679-0.392c-0.073-0.042-0.109-0.094-0.109-0.156s0.036-0.113,0.109-0.156l0.809-0.467
								c0.073-0.042,0.163-0.064,0.27-0.064c0.106,0,0.197,0.021,0.27,0.064L394.088,165.4z"/>
						</g>
					</g>
				</g>
			</g>
			<polygon style="opacity:0.1;" points="344.688,182.118 372.413,198.125 389.048,188.521 372.413,199.117 			"/>
			<path style="opacity:0.1;" d="M320.085,166.484c0,0-0.917,5.18-0.457,7.801c0,0,7.261-0.179,19.514,3.201L320.085,166.484z"/>
			<polygon style="fill:#FAFAFA;" points="320.085,166.484 339.142,177.487 318.057,171.4 			"/>
			<path style="opacity:0.1;" d="M344.688,184.492l20.893,19.209c0,0,0.58-2.641,4.59-4.496L344.688,184.492z"/>
			<polygon style="fill:#FAFAFA;" points="344.688,184.492 364.309,201.014 370.171,199.205 			"/>
			<path style="opacity:0.1;" d="M405.861,177.891c-0.109-0.169-0.177-0.26-0.177-0.26l-13.203,7.623l14.861-1.22
				C407.853,181.275,406.384,178.699,405.861,177.891z"/>
			<polygon style="fill:#FAFAFA;" points="392.481,185.254 405.684,177.631 410.08,179.95 			"/>
			<g style="opacity:0.3;">
				<g>
					<path style="fill:#455A64;" d="M324.716,161.813c-0.176,0-0.348-0.092-0.444-0.256c-0.141-0.245-0.057-0.558,0.188-0.699
						l23.86-13.809c0.244-0.139,0.557-0.057,0.7,0.187c0.141,0.245,0.057,0.558-0.188,0.699l-23.86,13.809
						C324.892,161.791,324.803,161.813,324.716,161.813z"/>
				</g>
				<g>
					<path style="fill:#455A64;" d="M330.261,165.014c-0.176,0-0.348-0.092-0.444-0.256c-0.141-0.245-0.057-0.558,0.188-0.699
						l23.86-13.808c0.243-0.14,0.557-0.057,0.7,0.187c0.141,0.245,0.057,0.558-0.188,0.699l-23.86,13.808
						C330.437,164.992,330.347,165.014,330.261,165.014z"/>
				</g>
				<g>
					<path style="fill:#455A64;" d="M335.806,168.216c-0.176,0-0.348-0.092-0.444-0.256c-0.142-0.245-0.057-0.558,0.188-0.699
						l23.86-13.808c0.244-0.141,0.557-0.057,0.7,0.187c0.141,0.245,0.057,0.558-0.188,0.699l-23.86,13.808
						C335.983,168.194,335.893,168.216,335.806,168.216z"/>
				</g>
				<g>
					<path style="fill:#455A64;" d="M341.352,171.418c-0.176,0-0.348-0.092-0.444-0.256c-0.141-0.245-0.057-0.558,0.188-0.699
						l23.858-13.808c0.239-0.14,0.555-0.059,0.7,0.187c0.142,0.245,0.057,0.558-0.188,0.699l-23.858,13.808
						C341.528,171.396,341.439,171.418,341.352,171.418z"/>
				</g>
				<g>
					<path style="fill:#455A64;" d="M346.897,174.619c-0.176,0-0.348-0.092-0.444-0.256c-0.141-0.245-0.057-0.558,0.188-0.699
						l23.86-13.808c0.243-0.141,0.557-0.057,0.7,0.187c0.141,0.245,0.057,0.558-0.188,0.699l-23.859,13.808
						C347.073,174.597,346.983,174.619,346.897,174.619z"/>
				</g>
				<g>
					<path style="fill:#455A64;" d="M352.442,177.821c-0.176,0-0.348-0.092-0.444-0.256c-0.141-0.245-0.057-0.558,0.188-0.699
						l23.858-13.808c0.244-0.141,0.557-0.057,0.7,0.187c0.141,0.245,0.057,0.558-0.188,0.699l-23.858,13.808
						C352.618,177.799,352.529,177.821,352.442,177.821z"/>
				</g>
				<g>
					<path style="fill:#455A64;" d="M357.987,181.023c-0.176,0-0.348-0.092-0.444-0.256c-0.141-0.245-0.057-0.558,0.188-0.699
						l23.86-13.809c0.244-0.14,0.557-0.057,0.7,0.187c0.141,0.245,0.057,0.558-0.188,0.699l-23.86,13.809
						C358.163,181.001,358.073,181.023,357.987,181.023z"/>
				</g>
			</g>
			<g style="opacity:0.3;">
				<g>
					<path style="fill:#455A64;" d="M352.57,145.771c-0.176,0-0.348-0.092-0.444-0.256c-0.141-0.245-0.057-0.558,0.188-0.699
						l5.417-3.167c0.244-0.139,0.557-0.057,0.7,0.187c0.141,0.245,0.057,0.558-0.188,0.699l-5.417,3.167
						C352.746,145.749,352.657,145.771,352.57,145.771z"/>
				</g>
				<g>
					<path style="fill:#455A64;" d="M358.114,148.972c-0.176,0-0.348-0.092-0.444-0.256c-0.141-0.245-0.057-0.558,0.188-0.699
						l5.417-3.166c0.243-0.14,0.557-0.057,0.7,0.187c0.141,0.245,0.057,0.558-0.188,0.699l-5.417,3.166
						C358.29,148.95,358.201,148.972,358.114,148.972z"/>
				</g>
				<g>
					<path style="fill:#455A64;" d="M363.66,152.173c-0.176,0-0.348-0.092-0.444-0.256c-0.141-0.245-0.057-0.558,0.188-0.699
						l5.417-3.167c0.244-0.141,0.557-0.057,0.7,0.187c0.141,0.245,0.057,0.558-0.188,0.699l-5.417,3.166
						C363.836,152.152,363.747,152.173,363.66,152.173z"/>
				</g>
				<g>
					<path style="fill:#455A64;" d="M369.206,155.376c-0.176,0-0.348-0.092-0.444-0.256c-0.141-0.245-0.057-0.558,0.188-0.699
						l5.415-3.167c0.239-0.14,0.555-0.059,0.7,0.187c0.141,0.245,0.057,0.558-0.188,0.699l-5.415,3.167
						C369.382,155.354,369.292,155.376,369.206,155.376z"/>
				</g>
				<g>
					<path style="fill:#455A64;" d="M374.75,158.577c-0.176,0-0.348-0.092-0.444-0.256c-0.141-0.245-0.057-0.558,0.188-0.699
						l5.417-3.166c0.243-0.141,0.557-0.057,0.7,0.187c0.141,0.245,0.057,0.558-0.188,0.699l-5.417,3.166
						C374.926,158.555,374.837,158.577,374.75,158.577z"/>
				</g>
				<g>
					<path style="fill:#455A64;" d="M380.296,161.779c-0.176,0-0.348-0.092-0.444-0.256c-0.141-0.245-0.057-0.558,0.188-0.699
						l5.415-3.167c0.244-0.141,0.557-0.057,0.7,0.187c0.141,0.245,0.057,0.558-0.188,0.699l-5.415,3.167
						C380.472,161.757,380.382,161.779,380.296,161.779z"/>
				</g>
				<g>
					<path style="fill:#455A64;" d="M385.84,164.981c-0.176,0-0.348-0.092-0.444-0.256c-0.141-0.245-0.057-0.558,0.188-0.699
						l5.417-3.167c0.244-0.14,0.557-0.057,0.7,0.187c0.141,0.245,0.057,0.558-0.188,0.699l-5.417,3.167
						C386.016,164.959,385.927,164.981,385.84,164.981z"/>
				</g>
			</g>
			<g>
				<g>
					<polygon style="fill:#455A64;" points="375.974,178.211 380.379,180.754 381.011,180.388 376.607,177.846 					"/>
				</g>
				<g>
					<polygon style="fill:#455A64;" points="380.863,175.388 385.267,177.931 385.9,177.566 381.496,175.023 					"/>
				</g>
				<g>
					<polygon style="fill:#455A64;" points="384.966,173.02 389.37,175.563 389.78,175.326 385.376,172.783 					"/>
				</g>
				<g>
					<polygon style="fill:#455A64;" points="378.485,176.762 382.889,179.305 383.206,179.122 378.801,176.579 					"/>
				</g>
				<g>
					<polygon style="fill:#455A64;" points="381.934,174.77 386.338,177.313 386.655,177.13 382.25,174.587 					"/>
				</g>
				<g>
					<polygon style="fill:#455A64;" points="384.158,173.486 388.563,176.029 388.879,175.846 384.475,173.303 					"/>
				</g>
				<g>
					<polygon style="fill:#455A64;" points="377.098,177.562 381.502,180.105 382.626,179.456 378.222,176.913 					"/>
				</g>
				<g>
					<polygon style="fill:#455A64;" points="379.345,176.265 383.749,178.808 384.874,178.158 380.47,175.615 					"/>
				</g>
				<g>
					<polygon style="fill:#455A64;" points="382.718,174.318 387.122,176.86 387.89,176.418 383.486,173.875 					"/>
				</g>
				<g>
					<polygon style="fill:#455A64;" points="365.543,184.234 369.947,186.777 370.58,186.411 366.175,183.868 					"/>
				</g>
				<g>
					<polygon style="fill:#455A64;" points="370.431,181.411 374.836,183.954 375.468,183.589 371.064,181.046 					"/>
				</g>
				<g>
					<polygon style="fill:#455A64;" points="374.534,179.042 378.939,181.585 379.571,181.22 375.167,178.677 					"/>
				</g>
				<g>
					<polygon style="fill:#455A64;" points="368.053,182.784 372.457,185.327 372.774,185.145 368.369,182.602 					"/>
				</g>
				<g>
					<polygon style="fill:#455A64;" points="371.477,180.805 375.882,183.348 376.198,183.165 371.794,180.622 					"/>
				</g>
				<g>
					<polygon style="fill:#455A64;" points="373.726,179.509 378.131,182.051 378.447,181.869 374.043,179.326 					"/>
				</g>
				<g>
					<polygon style="fill:#455A64;" points="366.666,183.585 371.07,186.128 371.901,185.649 367.497,183.106 					"/>
				</g>
				<g>
					<polygon style="fill:#455A64;" points="368.913,182.288 373.318,184.83 374.233,184.303 369.828,181.76 					"/>
				</g>
				<g>
					<polygon style="fill:#455A64;" points="372.326,180.317 376.73,182.86 377.597,182.365 373.192,179.822 					"/>
				</g>
				<g>
					<polygon style="fill:#455A64;" points="386.008,172.418 390.413,174.961 391.045,174.595 386.641,172.052 					"/>
				</g>
				<g>
					<polygon style="fill:#455A64;" points="387.162,171.752 391.566,174.295 391.882,174.113 387.478,171.57 					"/>
				</g>
				<g>
					<polygon style="fill:#455A64;" points="389.303,170.515 393.708,173.058 394.024,172.876 389.62,170.333 					"/>
				</g>
				<g>
					<polygon style="fill:#455A64;" points="388.083,171.22 392.488,173.763 393.392,173.241 388.987,170.698 					"/>
				</g>
			</g>
		</g>
		<g id="Arm_1_">
			<g>
				<path style="fill:#FFA8A7;" d="M416.428,113.003c3.276,0.632,7.617,1.412,10.009,5.469c3.064,5.197,17.062,33.591,16.833,35.806
					c-0.409,3.964-16.231,21.584-21.279,28.247c-3.341,4.41-5.522,7.275-15.773,10.714c-5.137,1.723-6.783,0.271-6.783,0.271
					l11.291-6.519c0.59-0.455,2.056-1.993,0.471-1.903c-1.286,0.074-2.561,0.32-3.852,0.297c-1.1-0.019-2.193-0.077-3.127-0.729
					c-0.206-0.144-0.41-0.33-0.451-0.578c-0.037-0.223,0.069-0.447,0.206-0.626c0.184-0.24,0.703-0.408,0.984-0.536
					c0.382-0.174,0.78-0.314,1.179-0.443c0.809-0.261,1.638-0.462,2.434-0.764c1.259-0.477,2.412-0.832,3.332-1.22
					c0.759-0.32,1.689-0.704,2.908-2.634c1.806-2.86,3.01-5.198,3.622-6.294c1.819-3.262,8.427-14.838,10.319-18.311l-12.377-20.342
					C412.357,127.788,412.451,113.89,416.428,113.003z"/>
			</g>
			<path style="fill:#27DEBF;" d="M415.02,112.912c2.006-0.524,6.978-1.658,9.507,1.656c2.529,3.314,13.694,25.943,14.915,28.628
				s5.669,9.401,4.274,12.192c-1.396,2.791-5.186,6.712-5.186,6.712s-4.57-4.812-11.641-5.5l1.587-3.316l-13.445-21.569
				C415.03,131.715,410.397,121.374,415.02,112.912z"/>
			<path style="opacity:0.15;" d="M415.02,112.912c2.006-0.524,6.978-1.658,9.507,1.656c2.529,3.314,13.694,25.943,14.915,28.628
				s5.669,9.401,4.274,12.192c-1.396,2.791-5.186,6.712-5.186,6.712s-4.57-4.812-11.641-5.5l1.587-3.316l-13.445-21.569
				C415.03,131.715,410.397,121.374,415.02,112.912z"/>
		</g>
	</g>
</g>
</svg>
