<svg width="32" height="32" viewBox="0 0 32 32" fill="none" xmlns="http://www.w3.org/2000/svg">
<path fill-rule="evenodd" clip-rule="evenodd" d="M2.52104 15.0408C2.96104 11.9908 6.02104 11.1608 6.31104 8.38078C4.93104 8.99078 3.28104 8.80078 2.07104 7.80078C0.731045 10.2108 0.661045 12.5808 2.52104 15.0408Z" fill="#023F87"/>
<path fill-rule="evenodd" clip-rule="evenodd" d="M8.43164 6.191C9.99164 5.961 11.3316 4.861 12.6116 3.781C14.3816 2.281 16.8516 0.430997 19.2016 0.610997C15.0016 -0.689003 10.4516 0.240997 7.68164 1.941C8.75164 3.121 8.99164 4.781 8.43164 6.181V6.191Z" fill="#023F87"/>
<path fill-rule="evenodd" clip-rule="evenodd" d="M28.5009 15.9912C28.0609 19.0412 25.0009 19.8712 24.7109 22.6512C26.0909 22.0412 27.7409 22.2312 28.9509 23.2312C30.2909 20.8212 30.3609 18.4512 28.5009 15.9912Z" fill="#023F87"/>
<path fill-rule="evenodd" clip-rule="evenodd" d="M22.5903 24.8408C21.0303 25.0708 19.6903 26.1708 18.4103 27.2508C16.6403 28.7508 14.1703 30.6008 11.8203 30.4208C16.0203 31.7208 20.5603 30.7908 23.3303 29.0908C22.2603 27.9108 22.0203 26.2508 22.5803 24.8508L22.5903 24.8408Z" fill="#023F87"/>
<path fill-rule="evenodd" clip-rule="evenodd" d="M15.9902 2.52104C19.0402 2.96104 19.8602 6.02104 22.6502 6.31104C22.0402 4.93104 22.2302 3.28104 23.2302 2.07104C20.8202 0.731045 18.4502 0.661045 15.9902 2.52104Z" fill="#00A551"/>
<path fill-rule="evenodd" clip-rule="evenodd" d="M24.8418 8.43141C25.0718 9.99141 26.1718 11.3314 27.2518 12.6114C28.7518 14.3814 30.6018 16.8514 30.4218 19.2014C31.7218 15.0014 30.7918 10.4614 29.0918 7.69141C27.9118 8.76141 26.2518 9.01141 24.8518 8.44141L24.8418 8.43141Z" fill="#00A551"/>
<path fill-rule="evenodd" clip-rule="evenodd" d="M15.0408 28.5009C11.9908 28.0609 11.1608 25.0009 8.38078 24.7109C8.99078 26.0909 8.80078 27.7409 7.80078 28.9509C10.2108 30.2909 12.5808 30.3609 15.0408 28.5009Z" fill="#00A551"/>
<path fill-rule="evenodd" clip-rule="evenodd" d="M6.191 22.5913C5.961 21.0313 4.861 19.6913 3.781 18.4113C2.281 16.6413 0.440997 14.1713 0.610997 11.8213C-0.689003 16.0213 0.240997 20.5613 1.941 23.3313C3.121 22.2613 4.781 22.0213 6.181 22.5813L6.191 22.5913Z" fill="#00A551"/>
<path fill-rule="evenodd" clip-rule="evenodd" d="M28.7609 2.26113C30.0609 3.56113 30.0609 5.66113 28.7609 6.96113C27.4609 8.26113 25.3609 8.26113 24.0609 6.96113C22.7609 5.66113 22.7609 3.56113 24.0609 2.26113C25.3609 0.961133 27.4609 0.961133 28.7609 2.26113Z" fill="#00A551"/>
<path fill-rule="evenodd" clip-rule="evenodd" d="M6.96016 24.0707C8.26016 25.3707 8.26016 27.4707 6.96016 28.7707C5.66016 30.0707 3.56016 30.0707 2.26016 28.7707C0.960156 27.4707 0.960156 25.3707 2.26016 24.0707C3.56016 22.7707 5.66016 22.7707 6.96016 24.0707Z" fill="#00A551"/>
<path fill-rule="evenodd" clip-rule="evenodd" d="M28.7609 28.7609C27.4609 30.0609 25.3609 30.0609 24.0609 28.7609C22.7609 27.4609 22.7609 25.3609 24.0609 24.0609C25.3609 22.7609 27.4609 22.7609 28.7609 24.0609C30.0609 25.3609 30.0609 27.4609 28.7609 28.7609Z" fill="#023F87"/>
<path fill-rule="evenodd" clip-rule="evenodd" d="M6.96016 6.96113C5.66016 8.26113 3.56016 8.26113 2.26016 6.96113C0.960156 5.66113 0.960156 3.56113 2.26016 2.26113C3.56016 0.961133 5.66016 0.961133 6.96016 2.26113C8.26016 3.56113 8.26016 5.66113 6.96016 6.96113Z" fill="#023F87"/>
<path fill-rule="evenodd" clip-rule="evenodd" d="M14.1017 18.3115V19.4815H16.9317V16.9315L19.3617 19.2815C19.5617 19.4715 19.5517 19.5815 19.5517 19.7715V20.5715C19.5517 20.5715 19.5517 20.5915 19.5517 20.6115C19.5517 20.6115 19.5517 20.6415 19.5517 20.6515C19.5517 20.6515 19.5517 20.6815 19.5517 20.6915C19.5517 20.6915 19.5517 20.7115 19.5517 20.7215C19.5517 20.7215 19.5517 20.7515 19.5517 20.7615C19.5517 20.7615 19.5517 20.7915 19.5517 20.8015V20.8315C19.5517 20.8315 19.5517 20.8615 19.5517 20.8715C19.5517 20.8715 19.5517 20.9015 19.5517 20.9115V20.9415C19.5517 20.9415 19.5517 20.9715 19.5517 20.9815C19.5517 20.9815 19.5517 21.0015 19.5517 21.0215V21.0515C19.5517 21.0515 19.5517 21.0815 19.5417 21.0915C19.5417 21.0915 19.5417 21.1215 19.5317 21.1215C19.5317 21.1215 19.5317 21.1415 19.5317 21.1515C19.5317 21.1515 19.5317 21.1815 19.5217 21.1915C19.5217 21.1915 19.5217 21.2115 19.5117 21.2215C19.5117 21.2215 19.5117 21.2415 19.5017 21.2515C19.5017 21.2515 19.5017 21.2815 19.4917 21.2915C19.4917 21.2915 19.4917 21.3115 19.4817 21.3215C19.4817 21.3215 19.4817 21.3415 19.4717 21.3515C19.4717 21.3515 19.4617 21.3815 19.4517 21.3915C19.4517 21.3915 19.4517 21.4115 19.4417 21.4215C19.4417 21.4215 19.4417 21.4415 19.4317 21.4515C19.4317 21.4515 19.4317 21.4815 19.4117 21.4815C19.4117 21.4815 19.4117 21.5015 19.4017 21.5115C19.4017 21.5115 19.3917 21.5315 19.3817 21.5415C19.3817 21.5415 19.3817 21.5415 19.3717 21.5515C19.3717 21.5515 19.3717 21.5615 19.3617 21.5715C19.3617 21.5715 19.3617 21.5915 19.3517 21.5915C19.3517 21.5915 19.3517 21.5915 19.3417 21.6015C19.3417 21.6015 19.3317 21.6115 19.3217 21.6215C19.3217 21.6215 19.3217 21.6215 19.3117 21.6315C19.3117 21.6315 19.3117 21.6315 19.3017 21.6415H19.2917L19.2817 21.6615C19.2817 21.6615 19.2817 21.6615 19.2717 21.6715C19.2717 21.6715 19.2617 21.6815 19.2517 21.6915C19.2517 21.6915 19.2517 21.6915 19.2417 21.7015C19.2417 21.7015 19.2417 21.7015 19.2317 21.7115H19.2217L19.2117 21.7315C19.2117 21.7315 19.1917 21.7415 19.1917 21.7515H19.1817C19.1817 21.7515 19.1817 21.7715 19.1717 21.7715H19.1617C19.1617 21.7715 19.1617 21.7915 19.1517 21.7915C19.1517 21.7915 19.1517 21.7915 19.1417 21.7915C19.1417 21.7915 19.1217 21.8015 19.1117 21.8115C19.1117 21.8115 19.1017 21.8215 19.0917 21.8315H19.0817C19.0817 21.8315 19.0717 21.8415 19.0617 21.8515H19.0517C19.0517 21.8515 19.0317 21.8715 19.0217 21.8715H19.0117C19.0117 21.8715 19.0017 21.8815 18.9917 21.8915H18.9817C18.9817 21.8915 18.9717 21.9015 18.9617 21.9115C18.9617 21.9115 18.9417 21.9315 18.9317 21.9315H18.9217L18.9017 21.9415C18.9017 21.9415 18.9017 21.9415 18.8917 21.9415C18.6917 22.0315 18.4817 22.0815 18.2517 22.0815H14.3417V23.2515L11.8417 20.7715L14.3417 18.2915L14.1017 18.3115ZM16.9317 14.1015H19.4817V16.9315H18.3117L20.7917 19.4315L23.2717 16.9315H22.1017V13.0215C22.1017 12.7915 22.0517 12.5715 21.9617 12.3815C21.9617 12.3815 21.9617 12.3815 21.9617 12.3715V12.3515L21.9517 12.3415C21.9517 12.3315 21.9417 12.3215 21.9317 12.3115V12.2915C21.9317 12.2915 21.9317 12.2715 21.9317 12.2615C21.9317 12.2615 21.9217 12.2315 21.9117 12.2215C21.9117 12.2215 21.9117 12.2015 21.9017 12.1915C21.9017 12.1915 21.9017 12.1715 21.8917 12.1615C21.8917 12.1615 21.8817 12.1315 21.8717 12.1215C21.8717 12.1215 21.8717 12.1215 21.8717 12.1115C21.8717 12.1115 21.8717 12.1115 21.8617 12.1015C21.8617 12.1015 21.8617 12.0815 21.8517 12.0715C21.8517 12.0715 21.8417 12.0415 21.8317 12.0415H21.8217L21.8117 12.0215C21.8117 12.0215 21.8117 12.0215 21.8017 12.0115C21.8017 12.0115 21.8017 12.0115 21.7917 12.0015C21.7917 12.0015 21.7817 11.9915 21.7717 11.9815C21.7717 11.9815 21.7717 11.9815 21.7617 11.9715H21.7517L21.7417 11.9515C21.7417 11.9515 21.7417 11.9515 21.7317 11.9415C21.7317 11.9415 21.7317 11.9415 21.7217 11.9315C21.7217 11.9315 21.7117 11.9215 21.7017 11.9115C21.7017 11.9115 21.7017 11.9115 21.6917 11.9115C21.6917 11.9115 21.6917 11.9115 21.6817 11.9015H21.6717C21.6717 11.9015 21.6617 11.8815 21.6517 11.8815C21.6517 11.8815 21.6517 11.8815 21.6417 11.8715C21.6417 11.8715 21.6317 11.8615 21.6217 11.8615H21.6117C21.6117 11.8615 21.6117 11.8415 21.6017 11.8415H21.5917C21.5917 11.8415 21.5817 11.8215 21.5717 11.8215H21.5617C21.5617 11.8215 21.5517 11.8015 21.5417 11.8015H21.5317C21.5317 11.8015 21.5217 11.7815 21.5117 11.7815H21.5017C21.5017 11.7815 21.4817 11.7615 21.4717 11.7615C21.4717 11.7615 21.4617 11.7515 21.4517 11.7415H21.4417C21.4417 11.7415 21.4317 11.7315 21.4217 11.7215C21.4217 11.7215 21.4017 11.7015 21.3917 11.7015C21.3917 11.7015 21.3817 11.6915 21.3717 11.6815H21.3617C21.3617 11.6815 21.3417 11.6715 21.3417 11.6615C21.3417 11.6615 21.3217 11.6515 21.3117 11.6415C21.3117 11.6415 21.3017 11.6415 21.2917 11.6315H21.2817C21.2817 11.6315 21.2617 11.6215 21.2517 11.6215C21.2517 11.6215 21.2317 11.6215 21.2217 11.6115H21.2117C21.2117 11.6115 21.2017 11.6115 21.1917 11.6015C21.1917 11.6015 21.1717 11.6015 21.1617 11.5915C21.1617 11.5915 21.1417 11.5915 21.1317 11.5915C21.1317 11.5915 21.1117 11.5915 21.1017 11.5915C21.1017 11.5915 21.0817 11.5915 21.0717 11.5915C21.0717 11.5915 21.0517 11.5915 21.0417 11.5915H21.0317C21.0317 11.5915 21.0117 11.5915 21.0017 11.5915C21.0017 11.5915 20.9817 11.5915 20.9717 11.5915C20.9717 11.5915 20.9517 11.5915 20.9417 11.5915H20.9317C20.9317 11.5915 20.9117 11.5915 20.9017 11.5915C20.9017 11.5915 20.8817 11.5915 20.8617 11.5915C20.8617 11.5915 20.8417 11.5915 20.8317 11.5915H20.8217C20.8217 11.5915 20.8017 11.5915 20.7817 11.5915H19.9817C19.8017 11.5915 19.6917 11.5715 19.4917 11.7815L17.1417 14.2115L16.9317 14.1015ZM14.1017 16.9315H11.5517V14.1015H12.7217L10.2417 11.6015L7.76172 14.1015H8.93172V18.0115C8.93172 18.2415 8.98172 18.4615 9.07172 18.6515C9.07172 18.6515 9.07172 18.6515 9.07172 18.6615V18.6815L9.08172 18.6915C9.08172 18.7015 9.09172 18.7115 9.10172 18.7215V18.7415C9.10172 18.7415 9.10172 18.7615 9.10172 18.7715C9.10172 18.7715 9.11172 18.8015 9.12172 18.8115C9.12172 18.8115 9.12172 18.8315 9.13172 18.8415C9.13172 18.8415 9.13172 18.8615 9.14172 18.8715C9.14172 18.8715 9.15172 18.9015 9.16172 18.9115C9.16172 18.9115 9.16172 18.9115 9.16172 18.9215C9.16172 18.9215 9.16172 18.9215 9.17172 18.9315C9.17172 18.9315 9.17172 18.9515 9.18172 18.9615C9.18172 18.9615 9.19172 18.9915 9.20172 19.0015H9.21172L9.22172 19.0215C9.22172 19.0215 9.22172 19.0215 9.23172 19.0315C9.23172 19.0315 9.23172 19.0315 9.24172 19.0415C9.24172 19.0415 9.25172 19.0515 9.26172 19.0615C9.26172 19.0615 9.26172 19.0615 9.27172 19.0715H9.28172L9.29172 19.0915C9.29172 19.0915 9.29172 19.0915 9.30172 19.1015C9.30172 19.1015 9.30172 19.1015 9.31172 19.1115C9.31172 19.1115 9.32172 19.1215 9.33172 19.1315C9.33172 19.1315 9.33172 19.1315 9.34172 19.1415C9.34172 19.1415 9.34172 19.1415 9.35172 19.1515H9.36172C9.36172 19.1515 9.37172 19.1715 9.38172 19.1715C9.38172 19.1715 9.38172 19.1715 9.39172 19.1815C9.39172 19.1815 9.40172 19.1915 9.41172 19.1915H9.42172C9.42172 19.1915 9.42172 19.2115 9.43172 19.2115H9.44172C9.44172 19.2115 9.45172 19.2315 9.46172 19.2315H9.47172C9.47172 19.2315 9.48172 19.2515 9.49172 19.2515H9.50172C9.50172 19.2515 9.51172 19.2715 9.52172 19.2715H9.53172C9.53172 19.2715 9.55172 19.2915 9.56172 19.2915C9.56172 19.2915 9.57172 19.3015 9.58172 19.3115H9.59172C9.59172 19.3115 9.60172 19.3215 9.61172 19.3315C9.61172 19.3315 9.63172 19.3515 9.64172 19.3515C9.64172 19.3515 9.65172 19.3615 9.66172 19.3715C9.66172 19.3715 9.68172 19.3815 9.68172 19.3915C9.68172 19.3915 9.70172 19.4015 9.71172 19.4115C9.71172 19.4115 9.72172 19.4215 9.73172 19.4215H9.74172C9.74172 19.4215 9.76172 19.4315 9.77172 19.4315C9.77172 19.4315 9.79172 19.4315 9.80172 19.4415C9.80172 19.4415 9.82172 19.4415 9.82172 19.4515H9.83172C9.83172 19.4515 9.85172 19.4515 9.86172 19.4615C9.86172 19.4615 9.88172 19.4615 9.89172 19.4615C9.89172 19.4615 9.91172 19.4615 9.92172 19.4615C9.92172 19.4615 9.94172 19.4615 9.95172 19.4615C9.95172 19.4615 9.97172 19.4615 9.98172 19.4615H9.99172C9.99172 19.4615 10.0117 19.4615 10.0217 19.4615C10.0217 19.4615 10.0417 19.4615 10.0517 19.4615C10.0517 19.4615 10.0717 19.4615 10.0817 19.4615H10.0917C10.0917 19.4615 10.1117 19.4615 10.1217 19.4615C10.1217 19.4615 10.1417 19.4615 10.1617 19.4615C10.1617 19.4615 10.1817 19.4615 10.1917 19.4615H10.2017C10.2017 19.4615 10.2217 19.4615 10.2417 19.4615H11.0417C11.2217 19.4615 11.3317 19.4815 11.5317 19.2715L13.8817 16.8415L14.1017 16.9315ZM14.1017 14.1015L11.6717 11.7515C11.4617 11.5515 11.4817 11.4515 11.4817 11.2615V10.4615C11.4817 10.4615 11.4817 10.4415 11.4817 10.4315C11.4817 10.4315 11.4817 10.4015 11.4817 10.3915C11.4817 10.3915 11.4817 10.3615 11.4817 10.3415C11.4817 10.3415 11.4817 10.3215 11.4817 10.3015C11.4817 10.3015 11.4817 10.2715 11.4817 10.2615C11.4817 10.2615 11.4817 10.2315 11.4817 10.2215V10.1915C11.4817 10.1915 11.4817 10.1615 11.4817 10.1515C11.4817 10.1515 11.4817 10.1215 11.4817 10.1115V10.0815C11.4817 10.0815 11.4817 10.0515 11.4817 10.0415C11.4817 10.0415 11.4817 10.0215 11.4917 10.0015C11.4917 10.0015 11.4917 9.98148 11.4917 9.97148C11.4917 9.97148 11.4917 9.94148 11.5017 9.93148C11.5017 9.93148 11.5017 9.91148 11.5017 9.90148V9.87148C11.5017 9.87148 11.5017 9.84148 11.5117 9.83148C11.5117 9.83148 11.5117 9.81148 11.5217 9.80148C11.5217 9.80148 11.5217 9.78148 11.5317 9.77148C11.5317 9.77148 11.5317 9.74148 11.5417 9.73148C11.5417 9.73148 11.5417 9.71148 11.5517 9.70148C11.5517 9.70148 11.5517 9.68148 11.5617 9.67148C11.5617 9.67148 11.5717 9.64148 11.5817 9.63148C11.5817 9.63148 11.5817 9.61148 11.5917 9.60148C11.5917 9.60148 11.5917 9.58148 11.6017 9.57148C11.6017 9.57148 11.6017 9.54148 11.6217 9.54148C11.6217 9.54148 11.6217 9.52148 11.6317 9.51148C11.6317 9.51148 11.6417 9.49148 11.6417 9.48148C11.6417 9.48148 11.6417 9.48148 11.6517 9.47148C11.6517 9.47148 11.6517 9.46148 11.6617 9.45148C11.6617 9.45148 11.6617 9.43148 11.6717 9.43148C11.6717 9.43148 11.6717 9.43148 11.6817 9.42148C11.6817 9.42148 11.6917 9.41148 11.7017 9.40148C11.7017 9.40148 11.7017 9.40148 11.7117 9.39148C11.7117 9.39148 11.7117 9.39148 11.7217 9.38148H11.7317L11.7417 9.36148C11.7417 9.36148 11.7417 9.36148 11.7517 9.35148C11.7517 9.35148 11.7617 9.34148 11.7717 9.33148C11.7717 9.33148 11.7717 9.33148 11.7817 9.32148C11.7817 9.32148 11.7817 9.32148 11.7917 9.31148H11.8017L11.8117 9.29148C11.8117 9.29148 11.8317 9.28148 11.8317 9.27148H11.8417C11.8417 9.27148 11.8417 9.25148 11.8517 9.25148H11.8617C11.8617 9.25148 11.8617 9.23148 11.8717 9.23148C11.8717 9.23148 11.8717 9.23148 11.8817 9.23148C11.8817 9.23148 11.9017 9.22148 11.9117 9.21148C11.9117 9.21148 11.9217 9.20148 11.9317 9.19148H11.9417C11.9417 9.19148 11.9517 9.18148 11.9617 9.17148H11.9717C11.9717 9.17148 11.9917 9.15148 12.0017 9.15148H12.0117C12.0117 9.15148 12.0217 9.14148 12.0317 9.13148H12.0417C12.0417 9.13148 12.0517 9.12148 12.0617 9.11148C12.0617 9.11148 12.0817 9.09148 12.0917 9.09148H12.1017L12.1217 9.08148C12.1217 9.08148 12.1217 9.08148 12.1317 9.08148C12.3317 8.99148 12.5417 8.94148 12.7717 8.94148H16.6817V7.77148L19.1817 10.2515L16.6817 12.7315V11.5615H13.8517V14.1115L14.1017 14.1015Z" fill="#00A551"/>
<path fill-rule="evenodd" clip-rule="evenodd" d="M14.1123 19.4513V16.9213H11.5723V14.1113H14.1123V11.5713H16.9223V14.1113H19.4523V16.9213H16.9223V19.4513H14.1123Z" fill="white"/>
</svg>
