<svg width="512" height="512" viewBox="0 0 512 512" fill="none" xmlns="http://www.w3.org/2000/svg">
<g clip-path="url(#clip0_501_2)">
<path d="M416 512H96C42.976 512 0 469.024 0 416V96C0 42.976 42.976 0 96 0H416C469.024 0 512 42.976 512 96V416C512 469.024 469.024 512 416 512Z" fill="#E3F8FA"/>
<path fill-rule="evenodd" clip-rule="evenodd" d="M218.495 287.026L235.84 268.516H216.63V243.065H225.675L208.764 224.83L192.521 242.766H200.811V273.365C200.869 282.81 202.193 287.095 209.102 287.187L218.495 287.026Z" fill="#328129"/>
<path fill-rule="evenodd" clip-rule="evenodd" d="M270.821 224.968L253.485 243.479H272.696V268.929H263.641L280.561 287.187L296.795 269.228H288.514V238.653C288.446 229.196 287.132 224.911 280.223 224.83L270.821 224.968Z" fill="#328129"/>
<path fill-rule="evenodd" clip-rule="evenodd" d="M270.763 287.118L255.195 266.505V289.324H233.792V278.558L218.437 298.689L233.531 317.992V308.134H259.254C267.207 308.076 270.801 306.491 270.888 298.275L270.763 287.118Z" fill="#328129"/>
<path fill-rule="evenodd" clip-rule="evenodd" d="M218.563 224.886L234.13 245.499V222.668H255.534V233.434L270.888 213.304L255.795 194V203.87H230.071C222.119 203.928 218.524 205.502 218.437 213.717L218.563 224.886Z" fill="#328129"/>
<path fill-rule="evenodd" clip-rule="evenodd" d="M149.404 199.219C147.22 203.378 145.374 203.401 143.722 221.085C142.07 238.756 151.51 257.394 151.51 257.394C151.51 257.394 150.534 248.856 155.057 241.801C159.589 234.758 168.595 224.302 172.827 217.258C177.06 210.215 178.161 201.207 178.161 201.207C174.267 203.309 169.938 204.481 165.377 204.481C159.54 204.481 154.081 202.551 149.404 199.219Z" fill="#00408E"/>
<path fill-rule="evenodd" clip-rule="evenodd" d="M187.225 168.114C187.225 182.523 177.417 194.197 165.309 194.197C153.192 194.197 143.374 182.523 143.374 168.114C143.374 153.705 153.192 142.031 165.309 142.031C177.417 142.031 187.225 153.705 187.225 168.114Z" fill="#00408E"/>
<path fill-rule="evenodd" clip-rule="evenodd" d="M190.26 146.168C190.26 146.168 207.103 131.701 224.023 128.886C240.933 126.06 265.216 130.897 265.216 130.897C265.216 130.897 253.505 131.862 246.238 136.953C238.962 142.031 233.154 149.822 224.525 159.06C215.886 168.332 209.799 174.353 203.711 177.777C199.778 179.983 196.405 180.512 194.521 180.615C195.7 176.709 196.348 172.503 196.348 168.114C196.348 159.898 194.086 152.303 190.26 146.168Z" fill="#00408E"/>
<path fill-rule="evenodd" clip-rule="evenodd" d="M197.894 370.491C201.392 373.122 201.411 375.294 216.282 377.259C231.135 379.235 246.808 368.009 246.808 368.009C246.808 368.009 239.628 369.17 233.705 363.781C227.782 358.415 218.978 347.694 213.065 342.662C207.141 337.629 199.565 336.308 199.565 336.308C201.324 340.95 202.31 346.097 202.31 351.509C202.31 358.449 200.696 364.953 197.894 370.491Z" fill="#328129"/>
<path fill-rule="evenodd" clip-rule="evenodd" d="M171.736 325.519C183.853 325.519 193.671 337.216 193.671 351.601C193.671 366.021 183.853 377.684 171.736 377.684C159.608 377.684 149.8 366.021 149.8 351.601C149.8 337.216 159.608 325.519 171.736 325.519Z" fill="#328129"/>
<path fill-rule="evenodd" clip-rule="evenodd" d="M153.279 321.922C153.279 321.922 141.113 301.918 138.745 281.787C136.368 261.668 140.436 232.793 140.436 232.793C140.436 232.793 141.248 246.719 145.519 255.371C149.8 264.023 156.342 270.929 164.121 281.201C171.909 291.45 176.982 298.689 179.852 305.928C181.717 310.616 182.162 314.615 182.239 316.878C178.963 315.465 175.427 314.695 171.735 314.695C164.817 314.695 158.439 317.384 153.279 321.922Z" fill="#328129"/>
<path fill-rule="evenodd" clip-rule="evenodd" d="M339.912 312.776C342.105 308.628 343.951 308.593 345.603 290.921C347.256 273.238 337.815 254.612 337.815 254.612C337.815 254.612 338.791 263.15 334.269 270.193C329.737 277.236 320.731 287.704 316.498 294.736C312.256 301.791 311.164 310.788 311.164 310.788C315.058 308.697 319.387 307.525 323.948 307.525C329.775 307.525 335.245 309.443 339.912 312.776Z" fill="#00408E"/>
<path fill-rule="evenodd" clip-rule="evenodd" d="M302.09 343.88C302.09 329.494 311.908 317.797 324.006 317.797C336.133 317.797 345.951 329.494 345.951 343.88C345.951 358.3 336.133 369.962 324.006 369.962C311.908 369.962 302.09 358.3 302.09 343.88Z" fill="#00408E"/>
<path fill-rule="evenodd" clip-rule="evenodd" d="M299.066 365.837C299.066 365.837 282.223 380.303 265.303 383.118C248.383 385.934 224.109 381.108 224.109 381.108C224.109 381.108 235.821 380.131 243.087 375.052C250.364 369.974 256.171 362.195 264.8 352.934C273.429 343.684 279.517 337.64 285.615 334.228C289.547 332.022 292.91 331.482 294.804 331.39C293.625 335.285 292.978 339.502 292.978 343.879C292.978 352.106 295.239 359.701 299.066 365.826V365.837Z" fill="#00408E"/>
<path fill-rule="evenodd" clip-rule="evenodd" d="M291.433 141.502C287.935 138.905 287.915 136.711 273.053 134.746C258.182 132.781 242.508 143.984 242.508 143.984C242.508 143.984 249.688 142.835 255.621 148.224C261.545 153.59 270.338 164.31 276.262 169.331C282.185 174.364 289.761 175.685 289.761 175.685C288.002 171.055 287.007 165.907 287.007 160.484C287.007 153.544 288.63 147.052 291.433 141.502Z" fill="#328129"/>
<path fill-rule="evenodd" clip-rule="evenodd" d="M317.59 186.476C305.482 186.476 295.655 174.802 295.655 160.393C295.655 145.996 305.482 134.311 317.59 134.311C329.708 134.311 339.525 145.996 339.525 160.393C339.525 174.802 329.708 186.476 317.59 186.476Z" fill="#328129"/>
<path fill-rule="evenodd" clip-rule="evenodd" d="M336.056 190.07C336.056 190.07 348.213 210.086 350.59 230.217C352.957 250.325 348.889 279.2 348.889 279.2C348.889 279.2 348.077 265.274 343.797 256.621C339.525 247.969 332.993 241.075 325.205 230.826C317.426 220.554 312.343 213.303 309.473 206.076C307.608 201.388 307.164 197.378 307.086 195.126C310.362 196.539 313.899 197.298 317.59 197.298C324.509 197.298 330.887 194.609 336.047 190.07H336.056Z" fill="#328129"/>
</g>
<defs>
<clipPath id="clip0_501_2">
<rect width="512" height="512" fill="white"/>
</clipPath>
</defs>
</svg>
