<svg width="60" height="60" viewBox="0 0 60 60" fill="none" xmlns="http://www.w3.org/2000/svg">
<rect width="60" height="60" rx="10" fill="#E7F7F9"/>
<path d="M26.9436 27.0832C27.1766 27.6171 27.3121 28.2703 27.3421 29.0258C28.1286 29.2046 28.7171 29.9027 28.7171 30.7365C28.7171 31.7048 27.9233 32.4927 26.9476 32.4927C25.972 32.4927 25.1782 31.7048 25.1782 30.7365C25.1782 29.9122 25.7539 29.2214 26.5265 29.0325C26.4925 28.2822 26.3117 27.1407 25.5718 26.5772C25.1942 26.4802 24.806 26.4099 24.4078 26.3737C24.3784 27.6881 20.001 30.9318 20.001 30.9318C20.001 30.9318 15.6222 27.6887 15.5925 26.3743C15.1501 26.4142 14.7198 26.4945 14.3041 26.6101C13.7642 27.0343 13.4849 27.8246 13.4705 28.9733C13.6292 29.0639 13.7574 29.2052 13.8361 29.3762C14.4176 29.6488 14.9313 30.2221 15.3246 31.0383C15.3905 31.1755 15.3992 31.3306 15.3508 31.4722C15.5865 32.0744 15.7213 32.7326 15.7213 33.2853C15.7213 34.0599 15.7213 34.7924 14.8706 34.9804C14.7786 35.0563 14.6631 35.0982 14.542 35.0982H13.9736C13.6886 35.0982 13.4566 34.8675 13.4566 34.5854L13.4572 34.5654C13.4681 34.2926 13.6981 34.0724 13.9736 34.0724H14.542C14.6002 34.0724 14.6571 34.0821 14.7121 34.101C14.7464 34.0915 14.7576 34.0834 14.7576 34.0834C14.8208 33.9721 14.8208 33.5085 14.8208 33.2859C14.8208 32.8369 14.7075 32.2946 14.5091 31.7907C14.4062 31.7326 14.3228 31.6448 14.2717 31.5387C13.927 30.8224 13.4583 30.3599 13.0777 30.3599C12.6884 30.3599 12.1962 30.8603 11.8529 31.6038C11.7969 31.7251 11.6986 31.8237 11.5777 31.8829C11.3983 32.3649 11.2998 32.8612 11.2998 33.2856C11.2998 33.4726 11.2998 33.9686 11.3716 34.0853C11.3716 34.0853 11.3885 34.0951 11.4337 34.1061C11.4925 34.0837 11.5557 34.0721 11.6188 34.0721H12.1883C12.4537 34.0721 12.6756 34.2726 12.7023 34.5333L12.705 34.5649C12.705 34.8678 12.4731 35.0985 12.1883 35.0985H11.6188C11.5058 35.0985 11.3967 35.0609 11.3068 34.9929C10.9815 34.9321 10.7523 34.7897 10.6072 34.5579C10.4314 34.2777 10.3992 33.9097 10.3992 33.2856C10.3992 32.7382 10.5266 32.1077 10.758 31.5054C10.724 31.3766 10.7354 31.242 10.7921 31.1207C11.033 30.5976 11.3395 30.1497 11.6782 29.8257C11.8644 29.6477 12.0645 29.5045 12.2738 29.4C12.3522 29.2179 12.4883 29.0684 12.6546 28.9742C12.6634 28.2541 12.775 27.6325 12.9813 27.1199C10.6189 28.3093 9 30.7416 9 33.5507C9 37.1402 11.6425 37.3158 15.1017 37.3158C15.4793 37.3158 15.8658 37.3137 16.2608 37.3137H23.7381C24.1325 37.3137 24.5191 37.3158 24.8967 37.3158C28.3564 37.3158 31 37.1402 31 33.5507C30.9997 30.7119 29.3462 28.2582 26.9436 27.0832Z" fill="#CBF3F9"/>
<path d="M20.0033 27.3171C23.3473 27.3171 26.0579 22.3267 26.0579 19.0082C26.0579 15.6901 23.3473 13 20.0033 13C16.6598 13 13.9492 15.6901 13.9492 19.0082C13.9492 22.3267 16.6598 27.3171 20.0033 27.3171Z" fill="#CBF3F9"/>
<path d="M26.9461 31.5469C27.3971 31.5469 27.7628 31.184 27.7628 30.7364C27.7628 30.2887 27.3971 29.9258 26.9461 29.9258C26.495 29.9258 26.1294 30.2887 26.1294 30.7364C26.1294 31.184 26.495 31.5469 26.9461 31.5469Z" fill="#CBF3F9"/>
<path d="M36.9436 32.0832C37.1766 32.6171 37.3121 33.2703 37.3421 34.0258C38.1286 34.2046 38.7171 34.9027 38.7171 35.7365C38.7171 36.7048 37.9233 37.4927 36.9476 37.4927C35.972 37.4927 35.1782 36.7048 35.1782 35.7365C35.1782 34.9122 35.7539 34.2214 36.5265 34.0325C36.4925 33.2822 36.3117 32.1407 35.5718 31.5772C35.1942 31.4802 34.806 31.4099 34.4078 31.3737C34.3784 32.6881 30.001 35.9318 30.001 35.9318C30.001 35.9318 25.6222 32.6887 25.5925 31.3743C25.1501 31.4142 24.7198 31.4945 24.3041 31.6101C23.7642 32.0343 23.4849 32.8246 23.4705 33.9733C23.6292 34.0639 23.7574 34.2052 23.8361 34.3762C24.4176 34.6488 24.9313 35.2221 25.3246 36.0383C25.3905 36.1755 25.3992 36.3306 25.3508 36.4722C25.5865 37.0744 25.7213 37.7326 25.7213 38.2853C25.7213 39.0599 25.7213 39.7924 24.8706 39.9804C24.7786 40.0563 24.6631 40.0982 24.542 40.0982H23.9736C23.6886 40.0982 23.4566 39.8675 23.4566 39.5854L23.4572 39.5654C23.4681 39.2926 23.6981 39.0724 23.9736 39.0724H24.542C24.6002 39.0724 24.6571 39.0821 24.7121 39.101C24.7464 39.0915 24.7576 39.0834 24.7576 39.0834C24.8208 38.9721 24.8208 38.5085 24.8208 38.2859C24.8208 37.8369 24.7075 37.2946 24.5091 36.7907C24.4062 36.7326 24.3228 36.6448 24.2717 36.5387C23.927 35.8224 23.4583 35.3599 23.0777 35.3599C22.6884 35.3599 22.1962 35.8603 21.8529 36.6038C21.7969 36.7251 21.6986 36.8237 21.5777 36.8829C21.3983 37.3649 21.2998 37.8612 21.2998 38.2856C21.2998 38.4726 21.2998 38.9686 21.3716 39.0853C21.3716 39.0853 21.3885 39.0951 21.4337 39.1061C21.4925 39.0837 21.5557 39.0721 21.6188 39.0721H22.1883C22.4537 39.0721 22.6756 39.2726 22.7023 39.5333L22.705 39.5649C22.705 39.8678 22.4731 40.0985 22.1883 40.0985H21.6188C21.5058 40.0985 21.3967 40.0609 21.3068 39.9929C20.9815 39.9321 20.7523 39.7897 20.6072 39.5579C20.4314 39.2777 20.3992 38.9097 20.3992 38.2856C20.3992 37.7382 20.5266 37.1077 20.758 36.5054C20.724 36.3766 20.7354 36.242 20.7921 36.1207C21.033 35.5976 21.3395 35.1497 21.6782 34.8257C21.8644 34.6477 22.0645 34.5045 22.2738 34.4C22.3522 34.2179 22.4883 34.0684 22.6546 33.9742C22.6634 33.2541 22.775 32.6325 22.9813 32.1199C20.6189 33.3093 19 35.7416 19 38.5507C19 42.1402 21.6425 42.3158 25.1017 42.3158C25.4793 42.3158 25.8658 42.3137 26.2608 42.3137H33.7381C34.1325 42.3137 34.5191 42.3158 34.8967 42.3158C38.3564 42.3158 41 42.1402 41 38.5507C40.9997 35.7119 39.3462 33.2582 36.9436 32.0832Z" fill="#60C3D7"/>
<path d="M30.0033 32.3171C33.3473 32.3171 36.0579 27.3267 36.0579 24.0082C36.0579 20.6901 33.3473 18 30.0033 18C26.6598 18 23.9492 20.6901 23.9492 24.0082C23.9492 27.3267 26.6598 32.3171 30.0033 32.3171Z" fill="#60C3D7"/>
<path d="M36.9461 36.5469C37.3971 36.5469 37.7628 36.184 37.7628 35.7364C37.7628 35.2887 37.3971 34.9258 36.9461 34.9258C36.495 34.9258 36.1294 35.2887 36.1294 35.7364C36.1294 36.184 36.495 36.5469 36.9461 36.5469Z" fill="#187684"/>
</svg>
