<svg width="512" height="512" viewBox="0 0 512 512" fill="none" xmlns="http://www.w3.org/2000/svg">
<g clip-path="url(#clip0_501_48)">
<path d="M416 512H96C42.976 512 0 469.024 0 416V96C0 42.976 42.976 0 96 0H416C469.024 0 512 42.976 512 96V416C512 469.024 469.024 512 416 512Z" fill="#E5FAE3"/>
<path d="M215.5 289.5V220.5H179.5V220.672C161.813 222.403 148 237.111 148 255C148 272.889 161.813 287.597 179.5 289.328V289.5H215.5Z" fill="#04601A"/>
<path d="M287.5 196.623V181.5H287.328C285.597 163.813 270.889 150 253 150C235.111 150 220.403 163.813 218.672 181.5H218.5V248.95L287.5 196.623Z" fill="#04601A"/>
<path d="M287.5 315.65L218.5 261.609V325.5H218.537C218.516 325.998 218.5 326.497 218.5 327C218.5 346.33 233.946 362 253 362C272.054 362 287.5 346.33 287.5 327C287.5 326.497 287.483 325.998 287.463 325.5H287.5V315.65Z" fill="#04601A"/>
<path d="M286.5 254.5V201.469L219.203 254.5H286.5Z" fill="#9FC41A"/>
<path d="M219.669 257.5L270.62 298.071L286.5 286.363V257.5H219.669Z" fill="#9FC41A"/>
<path d="M286.5 254.5V225.259L270.884 213.643L219.05 254.5H286.5Z" fill="#9FC41A"/>
<path d="M219.72 257.5L286.5 310.346V257.5H219.72Z" fill="#9FC41A"/>
<path d="M349.432 271.345C349.032 271.042 348.624 270.754 348.215 270.47L348.236 270.44L330.841 257.501H289.499V284.89V311.93L306.591 325.455L306.613 325.426C306.997 325.743 307.384 326.058 307.787 326.361C323.198 338.028 345.016 335.171 356.515 319.978C368.017 304.785 364.846 283.012 349.432 271.345Z" fill="#9FC41A"/>
<path d="M330.718 254.5L345.275 243.768L345.254 243.739C345.663 243.456 346.072 243.17 346.474 242.867C361.918 231.242 365.149 209.477 353.69 194.255C342.233 179.031 320.422 176.113 304.979 187.739C304.578 188.042 304.189 188.354 303.804 188.671L303.781 188.641L294.933 195.613L289.5 199.894V226.748V254.501L330.718 254.5Z" fill="#9FC41A"/>
</g>
<defs>
<clipPath id="clip0_501_48">
<rect width="512" height="512" fill="white"/>
</clipPath>
</defs>
</svg>
