<?xml version="1.0" standalone="no"?>
<!DOCTYPE svg PUBLIC "-//W3C//DTD SVG 20010904//EN"
 "http://www.w3.org/TR/2001/REC-SVG-20010904/DTD/svg10.dtd">
<svg version="1.0" xmlns="http://www.w3.org/2000/svg"
 width="435.000000pt" height="574.000000pt" viewBox="0 0 435.000000 574.000000"
 preserveAspectRatio="xMidYMid meet">

<g transform="translate(0.000000,574.000000) scale(0.100000,-0.100000)"
fill="#000000" stroke="none">
<path d="M280 5640 c0 -33 4 -60 10 -60 6 0 10 12 10 28 l1 27 22 -27 c13 -16
29 -28 36 -28 8 0 2 12 -14 31 l-26 32 27 28 c21 22 24 29 12 29 -9 0 -26 -12
-37 -26 l-21 -27 0 27 c0 14 -4 26 -10 26 -6 0 -10 -27 -10 -60z"/>
<path d="M1720 5624 c0 -41 4 -63 10 -59 6 3 10 16 10 27 0 21 2 20 30 -7 39
-37 52 -24 15 15 l-29 30 24 25 c30 32 18 46 -15 15 l-25 -23 0 21 c0 12 -4
22 -10 22 -6 0 -10 -29 -10 -66z"/>
<path d="M1820 5680 c0 -5 5 -10 10 -10 6 0 10 5 10 10 0 6 -4 10 -10 10 -5 0
-10 -4 -10 -10z"/>
<path d="M1930 5674 c0 -8 5 -12 10 -9 6 3 10 10 10 16 0 5 -4 9 -10 9 -5 0
-10 -7 -10 -16z"/>
<path d="M2536 5681 c-4 -7 -5 -15 -2 -18 9 -9 19 4 14 18 -4 11 -6 11 -12 0z"/>
<path d="M2422 5625 c3 -56 19 -75 28 -34 5 22 6 22 23 -4 10 -15 24 -27 33
-27 11 0 8 9 -12 35 l-27 36 23 24 c27 28 8 35 -22 8 -17 -15 -18 -15 -18 0 0
10 -7 17 -15 17 -13 0 -15 -11 -13 -55z"/>
<path d="M2630 5670 c0 -5 7 -10 15 -10 8 0 15 5 15 10 0 6 -7 10 -15 10 -8 0
-15 -4 -15 -10z"/>
<path d="M3720 5620 c0 -33 4 -60 10 -60 6 0 10 12 10 27 l0 27 30 -29 c37
-36 54 -24 17 12 l-27 27 27 28 c32 33 11 39 -24 6 l-23 -21 0 21 c0 12 -4 22
-10 22 -6 0 -10 -27 -10 -60z"/>
<path d="M393 5652 c-6 -4 -12 -14 -13 -22 -7 -47 10 -64 52 -52 18 5 23 14
24 40 0 19 -4 32 -12 32 -7 0 -18 2 -26 5 -7 3 -18 1 -25 -3z m45 -35 c4 -21
-27 -35 -38 -17 -12 19 0 42 19 38 9 -2 17 -11 19 -21z"/>
<path d="M498 5653 c-13 -3 -18 -15 -18 -39 0 -19 5 -34 10 -34 6 0 10 11 10
24 0 24 16 43 26 33 3 -3 7 -18 8 -33 4 -40 19 -36 21 4 1 23 -4 36 -16 43
-10 5 -19 8 -21 8 -2 -1 -11 -3 -20 -6z"/>
<path d="M575 5631 c-12 -38 14 -65 54 -54 16 4 21 13 21 39 0 32 -2 34 -34
34 -25 0 -36 -5 -41 -19z m53 -19 c2 -14 -2 -22 -12 -22 -19 0 -29 17 -22 36
8 22 30 12 34 -14z"/>
<path d="M675 5628 c1 -13 3 -31 4 -41 0 -10 6 -15 12 -11 6 3 9 15 6 25 -5
19 15 44 26 32 4 -3 7 -17 7 -29 0 -13 5 -26 10 -29 6 -4 10 10 10 34 0 41 0
41 -39 41 -34 0 -38 -3 -36 -22z"/>
<path d="M1827 5643 c-11 -10 -8 -71 3 -78 6 -4 10 12 10 39 0 47 -2 51 -13
39z"/>
<path d="M1869 5643 c0 -2 -1 -19 -1 -38 -2 -44 16 -51 20 -7 2 20 9 32 18 32
8 0 13 4 9 9 -5 9 -44 12 -46 4z"/>
<path d="M1930 5611 c0 -23 5 -41 10 -41 6 0 10 15 10 34 0 19 -4 38 -10 41
-6 4 -10 -10 -10 -34z"/>
<path d="M2593 5642 c-19 -3 -23 -10 -23 -37 0 -19 5 -37 10 -40 6 -4 10 6 10
24 0 18 7 34 17 40 22 12 15 18 -14 13z"/>
<path d="M2530 5600 c0 -22 5 -40 10 -40 6 0 10 18 10 40 0 22 -4 40 -10 40
-5 0 -10 -18 -10 -40z"/>
<path d="M2636 5618 c1 -13 3 -31 3 -41 1 -10 5 -16 10 -13 13 8 9 76 -4 76
-7 0 -11 -10 -9 -22z"/>
<path d="M3821 5618 c-13 -35 4 -58 44 -58 34 0 35 1 35 40 0 39 -1 40 -35 40
-28 0 -38 -5 -44 -22z m49 -17 c0 -28 -17 -35 -29 -13 -11 21 -6 32 16 32 7 0
13 -9 13 -19z"/>
<path d="M3920 5598 c0 -21 5 -38 10 -38 6 0 10 14 10 31 0 24 4 30 18 27 10
-2 18 -14 20 -31 4 -35 22 -35 22 1 0 39 -11 51 -48 50 -30 -1 -32 -3 -32 -40z"/>
<path d="M4022 5628 c-17 -17 -15 -42 7 -62 14 -13 24 -14 45 -7 21 9 25 16
23 43 -2 27 -7 32 -32 35 -17 2 -36 -2 -43 -9z m51 -22 c9 -22 -18 -40 -33
-22 -6 9 -9 20 -5 26 9 15 32 12 38 -4z"/>
<path d="M4120 5598 c0 -21 5 -38 10 -38 6 0 10 14 10 31 0 41 32 36 41 -6 6
-27 7 -26 8 12 1 42 1 42 -34 41 -34 -1 -35 -3 -35 -40z"/>
<path d="M911 5283 c-65 -31 -97 -70 -112 -138 -10 -44 -10 -67 0 -108 8 -35
8 -53 1 -55 -13 -5 -13 -69 1 -78 6 -3 9 -19 5 -35 -4 -22 -1 -31 14 -39 11
-6 20 -20 20 -31 0 -11 9 -37 20 -58 13 -27 20 -63 22 -117 l2 -77 -39 -34
c-21 -18 -46 -33 -56 -33 -10 0 -20 -4 -23 -9 -4 -5 -30 -12 -59 -16 -104 -14
-212 -84 -265 -173 -25 -43 -27 -56 -27 -152 -1 -58 2 -145 6 -195 5 -75 3
-98 -13 -140 -12 -29 -23 -95 -29 -162 -8 -104 -21 -151 -60 -225 -5 -10 -9
-26 -9 -36 0 -10 -4 -22 -9 -28 -5 -5 -12 -25 -15 -44 -3 -19 -10 -50 -15 -67
-5 -18 -8 -33 -6 -33 3 0 0 -12 -6 -27 -6 -15 -12 -55 -15 -88 -8 -98 -35
-227 -56 -270 -11 -22 -35 -58 -53 -80 -47 -59 -84 -137 -87 -187 -3 -36 1
-44 19 -52 18 -8 20 -15 15 -45 -13 -70 -9 -105 12 -109 11 -2 26 4 33 14 16
22 21 17 26 -27 2 -19 7 -40 11 -47 13 -21 46 -13 58 14 12 25 12 25 20 5 10
-27 48 -28 55 -1 3 11 13 20 23 20 10 0 23 6 29 14 27 33 35 331 10 378 -8 15
-2 36 32 101 102 198 119 232 145 295 51 127 64 183 64 279 0 73 4 100 20 127
10 20 23 50 29 68 6 23 9 -48 10 -233 1 -146 -3 -279 -8 -295 -5 -16 -13 -47
-19 -69 -6 -22 -17 -65 -26 -95 -32 -118 -49 -276 -42 -403 3 -67 7 -129 7
-137 7 -192 58 -553 97 -680 22 -71 23 -295 2 -395 -22 -107 -19 -236 9 -320
12 -38 31 -81 41 -95 52 -73 88 -351 60 -460 -23 -88 -31 -143 -26 -164 8 -30
61 -51 134 -51 42 -1 67 -6 78 -16 20 -21 61 -13 80 16 14 22 15 87 1 125 -3
8 -15 42 -27 75 -12 33 -24 87 -26 120 -2 33 -8 105 -14 160 -10 102 -24 566
-21 710 1 44 8 103 16 130 23 83 26 105 25 245 0 74 5 153 11 175 5 22 11 56
13 75 2 19 9 62 15 94 6 33 11 88 11 123 0 35 4 63 10 63 6 0 10 -34 10 -81 0
-44 4 -88 9 -97 5 -9 12 -39 15 -67 3 -27 10 -74 16 -104 5 -29 12 -122 14
-205 3 -121 8 -163 25 -213 19 -58 21 -82 21 -338 -1 -151 2 -297 6 -324 3
-27 1 -102 -5 -167 -6 -66 -13 -150 -17 -189 -3 -38 -15 -94 -26 -125 -11 -30
-20 -62 -20 -70 -1 -8 -5 -20 -10 -27 -12 -14 10 -93 29 -110 9 -6 26 -8 41
-4 15 3 62 6 105 5 66 -1 79 2 88 18 5 10 16 18 23 18 33 0 40 29 28 103 -7
39 -18 77 -24 85 -17 20 -16 228 2 326 7 44 26 105 41 136 15 31 34 79 42 106
19 65 20 237 1 306 -20 73 -29 280 -15 348 6 30 16 78 21 105 53 254 73 458
84 850 4 142 -37 366 -95 513 -10 26 -10 381 0 427 l7 30 13 -25 c8 -14 17
-74 21 -135 10 -149 53 -264 209 -560 33 -63 41 -86 36 -110 -18 -79 -20 -144
-10 -249 11 -108 18 -131 44 -134 13 -2 25 -12 28 -22 8 -29 35 -34 55 -11 19
24 28 27 28 7 0 -20 25 -37 44 -30 10 4 18 24 22 55 l7 50 22 -21 c14 -13 28
-18 40 -14 15 6 16 15 11 58 -3 28 -9 61 -12 73 -5 17 -1 22 18 25 38 5 35 51
-11 143 -21 44 -51 94 -66 110 -47 52 -85 144 -85 205 0 119 -97 494 -141 546
-6 8 -15 71 -20 141 -5 69 -13 142 -19 162 -5 20 -10 116 -11 214 0 98 -5 192
-9 209 -29 98 -170 204 -309 230 -172 33 -218 107 -151 243 16 33 30 70 30 83
0 12 9 31 21 43 13 13 19 29 16 40 -3 11 1 32 9 47 16 31 18 54 5 68 -6 5 -5
27 1 56 23 96 -28 215 -108 253 -29 14 -64 19 -141 20 -88 2 -108 -1 -152 -22z
m290 -24 c45 -22 66 -50 80 -104 10 -34 15 -98 9 -115 -5 -14 -11 -52 -20
-116 -5 -38 -14 -83 -20 -98 -5 -15 -10 -38 -10 -52 0 -13 -4 -24 -10 -24 -5
0 -10 -8 -10 -18 0 -26 -51 -102 -89 -134 -68 -58 -133 -44 -193 39 -56 78
-67 113 -113 355 -33 174 15 263 152 288 68 12 180 2 224 -21z m-226 -728 c10
-58 26 -102 35 -96 5 3 -14 110 -20 110 0 0 27 0 60 0 l59 0 -6 -40 c-3 -22
-10 -45 -14 -51 -9 -10 -2 -24 11 -24 3 0 15 33 25 73 18 71 38 106 49 88 4
-5 4 -15 1 -23 -8 -21 50 -83 98 -106 24 -11 69 -25 101 -31 128 -24 252 -114
289 -211 11 -31 17 -75 17 -137 0 -87 -1 -92 -22 -95 -45 -6 -77 5 -118 39
-45 39 -62 38 -33 -1 30 -41 89 -69 134 -63 l39 5 0 -49 c0 -55 -7 -59 -38
-26 -32 34 -107 69 -139 65 l-28 -4 25 -11 c14 -6 44 -19 68 -29 23 -9 60 -36
81 -59 36 -39 39 -47 49 -136 6 -52 13 -116 14 -144 2 -50 22 -120 38 -140 31
-37 96 -291 106 -410 3 -33 7 -67 10 -75 3 -8 8 -26 10 -40 11 -59 38 -124 71
-167 39 -51 67 -96 84 -133 18 -39 28 -90 18 -90 -5 0 -9 5 -9 11 0 19 -168
179 -188 179 -11 0 -24 -6 -30 -12 -17 -22 -29 -82 -21 -106 7 -18 16 -22 52
-22 24 0 52 7 63 15 17 14 14 15 -38 9 l-58 -6 0 33 c0 18 7 40 16 50 16 17
20 15 88 -46 l72 -65 17 -82 c19 -91 21 -118 9 -118 -9 0 -27 41 -47 112 -19
69 -42 80 -30 16 5 -24 7 -56 7 -73 -4 -70 -10 -116 -16 -123 -13 -12 -26 22
-26 68 -1 25 -5 64 -9 87 -7 37 -6 43 10 48 32 11 21 25 -20 25 -21 0 -60 3
-86 7 l-47 6 6 74 c7 76 19 115 45 146 19 22 5 36 -15 15 -15 -15 -21 -6 -77
100 -89 173 -94 183 -136 293 -33 84 -51 159 -51 213 l0 48 25 -16 c38 -25 87
-21 117 12 28 31 41 59 32 73 -3 6 -19 -10 -35 -35 -30 -48 -51 -56 -92 -34
-32 17 -40 27 -66 92 -20 49 -25 82 -30 210 -4 113 -9 150 -18 149 -17 -4 -16
9 2 33 18 24 19 34 1 34 -8 0 -26 -24 -40 -52 -50 -105 -101 -133 -233 -126
-47 2 -72 0 -70 -7 5 -14 144 -18 197 -5 43 11 77 38 112 90 17 25 17 24 17
-39 1 -70 -23 -125 -59 -136 -11 -4 -20 -11 -20 -16 0 -15 36 -10 50 6 20 24
30 4 20 -40 -5 -24 -21 -51 -39 -67 -36 -32 -38 -38 -12 -38 11 0 27 10 35 22
9 12 18 19 21 17 9 -10 -26 -69 -51 -86 -13 -8 -24 -19 -24 -24 0 -16 27 -9
46 12 19 21 19 19 24 -172 l5 -194 -75 -71 c-77 -73 -165 -186 -153 -198 11
-11 23 -6 23 9 0 8 5 15 10 15 6 0 10 6 10 13 1 20 168 187 189 187 5 0 11 -8
14 -17 68 -224 77 -277 77 -470 0 -88 -2 -178 -5 -200 -3 -21 -10 -110 -15
-198 -5 -88 -16 -200 -25 -250 -26 -143 -47 -248 -56 -280 -11 -39 -14 -186
-4 -250 4 -27 13 -83 20 -123 11 -63 12 -189 2 -257 -17 -116 -42 -139 -31
-29 11 109 11 127 -1 131 -7 2 -12 -20 -13 -54 -4 -115 -52 -397 -75 -445 -12
-26 -25 -48 -29 -48 -17 0 -6 -39 27 -100 19 -36 42 -93 51 -127 l17 -62 -29
-25 c-32 -28 -50 -32 -58 -13 -3 8 -8 7 -16 -6 -11 -18 -13 -18 -31 -1 -11 10
-19 12 -19 6 0 -7 -9 -12 -20 -12 -11 0 -20 4 -20 9 0 5 -14 13 -32 16 -24 6
-35 3 -45 -11 -12 -16 -13 -14 -13 18 0 53 49 188 81 226 16 18 29 37 29 42 0
16 -20 12 -26 -5 -4 -8 -11 -15 -16 -15 -10 0 -3 188 9 249 7 34 7 25 -7 191
-7 85 -9 172 -5 210 5 36 9 94 11 130 4 104 2 96 18 80 20 -22 46 -103 53
-171 3 -33 10 -59 14 -59 5 0 15 21 23 47 8 27 28 82 45 122 30 74 33 104 6
67 -8 -10 -16 -22 -17 -26 -2 -3 -22 -4 -46 -2 -34 3 -46 10 -54 28 -6 13 -19
26 -28 29 -13 4 -20 21 -25 61 -4 31 -13 71 -21 89 -16 39 -18 75 -5 75 5 0
11 -8 14 -17 3 -10 14 -34 25 -53 11 -19 25 -47 32 -62 7 -15 19 -29 27 -32
20 -8 63 4 63 17 0 5 12 26 28 46 50 67 73 103 69 114 -3 10 -92 -98 -112
-137 -23 -45 -42 -31 -88 64 l-36 75 34 30 c34 30 58 85 36 85 -6 0 -11 -6
-11 -13 0 -15 -58 -77 -71 -77 -5 0 -12 0 -15 0 -11 0 -10 235 1 280 12 45 32
159 42 235 3 22 9 48 14 57 5 9 9 30 9 46 0 16 3 32 7 36 4 3 8 13 9 21 1 8 5
33 9 55 4 22 3 40 -2 40 -13 0 -55 -180 -89 -379 l-18 -103 -22 114 c-21 108
-43 333 -36 371 2 10 13 17 26 17 44 0 70 52 82 160 6 52 -7 127 -21 120 -6
-3 -9 -8 -8 -12 4 -10 3 -140 0 -163 -6 -36 -25 -72 -43 -79 -9 -4 -18 -5 -19
-4 -1 2 1 35 5 73 5 59 6 149 1 228 -1 10 -6 15 -11 12 -6 -4 -10 -14 -9 -23
1 -10 1 -58 0 -108 l-1 -91 -32 5 c-18 3 -36 10 -40 16 -4 6 -5 53 -3 104 3
51 1 92 -4 92 -5 0 -11 -6 -14 -13 -10 -26 -5 -187 7 -241 14 -58 10 -68 -17
-38 -21 23 -33 104 -27 180 5 61 -4 88 -20 63 -4 -7 -6 -57 -4 -113 4 -106 26
-167 62 -169 9 -1 24 -2 32 -3 12 -1 15 -17 15 -81 0 -156 -24 -359 -40 -343
-3 2 -6 20 -9 38 -13 101 -41 200 -57 200 -9 0 0 -70 11 -85 5 -5 16 -50 26
-100 13 -67 16 -131 15 -255 -1 -91 -4 -167 -6 -169 -9 -9 -85 62 -85 80 0 23
-15 25 -24 4 -4 -10 10 -31 37 -59 l43 -43 -34 -72 c-46 -96 -60 -103 -106
-47 -20 25 -36 49 -36 54 0 5 -9 17 -20 27 -11 10 -20 24 -20 32 0 7 -6 13
-14 13 -15 0 -33 38 -40 85 -2 17 -5 30 -6 30 -1 0 -3 9 -5 20 -1 11 -14 88
-28 170 -38 226 -51 371 -52 575 0 156 4 201 23 290 22 103 61 240 68 240 16
0 143 -128 186 -187 38 -52 72 -61 37 -10 -47 66 -106 131 -158 174 l-54 44
-1 215 c-1 118 1 214 5 214 3 0 10 -5 16 -11 6 -6 17 -8 23 -4 9 5 5 14 -13
29 -14 11 -28 32 -32 46 -6 20 -5 23 6 13 7 -7 22 -13 33 -13 19 1 18 3 -7 25
-26 24 -53 82 -42 93 3 3 13 -2 23 -11 19 -18 42 -23 42 -9 0 4 -9 13 -21 20
-32 20 -49 74 -49 157 0 94 -20 101 -21 8 -1 -38 -1 -72 0 -77 4 -23 -33 -189
-56 -247 -20 -53 -32 -70 -60 -84 -32 -17 -37 -18 -61 -4 -15 8 -33 27 -40 42
-7 15 -17 27 -23 27 -20 0 -8 -38 22 -68 35 -36 72 -41 119 -17 l30 16 0 -50
c0 -81 -58 -254 -134 -401 -27 -52 -62 -121 -78 -152 -20 -42 -32 -56 -43 -52
-8 4 -15 11 -15 17 0 7 -4 7 -12 -1 -9 -9 -7 -17 9 -34 26 -29 41 -78 47 -154
5 -71 14 -66 -121 -68 l-72 -1 -11 -45 c-12 -53 -42 -120 -52 -120 -11 0 -10
14 8 110 16 84 18 86 83 153 36 37 69 67 74 67 13 0 37 -67 31 -84 -7 -19 -31
-20 -70 -6 -17 7 -31 7 -37 1 -6 -6 6 -14 34 -21 24 -6 49 -13 56 -15 17 -6
43 28 43 56 0 34 -36 89 -58 89 -10 0 -27 -9 -38 -20 -24 -26 -53 -54 -80 -77
-12 -10 -34 -36 -49 -58 l-27 -40 4 47 c4 37 20 69 71 146 75 113 92 156 107
268 15 115 17 123 30 194 12 65 58 215 98 320 13 34 22 89 25 145 6 120 28
181 86 242 59 62 111 78 157 48 27 -17 64 -78 64 -104 0 -20 83 -79 118 -85
58 -10 114 -9 145 3 33 13 38 36 5 24 -13 -4 -52 -8 -88 -8 -91 1 -126 22
-167 105 -35 70 -58 90 -111 97 -42 6 -88 -12 -128 -49 l-31 -29 -7 32 c-11
56 -9 59 29 53 73 -11 152 63 229 218 49 97 42 127 -8 33 -94 -181 -136 -225
-211 -225 -51 0 -53 4 -51 142 1 83 5 98 30 140 47 80 134 136 241 158 131 25
212 92 203 166 l-4 34 32 -31 c19 -19 35 -46 39 -68z m97 -2026 c-2 -14 -8
-27 -12 -30 -16 -10 -38 7 -43 31 -4 21 -1 24 28 24 29 0 32 -2 27 -25z m-718
-22 c-9 -82 -17 -124 -25 -129 -10 -6 -12 20 -11 100 1 27 7 53 14 57 18 12
26 3 22 -28z m-138 -72 c-5 -88 -12 -121 -26 -121 -18 0 -32 182 -17 207 4 6
16 9 27 6 20 -5 21 -11 16 -92z m1582 25 c3 -74 -11 -111 -21 -54 -20 116 -20
130 -1 126 16 -3 19 -14 22 -72z m-1510 -35 c-2 -59 -7 -96 -14 -98 -16 -5
-23 18 -30 97 -8 80 -4 96 25 96 21 0 22 -4 19 -95z m1592 54 c5 -26 -9 -108
-26 -155 -11 -27 -25 31 -29 113 l-4 78 27 -3 c21 -2 28 -10 32 -33z m-911
-892 c-5 -26 -13 -51 -18 -56 -5 -5 -7 -16 -4 -23 3 -8 0 -21 -7 -29 -6 -7
-10 -22 -8 -32 1 -11 -11 -35 -27 -55 -23 -27 -40 -36 -73 -41 -39 -5 -44 -3
-52 19 -5 13 -14 24 -20 24 -15 0 -13 -7 33 -110 20 -45 34 -90 44 -143 11
-55 21 -35 28 56 6 88 30 166 54 181 7 5 11 -6 12 -31 1 -21 3 -51 6 -68 2
-16 5 -133 7 -260 2 -198 12 -341 31 -484 l4 -34 -23 22 c-26 24 -36 27 -36 8
0 -7 16 -27 35 -46 19 -18 35 -40 35 -49 0 -9 11 -44 25 -77 25 -61 32 -115
16 -115 -6 0 -13 5 -16 10 -5 8 -11 8 -19 1 -9 -7 -16 -7 -24 1 -9 9 -15 9
-24 0 -8 -8 -17 -8 -32 0 -15 8 -21 8 -24 -1 -5 -16 -32 -13 -32 4 0 16 -16
20 -24 6 -8 -12 -42 -3 -56 14 -15 18 12 119 53 204 l31 64 -27 51 c-15 28
-31 76 -37 106 -9 48 -21 99 -60 250 -5 19 -12 63 -16 98 -3 34 -11 62 -17 62
-9 0 -6 -50 8 -141 5 -30 3 -28 -14 15 -17 40 -19 68 -17 170 1 66 8 164 15
216 7 52 11 130 9 173 -2 42 0 76 3 75 11 -5 79 -98 91 -123 6 -13 18 -26 27
-28 22 -5 71 13 71 25 0 15 63 138 71 138 4 0 2 -21 -2 -47z m-121 -261 c8 -6
10 -22 6 -55 -8 -54 -12 -53 -35 8 -12 31 -13 45 -5 49 16 7 20 6 34 -2z m465
2 c13 -5 13 -12 -2 -55 -9 -27 -19 -49 -22 -49 -4 0 -10 21 -14 46 -5 34 -3
49 7 55 16 10 13 10 31 3z m-483 -777 c0 -43 -18 -51 -18 -8 -1 23 3 39 9 36
5 -4 9 -16 9 -28z m517 -29 c-3 -22 -4 -21 -11 4 -5 16 -5 36 0 45 7 16 8 15
11 -4 3 -13 3 -33 0 -45z m-336 -311 c-13 -13 -26 -3 -16 12 3 6 11 8 17 5 6
-4 6 -10 -1 -17z m159 8 c0 -8 -4 -15 -9 -15 -13 0 -22 16 -14 24 11 11 23 6
23 -9z"/>
<path d="M920 4983 c-24 -9 -50 -35 -44 -45 3 -5 21 1 41 13 28 18 39 20 58
11 30 -14 44 3 16 17 -21 12 -47 13 -71 4z"/>
<path d="M1108 4983 c-10 -2 -18 -11 -18 -19 0 -16 16 -19 25 -4 10 16 51 11
77 -10 23 -18 38 -18 38 1 0 10 -65 39 -87 38 -10 -1 -26 -3 -35 -6z"/>
<path d="M923 4930 c-13 -5 -23 -12 -23 -14 0 -3 7 -3 16 1 10 4 22 -1 30 -11
17 -24 48 -16 52 12 3 18 -1 22 -25 21 -15 0 -38 -4 -50 -9z"/>
<path d="M1100 4921 c0 -10 6 -24 14 -30 11 -10 17 -7 29 10 11 15 22 20 36
16 12 -3 21 -2 21 3 0 10 -36 20 -72 20 -21 0 -28 -5 -28 -19z"/>
<path d="M1021 4844 c0 -11 3 -14 6 -6 3 7 2 16 -1 19 -3 4 -6 -2 -5 -13z"/>
<path d="M1070 4840 c0 -11 5 -20 10 -20 6 0 10 9 10 20 0 11 -4 20 -10 20 -5
0 -10 -9 -10 -20z"/>
<path d="M1074 4789 c-4 -6 -21 -8 -43 -5 l-36 6 24 -20 c13 -11 28 -20 35
-20 19 0 57 31 51 41 -8 12 -22 11 -31 -2z"/>
<path d="M1024 4718 c-3 -4 -14 -8 -25 -8 -29 0 -23 -19 9 -26 15 -3 35 -8 44
-10 19 -6 58 12 58 25 0 16 -77 33 -86 19z"/>
<path d="M901 4401 c-10 -10 -20 -24 -23 -31 -4 -13 -19 -11 -105 15 -13 4
-23 3 -23 -2 0 -15 68 -43 105 -43 18 0 46 -5 61 -10 18 -7 31 -7 37 -1 7 7 1
14 -16 20 -32 12 -35 36 -6 44 12 3 18 10 14 16 -9 16 -23 13 -44 -8z"/>
<path d="M1170 4412 c0 -5 11 -14 25 -20 14 -6 25 -16 25 -22 0 -6 -11 -16
-25 -22 -14 -6 -25 -15 -25 -20 0 -10 24 -11 34 0 4 4 28 8 52 8 46 2 124 30
124 46 0 11 -8 10 -55 -7 -58 -21 -85 -19 -85 5 0 20 -27 40 -54 40 -9 0 -16
-4 -16 -8z"/>
<path d="M1000 4359 c0 -19 41 -79 54 -79 17 0 52 39 61 68 9 32 -8 27 -28 -8
-10 -16 -25 -30 -32 -30 -8 0 -21 14 -30 30 -16 31 -25 38 -25 19z"/>
<path d="M1058 4205 c-8 -13 -3 -363 5 -372 9 -8 9 -13 11 166 3 149 -3 226
-16 206z"/>
<path d="M766 3867 c-16 -12 -16 -14 3 -31 20 -19 41 -15 41 8 0 24 -25 37
-44 23z"/>
<path d="M1316 3864 c-16 -15 -16 -18 -2 -33 15 -14 18 -14 33 2 16 15 16 18
2 33 -15 14 -18 14 -33 -2z"/>
<path d="M1036 3699 c-3 -13 -7 -37 -8 -54 -2 -16 -8 -29 -14 -28 -7 1 -38 5
-70 8 -58 5 -84 21 -84 52 0 7 -4 13 -10 13 -13 0 -13 -26 0 -51 6 -10 13 -47
16 -82 3 -34 8 -69 11 -77 4 -8 9 -83 12 -166 4 -95 11 -157 18 -166 8 -9 13
-52 14 -110 1 -88 3 -99 25 -119 18 -17 24 -19 24 -8 0 8 -5 20 -12 27 -6 6
-14 50 -16 97 -4 84 -4 85 19 84 46 -2 74 -15 75 -34 0 -11 1 -55 2 -98 1 -56
5 -78 14 -75 6 2 12 20 13 39 0 19 2 62 3 97 2 58 3 62 26 62 14 0 36 4 49 9
23 9 25 7 31 -28 8 -55 -3 -143 -22 -165 -16 -17 -16 -18 3 -15 32 7 45 47 44
144 0 50 4 104 9 120 5 17 8 84 6 150 -2 69 1 124 7 131 5 6 12 48 16 93 3 45
10 84 15 87 11 7 10 54 -1 54 -5 0 -12 -11 -15 -25 -7 -26 -38 -38 -122 -48
l-42 -5 -5 45 c-6 54 -23 77 -31 42z m-63 -104 l56 -7 -3 -87 c-2 -81 -3 -86
-25 -89 -45 -7 -69 7 -90 51 -25 51 -30 153 -8 144 8 -3 39 -8 70 -12z m235
-53 c-5 -94 -32 -132 -94 -132 l-44 0 0 90 c0 65 3 90 13 91 28 1 102 11 106
15 17 16 23 -5 19 -64z m-179 -276 c1 -60 5 -114 8 -119 10 -16 -87 -1 -104
16 -11 11 -16 43 -19 117 -2 56 -2 105 0 109 3 4 29 3 59 -3 l54 -10 2 -110z
m163 68 c1 -27 1 -75 0 -106 -2 -53 -4 -59 -32 -73 -16 -8 -42 -15 -57 -15
l-29 0 1 117 0 117 50 11 c28 6 53 9 58 5 4 -3 8 -28 9 -56z"/>
<path d="M3160 5280 c-57 -14 -130 -57 -130 -77 0 -7 -4 -13 -10 -13 -14 0
-39 -61 -41 -100 -2 -39 10 -142 17 -149 2 -2 -3 -12 -12 -22 -15 -17 -15 -22
2 -71 10 -29 23 -57 29 -63 26 -23 44 -80 50 -160 7 -86 7 -87 -21 -116 -33
-35 -75 -56 -188 -93 -136 -46 -212 -103 -240 -183 -13 -36 -13 -42 0 -47 8
-3 14 0 15 7 3 48 33 92 93 135 22 16 91 46 151 67 61 20 117 43 126 51 8 8
19 14 24 14 13 0 73 69 81 92 3 11 2 23 -4 27 -17 10 -18 65 -2 78 13 10 13
13 -2 30 -42 47 -81 187 -93 334 -6 76 -4 92 14 127 43 84 111 117 231 110 60
-4 87 -10 122 -31 81 -47 104 -104 88 -217 -6 -41 -15 -106 -21 -144 -6 -43
-21 -91 -39 -125 -32 -58 -37 -81 -19 -81 15 0 4 -71 -12 -80 -16 -11 12 -60
56 -99 37 -32 135 -81 162 -81 26 0 152 -58 188 -87 34 -27 81 -105 89 -150 3
-12 7 -73 10 -137 6 -121 4 -127 -36 -105 -14 7 -23 8 -30 1 -7 -7 0 -15 23
-25 19 -8 39 -20 45 -28 13 -16 23 -73 30 -174 5 -69 5 -70 -11 -40 -23 43
-56 75 -75 75 -9 0 -37 -22 -62 -50 -25 -28 -51 -50 -57 -50 -14 0 -16 286 -1
295 12 8 13 45 2 45 -5 0 -16 -17 -25 -37 -13 -30 -17 -86 -21 -253 -6 -273
-11 -300 -54 -300 -51 1 -133 97 -148 174 -7 40 -21 55 -30 33 -10 -26 35
-130 73 -170 43 -44 68 -59 98 -61 19 -1 20 -7 18 -80 -2 -44 -7 -84 -13 -90
-17 -17 -11 -87 10 -122 19 -29 19 -36 7 -66 -17 -41 -21 -113 -9 -147 5 -14
15 -44 22 -66 6 -22 18 -48 25 -59 17 -22 39 -13 26 12 -39 72 -52 116 -52
172 0 34 2 64 5 67 8 9 47 -85 62 -152 49 -215 51 -387 9 -605 -2 -14 -7 -47
-10 -74 -3 -26 -9 -65 -15 -85 -5 -20 -9 -45 -8 -56 1 -30 -32 -186 -45 -215
-7 -14 -28 -46 -46 -72 -31 -42 -37 -46 -65 -41 -17 3 -37 10 -44 16 -14 11
-17 16 -86 151 -44 87 -66 115 -66 86 0 -23 97 -204 128 -241 28 -33 40 -39
72 -39 35 0 43 5 75 46 19 26 35 42 35 37 0 -19 -45 -138 -69 -183 -4 -8 -27
-22 -51 -31 -50 -19 -40 -33 13 -18 36 10 77 50 77 75 0 7 4 15 9 19 6 3 9
-33 8 -90 -1 -52 -4 -95 -7 -95 -3 0 -14 7 -24 15 -22 17 -66 20 -66 5 0 -5 9
-10 21 -10 28 0 89 -64 89 -94 0 -13 7 -40 15 -59 18 -44 20 -126 3 -162 -14
-30 -55 -55 -92 -55 -14 0 -28 -4 -31 -10 -10 -15 66 -12 98 4 33 18 34 14 9
-80 -10 -38 -31 -87 -45 -108 -15 -21 -27 -45 -27 -53 0 -7 -4 -21 -9 -31 -5
-9 -16 -35 -24 -56 l-14 -40 -18 37 c-9 20 -23 41 -31 48 -22 18 -18 -18 8
-60 36 -60 50 -61 74 -7 l14 31 -6 -40 c-3 -22 -12 -67 -19 -100 -22 -98 -31
-163 -34 -240 -1 -45 -2 -48 -17 -34 -14 15 -14 24 0 108 20 111 21 171 4 171
-9 0 -13 -20 -15 -62 0 -35 -3 -76 -6 -93 -18 -100 -18 -117 -2 -141 8 -13 25
-24 36 -24 25 0 93 -65 84 -80 -4 -6 -60 -10 -141 -10 l-134 0 0 24 c0 13 16
47 35 75 46 67 56 94 61 163 2 42 0 58 -10 58 -8 0 -13 -18 -14 -55 -1 -53
-23 -118 -44 -131 -20 -12 10 159 33 191 9 13 22 190 20 276 -1 37 -8 87 -17
110 -36 97 -16 374 33 458 24 42 24 44 5 39 -17 -5 -22 2 -36 56 -35 133 -55
234 -60 301 -3 39 -8 81 -10 95 -3 14 -7 86 -10 160 -3 74 -8 171 -11 215 -12
158 -20 337 -16 341 2 2 26 -13 53 -32 53 -40 124 -53 213 -40 58 9 58 33 -1
26 -67 -8 -140 -3 -170 13 -16 8 -45 32 -64 52 l-35 36 1 120 c2 96 -1 119
-12 119 -11 0 -14 -21 -14 -100 0 -120 -18 -165 -82 -207 -33 -22 -55 -28
-113 -31 -39 -2 -89 1 -110 7 -49 13 -72 -3 -29 -20 33 -14 175 -18 217 -6 16
4 48 26 73 49 l44 41 0 -39 c0 -22 -5 -91 -10 -154 -5 -63 -13 -189 -16 -280
l-7 -165 -41 -36 c-24 -21 -58 -69 -81 -114 -42 -80 -74 -115 -107 -115 -23 0
-19 -23 4 -28 26 -5 85 56 119 123 18 35 48 81 66 102 l32 38 1 -35 c0 -40
-18 -211 -30 -285 -9 -51 -49 -207 -56 -214 -2 -2 -20 9 -39 24 -49 37 -60 21
-13 -17 57 -46 74 -95 93 -274 8 -78 -2 -87 -95 -86 -39 1 -70 -3 -70 -7 0
-16 111 -25 143 -13 l30 11 -7 -62 c-6 -61 -7 -63 -69 -119 -34 -31 -67 -57
-72 -58 -19 0 -121 154 -135 205 -20 66 -20 281 -1 355 17 65 18 302 2 352 -6
18 -10 47 -10 63 1 39 -5 77 -35 231 -76 391 -91 521 -77 644 14 111 51 264
81 334 12 29 23 83 27 128 6 81 16 95 35 53 6 -14 19 -25 29 -25 18 0 18 2 -1
33 -43 72 -48 84 -51 127 -2 25 -12 68 -22 95 -19 48 -36 237 -36 375 l1 55
12 -34 c14 -41 42 -58 31 -20 -19 67 -39 127 -51 154 -7 17 -16 42 -20 58 -3
15 -12 27 -20 27 -18 0 -18 -9 3 -56 11 -27 17 -75 19 -157 2 -65 5 -136 8
-158 2 -21 0 -39 -5 -39 -5 0 -9 5 -9 11 0 12 -26 48 -76 106 -24 28 -35 34
-52 28 -28 -8 -75 -77 -70 -102 3 -14 11 -6 34 30 16 26 34 47 41 47 17 0 77
-77 108 -138 27 -54 27 -54 7 -75 -42 -47 -50 -77 -50 -205 -1 -68 -5 -129
-10 -135 -5 -7 -12 -25 -16 -42 -10 -41 -82 -191 -110 -229 -26 -36 -51 -89
-61 -129 -6 -22 -10 -25 -21 -16 -11 9 -14 7 -14 -14 0 -14 4 -28 9 -31 5 -4
10 -74 10 -156 2 -124 -1 -150 -12 -150 -15 0 -27 29 -27 68 0 13 -6 22 -15
22 -12 0 -15 -11 -13 -47 3 -85 -1 -113 -17 -113 -10 0 -15 10 -15 33 0 58
-12 107 -26 107 -11 0 -14 -19 -14 -81 0 -60 -3 -80 -12 -77 -9 3 -14 34 -16
94 -2 49 -6 92 -11 97 -4 4 -13 -18 -20 -50 -19 -89 -21 -93 -38 -86 -12 5
-14 15 -9 47 18 110 39 180 63 204 27 27 25 37 -5 28 -19 -6 -37 -36 -61 -99
-6 -15 -15 -27 -21 -27 -29 0 7 103 59 169 26 33 86 150 105 206 14 39 46 208
46 241 0 18 5 36 10 39 6 3 10 16 10 29 0 23 49 106 62 106 13 0 0 -172 -17
-219 -17 -48 -6 -80 14 -42 16 28 22 69 28 191 5 97 7 107 31 128 16 14 22 26
16 32 -6 6 -27 -6 -57 -34 -26 -23 -47 -39 -47 -34 0 4 16 43 36 85 36 77 36
79 39 228 2 134 7 194 20 232 2 7 25 18 50 24 61 15 58 33 -4 27 l-49 -5 3 96
c3 53 7 112 10 132 6 34 -7 61 -18 41 -3 -4 -8 -68 -12 -142 -3 -74 -11 -171
-18 -215 -6 -44 -10 -135 -9 -202 3 -120 2 -122 -33 -199 -39 -85 -85 -260
-104 -399 -19 -132 -64 -244 -140 -345 -23 -30 -41 -64 -41 -75 0 -12 -5 -26
-11 -32 -6 -6 -12 -35 -12 -63 -2 -50 6 -64 41 -76 1 0 -2 -21 -6 -46 -16 -81
16 -115 57 -61 l20 28 1 -30 c1 -73 31 -104 62 -65 10 12 19 16 23 10 3 -5 15
-10 25 -10 14 0 22 11 30 41 9 31 14 39 23 30 42 -42 58 24 55 225 -2 180 8
227 68 314 19 27 34 52 34 54 0 3 18 42 40 88 54 115 70 183 70 306 0 90 3
108 22 134 l21 30 20 -68 c10 -38 21 -103 24 -144 6 -92 -13 -251 -37 -305
-66 -148 -92 -378 -65 -570 9 -66 19 -140 22 -165 3 -25 9 -53 14 -62 5 -9 9
-33 9 -53 0 -19 11 -86 24 -148 29 -132 56 -353 56 -453 0 -39 -7 -111 -16
-160 -20 -112 -16 -309 7 -374 21 -58 23 -65 43 -125 17 -54 65 -244 71 -285
37 -233 38 -256 18 -272 -33 -23 -63 -75 -63 -107 l0 -31 153 0 c85 0 156 2
159 5 4 4 -4 72 -16 140 -2 11 -9 52 -15 92 -6 40 -19 91 -28 115 -15 36 -18
70 -16 213 2 94 4 238 5 320 2 168 2 177 -20 259 -12 46 -13 68 -4 105 43 181
75 374 74 451 0 8 4 76 9 150 4 74 11 180 14 235 3 54 7 101 9 102 2 2 7 -90
11 -204 4 -114 8 -215 10 -223 1 -8 6 -46 10 -85 12 -122 35 -256 65 -378 18
-74 20 -95 11 -130 -6 -23 -16 -105 -22 -182 -11 -132 -11 -146 11 -244 19
-90 22 -120 15 -210 -10 -161 -11 -165 -22 -186 -19 -38 -34 -125 -49 -282
l-6 -62 151 1 c162 1 179 6 167 51 -3 13 -24 42 -46 63 -48 47 -49 56 -20 226
27 155 53 266 97 408 32 103 36 128 37 235 1 84 -5 144 -17 200 -29 128 -18
347 32 640 42 239 82 560 76 595 -4 19 -9 49 -11 65 -11 97 -18 132 -39 207
-21 76 -35 120 -56 173 -10 25 -19 128 -21 225 0 50 7 106 23 169 l25 95 24
-40 c21 -34 24 -53 27 -159 2 -89 9 -137 25 -185 25 -78 81 -194 130 -271 45
-69 59 -119 52 -184 -11 -102 -11 -298 1 -331 15 -46 22 -50 44 -30 18 17 19
16 26 -23 8 -47 38 -65 59 -35 13 17 14 16 20 -4 16 -49 66 -15 66 44 l0 27
24 -23 c43 -39 56 -22 56 70 0 59 3 80 13 79 32 -4 37 2 37 49 0 76 -27 147
-93 252 -89 139 -109 183 -122 280 -19 136 -68 312 -114 413 -30 65 -31 72
-30 200 0 73 -4 144 -10 159 -5 14 -13 95 -16 178 -4 89 -13 169 -21 192 -8
22 -14 48 -14 58 0 27 -54 95 -102 127 -43 28 -115 60 -193 84 -57 17 -105 43
-138 73 -27 25 -28 30 -26 109 2 85 19 147 49 182 22 25 35 97 21 122 -6 13
-6 45 0 96 12 94 1 143 -42 192 -61 69 -175 99 -279 75z m685 -1596 c8 -9 22
-29 30 -45 9 -16 20 -29 26 -29 6 0 9 -23 8 -57 -2 -42 4 -73 20 -113 13 -30
30 -71 38 -90 8 -19 18 -43 24 -52 15 -29 1 -21 -33 17 -33 38 -66 60 -76 51
-3 -4 6 -19 20 -34 22 -23 27 -40 33 -117 9 -113 22 -186 36 -200 8 -7 10 6 6
50 -4 33 -9 92 -13 130 l-6 70 26 -34 c38 -50 68 -164 67 -253 0 -10 4 -20 10
-23 5 -4 9 -16 9 -29 0 -31 28 -87 92 -181 88 -130 123 -220 96 -243 -12 -9
-17 -2 -32 37 -19 54 -49 91 -73 91 -14 0 -14 -3 4 -22 11 -13 23 -28 27 -35
9 -16 26 -106 32 -172 3 -30 8 -59 10 -63 3 -5 -2 -11 -11 -15 -22 -8 -29 4
-44 83 -19 96 -37 78 -34 -34 2 -56 -1 -93 -8 -97 -18 -11 -22 1 -24 77 -1 39
-6 73 -12 75 -10 4 -23 -48 -23 -97 0 -14 -5 -32 -10 -40 -18 -27 -30 9 -30
93 0 81 -13 102 -25 40 -9 -48 -23 -75 -36 -68 -15 10 -11 256 5 286 11 22 11
35 -4 90 -16 60 -46 124 -74 159 -12 14 -51 94 -95 192 -26 57 -43 170 -40
263 3 71 -7 102 -52 167 -11 14 -19 33 -19 41 0 15 116 147 130 147 5 0 16 -7
25 -16z m-710 -2872 c-9 -43 13 -289 29 -320 15 -30 49 -182 42 -190 -17 -16
-48 62 -61 151 -4 26 -11 47 -16 47 -12 0 -11 -77 1 -85 6 -3 10 -21 10 -38 0
-32 30 -93 55 -112 7 -6 16 -28 20 -48 l7 -37 -136 0 c-150 0 -161 6 -111 56
21 21 30 23 64 18 56 -9 70 20 59 122 -4 42 -13 84 -18 94 -6 10 -10 31 -10
45 0 32 -18 68 -30 60 -5 -3 0 -36 10 -73 10 -37 20 -101 22 -142 3 -69 2 -75
-17 -75 -18 0 -21 9 -27 75 -9 106 -52 332 -81 423 -8 26 -11 47 -6 47 5 0 9
-4 9 -9 0 -15 51 -71 64 -71 6 0 34 20 61 45 28 24 54 44 58 45 5 0 6 -12 2
-28z"/>
<path d="M3790 3262 c0 -9 10 -12 32 -10 44 4 47 24 3 24 -23 0 -35 -5 -35
-14z"/>
<path d="M4070 2663 c0 -44 23 -142 32 -137 6 4 7 20 4 36 -3 18 -2 27 4 23 6
-3 10 -12 10 -18 0 -20 17 -40 28 -33 11 7 -24 106 -38 106 -4 0 -10 9 -13 20
-6 24 -27 27 -27 3z"/>
<path d="M4027 2633 c-18 -21 -47 -100 -39 -108 12 -12 21 -2 33 40 16 54 24
50 20 -10 -1 -27 2 -45 8 -45 7 0 11 27 11 70 0 73 -6 82 -33 53z"/>
<path d="M3110 4384 c0 -3 20 -28 44 -55 25 -28 49 -68 57 -94 7 -25 17 -45
21 -45 14 0 9 45 -9 82 -30 59 -113 142 -113 112z"/>
<path d="M3299 4293 c-6 -16 -13 -45 -16 -65 -4 -30 -2 -38 10 -38 10 0 15 11
15 39 0 22 6 49 11 60 14 25 14 31 1 31 -6 0 -15 -12 -21 -27z"/>
<path d="M3099 4013 c-1 -5 0 -20 1 -34 2 -33 -25 -98 -48 -115 -9 -7 -37 -14
-62 -14 -53 0 -105 36 -146 102 -29 46 -53 42 -27 -5 43 -77 110 -127 170
-127 41 0 92 28 113 62 21 35 29 138 10 138 -5 0 -10 -3 -11 -7z"/>
<path d="M3350 3972 c0 -11 6 -35 14 -54 51 -120 182 -129 265 -16 23 31 28
45 20 52 -8 8 -13 7 -16 -2 -11 -31 -66 -81 -104 -96 -39 -16 -43 -16 -78 2
-38 20 -68 61 -74 102 -5 29 -27 39 -27 12z"/>
<path d="M3219 3913 c-1 -71 -8 -235 -15 -340 -7 -111 -32 -170 -81 -193 -37
-17 -38 -36 -2 -32 32 4 74 54 88 105 24 94 42 507 21 507 -5 0 -10 -21 -11
-47z"/>
<path d="M2976 3499 c-10 -17 -29 -35 -42 -41 -26 -12 -30 -23 -14 -33 13 -8
53 23 79 62 25 38 25 43 8 43 -7 0 -21 -14 -31 -31z"/>
<path d="M3266 3482 c-3 -5 0 -27 6 -51 8 -32 20 -48 48 -66 21 -13 46 -36 57
-51 12 -16 25 -24 32 -20 15 10 -16 49 -69 88 -28 21 -43 41 -50 69 -11 40
-15 45 -24 31z"/>
<path d="M2630 3267 c0 -29 35 -39 59 -18 25 21 10 41 -14 21 -12 -10 -18 -10
-30 0 -12 10 -15 10 -15 -3z"/>
<path d="M2901 2975 c-17 -20 -31 -42 -31 -50 0 -7 -3 -20 -6 -29 -12 -32 16
-15 32 19 9 20 27 44 40 54 13 10 24 24 24 30 0 22 -29 10 -59 -24z"/>
<path d="M3200 2968 c0 -43 12 -68 32 -68 18 0 18 2 4 22 -9 12 -16 33 -16 45
0 13 -4 23 -10 23 -5 0 -10 -10 -10 -22z"/>
<path d="M2394 2646 c-34 -39 -63 -126 -41 -126 7 0 18 12 25 28 6 15 9 18 7
7 -5 -22 10 -53 21 -42 10 10 18 147 8 147 -5 -1 -14 -7 -20 -14z"/>
<path d="M2430 2580 c0 -56 3 -70 15 -70 11 0 15 12 16 43 1 45 0 46 25 -32 3
-10 8 -11 16 -3 12 12 -12 93 -36 117 -28 29 -36 17 -36 -55z"/>
</g>
</svg>
