<?xml version="1.0" standalone="no"?>
<!DOCTYPE svg PUBLIC "-//W3C//DTD SVG 20010904//EN"
 "http://www.w3.org/TR/2001/REC-SVG-20010904/DTD/svg10.dtd">
<svg version="1.0" xmlns="http://www.w3.org/2000/svg"
 width="425.000000pt" height="588.000000pt" viewBox="0 0 425.000000 588.000000"
 preserveAspectRatio="xMidYMid meet">

<g transform="translate(0.000000,588.000000) scale(0.100000,-0.100000)"
fill="#000000" stroke="none">
<path d="M170 5764 c0 -34 4 -53 10 -49 6 3 10 14 10 23 1 14 5 12 21 -7 11
-13 22 -21 26 -17 3 3 -1 14 -10 24 -21 23 -21 36 -2 52 25 21 17 32 -10 14
-23 -15 -25 -15 -25 0 0 9 -4 16 -10 16 -5 0 -10 -25 -10 -56z"/>
<path d="M260 5780 c0 -5 10 -10 23 -11 20 0 19 -2 -6 -11 -39 -14 -32 -42 11
-46 28 -3 32 0 32 22 0 40 -11 56 -36 56 -13 0 -24 -4 -24 -10z m35 -50 c-3
-5 -10 -10 -16 -10 -5 0 -9 5 -9 10 0 6 7 10 16 10 8 0 12 -4 9 -10z"/>
<path d="M340 5749 c0 -21 5 -39 10 -39 6 0 10 14 10 31 0 24 4 30 18 27 10
-2 17 -13 17 -25 0 -12 4 -25 8 -29 4 -4 7 9 7 29 0 21 -3 38 -7 38 -63 10
-63 10 -63 -32z"/>
<path d="M449 5779 c-11 -7 -9 -9 9 -9 29 0 29 -18 0 -22 -26 -3 -36 -33 -14
-41 30 -12 56 4 56 34 0 32 -27 53 -51 38z m31 -49 c0 -5 -7 -10 -15 -10 -8 0
-15 5 -15 10 0 6 7 10 15 10 8 0 15 -4 15 -10z"/>
<path d="M520 5739 c0 -45 16 -44 22 1 4 35 33 33 34 -3 1 -15 4 -31 8 -35 4
-4 6 11 4 33 -3 37 -5 40 -35 43 -33 3 -33 3 -33 -39z"/>
<path d="M1648 5774 c-12 -11 -10 -94 2 -94 6 0 10 8 10 17 0 14 4 12 25 -7
14 -13 25 -19 25 -13 0 6 -7 16 -15 23 -8 7 -15 18 -15 25 0 7 7 18 15 25 8 7
15 17 15 23 0 6 -11 0 -24 -12 l-24 -23 -4 22 c-2 12 -6 18 -10 14z"/>
<path d="M1730 5770 c0 -5 5 -10 11 -10 5 0 7 5 4 10 -3 6 -8 10 -11 10 -2 0
-4 -4 -4 -10z"/>
<path d="M2357 5727 c-3 -21 -2 -48 3 -60 9 -22 9 -22 9 2 l1 24 25 -23 c32
-30 42 -21 14 14 l-21 27 23 25 c12 13 18 24 12 24 -5 0 -18 -9 -29 -21 l-19
-21 -6 24 c-4 19 -6 17 -12 -15z"/>
<path d="M1730 5709 c0 -24 4 -38 10 -34 6 3 10 22 10 41 0 19 -4 34 -10 34
-5 0 -10 -18 -10 -41z"/>
<path d="M1771 5708 l1 -43 10 33 c6 17 17 32 25 32 8 0 11 5 8 10 -3 6 -15
10 -26 10 -16 0 -19 -7 -18 -42z"/>
<path d="M1830 5705 c0 -19 5 -35 10 -35 6 0 10 16 10 35 0 19 -4 35 -10 35
-5 0 -10 -16 -10 -35z"/>
<path d="M2448 5718 c-2 -7 -1 -26 3 -43 6 -28 7 -26 8 13 1 42 -3 53 -11 30z"/>
<path d="M2487 5723 c-11 -10 -8 -73 3 -73 6 0 10 14 10 30 0 20 5 30 15 30 8
0 15 5 15 10 0 11 -33 14 -43 3z"/>
<path d="M2553 5690 c0 -25 2 -35 4 -22 2 12 2 32 0 45 -2 12 -4 2 -4 -23z"/>
<path d="M3762 5670 c0 -30 2 -47 5 -37 6 22 19 22 32 0 5 -10 13 -15 17 -10
4 4 -1 16 -11 27 -18 20 -18 21 5 45 13 14 19 25 13 25 -6 0 -16 -7 -23 -15
-16 -20 -27 -19 -33 3 -3 9 -5 -8 -5 -38z"/>
<path d="M3863 5684 c23 -7 22 -20 -4 -27 -32 -8 -21 -42 14 -43 26 -1 28 1
25 35 -3 30 -7 36 -28 38 -14 1 -18 0 -7 -3z m17 -42 c0 -13 -12 -22 -22 -16
-10 6 -1 24 13 24 5 0 9 -4 9 -8z"/>
<path d="M3931 5646 c1 -28 3 -33 6 -16 10 55 43 62 43 9 0 -16 5 -29 10 -29
11 0 14 69 3 72 -5 0 -20 2 -35 3 -27 2 -28 0 -27 -39z"/>
<path d="M4035 5679 c-19 -7 -19 -8 3 -8 27 -1 30 -21 2 -21 -13 0 -20 -7 -20
-20 0 -16 7 -20 30 -20 27 0 30 3 30 34 0 37 -14 48 -45 35z m30 -49 c-3 -5
-13 -10 -21 -10 -8 0 -12 5 -9 10 3 6 13 10 21 10 8 0 12 -4 9 -10z"/>
<path d="M4109 5678 c-7 -21 -8 -68 0 -68 5 0 11 12 13 28 5 40 32 35 38 -8
l6 -35 5 31 c7 44 1 54 -32 54 -16 0 -29 -1 -30 -2z"/>
<path d="M925 5496 c-78 -29 -125 -119 -125 -242 0 -53 -3 -64 -19 -69 -11 -3
-22 -13 -25 -21 -8 -20 17 -78 41 -95 41 -29 58 -163 38 -286 -6 -34 -49 -93
-68 -93 -7 0 -25 -7 -40 -15 -16 -8 -72 -22 -125 -30 -109 -18 -161 -43 -198
-96 -34 -49 -43 -125 -44 -347 0 -160 -3 -186 -37 -350 -33 -159 -37 -200 -44
-397 -4 -121 -14 -254 -21 -295 -14 -75 -14 -75 -92 -150 -80 -77 -106 -114
-106 -150 0 -32 27 -35 70 -6 22 14 41 26 43 26 2 0 0 -21 -4 -47 -12 -74 -11
-177 3 -191 7 -7 20 -12 29 -12 9 0 19 -9 22 -20 5 -20 47 -29 47 -11 0 5 8 7
18 4 10 -2 26 5 36 16 10 11 24 17 32 14 8 -3 22 9 34 29 19 31 20 47 19 238
-2 226 -5 212 90 483 58 164 109 483 93 576 -3 17 -1 23 6 16 14 -14 42 -180
42 -250 0 -84 -21 -163 -74 -282 -119 -268 -124 -553 -16 -1043 69 -315 80
-410 80 -703 0 -306 21 -446 116 -765 48 -159 44 -266 -10 -311 -29 -24 -48
-70 -41 -100 7 -31 44 -54 66 -41 8 5 19 4 26 -2 7 -6 22 -8 33 -5 10 3 24 -1
31 -9 17 -20 53 -17 75 7 22 24 23 41 10 324 -7 166 4 572 19 690 2 17 7 168
11 338 4 169 9 306 11 304 2 -2 2 -305 1 -673 -2 -368 -3 -727 -2 -799 1 -154
15 -208 55 -213 14 -2 31 4 38 11 9 12 18 13 43 3 24 -8 32 -8 35 1 3 9 10 10
23 3 14 -8 29 -5 57 11 21 11 42 25 47 29 16 15 -4 61 -47 108 -61 66 -77 96
-77 139 0 50 42 206 79 292 30 72 61 177 80 271 6 30 15 161 21 290 15 343 48
528 140 793 65 187 90 475 66 732 -17 175 -30 228 -81 337 -59 129 -70 178
-70 333 0 118 20 313 31 303 1 -2 6 -44 9 -93 18 -264 44 -417 104 -605 110
-352 105 -323 105 -546 1 -184 3 -204 20 -223 15 -16 22 -18 33 -10 15 13 15
14 31 -24 9 -20 17 -27 28 -23 9 4 23 1 30 -5 19 -15 44 -4 44 19 0 15 6 18
24 15 33 -7 41 21 38 135 -1 50 2 92 6 92 4 0 16 -7 26 -15 11 -8 35 -15 54
-15 32 0 34 2 28 26 -10 40 -45 81 -118 140 -37 30 -70 65 -73 77 -2 12 -6
121 -8 242 l-3 220 -41 120 c-63 182 -85 314 -114 685 -13 162 -35 224 -96
264 -50 32 -118 49 -165 42 -48 -8 -82 9 -130 62 -52 58 -56 68 -59 167 -3
107 18 183 62 224 16 14 32 41 35 58 5 27 3 34 -15 41 -20 7 -22 16 -24 104
-2 84 -6 100 -29 136 -15 22 -43 53 -63 68 -31 23 -48 28 -113 31 -51 2 -91
-2 -117 -11z m191 -20 c83 -39 114 -100 114 -225 0 -130 -36 -273 -86 -338
-79 -104 -225 -78 -279 50 -47 113 -62 341 -27 419 48 106 166 146 278 94z
m-312 -328 c8 -33 7 -58 -3 -58 -12 0 -34 57 -26 69 10 18 22 13 29 -11z m460
-35 c-10 -29 -34 -43 -34 -19 0 8 5 27 10 42 15 38 38 16 24 -23z m-281 -278
c54 -8 108 6 153 40 l34 26 1 -63 c1 -82 7 -99 49 -152 55 -69 83 -83 175 -88
61 -3 91 -10 123 -28 74 -42 95 -100 107 -295 3 -55 12 -143 20 -195 8 -52 15
-112 15 -133 0 -62 29 -183 77 -327 l46 -135 -1 -224 -1 -225 99 -96 c55 -53
100 -104 100 -113 0 -10 -2 -17 -5 -17 -15 0 -73 30 -91 47 -25 24 -64 46 -64
36 0 -3 9 -16 20 -28 17 -18 22 -40 26 -121 5 -97 -2 -134 -25 -120 -6 4 -13
29 -17 57 -10 78 -24 68 -22 -15 2 -70 -4 -97 -18 -84 -3 3 -9 32 -14 64 -8
63 -29 148 -34 143 -2 -2 0 -29 5 -59 4 -30 8 -75 8 -100 0 -40 -1 -43 -13
-27 -7 9 -21 60 -31 112 -10 52 -20 95 -22 95 -3 0 -2 -33 2 -74 5 -46 3 -81
-3 -92 -23 -41 -33 35 -31 225 l2 186 -41 130 c-22 72 -45 146 -50 165 -6 19
-24 78 -40 131 -27 86 -61 279 -76 439 -3 30 -6 122 -6 205 0 82 -4 145 -8
140 -5 -6 -16 -55 -26 -110 -16 -98 -18 -101 -62 -142 -101 -94 -245 -61 -308
70 -17 34 -25 45 -26 31 0 -30 58 -114 98 -141 68 -45 169 -37 241 19 13 10
26 17 27 15 2 -2 -1 -53 -7 -113 -5 -60 -7 -138 -3 -174 8 -82 48 -222 79
-277 38 -69 54 -131 70 -276 31 -286 7 -573 -65 -782 -46 -134 -60 -184 -90
-335 -31 -155 -36 -206 -50 -511 -10 -219 -32 -332 -95 -487 -36 -89 -85 -266
-85 -307 0 -39 28 -91 78 -146 54 -60 69 -89 47 -89 -8 0 -15 5 -15 10 0 6 -5
10 -11 10 -6 0 -8 -9 -4 -22 6 -20 3 -19 -20 7 -15 17 -25 23 -22 15 2 -8 7
-25 11 -37 5 -14 3 -23 -3 -23 -16 0 -51 38 -51 55 0 8 -5 15 -10 15 -7 0 -8
-13 -4 -35 5 -28 3 -35 -10 -35 -18 0 -29 22 -45 90 -10 44 -10 44 -8 -25 2
-65 0 -70 -20 -73 -38 -6 -47 29 -47 198 -1 85 0 593 2 1129 l2 973 78 80 c42
44 91 87 107 94 l30 13 -28 1 c-23 0 -46 -18 -115 -90 l-87 -89 -60 80 c-33
45 -70 89 -83 100 -27 21 -52 25 -52 9 0 -5 9 -10 20 -10 12 0 35 -21 61 -57
24 -32 58 -76 76 -98 l34 -39 -6 -151 c-12 -343 -25 -732 -30 -915 -3 -107
-10 -265 -16 -350 -11 -176 -13 -587 -3 -731 7 -103 -1 -133 -35 -142 -27 -7
-43 15 -36 50 l6 28 -21 -27 c-25 -33 -44 -37 -35 -8 8 24 -1 26 -21 5 -21
-20 -35 -19 -27 2 7 17 6 17 -20 0 -15 -9 -27 -13 -27 -7 0 5 9 15 20 22 11 7
20 16 20 19 0 4 -9 5 -20 2 -28 -7 -25 3 14 49 72 84 70 198 -6 408 -22 63
-75 320 -83 412 -4 35 -8 182 -9 328 -4 271 -9 320 -56 530 -28 125 -65 327
-86 470 -33 228 -6 496 67 662 73 166 83 205 82 318 -1 73 -9 137 -26 208 -24
102 -24 103 -3 87 90 -66 98 -69 152 -68 89 2 174 66 199 151 10 36 -3 25 -26
-20 -28 -56 -46 -76 -91 -99 -53 -27 -116 -24 -172 7 -76 42 -86 65 -86 188 0
58 -4 106 -9 106 -5 0 -11 -115 -13 -267 -4 -244 -7 -280 -32 -398 -15 -71
-55 -211 -89 -310 l-61 -180 -1 -215 c0 -164 -3 -222 -14 -242 -8 -16 -18 -28
-23 -28 -4 0 -9 37 -9 83 l-2 82 -11 -85 c-12 -87 -20 -110 -37 -110 -6 0 -8
41 -5 108 6 114 -6 97 -20 -28 -3 -36 -11 -73 -16 -84 -18 -33 -28 4 -21 77 4
47 2 67 -6 67 -6 0 -11 -16 -11 -36 0 -38 -15 -74 -30 -74 -18 0 -10 151 15
290 l6 35 -18 -35 c-10 -19 -39 -47 -66 -64 -95 -59 -69 3 50 119 l83 80 16
100 c9 55 18 183 21 285 4 158 10 210 39 356 31 153 35 195 40 385 6 254 15
308 55 354 33 38 120 75 173 75 39 0 145 32 187 57 44 26 69 86 69 166 l0 67
39 -39 c30 -30 51 -41 84 -46z"/>
<path d="M860 5200 c-12 -8 -11 -10 8 -10 16 0 22 -5 20 -17 -2 -12 3 -18 17
-18 13 0 19 6 18 18 -1 14 4 17 18 14 10 -3 21 -2 24 3 11 18 -79 27 -105 10z"/>
<path d="M1060 5190 c0 -5 9 -10 21 -10 11 0 18 -4 15 -9 -8 -12 21 -34 34
-26 5 3 10 14 10 25 0 14 5 17 22 12 14 -3 19 -2 14 6 -9 15 -116 16 -116 2z"/>
<path d="M980 5008 c0 -5 18 -8 40 -8 22 0 40 4 40 8 0 4 -18 8 -40 7 -22 0
-40 -3 -40 -7z"/>
<path d="M970 4959 c-13 -8 -13 -10 0 -19 27 -19 61 -23 87 -11 18 8 23 15 16
22 -14 14 -86 20 -103 8z"/>
<path d="M930 4645 c7 -8 17 -15 22 -15 6 0 5 7 -2 15 -7 8 -17 15 -22 15 -6
0 -5 -7 2 -15z"/>
<path d="M1040 4645 c-8 -9 -8 -15 -2 -15 12 0 26 19 19 26 -2 2 -10 -2 -17
-11z"/>
<path d="M694 4135 c-8 -21 3 -45 20 -45 20 0 29 16 21 40 -7 23 -33 27 -41 5z"/>
<path d="M1262 4131 c-21 -13 -10 -46 16 -49 27 -4 40 22 22 43 -14 17 -20 18
-38 6z"/>
<path d="M985 3390 c-7 -12 2 -30 16 -30 5 0 9 9 9 20 0 21 -15 27 -25 10z"/>
<path d="M3256 5460 c-95 -29 -148 -109 -154 -232 -4 -67 -7 -78 -24 -84 -31
-9 -18 -71 21 -104 40 -34 65 -127 59 -221 -3 -59 -8 -72 -33 -99 -34 -35
-118 -78 -218 -111 -89 -29 -145 -79 -182 -161 -32 -72 -39 -132 -50 -423 -7
-185 -8 -194 -52 -345 -47 -164 -58 -239 -68 -440 -8 -157 -25 -219 -74 -273
-61 -68 -111 -139 -111 -158 0 -31 12 -49 32 -49 20 0 20 -4 14 -75 -7 -71 -6
-76 19 -100 14 -14 25 -32 25 -40 0 -20 17 -28 46 -21 14 4 24 14 24 24 1 16
1 16 11 0 14 -24 46 -23 54 2 6 18 8 19 22 4 15 -14 18 -14 35 4 17 17 21 42
29 203 5 101 14 215 20 253 14 86 60 228 97 303 33 65 53 144 82 315 16 95 19
148 15 280 -5 154 3 179 20 68 3 -19 12 -68 20 -108 39 -187 30 -258 -49 -412
-99 -193 -118 -261 -151 -534 -12 -102 -13 -146 -5 -210 11 -82 58 -243 90
-306 34 -68 44 -197 45 -595 2 -461 -3 -435 136 -805 57 -152 62 -173 66 -265
l5 -100 -38 0 c-29 0 -39 -4 -42 -18 -7 -36 9 -68 73 -141 71 -81 108 -100
148 -73 22 14 22 17 23 323 0 170 3 318 6 330 4 11 9 97 13 190 6 132 4 193
-8 279 -14 95 -15 168 -8 523 5 227 11 415 14 418 7 7 18 -239 21 -476 1 -107
9 -240 16 -296 11 -84 11 -122 0 -232 -10 -98 -11 -179 -4 -324 10 -222 10
-479 0 -588 -8 -84 2 -115 45 -139 36 -20 71 -8 133 47 55 49 86 90 86 115 0
18 -54 42 -75 33 -35 -13 -13 119 43 259 42 104 92 274 102 346 6 41 9 189 8
329 -3 247 -2 259 26 390 15 74 39 166 53 205 159 441 182 574 149 845 -22
181 -37 232 -107 374 -85 171 -86 176 -41 444 21 123 40 220 44 217 6 -7 1
-249 -7 -321 -8 -66 7 -156 56 -333 58 -211 78 -335 83 -526 2 -60 8 -137 14
-170 6 -33 14 -81 17 -107 6 -47 28 -83 45 -73 4 3 10 -3 13 -14 7 -27 93 -27
108 0 7 14 16 18 30 14 29 -9 42 36 37 127 -4 71 -3 76 13 67 34 -18 49 -11
49 24 0 25 -12 45 -52 87 -28 30 -62 73 -77 94 l-26 40 -1 275 c-1 258 -2 281
-24 351 -21 69 -23 102 -30 410 -8 359 -18 448 -58 522 -31 58 -72 80 -190
102 -84 16 -140 45 -189 98 -28 29 -53 89 -53 124 0 51 34 209 47 217 15 9 34
74 26 93 -3 8 -11 14 -19 14 -9 0 -14 20 -17 73 -3 66 -3 64 -5 -25 -1 -56
-13 -149 -27 -220 -14 -68 -25 -137 -25 -154 0 -34 39 -116 73 -152 33 -36
135 -80 214 -92 114 -18 159 -61 183 -175 6 -28 13 -187 16 -355 6 -298 13
-384 49 -550 13 -60 16 -122 13 -315 -4 -277 -8 -260 97 -374 62 -68 80 -101
53 -101 -20 1 -44 22 -61 56 -15 29 -47 63 -47 50 0 -4 9 -25 20 -47 13 -24
23 -69 27 -118 10 -133 -15 -176 -32 -53 -9 67 -21 59 -24 -15 -2 -66 -8 -93
-22 -93 -5 0 -9 32 -9 70 0 88 -16 92 -22 5 -4 -59 -11 -85 -22 -74 -6 6 -14
56 -15 92 -1 43 -21 31 -21 -13 0 -22 -4 -40 -10 -40 -5 0 -10 2 -10 4 0 2 -9
61 -20 132 -11 71 -20 170 -20 219 -1 165 -25 306 -95 550 l-38 130 1 340 c1
242 -2 328 -9 300 -5 -22 -30 -159 -55 -305 -59 -346 -59 -362 23 -525 75
-149 87 -188 108 -348 22 -164 17 -348 -14 -462 -29 -109 -101 -338 -111 -350
-14 -19 -40 -110 -72 -255 -31 -145 -32 -146 -33 -455 -1 -294 -2 -314 -24
-380 -13 -38 -31 -97 -41 -130 -10 -33 -30 -89 -46 -125 -34 -82 -53 -161 -54
-224 0 -46 1 -48 25 -42 21 5 38 0 74 -21 10 -6 -134 -134 -156 -139 -64 -16
-92 35 -79 144 16 138 17 264 2 503 -10 168 -13 274 -7 305 20 108 22 248 6
364 -10 72 -16 183 -15 297 0 163 -9 375 -25 578 l-6 70 27 -34 c53 -66 143
-87 219 -52 44 21 127 90 108 91 -7 0 -28 -14 -47 -30 -89 -79 -187 -80 -257
-3 -48 52 -52 69 -50 209 1 73 -2 135 -7 138 -12 7 -23 -151 -16 -224 5 -49 3
-59 -23 -91 -43 -56 -82 -79 -135 -79 -56 0 -106 20 -152 61 -20 17 -41 29
-48 27 -16 -6 88 -82 131 -97 75 -25 135 -10 195 47 l38 37 -7 -120 c-16 -263
-21 -937 -8 -1025 15 -105 16 -286 2 -445 -9 -109 -15 -437 -9 -597 2 -79 -2
-88 -40 -88 -39 0 -170 140 -170 181 0 15 3 30 8 32 15 9 45 -10 58 -39 12
-26 13 -14 10 106 -4 129 -6 140 -46 250 -92 253 -117 328 -133 395 -23 96
-36 274 -26 365 13 123 10 335 -7 500 -13 133 -20 166 -49 235 -79 187 -95
300 -71 495 31 249 48 310 126 466 77 154 106 256 96 334 -12 87 -98 515 -108
530 -5 9 -7 -24 -4 -90 19 -374 18 -442 -3 -565 -30 -166 -47 -232 -77 -290
-77 -149 -107 -285 -119 -550 -7 -126 -13 -194 -22 -207 -12 -21 -23 9 -23 63
0 32 -4 59 -9 59 -9 0 -21 -57 -21 -102 0 -31 -18 -47 -31 -27 -5 8 -9 35 -9
62 0 64 -16 60 -24 -7 -4 -30 -13 -62 -21 -72 -13 -18 -14 -18 -20 -1 -4 10
-3 50 3 89 14 92 2 111 -18 30 -8 -35 -19 -62 -25 -60 -16 5 -6 179 12 206 25
40 9 46 -20 8 -33 -42 -47 -46 -47 -12 0 15 24 54 63 101 96 119 105 137 112
234 23 318 28 362 51 446 71 255 74 268 74 372 0 195 19 403 43 468 30 83 86
138 169 163 93 29 193 79 232 116 26 24 36 43 41 81 9 57 -6 171 -35 263 -27
85 -27 230 -1 287 36 79 114 122 206 112 93 -10 155 -54 183 -132 l10 -30 1
31 c1 23 -10 43 -38 76 -58 65 -159 93 -245 68z"/>
<path d="M3306 4163 c-21 -227 -14 -510 15 -537 8 -8 9 4 3 44 -11 70 -12 404
-1 493 5 41 5 67 -1 67 -5 0 -12 -30 -16 -67z"/>
<path d="M2700 3591 c0 -17 40 -33 66 -27 13 4 24 11 24 16 0 6 -11 8 -24 4
-13 -3 -34 -1 -45 6 -13 7 -21 7 -21 1z"/>
<path d="M3900 3560 c-8 -5 -27 -6 -44 -3 -21 4 -27 3 -22 -5 9 -15 73 -16 81
-1 10 15 2 20 -15 9z"/>
<path d="M369 238 c-8 -24 -7 -118 1 -118 6 0 10 26 10 60 0 33 -2 60 -5 60
-3 0 -5 -1 -6 -2z"/>
<path d="M864 195 c-16 -40 -13 -99 7 -111 7 -4 8 8 4 37 -4 25 -2 57 5 73 16
44 3 45 -16 1z"/>
<path d="M602 198 c-8 -8 -8 -17 0 -32 6 -12 11 -22 10 -23 -9 -13 2 -33 16
-32 10 0 12 3 5 6 -15 5 -18 60 -4 65 5 2 3 8 -4 15 -9 8 -16 8 -23 1z"/>
<path d="M1420 200 c0 -5 5 -10 10 -10 6 0 10 5 10 10 0 6 -4 10 -10 10 -5 0
-10 -4 -10 -10z"/>
<path d="M1630 205 c0 -2 5 -16 12 -29 8 -20 8 -36 -1 -67 -14 -46 -9 -62 9
-29 20 37 12 130 -11 130 -5 0 -9 -2 -9 -5z"/>
<path d="M260 143 c1 -50 2 -56 14 -41 7 10 16 15 19 12 3 -3 15 0 27 6 16 9
20 19 18 43 -3 29 -6 32 -40 35 l-38 3 0 -58z m58 14 c2 -19 -1 -27 -13 -27
-19 0 -30 24 -21 46 9 23 31 11 34 -19z"/>
<path d="M410 191 c0 -6 12 -11 28 -12 l27 -1 -32 -14 c-51 -22 -40 -63 13
-50 22 6 25 11 22 44 -3 32 -7 37 -30 40 -16 2 -28 -1 -28 -7z m40 -56 c-12
-15 -30 -12 -30 6 0 5 10 9 21 9 18 0 19 -2 9 -15z"/>
<path d="M500 151 c0 -33 3 -42 10 -31 5 8 10 25 10 38 0 39 34 23 40 -18 l6
-35 6 30 c9 42 -6 64 -42 63 -29 -1 -30 -3 -30 -47z"/>
<path d="M678 193 c-10 -3 -18 -8 -18 -13 0 -4 8 -6 19 -3 10 3 22 0 25 -6 4
-7 -1 -11 -12 -11 -23 0 -46 -25 -37 -40 10 -16 52 -12 59 6 14 36 -6 74 -36
67z m32 -52 c0 -14 -18 -23 -30 -16 -6 4 -8 11 -5 16 8 12 35 12 35 0z"/>
<path d="M1190 185 c-8 -10 -9 -15 -1 -15 6 0 11 -16 11 -35 0 -30 3 -35 23
-35 20 1 20 2 5 11 -10 5 -18 21 -18 34 0 17 6 25 18 26 13 0 14 2 2 6 -8 3
-18 10 -21 15 -3 5 -12 2 -19 -7z"/>
<path d="M740 150 c0 -22 5 -40 10 -40 6 0 10 13 10 30 0 17 7 33 18 39 14 9
13 10 -10 11 -26 0 -28 -3 -28 -40z"/>
<path d="M910 134 c0 -30 5 -54 10 -54 6 0 10 7 10 15 0 9 6 12 15 9 23 -9 45
15 45 47 0 16 -3 30 -7 30 -5 1 -23 3 -40 5 l-33 2 0 -54z m64 27 c10 -16 -6
-42 -23 -39 -9 2 -17 13 -19 26 -3 16 2 22 17 22 11 0 22 -4 25 -9z"/>
<path d="M1022 178 c-7 -7 -12 -21 -12 -33 0 -48 63 -64 80 -19 13 32 13 30
-6 48 -18 19 -45 21 -62 4z m54 -23 c8 -20 -13 -45 -32 -38 -8 3 -14 16 -14
29 0 17 6 24 20 24 11 0 23 -7 26 -15z"/>
<path d="M1125 176 c-16 -12 -16 -13 0 -29 9 -9 21 -17 26 -17 6 0 7 -5 4 -10
-4 -6 -16 -8 -27 -4 -14 4 -18 2 -14 -5 11 -17 46 -13 53 5 4 11 -2 23 -17 34
l-24 18 25 4 c19 2 21 5 7 10 -9 4 -24 1 -33 -6z"/>
<path d="M2560 170 c0 -13 -5 -18 -15 -14 -23 9 -45 -15 -45 -47 0 -29 18 -41
55 -35 17 2 20 12 23 59 2 35 -1 57 -8 57 -5 0 -10 -9 -10 -20z m0 -54 c0 -29
-26 -42 -38 -18 -13 23 -4 42 19 42 13 0 19 -7 19 -24z"/>
<path d="M1254 166 c-3 -8 -4 -25 -2 -38 2 -19 10 -23 38 -25 27 -1 30 0 12 5
-31 9 -29 26 3 30 18 2 25 9 23 20 -4 23 -66 29 -74 8z m51 -6 c3 -5 -3 -10
-15 -10 -12 0 -18 5 -15 10 3 6 10 10 15 10 5 0 12 -4 15 -10z"/>
<path d="M1350 139 c0 -24 4 -38 10 -34 6 3 10 16 10 27 0 11 8 27 18 34 15
12 14 13 -10 14 -26 0 -28 -3 -28 -41z"/>
<path d="M1420 139 c0 -24 4 -38 10 -34 6 3 10 22 10 41 0 19 -4 34 -10 34 -5
0 -10 -18 -10 -41z"/>
<path d="M1474 172 c-19 -12 -23 -51 -7 -67 31 -32 73 -11 73 36 0 33 -37 51
-66 31z m49 -24 c7 -21 -4 -38 -23 -38 -23 0 -34 16 -26 35 7 18 43 20 49 3z"/>
<path d="M1585 171 c-22 -7 -33 -65 -15 -76 6 -4 10 7 10 25 0 22 6 33 22 39
26 9 11 20 -17 12z"/>
<path d="M2940 119 c0 -37 4 -58 10 -54 6 3 10 31 10 61 0 30 -4 54 -10 54 -6
0 -10 -27 -10 -61z"/>
<path d="M3036 158 c-13 -49 -4 -118 14 -118 5 0 4 15 -1 32 -5 18 -7 39 -5
48 3 8 7 25 11 38 3 12 2 22 -3 22 -5 0 -12 -10 -16 -22z"/>
<path d="M3716 138 c9 -41 9 -47 0 -81 -3 -15 -2 -27 3 -27 14 0 24 64 17 105
-4 19 -12 35 -17 35 -7 0 -8 -12 -3 -32z"/>
<path d="M2618 149 c-23 -13 -24 -65 -2 -73 31 -12 55 -6 63 17 18 48 -18 81
-61 56z m47 -39 c0 -38 -39 -35 -43 3 -3 25 0 28 20 25 17 -2 23 -9 23 -28z"/>
<path d="M2728 153 c-14 -4 -18 -14 -17 -46 2 -30 3 -34 6 -15 2 15 13 34 24
42 22 15 15 25 -13 19z"/>
<path d="M3279 148 c-5 -57 19 -116 35 -89 4 6 2 11 -3 11 -6 0 -11 14 -11 30
0 17 5 30 11 30 6 0 4 7 -5 15 -18 18 -26 19 -27 3z"/>
<path d="M2770 131 c0 -11 9 -23 20 -26 27 -8 25 -23 -2 -28 -20 -4 -20 -4 4
-6 36 -1 47 19 20 37 -25 16 -30 37 -7 28 8 -3 15 -1 15 4 0 6 -11 10 -25 10
-18 0 -25 -5 -25 -19z"/>
<path d="M2850 142 c0 -6 8 -8 19 -5 10 3 22 0 25 -6 4 -6 1 -11 -6 -11 -8 0
-23 -6 -33 -14 -16 -12 -17 -16 -6 -30 7 -8 24 -15 38 -14 22 2 24 6 21 43 -3
35 -6 40 -30 43 -16 2 -28 -1 -28 -6z m45 -52 c-3 -5 -13 -10 -21 -10 -8 0
-14 5 -14 10 0 6 9 10 21 10 11 0 17 -4 14 -10z"/>
<path d="M3095 140 c-3 -5 3 -10 14 -10 28 0 27 -18 -1 -22 -15 -2 -23 -10
-23 -23 0 -15 8 -21 33 -23 31 -3 32 -2 32 36 0 27 -5 42 -16 46 -22 8 -32 8
-39 -4z m35 -50 c0 -5 -7 -10 -15 -10 -8 0 -15 5 -15 10 0 6 7 10 15 10 8 0
15 -4 15 -10z"/>
<path d="M3181 98 l2 -43 6 35 c4 26 11 35 26 35 15 0 22 -9 26 -35 l6 -35 2
43 c1 42 1 42 -34 42 -35 0 -35 0 -34 -42z"/>
<path d="M3344 126 c-16 -42 17 -87 52 -71 17 8 17 9 -6 13 -39 6 -48 22 -13
22 37 0 50 15 33 35 -16 19 -59 19 -66 1z m51 -6 c3 -5 -3 -10 -15 -10 -12 0
-18 5 -15 10 3 6 10 10 15 10 5 0 12 -4 15 -10z"/>
<path d="M3440 93 c0 -51 8 -52 20 -1 3 18 12 32 18 31 7 -2 12 2 12 7 0 6
-11 10 -25 10 -23 0 -25 -4 -25 -47z"/>
<path d="M3513 95 c0 -27 2 -38 4 -22 2 15 2 37 0 50 -2 12 -4 0 -4 -28z"/>
<path d="M3552 131 c-8 -5 -12 -22 -10 -42 2 -27 8 -35 26 -37 29 -4 52 14 52
42 0 39 -36 58 -68 37z m48 -35 c0 -28 -24 -41 -40 -21 -16 20 -5 45 20 45 14
0 20 -7 20 -24z"/>
<path d="M3658 133 c-13 -3 -18 -15 -18 -44 0 -21 5 -39 10 -39 6 0 10 14 10
30 0 18 6 33 15 36 8 4 15 10 15 15 0 9 -4 10 -32 2z"/>
</g>
</svg>
