<svg xmlns="http://www.w3.org/2000/svg" viewBox="0 0 861.96 637.28" class="nk-size-ph nk-margin-auto nk-shading" id="inside-front-body">
  <defs>
    <style>
      .cls-1 {
        fill: none;
      }

      .cls-2,
      .cls-6 {
        fill: #fff;
      }

      .cls-3,
      .cls-4 {
        fill: #1d1d1b;
      }

      .cls-4 {
        opacity: 0.4;
      }

      .cls-5 {
        fill: #f2f3f4;
      }

      .cls-6 {
        stroke: #1d1d1b;
        stroke-miterlimit: 10;
        stroke-width: 2px;
      }
    </style>
  </defs>
  <g id="Layer_2" data-name="Layer 2">
    <g id="Layer_1-2" data-name="Layer 1">
      <rect class="cls-1" width="861.96" height="637.28"></rect>
      <path class="cls-2" d="M289.29,353.05l0-.08c-.64-1.22-1.31-2.69-2-4.25a55.75,55.75,0,0,0-3.87-7.57c-2.61-4-6.59-7.37-10.1-10.38a6.45,6.45,0,0,1-2.5-4.21c-1.21-6.74-2-14.64-2.78-23-.65-6.75-1.32-13.73-2.3-21.12a84.34,84.34,0,0,0-4.72-18c-2.26-6.45-4.39-12.54-4.51-21.26-.06-4.4-.18-13.6-.21-18a104.51,104.51,0,0,0-1.71-17.67c-1-6.27-3-19.95-3-20.08-.24-1.88-.36-4.14-.49-6.53-.29-5.24-.62-11.18-2.31-15.29-2.29-5.56-6.12-13-11.37-16.69-6.1-4.33-14.43-6.45-18.85-7.34a14.68,14.68,0,0,1-4.12-1.49c-6.58-3.54-16.1-6.88-21.79-8.87l-2.52-.89a3.06,3.06,0,0,1-2-2.9V112.81a30.35,30.35,0,0,0,12.34-20.18,151.74,151.74,0,0,0,1.83-27.58c0-21.53-16.21-34.64-32.5-35.12l-2.46,0-.24,0c-16.28.48-32.49,13.6-32.49,35.15a221,221,0,0,0,1.83,27.53,29.44,29.44,0,0,0,12.34,20.2v14.62a3.06,3.06,0,0,1-2,2.9l-2.52.89c-5.69,2-15.21,5.33-21.79,8.87a14.68,14.68,0,0,1-4.12,1.49c-4.42.89-12.75,3-18.85,7.34-5.25,3.73-9.08,11.13-11.37,16.69-1.7,4.11-2,10-2.31,15.29-.13,2.39-.26,4.65-.49,6.52,0,.14-2,13.82-3,20.09a103.58,103.58,0,0,0-1.71,17.67c0,4.41-.15,13.61-.21,18-.12,8.72-2.25,14.81-4.51,21.26a84.91,84.91,0,0,0-4.73,18c-1,7.39-1.65,14.37-2.3,21.12-.8,8.37-1.56,16.27-2.77,23a6.43,6.43,0,0,1-2.51,4.21c-3.5,3-7.48,6.41-10.09,10.38a55.75,55.75,0,0,0-3.87,7.57c-.71,1.56-1.37,3-2.05,4.33-.53,1.25-.89,2.28-.35,3.11a2.62,2.62,0,0,0,2.3.9c3.61.11,5.78-3.35,6.72-4.81.08-.14.16-.25.22-.34L57,351c1.18-2,2-3.25,2.64-4.09-.49,1.92-1.57,5.32-3.65,10.86-1.18,3.11-3.28,8.79-4.4,11.8-.4,1.07-.67,1.81-.75,2a4.9,4.9,0,0,0,.31,3.54,2.63,2.63,0,0,0,1.65,1.3c1.28.34,3.11.2,4.58-2.43.65-1.17,3.17-7.88,5.7-14.66L64,357h0c-1,3.28-5.36,18.31-5.55,20.31-.11,1.06-.38,3.86,2.43,4.46a3.55,3.55,0,0,0,4.32-2.52c.24-.75,1.71-5.91,3.13-10.89,1.07-3.77,2.12-7.45,2.6-9.09l.23,0c-.77,3.42-3.14,14.3-3.54,17.09a3.41,3.41,0,0,0,2.52,4.09c1.83.35,3.6-1,4.21-3.09,1.67-5.84,3.19-14.07,3.83-17.72l.24,0c-.12,1.23-.38,3.06-.66,5a86.7,86.7,0,0,0-1,8.71c0,3,1.5,3.77,2.8,3.86a3.62,3.62,0,0,0,3.63-3.42c.17-1.26,2.85-16.41,4.1-21.35a48.51,48.51,0,0,0,1.13-6.6,54.84,54.84,0,0,0,.19-6.93c-.11-2.45-.31-7,.29-9.72,1.29-5.81,4.16-12.79,7.19-20.18,4.73-11.51,9.61-23.4,10.16-34.06l.08-1.67a246.75,246.75,0,0,1,5.78-44,128.52,128.52,0,0,0,2.73-19.76c0-.56.08-1.12.12-1.65a5.21,5.21,0,0,0,1.68,1.79,1.55,1.55,0,0,1,.86,1.68c0,4.92,2.13,13.59,4,21.23,1.25,5.07,2.42,9.86,2.55,12,.29,5,.44,11.79.59,18.37.08,3.5.15,6.95.25,10,.39,12.75-2.28,28.88-3.88,38.53-.31,1.85-.57,3.43-.75,4.65-2.33,15.49-5,39.17-1.76,66,2.7,33.79,7.9,51.09,11,61.42,1.28,4.26,2.2,7.33,2.34,9.67a41.15,41.15,0,0,1-.11,7.89c-.17,1-.41,2.49-.69,4.18-1.08,6.55-2.73,16.44-2.82,20.52-.31,14.16,1.93,24.14,4.51,35.69,1.09,4.88,2.22,9.93,3.26,15.71.14.77.6,2.44,1.24,4.75,2.35,8.53,7.86,28.5,4.9,34.42a65.92,65.92,0,0,1-9,13.31c-3.17,3.83-5.46,6.6-5.35,10.21.09,2.82,5,4.25,18.14,5.26,1.77.14,3.56.17,5.29.21s3.46.07,5,.21l.44,0c3,.28,6.38.6,8.42-.25a5.35,5.35,0,0,0,3.05-2.37l.09-.21c.08-.28.14-.55.2-.83a4.9,4.9,0,0,0,3.42,3.39l.16.06a9.54,9.54,0,0,0,3.55.52c1.49,0,3.14-.16,4.68-.3l.48-.05c1.5-.14,3.18-.17,5-.21s3.52-.07,5.29-.21c13.13-1,18.05-2.44,18.14-5.26.11-3.61-2.18-6.38-5.35-10.21a65.92,65.92,0,0,1-9-13.31c-3-5.92,2.55-25.89,4.9-34.42.64-2.31,1.1-4,1.24-4.75,1-5.78,2.16-10.83,3.26-15.71,2.58-11.55,4.82-21.53,4.5-35.69-.09-4.08-1.73-14-2.81-20.51-.28-1.7-.53-3.15-.69-4.19a40.33,40.33,0,0,1-.11-7.89c.14-2.34,1.06-5.41,2.34-9.67,3.11-10.33,8.31-27.63,11-61.38,3.28-26.84.57-50.53-1.76-66-.18-1.22-.44-2.8-.75-4.65-1.6-9.64-4.27-25.78-3.88-38.53.1-3.08.17-6.52.25-10,.15-6.59.3-13.4.59-18.39.13-2.16,1.33-7.09,2.6-12.31,1.81-7.43,3.85-15.82,4-20.55a11.63,11.63,0,0,0,1.88-3.51c.16-.43.33-.88.56-1.38.08.78.15,1.75.22,2.71a126,126,0,0,0,2.73,19.76,247.62,247.62,0,0,1,5.78,44l.08,1.67c.55,10.66,5.43,22.55,10.15,34.06,3,7.39,5.91,14.37,7.2,20.18.6,2.73.4,7.27.29,9.72a54.84,54.84,0,0,0,.19,6.93,48.51,48.51,0,0,0,1.13,6.6c1.25,4.94,3.93,20.09,4.1,21.35a3.61,3.61,0,0,0,3.63,3.42c1.3-.09,2.84-.83,2.79-3.86a83.49,83.49,0,0,0-1-8.71c-.28-1.91-.54-3.74-.66-5l.24,0c.64,3.66,2.16,11.9,3.83,17.72.61,2.14,2.38,3.44,4.21,3.09a3.39,3.39,0,0,0,2.51-4.09c-.39-2.78-2.76-13.67-3.53-17.09l.23,0c.48,1.64,1.54,5.36,2.62,9.16,1.41,4.95,2.87,10.07,3.11,10.82a3.55,3.55,0,0,0,4.32,2.52c2.8-.6,2.54-3.4,2.43-4.46-.19-2-4.58-17-5.55-20.31h0l.89,2.38c2.53,6.79,5.06,13.52,5.71,14.69,1.47,2.63,3.3,2.77,4.58,2.43a2.63,2.63,0,0,0,1.65-1.3,4.92,4.92,0,0,0,.28-3.62c-.05-.14-.32-.88-.72-1.95-1.12-3-3.23-8.69-4.4-11.8A113.54,113.54,0,0,1,277.23,347c.61.85,1.46,2.14,2.63,4.08.26.43.45.74.54.87s.14.21.22.35c.94,1.46,3.14,4.93,6.71,4.81a2.63,2.63,0,0,0,2.31-.9C290.18,355.33,289.82,354.3,289.29,353.05Zm-121,239.84a90.91,90.91,0,0,0-1.14-11.61,40.22,40.22,0,0,1-.67-9.1c0-1.47,0-3-.06-4.46-.11-1.77-.21-3.41-.31-5-.38-6-.68-10.79-.68-18.29,0-5.78.18-10.45.55-14.71,1-10.82,2.2-31.41,1.87-41.24a177.21,177.21,0,0,0-2.22-24,63.42,63.42,0,0,1-.65-16.28c.46-5.39.57-11,.64-14.39,0-1.57,0-2.8.09-3.16,2.57-21.5,2.23-47.28,1.94-70-.13-9.58-.25-18.65-.15-26.79h1.85c.09,8.15,0,17.21-.17,26.78-.32,22.64-.69,48.31,1.95,70,0,3.13,0,10.2.7,17.24a64.48,64.48,0,0,1-.62,16.74A176.22,176.22,0,0,0,169,488.51c-.33,9.75.91,30.28,1.86,41.09.37,4.35.56,9.12.56,14.59,0,9-.39,13.86-.77,18.57-.14,1.64-.27,3.28-.38,5.06-.09,1.37-.09,2.71-.1,4.12a42.39,42.39,0,0,1-.84,9.73A89.3,89.3,0,0,0,168.32,592.89Z"></path>
      <path class="cls-3" d="M290.42,352.46l0-.08c-.63-1.19-1.29-2.64-2-4.18a57.34,57.34,0,0,0-4-7.75c-2.71-4.11-6.76-7.58-10.33-10.64a5.23,5.23,0,0,1-2.08-3.47c-1.2-6.69-2-14.57-2.76-22.91-.65-6.76-1.32-13.75-2.31-21.17A85,85,0,0,0,262.17,264c-2.22-6.35-4.33-12.34-4.44-20.86,0-3.31-.18-13.37-.21-18a105.76,105.76,0,0,0-1.73-17.88c-1-6.25-3-19.92-3-20.06-.23-1.8-.35-4-.48-6.41-.3-5.34-.63-11.4-2.4-15.7-2.36-5.72-6.32-13.34-11.81-17.25-6.3-4.46-14.82-6.64-19.34-7.54A13.57,13.57,0,0,1,215,139c-6.66-3.59-16.25-6.95-22-8.95l-2.51-.89a1.78,1.78,0,0,1-1.13-1.7v-14a31.65,31.65,0,0,0,12.32-20.64A153.1,153.1,0,0,0,203.59,65c0-22.27-16.79-35.83-33.66-36.37l-.37,0h-2.23l-.35,0c-16.87.54-33.66,14.1-33.66,36.39a224.66,224.66,0,0,0,1.86,27.71,30.74,30.74,0,0,0,12.33,20.71v14a1.79,1.79,0,0,1-1.13,1.7l-2.51.89c-5.72,2-15.31,5.36-22,8.95a13.69,13.69,0,0,1-3.77,1.37c-4.52.9-13,3.08-19.34,7.54-5.49,3.91-9.45,11.53-11.81,17.25-1.77,4.3-2.11,10.36-2.4,15.7-.13,2.37-.25,4.61-.49,6.44,0,.11-2,13.78-3,20a104.74,104.74,0,0,0-1.73,17.88c0,4.62-.17,14.68-.21,18-.12,8.52-2.22,14.51-4.44,20.86A85.55,85.55,0,0,0,70,282.26c-1,7.42-1.65,14.41-2.3,21.17-.8,8.34-1.56,16.22-2.76,22.91a5.27,5.27,0,0,1-2.08,3.47c-3.57,3.06-7.62,6.53-10.33,10.64a57.34,57.34,0,0,0-4,7.75c-.7,1.54-1.35,3-2,4.18l-.05.08,0,.1c-.5,1.19-1.19,2.82-.24,4.29a3.89,3.89,0,0,0,3.35,1.48h.14a8,8,0,0,0,5.9-3q-.35,1-.75,2c-1.17,3.1-3.28,8.78-4.39,11.79l-.73,2,0,.09,0,.08a6.08,6.08,0,0,0,.43,4.52,3.93,3.93,0,0,0,2.43,1.91,5,5,0,0,0,1.31.18,4.75,4.75,0,0,0,3.57-1.65c-.08.41-.14.73-.16.94-.4,4.12,1.65,5.44,3.43,5.83a5.79,5.79,0,0,0,1.16.12,4.76,4.76,0,0,0,4.64-3.51l.21-.7A4.32,4.32,0,0,0,70,381.73a4.47,4.47,0,0,0,.82.08,5.23,5.23,0,0,0,4.85-4.07c.15-.51.3-1,.44-1.58a4,4,0,0,0,3.46,2.29h.3a4.86,4.86,0,0,0,4.68-4.52c.17-1.25,2.83-16.3,4.07-21.2a48.89,48.89,0,0,0,1.16-6.82,55.57,55.57,0,0,0,.2-7.09c-.1-2.22-.31-6.83.26-9.39,1.27-5.7,4.12-12.63,7.13-20,4.54-11.06,9.69-23.6,10.25-34.47,0-.51,0-1.07.08-1.68a246.35,246.35,0,0,1,5.75-43.78,128.28,128.28,0,0,0,2.73-19.48,4.13,4.13,0,0,1,.15,1.27c0,5.08,2.15,13.82,4,21.54,1.23,5,2.39,9.74,2.51,11.76.29,5,.44,11.76.59,18.34.08,3.56.15,6.93.25,10,.39,12.63-2.27,28.69-3.86,38.28-.31,1.86-.57,3.44-.76,4.67-2.34,15.55-5.06,39.34-1.77,66.32,2.72,33.89,7.94,51.26,11.06,61.64,1.25,4.17,2.16,7.19,2.29,9.38a39.13,39.13,0,0,1-.1,7.61c-.16,1-.4,2.49-.68,4.18-1.09,6.58-2.74,16.53-2.84,20.69-.31,14.31,1.94,24.36,4.54,36,1.09,4.87,2.22,9.9,3.25,15.66.15.83.59,2.43,1.26,4.86,2.12,7.66,7.74,28,5,33.52a65.89,65.89,0,0,1-8.89,13.06c-3.22,3.9-5.77,7-5.64,11.06.12,3.79,4.81,5.37,19.31,6.49,1.81.14,3.62.18,5.36.21s3.41.07,4.87.21l.44,0c1.55.14,3.31.31,4.9.31a10.54,10.54,0,0,0,4-.62l.08,0a7.48,7.48,0,0,0,2.92-1.85,7.37,7.37,0,0,0,2.88,1.82l.15.06a10.43,10.43,0,0,0,4,.62c1.56,0,3.29-.16,4.82-.31l.48,0c1.45-.14,3.11-.17,4.86-.21s3.56-.07,5.37-.21c14.5-1.12,19.19-2.7,19.31-6.49.12-4.09-2.42-7.16-5.64-11.06a65.89,65.89,0,0,1-8.89-13.06c-2.74-5.49,2.88-25.86,5-33.52.67-2.43,1.11-4,1.26-4.86,1-5.76,2.16-10.79,3.25-15.66,2.6-11.64,4.85-21.69,4.53-36-.09-4.16-1.74-14.11-2.83-20.69-.28-1.69-.52-3.14-.68-4.18a38.34,38.34,0,0,1-.1-7.61c.13-2.19,1-5.21,2.29-9.38,3.12-10.38,8.34-27.75,11-61.64,3.3-27,.57-50.77-1.76-66.32-.19-1.23-.45-2.81-.76-4.67-1.59-9.59-4.25-25.65-3.86-38.28.1-3.09.17-6.46.25-10,.15-6.58.3-13.38.59-18.34.12-2.05,1.31-6.93,2.57-12.09,1.87-7.69,4-16.4,4-21.21a4.56,4.56,0,0,1,.13-1.24,131.87,131.87,0,0,0,2.75,19.45,246.35,246.35,0,0,1,5.75,43.78c0,.61.05,1.17.08,1.68.56,10.87,5.71,23.41,10.25,34.47,3,7.34,5.86,14.27,7.13,20,.57,2.56.36,7.17.26,9.39a55.57,55.57,0,0,0,.2,7.09,48.89,48.89,0,0,0,1.16,6.82c1.24,4.9,3.9,19.95,4.07,21.2a4.86,4.86,0,0,0,4.68,4.52h.3a4,4,0,0,0,3.46-2.29c.14.54.29,1.07.43,1.58a5.25,5.25,0,0,0,4.86,4.07,4.47,4.47,0,0,0,.82-.08,4.32,4.32,0,0,0,3.28-2.81c.09.33.16.57.2.7a4.78,4.78,0,0,0,4.65,3.51,5.79,5.79,0,0,0,1.16-.12c1.78-.39,3.83-1.71,3.43-5.83a8.9,8.9,0,0,0-.17-.94,4.78,4.78,0,0,0,3.58,1.65,5,5,0,0,0,1.31-.18,3.93,3.93,0,0,0,2.43-1.91,6.08,6.08,0,0,0,.43-4.52l0-.08,0-.09-.73-2c-1.11-3-3.22-8.69-4.39-11.79l-.76-2a8,8,0,0,0,5.91,3h.14a3.89,3.89,0,0,0,3.35-1.48c1-1.47.26-3.1-.25-4.29Zm-153-260a211.33,211.33,0,0,1-1.8-27.43c0-21.07,15.82-33.68,31.56-34.1l.13,0h2.22l.13,0c15.75.42,31.57,13,31.57,34.1a146.83,146.83,0,0,1-1.8,27.43A30,30,0,0,1,187,112.35a52.28,52.28,0,0,1-6.26,3.67,30.32,30.32,0,0,1-5.66,2.56c-2.41.67-10.79.67-13.19,0a33.3,33.3,0,0,1-6.53-3,39.51,39.51,0,0,1-10.59-7.65,28.71,28.71,0,0,1-6.2-10.56A26.36,26.36,0,0,1,137.45,92.48Zm31.48,479.46a44,44,0,0,1-.62,8.53,41.12,41.12,0,0,1-.53-8.28c0-1.49,0-3-.06-4.54-.11-1.78-.21-3.41-.31-5-.38-6-.68-10.76-.68-18.22,0-5.74.18-10.38.55-14.6.38-4.38.82-10.37,1.18-16.6.35,6.17.78,12.1,1.16,16.45s.56,9,.56,14.48c0,8.93-.39,13.77-.77,18.46-.13,1.62-.26,3.29-.38,5.09C168.94,569.15,168.94,570.57,168.93,571.94ZM167,430.84c.64-5.39,1.1-11,1.43-16.86.33,5.74.79,11.34,1.44,16.71,0,1.41-.07,8.89.71,17.29a63.17,63.17,0,0,1-.6,16.4c-.65,3.75-1.15,7.78-1.54,12.17-.38-4.42-.89-8.47-1.54-12.24a62.3,62.3,0,0,1-.63-16c.46-5.44.57-11.1.64-14.48C166.94,432.53,167,431.14,167,430.84ZM287.31,356h-.09c-3.27,0-5.3-3.72-6-4.71-.48-.71-3.75-6.55-5.08-6.86h-.06c-1.32,0,3,11.52,3.83,13.71,1.59,4.22,4.91,13.2,5.12,13.75.37,1.28.12,3.22-1.24,3.58a3.27,3.27,0,0,1-.73.1c-1,0-1.93-.66-2.7-2.05s-5.73-14.81-6.72-17.41a.48.48,0,0,0-.47-.31.69.69,0,0,0-.2,0l-1,.34a.45.45,0,0,0-.3.56c.82,2.71,5.48,18.74,5.67,20.64.2,2.08-.23,3.06-1.63,3.37a4,4,0,0,1-.68.07,2.51,2.51,0,0,1-2.46-1.9c-.42-1.36-4.95-17.33-5.83-20.35a.59.59,0,0,0-.57-.4l-.14,0-1.06.15a.53.53,0,0,0-.44.63c.57,2.51,3.21,14.61,3.63,17.54a2.39,2.39,0,0,1-1.69,3l-.39,0a3,3,0,0,1-2.65-2.4c-1.89-6.6-3.56-16.24-3.87-18a.5.5,0,0,0-.42-.4l-1.23-.14h-.1a.5.5,0,0,0-.5.55c.18,2.88,1.65,10.82,1.7,14.23,0,1.92-.57,2.74-1.84,2.83h-.14a2.62,2.62,0,0,1-2.41-2.54c-.18-1.28-2.85-16.44-4.12-21.46a48.26,48.26,0,0,1-1.1-6.43,51.78,51.78,0,0,1-.19-6.81c.12-2.74.3-7.19-.32-10-3.27-14.73-16.42-36.6-17.32-54.06A250.17,250.17,0,0,0,225.74,229c-2.58-11.59-2.57-19.47-3-22.78,0-.11.09-.22.12-.33a30.12,30.12,0,0,0,1-6.24c.11-1.48.23-2.29.23-2.29a.68.68,0,0,0-.5-.75.66.66,0,0,0-.82.48s-.23.87-.5,2.34A39.12,39.12,0,0,1,221,205.3a11.08,11.08,0,0,1-1.76,3.34,10.81,10.81,0,0,1-3.17,2.71,17.92,17.92,0,0,1-4.26,1.72c-.78.21-1.56.4-2.34.55l-1.25.21-1.21.17a65,65,0,0,1-9.78.44c-1.56-.05-3.08-.12-4.5-.25s-2.77-.32-4-.51a31.35,31.35,0,0,1-5.8-1.42c-.68-.24-1.17-.47-1.52-.62l-.54-.27a.59.59,0,0,0-.61,1l.51.35a12.16,12.16,0,0,0,1.58.89,27.27,27.27,0,0,0,6,2,41.15,41.15,0,0,0,4.15.7c1.47.18,3,.33,4.65.4a62.5,62.5,0,0,0,10.15-.41c.44-.06.85-.11,1.31-.19l1.26-.22c.88-.18,1.74-.39,2.57-.63a19.87,19.87,0,0,0,4.76-2.08c.36-.23.71-.47,1-.72-.52,8.48-6.21,26.87-6.51,32-.44,7.66-.56,19.54-.84,28.43-.48,15.37,3.52,35.9,4.64,43.37,2.9,19.28,4.75,41.27,1.75,65.74C213.46,430.21,204.45,445,204,453.13a42.18,42.18,0,0,0,.12,8.1c.78,5,3.38,19.51,3.49,24.57.44,19.95-4.23,31.61-7.75,51.2-.66,3.7-10,32-6.05,39.81,6.45,12.9,14.48,16.92,14.28,23,0,.75-.78,1.38-2.08,1.9a1.44,1.44,0,0,1-1.93-1,5,5,0,0,0-.67-1.69c-.32-.5-.94-1.31-1.44-1.07s-.22,1.11-.12,1.4a7,7,0,0,1,.18,2.36,1.43,1.43,0,0,1-1.2,1.32l-1.15.18a1.85,1.85,0,0,1-2.07-1.53,4.93,4.93,0,0,0-.72-1.9c-.32-.5-.92-1.3-1.43-1.06s-.22,1.11-.13,1.4a7.06,7.06,0,0,1,.18,2.39,1.42,1.42,0,0,1-1.28,1.33l-1.28.11a1.89,1.89,0,0,1-2-1.61,6.18,6.18,0,0,0-.93-2.73c-.38-.6-1.1-1.55-1.67-1.28-.38.17-.41.71-.12,1.63a6.91,6.91,0,0,1,.26,2.07,2.29,2.29,0,0,1-2.22,2.29l-1.83,0a2.24,2.24,0,0,1-2.27-2c-.18-1.42-.59-2.54-.78-3.87-.31-2-2.58-2-2.87,0a3.41,3.41,0,0,0,.42,2,3.34,3.34,0,0,1-3.12,4.41h-.22a8.79,8.79,0,0,1-3.14-.44c-1.52-.63-2.9-1.1-3.23-4-.06-1.52,0-3.23,0-3.23.11-2.75.47-12,1.21-15.28,1.23-5.49.69-9.76,1-14,.44-7,1.15-11.59,1.15-23.76q0-7.95-.68-15.88c-.89-10.69-2.06-30.22-1.74-39.71A173.71,173.71,0,0,1,172.2,465a65.6,65.6,0,0,0,.69-17.08,173.78,173.78,0,0,1-.71-17.38c-3.69-30.23-1.51-67.95-1.77-95.58H171c8.34-.36,9.65-7.23,9.66-7.29a.57.57,0,0,0-1.08-.35c-1.84,4-6.89,5.51-9.18,5.51,0,0-3.86,0-3.86,0-2.51,0-7.56-1.78-9.17-5.49a.56.56,0,0,0-.69-.32.57.57,0,0,0-.4.65c0,.06,1.33,6.93,9.66,7.29h.57c-.26,27.65,1.81,65.63-1.76,95.58-.15,1.25,0,9.61-.74,17.58a65.61,65.61,0,0,0,.67,16.62,173.3,173.3,0,0,1,2.2,23.77c.32,9.44-.84,28.81-1.73,39.53-.38,4.53-.69,12-.69,16.52,0,9.44.5,14.74,1,23.19.25,4.35-.34,8.84.76,13.72.85,3.79,1.11,12.77,1.33,15,0,2.21.3,3.94-.29,6a4.59,4.59,0,0,1-2.64,2,8.91,8.91,0,0,1-3.16.44h-.27a3.34,3.34,0,0,1-3.11-4.41,3.41,3.41,0,0,0,.42-2c-.29-2-2.56-2-2.87,0-.2,1.33-.6,2.45-.78,3.87a2.24,2.24,0,0,1-2.28,2l-1.82,0A2.28,2.28,0,0,1,148.5,602a6.91,6.91,0,0,1,.26-2.07c.29-.93.25-1.46-.12-1.63-.58-.27-1.3.68-1.68,1.28a6.44,6.44,0,0,0-.93,2.73,1.88,1.88,0,0,1-2,1.61l-1.28-.11a1.42,1.42,0,0,1-1.28-1.33,6.82,6.82,0,0,1,.18-2.39c.09-.29.37-1.17-.13-1.4s-1.12.56-1.44,1.06a5.08,5.08,0,0,0-.71,1.9,1.86,1.86,0,0,1-2.07,1.53l-1.15-.18a1.43,1.43,0,0,1-1.2-1.32,7,7,0,0,1,.18-2.36c.09-.29.37-1.17-.12-1.4s-1.12.57-1.44,1.07a5,5,0,0,0-.68,1.69,1.43,1.43,0,0,1-1.92,1c-1.3-.52-2.06-1.15-2.09-1.9-.19-6.11,7.84-10.13,14.29-23,3.89-7.8-5.39-36.11-6-39.81-3.52-19.59-8.2-31.25-7.75-51.2.11-5.06,2.71-19.57,3.48-24.57a41.28,41.28,0,0,0,.13-8.1c-.49-8.17-9.5-22.92-13.35-71.11-3-24.47-1.15-46.46,1.75-65.74,1.12-7.47,5.11-28,4.64-43.37-.28-8.89-.4-20.77-.84-28.43-.3-5.13-6-23.23-6.52-32q.51.38,1,.72a19.87,19.87,0,0,0,4.76,2.08c.83.24,1.69.45,2.57.63l1.26.22c.46.08.87.13,1.3.19a62.67,62.67,0,0,0,10.16.41c1.61-.07,3.18-.22,4.65-.4a40.94,40.94,0,0,0,4.14-.7,27.2,27.2,0,0,0,6-2,12.16,12.16,0,0,0,1.58-.89l.51-.35a.59.59,0,0,0-.61-1l-.55.27c-.34.15-.83.38-1.51.62a31.57,31.57,0,0,1-5.8,1.42c-1.23.19-2.57.39-4,.51s-2.94.2-4.5.25a65,65,0,0,1-9.78-.44l-1.21-.17-1.25-.21c-.78-.15-1.56-.34-2.34-.55a18,18,0,0,1-4.27-1.72,11.07,11.07,0,0,1-3.17-2.71,11.55,11.55,0,0,1-1.76-3.34,38.9,38.9,0,0,1-1.26-5.84c-.27-1.47-.5-2.33-.5-2.33a.67.67,0,0,0-1.32.26s.12.81.23,2.29a29.46,29.46,0,0,0,1,6.24c0,.11.08.22.12.33-.42,3.3-.41,11.18-3,22.78a250.17,250.17,0,0,0-5.88,45.84c-.9,17.46-14.05,39.33-17.32,54.06-.63,2.8-.44,7.25-.32,10a53.61,53.61,0,0,1-.19,6.81,48.26,48.26,0,0,1-1.1,6.43c-1.28,5-4,20.18-4.12,21.46a2.62,2.62,0,0,1-2.41,2.54h-.15c-1.26-.09-1.86-.91-1.83-2.83,0-3.41,1.52-11.35,1.7-14.23a.51.51,0,0,0-.5-.55H79l-1.24.14a.5.5,0,0,0-.41.4c-.31,1.77-2,11.41-3.87,18a3,3,0,0,1-2.65,2.4l-.39,0c-1.3-.25-1.9-1.54-1.7-3,.42-2.93,3.07-15,3.64-17.54a.53.53,0,0,0-.44-.63l-1.06-.15-.15,0a.58.58,0,0,0-.56.4c-.89,3-5.41,19-5.83,20.35a2.51,2.51,0,0,1-2.46,1.9,4,4,0,0,1-.68-.07c-1.4-.31-1.83-1.29-1.63-3.37.18-1.9,4.85-17.93,5.67-20.64a.45.45,0,0,0-.3-.56l-1-.34a.63.63,0,0,0-.19,0,.48.48,0,0,0-.47.31c-1,2.6-5.87,15.89-6.72,17.41s-1.66,2.05-2.7,2.05a3.2,3.2,0,0,1-.73-.1c-1.36-.36-1.61-2.3-1.24-3.58.21-.55,3.53-9.53,5.12-13.75.82-2.19,5.15-13.71,3.83-13.71h-.07c-1.32.31-4.59,6.15-5.08,6.86-.67,1-2.7,4.71-6,4.71H49.6c-1.9,0-1.86-.65-1-2.59,1.75-3.33,3.62-8.38,5.83-11.74,2.46-3.73,6.06-6.87,9.91-10.16a7.48,7.48,0,0,0,2.84-4.8c2.18-12.07,2.85-27.34,5.09-44.19,2.12-16,9-23.32,9.24-39.36.06-4.4.18-13.6.21-18a103.25,103.25,0,0,1,1.7-17.52c1-6.35,3-20.11,3-20.11.77-6.07.35-15.79,2.73-21.56,2.31-5.59,6.07-12.73,11-16.25s11.41-5.52,15.81-6.58H116l.68,0,1.77-.06c1.47,0,3.46,0,5.46,0s4,0,5.54-.12l2.51-.17a.83.83,0,0,0-.09-1.66s-4,.18-7.91,0l-1.1-.05L123,141c7.63-4.1,19.4-8,24.18-9.7a4.08,4.08,0,0,0,2.64-3.86V115c3.58,2.28,9.34,5.2,11.45,5.79a34.07,34.07,0,0,0,7.2.57,34.11,34.11,0,0,0,7.21-.57c2.11-.59,7.87-3.51,11.45-5.79v12.43a4.08,4.08,0,0,0,2.64,3.86c4.78,1.72,16.55,5.6,24.17,9.7a.61.61,0,0,1,.14.07l-1.1.05c-4,.2-7.9,0-7.9,0a.83.83,0,0,0-.1,1.66l2.51.17c1.51.08,3.53.13,5.53.12s4,0,5.47,0l1.76.06.69,0c4.48,1.06,11,3.09,15.87,6.57s8.71,10.66,11,16.25c2.38,5.77,2,15.49,2.73,21.56,0,0,2,13.76,3,20.11a103.25,103.25,0,0,1,1.7,17.52c0,4.41.15,13.61.21,18,.21,16,7.12,23.32,9.24,39.36,2.23,16.85,2.91,32.12,5.08,44.19a7.49,7.49,0,0,0,2.85,4.8c3.85,3.29,7.45,6.43,9.91,10.16,2.21,3.36,4.08,8.41,5.83,11.74C289.17,355.39,289.21,356,287.31,356Z"></path>
      <path class="cls-4" d="M154.66,450c-1.84,1.46-7.63,1.93-11.75-.67-1.63-1-3-.93-1.68.25,3.25,2.82,4.89,4.71,9,4.71,2.06-.16,4-2.56,5-4.12C155.7,449.47,155.46,449.4,154.66,450Z"></path>
      <path class="cls-4" d="M75.22,334.4a.57.57,0,0,0-.59.42c-1.67,6-6.15,9.92-9.38,12.33a.57.57,0,0,0-.14.76.59.59,0,0,0,.49.27.48.48,0,0,0,.26-.07,28.33,28.33,0,0,0,7.29-5.67,9.74,9.74,0,0,0,2.6-7.56A.57.57,0,0,0,75.22,334.4Z"></path>
      <path class="cls-4" d="M186.72,454.31c4.07,0,5.71-1.89,9-4.71,1.35-1.18-.05-1.28-1.68-.25-4.12,2.6-9.91,2.13-11.76.67-.79-.62-1-.55-.55.17C182.73,451.75,184.66,454.15,186.72,454.31Z"></path>
      <path class="cls-4" d="M262.27,334.82a.55.55,0,0,0-.58-.42.57.57,0,0,0-.53.48,9.74,9.74,0,0,0,2.6,7.56,28.18,28.18,0,0,0,7.28,5.67.54.54,0,0,0,.27.07.59.59,0,0,0,.49-.27.57.57,0,0,0-.15-.76C268.43,344.74,263.94,340.84,262.27,334.82Z"></path>
      <path class="cls-3" d="M168.45,275.94c-1.9,0-3.43.92-3.43,2.05s1.53,2.05,3.43,2.05,3.44-.92,3.44-2.05S170.35,275.94,168.45,275.94Z"></path>
      <path class="cls-2" d="M579.14,353.05l0-.08c-.64-1.22-1.31-2.69-2-4.25a56.92,56.92,0,0,0-3.87-7.57c-2.61-4-6.59-7.37-10.1-10.38a6.45,6.45,0,0,1-2.5-4.21c-1.21-6.74-2-14.64-2.78-23-.65-6.75-1.32-13.73-2.3-21.12a84.34,84.34,0,0,0-4.72-18c-2.26-6.45-4.39-12.54-4.51-21.26-.06-4.4-.18-13.6-.21-18a104.51,104.51,0,0,0-1.71-17.67c-1-6.27-3-19.95-3-20.08-.24-1.88-.36-4.14-.49-6.53-.29-5.24-.62-11.18-2.31-15.29-2.29-5.56-6.12-13-11.37-16.69-6.1-4.33-14.43-6.45-18.85-7.34a14.68,14.68,0,0,1-4.12-1.49c-6.58-3.54-16.1-6.88-21.79-8.87l-2.52-.89a3.06,3.06,0,0,1-2-2.9V113.8a1.88,1.88,0,0,1,.75-1.53,30.79,30.79,0,0,0,11.59-19.64,154,154,0,0,0,1.88-27.58c0-21.53-16.23-34.64-32.55-35.12l-.12,0h-2.34l-.24,0c-16.32.48-32.55,13.6-32.55,35.15a229.56,229.56,0,0,0,1.89,27.53,29.79,29.79,0,0,0,11.58,19.66,1.87,1.87,0,0,1,.76,1.53v13.63a3.06,3.06,0,0,1-2,2.9l-2.52.89c-5.69,2-15.21,5.33-21.79,8.87a14.79,14.79,0,0,1-4.12,1.49c-4.42.89-12.75,3-18.85,7.34-5.25,3.73-9.08,11.13-11.37,16.69-1.7,4.11-2,10-2.31,15.29-.13,2.39-.26,4.65-.49,6.52,0,.14-2,13.82-3,20.09a103.58,103.58,0,0,0-1.71,17.67c0,4.41-.15,13.61-.21,18-.12,8.72-2.25,14.81-4.51,21.26a84.91,84.91,0,0,0-4.73,18c-1,7.39-1.65,14.37-2.3,21.12-.8,8.37-1.56,16.27-2.77,23a6.43,6.43,0,0,1-2.51,4.21c-3.5,3-7.48,6.42-10.09,10.38a55.75,55.75,0,0,0-3.87,7.57c-.71,1.56-1.37,3-2,4.33s-.89,2.28-.35,3.11a2.62,2.62,0,0,0,2.3.9c3.58.06,5.78-3.35,6.72-4.81.08-.14.16-.25.22-.34l.54-.88c1.17-1.94,2-3.24,2.63-4.08-.49,1.92-1.57,5.32-3.65,10.86-1.18,3.11-3.28,8.79-4.4,11.8-.4,1.07-.67,1.81-.75,2a4.9,4.9,0,0,0,.31,3.54,2.63,2.63,0,0,0,1.65,1.3c1.28.34,3.11.2,4.58-2.43.65-1.17,3.17-7.88,5.7-14.66l.9-2.41h0c-1,3.28-5.36,18.31-5.55,20.31-.11,1.06-.38,3.86,2.43,4.46a3.55,3.55,0,0,0,4.32-2.52c.23-.75,1.69-5.87,3.11-10.82,1.08-3.79,2.14-7.51,2.62-9.16l.23,0c-.77,3.42-3.14,14.3-3.54,17.09a3.41,3.41,0,0,0,2.52,4.09c1.83.35,3.6-1,4.21-3.09,1.67-5.82,3.19-14.06,3.83-17.72l.24,0c-.12,1.23-.38,3.06-.66,5a86.7,86.7,0,0,0-1,8.71c0,3,1.5,3.77,2.8,3.86a3.62,3.62,0,0,0,3.63-3.42c.17-1.26,2.85-16.41,4.1-21.35a50.1,50.1,0,0,0,1.13-6.6,54.84,54.84,0,0,0,.19-6.93c-.11-2.45-.31-7,.29-9.72C380.1,323.35,383,316.37,386,309c4.73-11.51,9.61-23.4,10.16-34.06l.08-1.67a246.75,246.75,0,0,1,5.78-44A101.62,101.62,0,0,0,404.5,211a20.77,20.77,0,0,1,.19-2.48h.14a13.08,13.08,0,0,1,1,2.48c3,9.63,7.85,28.36,8.15,33.51.29,5,.44,11.8.59,18.39.08,3.49.15,6.93.25,10,.39,12.75-2.28,28.89-3.88,38.53-.31,1.85-.57,3.43-.75,4.65-2.33,15.49-5,39.17-1.76,66,2.7,33.79,7.9,51.09,11,61.42,1.28,4.26,2.2,7.33,2.34,9.67a41.15,41.15,0,0,1-.11,7.89c-.17,1-.41,2.49-.69,4.18-1.08,6.55-2.73,16.44-2.82,20.52-.31,14.16,1.92,24.14,4.51,35.69,1.09,4.88,2.22,9.93,3.26,15.71.14.77.6,2.44,1.23,4.74a209,209,0,0,1,5,21.14,84.07,84.07,0,0,1,.71,11.35c-.07,2.65-.2,4.68-1.22,6.61-.87,1.65-3.25,3-6,4.64a44.3,44.3,0,0,0-8.57,6,4,4,0,0,0-.95,3.54,6,6,0,0,0,3.71,4.43l.12,0c3.93,1.19,7.32,2.24,10.27,3.16,10.76,3.34,15.67,4.86,19,4.48,3.86-.46,7.77-1.77,9.16-7.25,1.48,5.53,5.47,6.82,9.07,7.25a9.25,9.25,0,0,0,1.08.06c3.33,0,8.27-1.54,17.93-4.54,2.95-.92,6.34-2,10.27-3.16l.11,0a6.05,6.05,0,0,0,3.72-4.43,4,4,0,0,0-.95-3.54,44.61,44.61,0,0,0-8.57-6c-2.77-1.6-5.16-3-6-4.64-1-1.93-1.15-4-1.22-6.61a83.15,83.15,0,0,1,.71-11.31,210.37,210.37,0,0,1,5-21.18c.64-2.3,1.1-4,1.24-4.74,1-5.78,2.16-10.83,3.26-15.71,2.58-11.55,4.82-21.53,4.5-35.69-.09-4.08-1.73-14-2.81-20.51-.28-1.7-.53-3.15-.69-4.19a40.33,40.33,0,0,1-.11-7.89c.14-2.34,1.06-5.41,2.34-9.67,3.11-10.33,8.31-27.63,11-61.38,3.28-26.85.57-50.53-1.76-66-.18-1.22-.45-2.81-.75-4.66-1.6-9.64-4.27-25.77-3.88-38.52.1-3.08.17-6.52.25-10,.15-6.59.3-13.4.59-18.39s6.55-29.31,8.37-33.42l.33-.42a186.41,186.41,0,0,0,3.25,18.56,247.72,247.72,0,0,1,5.78,44l.08,1.67c.55,10.66,5.43,22.55,10.15,34.06,3,7.39,5.91,14.37,7.2,20.18.6,2.72.4,7.27.29,9.72a54.84,54.84,0,0,0,.19,6.93,48.51,48.51,0,0,0,1.13,6.6c1.25,4.94,3.93,20.09,4.1,21.35a3.63,3.63,0,0,0,3.63,3.42c1.3-.09,2.84-.83,2.79-3.86a86.15,86.15,0,0,0-1-8.7c-.28-1.92-.54-3.75-.66-5l.24,0c.64,3.65,2.15,11.88,3.83,17.72.61,2.14,2.38,3.44,4.21,3.09a3.39,3.39,0,0,0,2.51-4.09c-.41-2.92-2.84-14-3.53-17.09l.23,0c.47,1.62,1.51,5.26,2.57,9,1.44,5,2.92,10.23,3.16,11a3.55,3.55,0,0,0,4.32,2.52c2.8-.6,2.53-3.4,2.43-4.46-.19-2-4.58-17-5.55-20.31h0l.9,2.41c2.53,6.78,5.05,13.49,5.7,14.66,1.46,2.63,3.3,2.77,4.58,2.43a2.63,2.63,0,0,0,1.65-1.3,4.92,4.92,0,0,0,.28-3.62l-.66-1.78c-1.1-3-3.26-8.8-4.46-12A113.54,113.54,0,0,1,567.08,347c.61.85,1.46,2.14,2.63,4.09.26.42.45.73.54.86s.14.21.22.35c.93,1.44,3.09,4.81,6.6,4.81h.11a2.63,2.63,0,0,0,2.31-.9C580,355.33,579.67,354.3,579.14,353.05ZM458.3,589.36c-.22-1.1-.5-2.21-.84-3.32A47.2,47.2,0,0,1,455,572.33c0-1.69.06-3.58.13-6,.14-4.49.33-10.63.25-19.86.17-4.9.37-10.62.58-17.29.95-11.08,2.15-31,1.82-40.7A187.82,187.82,0,0,0,456.05,468a114.77,114.77,0,0,1-.94-23.16c.26-4.23.34-8.28.39-11,0-1.56.05-2.79.09-3.15,2.57-21.5,2.23-47.28,1.94-70-.1-7.72-.2-15-.18-21.84a12.21,12.21,0,0,1,.47-2.83,20.76,20.76,0,0,0,.44-2.11h.09a19.62,19.62,0,0,0,.44,2.05,11.57,11.57,0,0,1,.47,2.75c0,6.86-.09,14.21-.2,22-.32,22.64-.69,48.3,1.95,70-.05,2.82,0,8,.38,13.28a117.55,117.55,0,0,1-.86,24.3,189.49,189.49,0,0,0-1.65,20.31c-.33,9.67.87,29.62,1.82,40.64.21,6.72.41,12.43.58,17.28-.08,8.25,0,14.08,0,18.33,0,3.07.05,5.5,0,7.53a49,49,0,0,1-2.25,13.9C458.77,587.25,458.51,588.31,458.3,589.36Z"></path>
      <path class="cls-3" d="M580.31,352.56l0-.1,0-.08c-.63-1.19-1.29-2.64-2-4.18a57.34,57.34,0,0,0-4-7.75c-2.71-4.11-6.76-7.58-10.33-10.64a5.23,5.23,0,0,1-2.08-3.47c-1.2-6.69-2-14.57-2.76-22.91-.65-6.76-1.32-13.75-2.31-21.17A85,85,0,0,0,552,264c-2.22-6.35-4.33-12.34-4.44-20.86,0-3.31-.18-13.37-.21-18a105.76,105.76,0,0,0-1.73-17.88c-1-6.25-3-19.92-3-20.06-.23-1.8-.35-4-.48-6.41-.3-5.34-.63-11.4-2.4-15.7-2.36-5.72-6.32-13.34-11.81-17.25-6.3-4.46-14.82-6.64-19.34-7.54a13.57,13.57,0,0,1-3.77-1.37,142.59,142.59,0,0,0-18.17-7.61c-.93-.38-2.05-.79-3.26-1.15l-.54-.19-2.51-.89a1.78,1.78,0,0,1-1.13-1.7V114.34a1.77,1.77,0,0,1,.7-1.4,31.78,31.78,0,0,0,11.62-20.12A157,157,0,0,0,493.5,65c0-22.27-16.82-35.83-33.72-36.37l-.36,0h-2.23l-.37,0c-16.89.54-33.71,14.1-33.71,36.39v.06A230.8,230.8,0,0,0,425,92.76a30.69,30.69,0,0,0,11.63,20.18,1.8,1.8,0,0,1,.7,1.4v13.09a1.79,1.79,0,0,1-1.13,1.7l-2.51.89-.54.19c-1.21.36-2.33.77-3.26,1.15A142,142,0,0,0,411.75,139a13.69,13.69,0,0,1-3.77,1.37c-4.52.9-13.05,3.08-19.34,7.54-5.49,3.91-9.45,11.53-11.81,17.25-1.77,4.3-2.11,10.36-2.4,15.7-.13,2.37-.25,4.61-.49,6.44,0,.11-1.95,13.78-3,20a104.74,104.74,0,0,0-1.73,17.88c0,4.62-.17,14.68-.21,18-.12,8.52-2.22,14.51-4.44,20.86a85.55,85.55,0,0,0-4.79,18.23c-1,7.42-1.65,14.41-2.3,21.17-.8,8.34-1.56,16.22-2.76,22.91a5.27,5.27,0,0,1-2.08,3.47c-3.57,3.06-7.62,6.53-10.33,10.64a57.34,57.34,0,0,0-4,7.75c-.7,1.54-1.35,3-2,4.18l-.05.08,0,.1c-.5,1.19-1.19,2.82-.24,4.29a3.89,3.89,0,0,0,3.35,1.48h.14a8,8,0,0,0,5.9-3q-.35,1-.75,2c-1.17,3.11-3.28,8.79-4.4,11.8l-.72,1.95,0,.09,0,.08a6.08,6.08,0,0,0,.43,4.52,3.93,3.93,0,0,0,2.43,1.91,5,5,0,0,0,1.31.18,4.75,4.75,0,0,0,3.57-1.65c-.08.41-.14.73-.16.94-.4,4.12,1.65,5.44,3.43,5.83a5.79,5.79,0,0,0,1.16.12,4.76,4.76,0,0,0,4.64-3.51l.21-.7a4.32,4.32,0,0,0,3.28,2.81,4.45,4.45,0,0,0,.81.08,5.23,5.23,0,0,0,4.86-4.07c.15-.51.3-1,.44-1.58a4,4,0,0,0,3.46,2.29h.3a4.86,4.86,0,0,0,4.68-4.52c.17-1.25,2.83-16.3,4.07-21.2a48.89,48.89,0,0,0,1.16-6.82,55.57,55.57,0,0,0,.2-7.09c-.1-2.22-.31-6.83.26-9.39,1.27-5.7,4.12-12.63,7.13-20,4.54-11.06,9.69-23.6,10.25-34.47,0-.51.05-1.07.08-1.68a246.35,246.35,0,0,1,5.75-43.78,106.46,106.46,0,0,0,2.3-15c3,10.08,6.88,25.66,7.14,30.07.29,5,.44,11.76.59,18.34.08,3.56.15,6.93.25,10,.39,12.63-2.27,28.69-3.86,38.28-.31,1.86-.57,3.44-.76,4.67-2.34,15.55-5.06,39.34-1.77,66.32,2.72,33.89,7.94,51.26,11.06,61.64,1.25,4.17,2.16,7.19,2.29,9.38a39.13,39.13,0,0,1-.1,7.61c-.16,1-.4,2.49-.68,4.18-1.09,6.58-2.74,16.53-2.84,20.69-.31,14.31,1.94,24.36,4.54,36,1.09,4.87,2.22,9.9,3.25,15.66.15.82.59,2.43,1.26,4.85a209.51,209.51,0,0,1,4.94,21,82.55,82.55,0,0,1,.7,11.14c-.07,2.54-.18,4.35-1.08,6-.69,1.32-3,2.69-5.53,4.13a45.49,45.49,0,0,0-8.8,6.16,5.27,5.27,0,0,0-1.34,4.68,7.31,7.31,0,0,0,4.46,5.38l.13.06.13,0c3.93,1.19,7.32,2.25,10.26,3.16,9.85,3.06,14.79,4.6,18.29,4.6a10,10,0,0,0,1.25-.07c3.34-.4,7-1.44,9.06-5.15,2.57,4.41,7,4.93,8.87,5.15.4,0,.82.07,1.25.07,3.5,0,8.44-1.54,18.29-4.6,2.94-.91,6.33-2,10.25-3.16l.14,0,.13-.06a7.3,7.3,0,0,0,4.45-5.38,5.27,5.27,0,0,0-1.33-4.68,45.24,45.24,0,0,0-8.81-6.16c-2.48-1.44-4.83-2.81-5.53-4.13-.89-1.69-1-3.5-1.07-6.06a82.56,82.56,0,0,1,.7-11.12,209.51,209.51,0,0,1,4.94-21c.67-2.42,1.11-4,1.26-4.85,1-5.76,2.16-10.79,3.25-15.66,2.6-11.64,4.85-21.69,4.53-36-.09-4.16-1.74-14.11-2.83-20.69-.28-1.69-.52-3.14-.68-4.18a38.34,38.34,0,0,1-.1-7.61c.13-2.19,1-5.21,2.29-9.38,3.12-10.38,8.34-27.75,11.05-61.64,3.3-27,.57-50.77-1.76-66.32-.19-1.23-.45-2.81-.76-4.67-1.59-9.59-4.25-25.65-3.86-38.28.1-3.09.17-6.46.25-10,.15-6.58.3-13.38.59-18.34.25-4.25,4.4-20.62,6.85-28.77.54,3.57,1.37,8.16,2.59,13.68a246.35,246.35,0,0,1,5.75,43.78c0,.61,0,1.17.08,1.68.56,10.87,5.71,23.41,10.25,34.47,3,7.34,5.86,14.27,7.13,20,.57,2.56.36,7.17.26,9.39a55.57,55.57,0,0,0,.2,7.09,48.89,48.89,0,0,0,1.16,6.82c1.24,4.9,3.9,19.95,4.07,21.2a4.86,4.86,0,0,0,4.68,4.52h.3a4,4,0,0,0,3.46-2.29c.14.54.29,1.07.43,1.58a5.25,5.25,0,0,0,4.86,4.07,4.47,4.47,0,0,0,.82-.08,4.32,4.32,0,0,0,3.28-2.81c.09.33.16.57.2.7a4.78,4.78,0,0,0,4.65,3.51,5.79,5.79,0,0,0,1.16-.12c1.78-.39,3.83-1.71,3.43-5.83a8.9,8.9,0,0,0-.17-.94,4.78,4.78,0,0,0,3.58,1.65,5,5,0,0,0,1.31-.18,3.93,3.93,0,0,0,2.43-1.91,6.08,6.08,0,0,0,.43-4.52l0-.08,0-.09c0-.14-.33-.87-.72-1.95-1.12-3-3.23-8.69-4.4-11.8l-.76-2a8,8,0,0,0,5.91,3h.14a3.89,3.89,0,0,0,3.35-1.48C581.51,355.38,580.82,353.75,580.31,352.56Zm-122,231.81a44,44,0,0,1-2.07-12.09c0-1.66.06-3.53.13-5.88.14-4.49.33-10.63.25-19.91.17-4.87.37-10.56.58-17.24.37-4.35.78-10,1.12-16,.35,5.92.76,11.62,1.13,16,.21,6.67.4,12.35.58,17.22-.08,8.23,0,14,0,18.3,0,3.06,0,5.48,0,7.52A47,47,0,0,1,458.29,584.37Zm-1.43-153.53c.64-5.39,1.1-11,1.43-16.86.33,5.74.79,11.34,1.44,16.71,0,2.9,0,7.79.37,13a118.36,118.36,0,0,1-.83,24.32c-.39,2.7-.71,5.52-1,8.52-.26-3.09-.59-6-1-8.75a113,113,0,0,1-.93-22.91c.26-4.25.34-8.32.39-11C456.79,432.53,456.82,431.14,456.86,430.84ZM577.16,356h-.09c-3.27,0-5.3-3.72-6-4.71-.48-.71-3.75-6.55-5.08-6.86H566c-1.32,0,3,11.52,3.83,13.71,1.59,4.22,4.91,13.2,5.12,13.75.37,1.28.12,3.22-1.24,3.58a3.27,3.27,0,0,1-.73.1c-1,0-1.93-.66-2.7-2.05s-5.73-14.81-6.72-17.41a.48.48,0,0,0-.47-.31.69.69,0,0,0-.2,0l-1,.34a.45.45,0,0,0-.3.56c.82,2.71,5.48,18.74,5.67,20.64.2,2.08-.23,3.06-1.63,3.37a4.13,4.13,0,0,1-.68.07,2.51,2.51,0,0,1-2.46-1.9c-.42-1.36-5-17.33-5.83-20.35a.59.59,0,0,0-.57-.4l-.14,0-1.06.15a.53.53,0,0,0-.44.63c.57,2.51,3.21,14.61,3.63,17.54a2.39,2.39,0,0,1-1.69,3l-.39,0a3,3,0,0,1-2.65-2.4c-1.89-6.6-3.56-16.24-3.87-18a.5.5,0,0,0-.42-.4l-1.23-.14h-.1a.5.5,0,0,0-.5.55c.18,2.88,1.65,10.82,1.7,14.23,0,1.92-.57,2.74-1.84,2.83h-.14a2.62,2.62,0,0,1-2.41-2.54c-.18-1.28-2.85-16.44-4.12-21.46a46.7,46.7,0,0,1-1.1-6.43,51.78,51.78,0,0,1-.19-6.81c.12-2.74.3-7.19-.32-10-3.27-14.73-16.42-36.6-17.32-54.06A250.17,250.17,0,0,0,515.59,229c-1.75-7.89-2.67-13.84-3.14-17.64h0a54.75,54.75,0,0,0,2.26-6.81c.32-1.25.65-2.49.88-3.69s.41-2.31.53-3.28a26.65,26.65,0,0,0,.19-3.26.77.77,0,0,0-1.53-.11h0l-.14.84c-.09.53-.24,1.28-.45,2.19s-.47,2-.8,3.08-.68,2.32-1.07,3.51-.8,2.37-1.18,3.48l-1.06,3c-.3.89-.56,1.63-.74,2.14l-.27.83a1,1,0,0,0-.06.41c-2.48,7.89-7.12,26.2-7.38,30.72-.45,7.66-.56,19.54-.84,28.43-.48,15.37,3.52,35.9,4.64,43.37,2.9,19.28,4.75,41.27,1.75,65.74-3.86,48.19-12.87,62.94-13.35,71.11a42.18,42.18,0,0,0,.12,8.1c.78,5,3.38,19.51,3.49,24.57.44,19.95-4.23,31.61-7.75,51.2-.43,2.4-4.48,15.14-6.21,25.94a86.26,86.26,0,0,0-.72,11.49c.07,2.62.18,4.87,1.34,7.07,1.91,3.63,9.13,5.55,14.79,10.89,1.22,1.16,1.11,4.7-2.48,6.3-16.75,5.08-23.77,7.66-27.88,7.66a7.59,7.59,0,0,1-1-.06c-4.26-.5-9-2.23-8.75-11.94a29.68,29.68,0,0,1,1.27-7.87,50.05,50.05,0,0,0,2.29-14.15c.09-5-.18-11.74-.05-25.89-.17-4.89-.37-10.6-.58-17.32-.9-10.45-2.15-30.82-1.82-40.58a186.8,186.8,0,0,1,1.64-20.2,118.86,118.86,0,0,0,.87-24.51c-.37-5.66-.42-10.77-.38-13.26-3.43-28.14-1.79-62.74-1.75-89.68a1.1,1.1,0,0,0,.14.18,9.85,9.85,0,0,0,1.13,1.23,12.38,12.38,0,0,0,1.38,1.18c.5.41,1.07.73,1.63,1.11s1.18.69,1.83,1a28,28,0,0,0,4.15,1.63,36.94,36.94,0,0,0,4.61,1.11c.8.11,1.64.27,2.42.33l1.18.11.63.05.61,0a36.23,36.23,0,0,0,4.89-.08,29.69,29.69,0,0,0,4.71-.82,22.92,22.92,0,0,0,4.25-1.51,20.69,20.69,0,0,0,3.47-2.08,18.93,18.93,0,0,0,4.22-4.29,12,12,0,0,0,.91-1.38l.29-.49a.7.7,0,0,0-1.12-.81l-.38.43c-.25.27-.59.72-1.06,1.16s-1.05,1-1.73,1.62a22.18,22.18,0,0,1-2.48,1.79,22.7,22.7,0,0,1-3.19,1.68,24.92,24.92,0,0,1-3.83,1.27,25.9,25.9,0,0,1-4.3.7,38,38,0,0,1-4.54.1h-.57l-.55-.05L477.8,346c-.79-.06-1.5-.18-2.24-.26a35.7,35.7,0,0,1-4.31-.9,25.47,25.47,0,0,1-3.84-1.39c-.6-.25-1.14-.57-1.68-.84s-1-.59-1.46-.93a12.38,12.38,0,0,1-2.25-2,9.94,9.94,0,0,1-.77-.93c-.22-.3-.37-.6-.54-.86a5.8,5.8,0,0,1-.52-1.29l-.15-.48s-.32-2.51-.35-4c-.07-2.63-.17-6.14-.26-9.65l-.46-14a.71.71,0,0,0-1.41,0s-.22,7-.45,14c-.1,3.51-.19,7-.26,9.65a38.22,38.22,0,0,1-.43,4.5,6.34,6.34,0,0,1-.52,1.29c-.17.26-.32.56-.54.86s-.46.62-.77.93a12.38,12.38,0,0,1-2.25,2c-.44.34-1,.61-1.46.93s-1.08.59-1.68.84a25.87,25.87,0,0,1-3.84,1.39,36.11,36.11,0,0,1-4.31.9c-.74.08-1.45.2-2.24.26l-1.18.09-.55.05h-.58A37.88,37.88,0,0,1,432,346a25.73,25.73,0,0,1-4.3-.7,24.92,24.92,0,0,1-3.83-1.27,22.16,22.16,0,0,1-3.19-1.68,20.47,20.47,0,0,1-2.48-1.79c-.68-.61-1.29-1.15-1.73-1.62s-.81-.89-1.07-1.16l-.38-.43a.69.69,0,0,0-1.11.81l.29.49a13.09,13.09,0,0,0,.9,1.38,19.23,19.23,0,0,0,4.23,4.29,19.92,19.92,0,0,0,3.47,2.08,23.08,23.08,0,0,0,4.24,1.51,30.09,30.09,0,0,0,4.71.82,36.41,36.41,0,0,0,4.9.08l.61,0,.63-.05,1.18-.11c.78-.06,1.62-.22,2.42-.33a36.94,36.94,0,0,0,4.61-1.11,28.43,28.43,0,0,0,4.15-1.63c.64-.3,1.24-.67,1.83-1s1.13-.7,1.62-1.11a14.11,14.11,0,0,0,2.52-2.41l.14-.18c0,27,1.58,61.8-1.75,89.68-.13,1.07-.08,7.38-.49,14.18a115.5,115.5,0,0,0,1,23.36,188.27,188.27,0,0,1,1.67,20.43c.33,9.76-.92,30.13-1.82,40.58-.21,6.72-.41,12.44-.58,17.34.12,14.13-.38,20.92-.38,25.87a48,48,0,0,0,2.56,14,30.55,30.55,0,0,1,1.36,8c.3,10.06-4.49,11.45-8.78,11.95a7.59,7.59,0,0,1-1,.06c-4.12,0-11.14-2.58-27.88-7.66-3.59-1.6-3.71-5.14-2.48-6.3,5.65-5.34,12.88-7.26,14.79-10.89,1.16-2.2,1.27-4.45,1.34-7.07a86.26,86.26,0,0,0-.72-11.49c-1.73-10.8-5.78-23.54-6.21-25.94-3.52-19.59-8.2-31.25-7.75-51.2.11-5.06,2.71-19.57,3.48-24.57a41.28,41.28,0,0,0,.13-8.1c-.49-8.17-9.5-22.92-13.35-71.11-3-24.47-1.15-46.46,1.75-65.74,1.12-7.47,5.11-28,4.64-43.37-.28-8.89-.4-20.77-.84-28.43-.31-5.37-5.29-24.44-8.19-33.75a16.32,16.32,0,0,0-.88-2.29c-.14-.36-.38-.95-.52-1.32-.36-1-.73-2.15-1.11-3.25s-.74-2.39-1.06-3.51-.6-2.17-.8-3.08-.36-1.66-.45-2.19l-.15-.84h0a.77.77,0,0,0-1.53.11,26.65,26.65,0,0,0,.19,3.26c.12,1,.3,2.09.53,3.28s.55,2.44.88,3.69c.48,1.86,1.07,3.68,1.64,5.23A101.82,101.82,0,0,1,401,229a250.17,250.17,0,0,0-5.88,45.84c-.9,17.46-14.05,39.33-17.33,54.06-.62,2.8-.43,7.25-.31,10a53.61,53.61,0,0,1-.19,6.81,48.26,48.26,0,0,1-1.1,6.43c-1.28,5-3.95,20.18-4.12,21.46a2.62,2.62,0,0,1-2.41,2.54h-.15c-1.26-.09-1.86-.91-1.83-2.83,0-3.41,1.52-11.35,1.7-14.23a.51.51,0,0,0-.5-.55h-.1l-1.24.14a.5.5,0,0,0-.41.4c-.31,1.77-2,11.41-3.87,18a3,3,0,0,1-2.66,2.4l-.38,0c-1.3-.25-1.9-1.54-1.7-3,.42-2.93,3.07-15,3.64-17.54a.53.53,0,0,0-.44-.63l-1.06-.15-.15,0a.58.58,0,0,0-.56.4c-.89,3-5.41,19-5.84,20.35a2.49,2.49,0,0,1-2.45,1.9,4,4,0,0,1-.68-.07c-1.4-.31-1.83-1.29-1.63-3.37.18-1.9,4.85-17.93,5.67-20.64a.45.45,0,0,0-.3-.56l-1-.34a.63.63,0,0,0-.19,0,.48.48,0,0,0-.47.31c-1,2.6-5.87,15.89-6.72,17.41s-1.66,2.05-2.7,2.05a3.2,3.2,0,0,1-.73-.1c-1.36-.36-1.61-2.3-1.24-3.58.21-.55,3.53-9.53,5.12-13.75.82-2.19,5.15-13.71,3.83-13.71h-.07c-1.32.31-4.59,6.15-5.08,6.86-.67,1-2.7,4.71-6,4.71h-.09c-1.9,0-1.86-.65-1-2.59,1.75-3.33,3.62-8.38,5.83-11.74,2.46-3.73,6.06-6.87,9.91-10.16a7.48,7.48,0,0,0,2.84-4.8c2.18-12.07,2.85-27.34,5.09-44.19,2.12-16,9-23.32,9.24-39.36.06-4.4.18-13.6.21-18a103.25,103.25,0,0,1,1.7-17.52c1-6.35,3-20.11,3-20.11.77-6.07.35-15.79,2.73-21.56,2.31-5.59,6.07-12.73,11-16.25,6-4.28,14.46-6.37,18.46-7.16a15.58,15.58,0,0,0,4.4-1.6c7.5-4,19-7.85,23.91-9.61,1.09-.36,2.13-.69,3-.93,1.28-.39,2.15-.62,2.15-.62a.69.69,0,0,0,.5-.7.68.68,0,0,0-.73-.63h0s-2-.11-2-.58V113.33a2.05,2.05,0,0,0-.87-1.66A28.59,28.59,0,0,1,427.3,92.48a219.46,219.46,0,0,1-1.86-27.43c0-21.07,15.85-33.68,31.62-34.1l.13,0h2.23l.13,0c15.77.42,31.62,13,31.62,34.1a150.81,150.81,0,0,1-1.86,27.43,29.56,29.56,0,0,1-11.48,19.19,2.05,2.05,0,0,0-.87,1.66v14.59c0,.47-2,.58-2,.58h0a.68.68,0,0,0-.22,1.33s.86.23,2.15.62c.85.24,1.89.57,3,.93,4.93,1.76,16.42,5.57,23.91,9.61a15.76,15.76,0,0,0,4.41,1.6c4,.79,12.42,2.88,18.46,7.16,5,3.52,8.71,10.66,11,16.25,2.37,5.77,2,15.49,2.73,21.56,0,0,2,13.76,3,20.11a103.25,103.25,0,0,1,1.7,17.52c0,4.41.15,13.61.21,18,.21,16,7.12,23.32,9.24,39.36,2.23,16.85,2.91,32.12,5.08,44.19a7.49,7.49,0,0,0,2.85,4.8c3.85,3.29,7.45,6.43,9.91,10.16,2.21,3.36,4.08,8.41,5.83,11.74C579,355.39,579.06,356,577.16,356Z"></path>
      <path class="cls-4" d="M458.38,224.1h0c-.66,0-.68.52-.75,2.45-.34,9.57-1.05,33.38-.24,47.64.1,1.7.25,2.41.91,2.41h0c.66,0,.81-.72.9-2.43.35-6.51.81-21.35-.08-47.62C459.05,224.62,459,224.1,458.38,224.1Z"></path>
      <path class="cls-4" d="M447.07,204.06c0,4.15-6.81,10.49-9.67,13a.28.28,0,0,0,.29.48,26.29,26.29,0,0,0,10.8-8.76c3.15-4.4,1.64-21.52,1.57-24.45-.36-14.78-2.05-9.36-2.05-.46C448,192.94,447.07,204.06,447.07,204.06Z"></path>
      <path class="cls-4" d="M470.15,204.06s-1-11.2-1-20.48c0-8.75-1.67-13.91-2,.72-.07,2.93-1.58,20,1.57,24.45a26.29,26.29,0,0,0,10.8,8.76.28.28,0,0,0,.29-.48C477,214.55,470.15,208.21,470.15,204.06Z"></path>
      <path class="cls-4" d="M486.1,453.19l-1-.46a15.46,15.46,0,0,0-8-2.08h0A9.53,9.53,0,0,0,472,453c-.16.14-.66.54-.36,1s1,.24,1.49,0c1.73-.74,7.2-.92,10.94.37a6.45,6.45,0,0,0,1.92.41c.45,0,.81-.12,1-.45C487.17,453.7,486.4,453.33,486.1,453.19Z"></path>
      <path class="cls-4" d="M430.64,454.79a6.38,6.38,0,0,0,1.92-.41c3.74-1.29,9.22-1.11,10.95-.36.49.21,1.17.49,1.49,0s-.2-.9-.36-1a9.57,9.57,0,0,0-5.23-2.3,15.34,15.34,0,0,0-7.94,2.08l-1,.46c-.29.14-1.06.51-.8,1.15C429.83,454.67,430.2,454.79,430.64,454.79Z"></path>
      <path class="cls-4" d="M390.55,257.69c-3.63,1.81-8.37.94-9.78-.42-.6-.57-.81-.54-.47.1.73,1.38,2.13,3.52,3.82,3.82,3.36.34,4.88-1.09,7.8-3.16C393.13,257.17,392,257,390.55,257.69Z"></path>
      <path class="cls-4" d="M535.84,257.27c-1.41,1.36-6.16,2.23-9.78.42-1.44-.72-2.59-.52-1.37.34,2.92,2.07,4.43,3.5,7.8,3.16,1.69-.3,3.09-2.44,3.82-3.82C536.65,256.73,536.44,256.7,535.84,257.27Z"></path>
      <ellipse class="cls-6" cx="751.41" cy="441.72" rx="16.8" ry="11.17" transform="translate(300.49 1187.64) rotate(-89.3)"></ellipse>
      <ellipse class="cls-6" cx="775.32" cy="447.54" rx="11.91" ry="7.92" transform="translate(278.36 1192.15) rotate(-86.28)"></ellipse>
      <ellipse class="cls-6" cx="792.89" cy="454.98" rx="9.78" ry="6.5" transform="translate(198.15 1149.22) rotate(-79.26)"></ellipse>
      <ellipse class="cls-6" cx="804.53" cy="463.92" rx="7.67" ry="5.1" transform="translate(124.7 1096.63) rotate(-72.91)"></ellipse>
      <ellipse class="cls-6" cx="811.86" cy="474.9" rx="6.09" ry="4.05" transform="translate(74.21 1058.44) rotate(-68.67)"></ellipse>
      <ellipse class="cls-6" cx="690.53" cy="440.46" rx="11.17" ry="16.8" transform="translate(-1.56 2.46) rotate(-0.2)"></ellipse>
      <ellipse class="cls-6" cx="666.56" cy="446.08" rx="7.92" ry="11.91" transform="translate(-24.03 38.2) rotate(-3.22)"></ellipse>
      <ellipse class="cls-6" cx="648.93" cy="453.36" rx="6.5" ry="9.78" transform="translate(-70.25 122.55) rotate(-10.24)"></ellipse>
      <ellipse class="cls-6" cx="637.21" cy="462.2" rx="5.1" ry="7.67" transform="translate(-105.43 201.14) rotate(-16.59)"></ellipse>
      <ellipse class="cls-6" cx="629.79" cy="473.11" rx="4.05" ry="6.09" transform="translate(-127.07 254.84) rotate(-20.83)"></ellipse>
      <path class="cls-6" d="M758.85,608.64c-3.66-.85-7.43-1.39-11-2.59-8.54-2.88-13.15-9.84-13.46-18.85-.37-10.85,3.23-19.81,11.51-26.93,2.93-2.52,5.66-5.31,8.34-8.11,9.9-10.36,10.89-24,2.48-35.66-3.74-5.2-8-10-11.67-15.26-5.53-7.82-5.69-18.82-.68-25.89a13.71,13.71,0,0,1,10.9-6.18c17.9-.64,33.58,5.1,46.7,17.29,7.5,7,10.31,15.86,9.94,26.05-.42,11.54-4.94,21.49-11,31q-4.65,7.26-9.17,14.59a75.34,75.34,0,0,0-10.31,27.65c-1.23,7.55-4.28,14.3-10.8,18.89a54.44,54.44,0,0,1-6,3.26Z"></path>
      <path class="cls-6" d="M685.22,606.55c-10.22,1.33-19.3-4.28-23.42-14.79a39.2,39.2,0,0,1-2.4-8.59c-1.56-10.84-6-20.49-11.63-29.72-4.55-7.41-9.23-14.78-13.25-22.49a46.16,46.16,0,0,1-4.72-27.8c1.29-9.84,6.9-17.11,14.69-22.87a62.26,62.26,0,0,1,26.81-11.6,68.22,68.22,0,0,1,14.18-1.09c8.07.33,13.55,5.79,14.88,13.78,1.46,8.78-1.66,16.06-7.08,22.71a137.3,137.3,0,0,0-10.44,13.68,25.9,25.9,0,0,0,3.25,31.8c4.12,4.42,8.73,8.38,12.77,12.86,8.13,9,9.54,19.68,6.11,30.91-2,6.48-7.35,9.9-13.67,11.76C689.31,605.69,687.25,606.07,685.22,606.55Z"></path>
    </g>
  </g>
</svg>