<?xml version="1.0" standalone="no"?>
<!DOCTYPE svg PUBLIC "-//W3C//DTD SVG 20010904//EN"
 "http://www.w3.org/TR/2001/REC-SVG-20010904/DTD/svg10.dtd">
<svg version="1.0" xmlns="http://www.w3.org/2000/svg"
 width="624.000000pt" height="364.000000pt" viewBox="0 0 624.000000 364.000000"
 preserveAspectRatio="xMidYMid meet">

<g transform="translate(0.000000,364.000000) scale(0.100000,-0.100000)"
fill="#000000" stroke="none">
<path d="M710 3554 c0 -59 3 -85 11 -82 17 6 18 168 2 168 -10 0 -13 -24 -13
-86z"/>
<path d="M1485 3610 c-11 -50 -8 -138 5 -170 14 -35 37 -42 24 -7 -11 30 -11
168 0 190 6 12 4 17 -7 17 -9 0 -18 -13 -22 -30z"/>
<path d="M2157 3634 c-4 -4 -4 -11 -1 -15 8 -14 31 -10 38 6 5 15 -24 22 -37
9z"/>
<path d="M2471 3610 c12 -32 8 -154 -5 -182 -6 -13 -4 -18 7 -18 15 0 37 67
37 115 0 45 -22 115 -36 115 -10 0 -11 -6 -3 -30z"/>
<path d="M3810 3604 c0 -28 -4 -35 -17 -33 -68 6 -96 -25 -73 -80 13 -32 27
-38 78 -33 l32 4 0 89 c0 53 -4 89 -10 89 -5 0 -10 -16 -10 -36z m-10 -69 c26
-31 -18 -71 -47 -42 -19 19 -8 57 16 57 10 0 24 -7 31 -15z"/>
<path d="M4378 3550 c-2 -67 0 -90 10 -90 9 0 12 25 12 90 0 50 -4 90 -9 90
-5 0 -11 -41 -13 -90z"/>
<path d="M4545 3628 c-27 -87 -27 -91 -15 -148 7 -31 16 -63 21 -71 14 -22 20
-4 9 26 -14 37 -15 148 -1 173 14 26 14 32 1 32 -6 0 -12 -6 -15 -12z"/>
<path d="M5214 3629 c-10 -17 13 -36 27 -22 12 12 4 33 -11 33 -5 0 -12 -5
-16 -11z"/>
<path d="M5526 3605 c18 -45 18 -132 -1 -169 -18 -35 -18 -36 -1 -36 15 0 36
70 36 120 0 49 -21 120 -36 120 -11 0 -10 -6 2 -35z"/>
<path d="M1080 3607 c0 -14 -6 -28 -12 -31 -10 -5 -10 -7 0 -12 7 -3 12 -24
12 -50 0 -32 4 -44 15 -44 11 0 15 12 15 44 0 26 5 46 13 49 9 4 9 8 1 14 -7
4 -13 17 -15 27 -6 30 -29 32 -29 3z"/>
<path d="M1850 3605 c0 -14 -4 -25 -10 -25 -5 0 -10 -7 -10 -15 0 -8 5 -15 10
-15 6 0 10 -20 10 -45 0 -33 4 -45 15 -45 11 0 15 11 15 43 0 24 6 49 13 56
10 11 10 14 0 18 -7 3 -13 16 -13 29 0 15 -6 24 -15 24 -9 0 -15 -9 -15 -25z"/>
<path d="M4910 3590 c0 -11 -7 -20 -15 -20 -20 0 -19 -19 1 -27 11 -4 15 -17
13 -44 -2 -21 1 -40 6 -41 6 -2 11 15 13 37 2 22 10 46 19 52 15 11 15 13 0
19 -10 3 -17 15 -17 25 0 10 -4 19 -10 19 -5 0 -10 -9 -10 -20z"/>
<path d="M601 3581 c-8 -5 -20 -7 -28 -4 -10 4 -13 -13 -13 -81 0 -47 4 -86 9
-86 12 0 24 37 16 49 -3 5 -1 12 4 15 5 4 12 2 16 -3 8 -14 48 -4 63 16 19 26
14 57 -11 81 -26 24 -35 26 -56 13z m44 -56 c0 -25 -4 -30 -24 -30 -32 0 -49
28 -31 50 7 9 23 15 34 13 16 -2 21 -10 21 -33z"/>
<path d="M797 3575 c-30 -15 -35 -74 -9 -98 15 -14 29 -16 61 -11 l41 7 -1 52
c-2 53 -2 53 -36 57 -19 2 -44 -1 -56 -7z m47 -21 c36 -14 13 -64 -29 -64 -19
0 -29 38 -15 55 14 17 21 18 44 9z"/>
<path d="M975 3580 c-3 -6 -16 -8 -29 -4 -21 5 -22 2 -24 -50 -1 -42 2 -56 13
-56 9 0 15 14 17 43 3 37 6 42 28 42 22 0 25 -5 28 -42 2 -29 8 -43 18 -43 10
0 14 13 14 48 0 43 -3 50 -25 60 -31 14 -32 15 -40 2z"/>
<path d="M1148 3556 c-13 -31 -3 -72 21 -85 10 -6 35 -8 55 -4 l36 6 0 52 0
52 -50 2 c-44 1 -52 -2 -62 -23z m81 -13 c12 -23 -4 -53 -28 -53 -22 0 -34 25
-26 51 8 24 41 25 54 2z"/>
<path d="M1300 3524 c0 -40 3 -54 13 -51 6 2 12 12 13 23 3 60 5 64 23 64 11
0 23 5 26 10 4 6 -10 10 -34 10 l-41 0 0 -56z"/>
<path d="M1552 3568 c-18 -18 -14 -73 7 -92 12 -11 31 -16 57 -14 l39 3 3 56
3 56 -49 1 c-27 1 -54 -4 -60 -10z m74 -32 c7 -31 -1 -46 -26 -46 -25 0 -33
15 -26 46 4 15 14 24 26 24 12 0 22 -9 26 -24z"/>
<path d="M1692 3521 c2 -42 7 -56 18 -56 11 0 15 11 15 37 0 42 16 64 39 55
11 -5 16 -20 16 -52 0 -33 4 -45 15 -45 20 0 21 92 2 108 -7 6 -35 11 -61 10
l-47 -1 3 -56z"/>
<path d="M1938 3568 c-23 -18 -27 -48 -11 -80 11 -22 20 -28 47 -28 20 0 40 8
51 20 19 21 7 27 -23 11 -20 -10 -66 5 -57 19 3 5 26 10 51 10 48 0 57 15 26
43 -22 20 -62 22 -84 5z m60 -25 c2 -8 -6 -13 -22 -13 -25 0 -33 10 -19 24 10
10 36 3 41 -11z"/>
<path d="M2070 3520 c0 -33 4 -60 10 -60 6 0 10 14 10 31 0 37 16 69 35 69 7
0 17 5 20 10 4 6 -10 10 -34 10 l-41 0 0 -60z"/>
<path d="M2160 3520 c0 -47 3 -60 15 -60 12 0 15 13 15 60 0 47 -3 60 -15 60
-12 0 -15 -13 -15 -60z"/>
<path d="M2240 3560 c-11 -11 -20 -29 -20 -40 0 -29 36 -60 69 -60 32 0 61 30
61 62 0 26 -36 58 -65 58 -14 0 -34 -9 -45 -20z m64 -13 c28 -21 17 -52 -19
-52 -33 0 -45 25 -25 50 15 18 21 19 44 2z"/>
<path d="M2380 3519 c0 -45 3 -59 14 -59 11 0 16 14 18 48 2 38 6 47 21 46 9
-1 17 4 17 11 0 8 -13 13 -35 13 l-35 0 0 -59z"/>
<path d="M3885 3556 c-32 -32 -32 -50 1 -82 19 -20 31 -24 52 -19 32 7 52 31
52 61 0 22 -23 54 -40 54 -5 0 -15 3 -24 6 -9 3 -26 -5 -41 -20z m71 -20 c15
-12 17 -18 8 -33 -14 -23 -53 -23 -67 -1 -8 12 -7 21 2 32 17 20 32 20 57 2z"/>
<path d="M4138 3573 c-9 -2 -19 -12 -23 -21 -6 -16 3 -26 51 -60 17 -11 14
-12 -18 -8 -27 3 -38 1 -38 -8 0 -28 73 -28 84 0 9 23 -3 39 -37 52 -24 9 -28
15 -18 21 7 5 22 6 32 4 23 -6 26 12 3 21 -9 3 -16 5 -17 5 -1 -1 -9 -3 -19
-6z"/>
<path d="M4029 3568 c0 -2 -2 -27 -4 -55 -3 -41 -1 -53 11 -53 10 0 14 12 14
45 0 38 3 45 19 45 11 0 23 5 26 10 4 6 -8 10 -29 10 -20 0 -36 -1 -37 -2z"/>
<path d="M4232 3558 c-7 -7 -12 -27 -12 -45 0 -42 30 -62 83 -56 l37 5 0 54 0
54 -48 0 c-26 0 -53 -5 -60 -12z m73 -43 c0 -25 -4 -30 -27 -33 -25 -3 -28 0
-28 26 0 35 8 44 35 40 15 -2 20 -10 20 -33z"/>
<path d="M4605 3554 c-17 -17 -20 -61 -5 -84 6 -10 26 -15 58 -15 l49 0 2 56
1 56 -45 1 c-27 1 -50 -5 -60 -14z m69 -20 c9 -8 16 -17 16 -19 0 -37 -64 -50
-73 -15 -5 20 15 50 33 50 5 0 16 -7 24 -16z"/>
<path d="M4750 3513 c0 -29 5 -53 10 -53 6 0 10 18 10 39 0 31 4 41 21 46 27
9 38 -3 42 -45 2 -19 10 -36 16 -38 9 -3 11 11 9 49 l-3 54 -52 1 -53 1 0 -54z"/>
<path d="M4987 3552 c-23 -25 -21 -65 3 -87 22 -20 84 -14 94 10 4 12 -3 13
-38 9 -34 -5 -44 -3 -49 10 -5 13 2 16 43 16 37 0 50 4 50 14 0 42 -73 62
-103 28z m71 -19 c2 -8 -6 -13 -22 -13 -26 0 -40 12 -29 24 11 11 46 2 51 -11z"/>
<path d="M5127 3563 c-4 -3 -7 -28 -7 -55 0 -35 4 -48 14 -48 11 0 13 9 9 35
-5 30 -2 36 21 46 14 7 26 16 26 21 0 10 -54 11 -63 1z"/>
<path d="M5220 3515 c0 -30 5 -55 10 -55 6 0 10 25 10 55 0 30 -4 55 -10 55
-5 0 -10 -25 -10 -55z"/>
<path d="M5295 3556 c-42 -31 -12 -105 43 -106 27 0 62 33 62 60 0 47 -65 76
-105 46z m78 -28 c10 -30 -5 -49 -37 -46 -25 2 -32 8 -34 31 -3 25 -1 27 32
27 19 0 36 -6 39 -12z"/>
<path d="M5432 3515 c3 -58 23 -77 23 -22 0 40 11 57 36 57 10 0 19 5 19 10 0
6 -18 10 -40 10 l-41 0 3 -55z"/>
<path d="M50 3190 c0 -85 1 -90 21 -90 19 0 20 4 14 40 -4 26 -3 40 4 40 6 0
11 -5 11 -10 0 -16 52 -70 67 -70 18 0 17 19 -2 26 -8 4 -15 11 -15 17 0 6 -9
20 -20 32 l-20 21 35 39 c44 52 25 59 -26 9 l-39 -38 0 37 c0 26 -4 37 -15 37
-12 0 -15 -17 -15 -90z"/>
<path d="M2676 3235 c-18 -19 -35 -35 -39 -35 -4 0 -7 14 -7 30 0 20 -5 30
-15 30 -13 0 -15 -14 -13 -87 2 -58 7 -88 16 -91 8 -2 12 8 12 32 0 19 5 38
10 41 6 3 10 3 10 -2 0 -14 61 -73 76 -73 22 0 17 12 -27 58 l-42 43 37 38
c20 20 36 40 36 44 0 17 -25 4 -54 -28z"/>
<path d="M2765 3260 c-4 -6 -3 -16 3 -22 6 -6 12 -6 17 2 4 6 3 16 -3 22 -6 6
-12 6 -17 -2z"/>
<path d="M2926 3263 c-12 -12 -6 -33 9 -33 8 0 15 6 15 14 0 17 -14 28 -24 19z"/>
<path d="M3217 3253 c-2 -5 -5 -45 -5 -90 -1 -67 1 -83 13 -83 10 0 15 11 15
35 0 45 18 45 48 0 13 -21 30 -35 42 -35 28 0 25 11 -15 50 -19 19 -35 41 -35
49 0 8 14 30 32 48 24 25 28 33 15 33 -9 0 -29 -13 -44 -30 -14 -16 -30 -30
-35 -30 -4 0 -8 14 -8 30 0 28 -13 40 -23 23z"/>
<path d="M3370 3245 c0 -8 7 -15 15 -15 8 0 15 7 15 15 0 8 -7 15 -15 15 -8 0
-15 -7 -15 -15z"/>
<path d="M3530 3245 c0 -8 7 -15 15 -15 8 0 15 7 15 15 0 8 -7 15 -15 15 -8 0
-15 -7 -15 -15z"/>
<path d="M5450 3170 c0 -76 2 -90 16 -90 13 0 15 7 10 35 -9 46 10 46 47 0 15
-19 34 -35 42 -35 19 0 19 14 0 30 -9 7 -25 26 -37 42 l-20 30 31 32 c34 35
38 46 17 46 -8 0 -27 -16 -42 -35 -30 -39 -48 -37 -42 6 3 20 0 29 -9 29 -10
0 -13 -22 -13 -90z"/>
<path d="M223 3210 c-40 -16 -42 -89 -4 -110 10 -5 35 -7 55 -3 l36 6 0 53 c0
47 -3 54 -19 54 -11 0 -25 2 -33 4 -7 3 -23 1 -35 -4z m57 -35 c20 -25 8 -50
-25 -50 -31 0 -43 20 -31 51 7 18 40 18 56 -1z"/>
<path d="M396 3211 c-3 -5 -15 -7 -26 -4 -18 5 -20 0 -20 -51 0 -42 4 -56 14
-56 10 0 16 14 18 43 3 37 6 42 28 42 22 0 26 -5 30 -45 6 -58 26 -50 23 10
-2 29 -9 49 -20 57 -20 15 -40 17 -47 4z"/>
<path d="M506 3194 c-20 -20 -20 -53 0 -82 13 -19 23 -22 57 -19 l42 4 3 55 3
55 -45 1 c-29 2 -50 -3 -60 -14z m71 -16 c22 -36 0 -71 -37 -61 -20 5 -25 28
-14 57 7 19 40 21 51 4z"/>
<path d="M650 3148 c0 -44 4 -58 14 -58 11 0 16 14 18 48 3 40 6 47 26 50 12
2 22 0 23 -5 9 -93 12 -103 25 -90 9 9 9 91 0 105 -4 7 -27 11 -57 10 l-49 -2
0 -58z"/>
<path d="M2760 3140 c0 -47 3 -60 15 -60 12 0 15 13 15 60 0 47 -3 60 -15 60
-12 0 -15 -13 -15 -60z"/>
<path d="M2827 3149 c-4 -29 -4 -56 -1 -60 12 -20 23 -6 26 34 2 32 8 44 26
52 32 14 27 25 -12 25 -33 0 -33 -1 -39 -51z"/>
<path d="M2920 3140 c0 -47 3 -60 15 -60 12 0 15 13 15 60 0 47 -3 60 -15 60
-12 0 -15 -13 -15 -60z"/>
<path d="M3370 3140 c0 -47 3 -60 15 -60 12 0 15 13 15 60 0 47 -3 60 -15 60
-12 0 -15 -13 -15 -60z"/>
<path d="M3439 3183 c0 -7 -1 -29 -1 -48 0 -53 1 -55 18 -55 11 0 14 6 9 21
-11 33 3 69 25 69 11 0 20 7 20 15 0 19 -70 18 -71 -2z"/>
<path d="M3538 3193 c-10 -19 -2 -107 10 -111 9 -3 12 14 12 57 0 53 -11 78
-22 54z"/>
<path d="M5610 3180 c-17 -17 -21 -29 -16 -52 7 -34 34 -60 54 -53 8 3 25 5
38 5 22 0 24 3 24 55 0 46 -3 55 -17 55 -10 0 -28 3 -40 6 -14 4 -28 -1 -43
-16z m74 -26 c7 -17 -9 -54 -24 -54 -33 0 -55 42 -33 63 12 13 51 7 57 -9z"/>
<path d="M5778 3193 c-27 -4 -28 -7 -28 -59 0 -37 4 -54 13 -54 8 0 12 13 10
40 -2 35 1 41 22 46 36 9 47 -4 43 -47 -2 -27 0 -39 9 -39 9 0 13 16 13 50 0
38 -4 52 -19 60 -11 5 -23 9 -28 9 -4 -1 -20 -4 -35 -6z"/>
<path d="M5922 3193 c-19 -8 -33 -50 -26 -79 8 -33 33 -44 78 -37 l36 6 0 53
c0 45 -3 54 -17 54 -10 0 -27 2 -38 5 -11 2 -26 1 -33 -2z m52 -29 c26 -10 20
-53 -8 -60 -32 -8 -46 2 -46 30 0 35 17 44 54 30z"/>
<path d="M6083 3193 c-33 -4 -33 -5 -33 -59 0 -64 17 -73 22 -11 3 36 7 43 27
45 30 5 39 -10 34 -54 -3 -25 0 -34 12 -34 21 0 21 83 -1 104 -8 9 -18 15 -22
14 -4 0 -22 -3 -39 -5z"/>
<path d="M935 2972 c-36 -17 -76 -52 -70 -61 2 -4 0 -13 -5 -20 -6 -11 -15 -8
-42 13 -35 26 -81 33 -106 17 -19 -11 -36 -43 -69 -121 -6 -16 -9 -26 -11 -47
-1 -8 -16 -13 -36 -13 -18 0 -39 -7 -46 -15 -7 -8 -16 -12 -21 -10 -13 9 -42
-57 -43 -98 -1 -38 -16 -57 -48 -57 -27 0 -57 -48 -64 -101 -6 -42 -10 -49
-29 -49 -27 0 -55 -29 -55 -58 0 -11 -4 -23 -8 -26 -15 -9 -13 -111 2 -140 10
-19 13 -53 10 -114 -3 -82 -5 -99 -20 -154 -12 -46 -11 -275 1 -353 15 -90 32
-215 40 -290 3 -27 10 -79 16 -115 11 -77 37 -275 45 -345 3 -27 9 -54 14 -60
4 -5 10 -48 13 -95 4 -47 9 -101 12 -120 3 -19 7 -57 9 -85 13 -148 38 -226
99 -309 34 -47 74 -76 122 -89 46 -13 125 -16 125 -5 0 6 6 8 13 5 26 -10 137
54 137 78 0 4 8 19 18 33 34 50 81 207 88 297 6 83 22 383 29 550 2 66 7 147
9 180 3 33 8 137 11 230 4 94 9 193 11 220 3 28 7 73 9 100 2 28 8 84 14 125
6 41 13 102 17 135 3 33 12 76 19 96 8 20 11 40 7 43 -3 4 -5 22 -4 41 2 18
-1 36 -7 40 -6 3 -11 19 -11 34 0 16 -7 34 -14 41 -12 9 -14 40 -11 168 2 86
8 180 14 207 18 91 13 163 -14 222 -14 29 -32 53 -39 53 -7 0 -19 7 -26 15 -7
8 -16 13 -20 10 -5 -3 -11 -1 -15 4 -7 13 -33 10 -70 -7z m121 -68 c86 -95 37
-284 -74 -284 -92 0 -144 147 -91 257 39 80 108 91 165 27z m-263 -25 c29 -16
37 -28 37 -60 0 -81 -102 -163 -148 -117 -14 14 -16 94 -2 103 6 3 10 14 10
23 0 21 40 61 63 61 10 1 28 -4 40 -10z m-162 -190 c12 -19 11 -89 -2 -126
-13 -38 -59 -49 -93 -22 -20 16 -22 23 -16 75 5 43 12 62 29 76 26 21 68 19
82 -3z m197 -6 c15 -144 15 -142 -8 -161 l-23 -18 60 -22 c50 -18 130 -70 179
-117 19 -18 64 -101 64 -118 0 -10 4 -17 9 -17 14 0 10 -120 -5 -149 -7 -13
-11 -28 -8 -33 3 -4 -2 -11 -10 -14 -9 -3 -14 -10 -11 -14 8 -12 -116 -131
-145 -139 -57 -16 -200 22 -200 53 0 20 -43 36 -64 24 -13 -8 -21 -7 -27 3
-10 17 -36 -6 -87 -76 -20 -27 -40 -51 -44 -53 -5 -2 -8 -10 -8 -19 0 -8 -13
-28 -30 -43 -16 -15 -30 -32 -30 -38 0 -5 -15 -26 -33 -46 -35 -37 -43 -66
-21 -66 7 0 21 16 30 35 9 19 20 35 25 35 5 0 9 4 9 10 0 10 20 37 53 72 9 10
17 22 17 26 0 5 9 17 20 27 11 10 20 22 20 27 0 5 5 14 10 21 6 7 19 24 31 40
11 15 26 27 32 26 8 0 8 -2 0 -6 -7 -2 -13 -10 -13 -17 0 -7 -9 -23 -20 -36
-11 -13 -20 -29 -20 -35 0 -7 -7 -15 -15 -19 -8 -3 -15 -10 -15 -16 0 -13 -41
-70 -82 -115 -16 -16 -28 -34 -28 -40 0 -5 -13 -24 -30 -41 -16 -18 -26 -35
-23 -38 4 -3 1 -6 -5 -6 -7 0 -12 -12 -12 -27 l0 -28 35 39 c19 21 35 42 35
46 0 5 18 28 40 52 22 23 40 47 40 51 0 5 6 14 13 22 20 21 44 52 48 61 2 5
24 39 48 77 38 60 61 82 61 60 0 -8 30 -28 104 -70 39 -23 126 -32 126 -14 0
5 11 12 25 15 24 6 58 31 112 85 28 27 43 20 24 -11 -9 -15 -9 -18 0 -13 9 6
9 4 3 -6 -5 -8 -10 -27 -10 -44 -1 -16 -3 -32 -4 -35 -6 -16 -19 -207 -25
-380 -9 -273 -16 -421 -22 -470 -3 -30 -7 -103 -8 -163 -1 -59 -5 -110 -8
-113 -3 -3 -4 -11 -1 -18 2 -6 0 -33 -5 -59 -5 -26 -5 -50 0 -53 7 -4 6 -49
-1 -49 -1 0 -3 -25 -6 -55 -2 -30 -11 -77 -20 -103 -8 -26 -12 -52 -9 -57 3
-5 1 -11 -5 -15 -5 -3 -10 -13 -10 -22 0 -29 -42 -104 -74 -135 -84 -79 -226
-77 -309 5 -45 43 -109 179 -101 211 3 14 1 40 -5 58 -5 18 -11 60 -12 93 -1
33 -6 71 -10 85 -4 14 -10 52 -13 85 -13 156 -18 201 -23 215 -4 8 -7 26 -9
40 -1 14 -4 38 -8 55 -3 16 -8 57 -11 90 -9 91 -13 113 -18 122 -3 4 -8 42
-12 83 -7 78 -8 85 -25 185 -20 122 -23 162 -23 270 1 103 4 149 18 250 11 76
15 85 35 85 11 0 20 6 20 13 0 6 7 25 15 41 16 30 29 87 27 119 0 9 4 17 9 17
6 0 10 10 9 23 -4 41 0 57 13 57 17 0 48 33 64 68 6 16 12 21 13 12 1 -8 3
-24 5 -35 6 -30 -17 -86 -32 -81 -7 3 -13 -1 -13 -8 0 -7 -9 -25 -20 -39 -20
-26 -27 -67 -11 -67 11 0 28 21 33 39 6 27 131 161 185 199 17 12 45 22 61 22
18 0 32 6 36 16 9 24 8 25 -31 18 -36 -5 -39 -3 -53 28 -8 18 -14 36 -12 40 1
4 2 30 3 58 l2 51 38 -4 c29 -3 47 1 71 19 40 28 43 29 46 7z m98 -88 c18 -14
35 -21 38 -16 3 5 14 7 24 4 10 -2 31 3 47 11 16 8 31 13 33 11 2 -2 3 -41 2
-87 -1 -46 -1 -96 -1 -112 l2 -30 -25 27 c-14 15 -30 27 -36 27 -5 0 -10 7
-10 15 0 8 -6 15 -14 15 -7 0 -19 6 -25 13 -6 8 -28 19 -50 27 -35 11 -38 15
-36 44 2 17 3 41 4 54 1 28 7 28 47 -3z m-431 -101 c-3 -20 -10 -44 -15 -53
-5 -9 -11 -24 -14 -33 -6 -21 -55 -25 -57 -5 -1 6 -2 24 -3 38 -5 53 24 87 78
88 16 1 17 -4 11 -35z m157 -1 c2 -11 -13 -34 -41 -60 -24 -24 -46 -43 -48
-43 -1 0 -3 9 -3 19 0 11 -4 22 -9 25 -4 3 -8 16 -7 28 1 18 8 24 31 26 17 2
34 8 40 13 15 15 33 10 37 -8z m-280 -136 c31 -24 21 -73 -25 -116 -57 -52
-67 34 -14 117 10 15 17 15 39 -1z m-14 -206 c-14 -43 -28 -54 -28 -22 0 11
-2 26 -5 33 -5 12 33 41 43 33 2 -1 -3 -21 -10 -44z"/>
<path d="M1010 2023 c-46 -62 -93 -93 -141 -93 -22 0 -39 4 -39 9 0 5 -13 12
-30 16 -16 4 -32 11 -35 16 -9 14 -25 11 -25 -5 0 -7 15 -19 33 -26 17 -7 41
-16 52 -21 20 -8 53 -12 91 -10 31 2 134 107 134 137 0 13 -1 24 -3 24 -1 0
-18 -21 -37 -47z"/>
<path d="M609 1573 c-5 -224 9 -405 32 -419 5 -3 7 -10 4 -15 -4 -5 1 -19 9
-31 9 -12 16 -35 16 -50 0 -16 5 -28 10 -28 6 0 10 -8 11 -17 0 -10 9 -31 20
-48 10 -16 23 -39 28 -50 16 -37 71 -76 111 -81 52 -6 71 22 71 101 0 62 -9
81 -70 143 -23 23 -41 46 -41 52 0 5 -4 10 -10 10 -5 0 -10 6 -10 13 0 7 -6
19 -12 26 -7 6 -13 15 -13 19 -1 4 -6 17 -13 30 -7 12 -10 22 -7 22 3 0 1 9
-6 21 -17 33 -13 146 8 179 38 60 159 134 210 128 27 -3 29 -8 24 -48 0 -5
-27 -29 -58 -52 -97 -72 -120 -113 -140 -250 -4 -30 -2 -38 11 -38 11 0 16 9
16 29 0 17 5 33 10 36 6 4 8 11 5 16 -4 5 -3 15 2 22 4 6 9 20 10 30 6 35 33
76 65 98 79 54 109 94 113 151 3 38 -40 56 -94 39 -84 -25 -146 -71 -213 -161
-21 -29 -17 -163 6 -209 9 -17 14 -31 10 -31 -8 0 40 -82 68 -114 13 -15 39
-45 59 -66 42 -46 51 -77 36 -126 -8 -26 -16 -34 -35 -34 -39 0 -105 74 -136
154 -15 38 -25 70 -23 73 7 7 41 -51 45 -75 1 -13 7 -29 12 -35 5 -7 21 -27
36 -44 26 -33 46 -43 42 -21 -2 6 -14 25 -27 40 -14 16 -26 36 -27 44 -1 8 -8
22 -15 30 -7 9 -15 26 -16 37 -2 12 -8 26 -13 31 -6 6 -10 22 -10 36 0 14 -5
31 -12 38 -7 7 -8 12 -4 12 5 0 3 7 -4 15 -7 8 -10 15 -6 15 3 0 1 12 -5 28
-21 52 -29 252 -11 276 12 15 14 74 3 80 -5 3 -12 -13 -16 -37 -5 -23 -9 -45
-10 -49 -1 -5 -3 -20 -4 -34 0 -14 -5 -23 -10 -20 -5 3 -7 42 -5 86 2 64 0 80
-12 80 -10 0 -14 -15 -15 -57z m43 -257 c0 -3 6 -32 14 -63 26 -100 32 -133
23 -133 -10 0 -32 67 -25 78 3 5 -1 17 -8 28 -8 10 -12 23 -9 29 2 7 -1 23 -6
37 -5 14 -7 29 -4 32 7 6 15 2 15 -8z"/>
<path d="M905 1536 c-11 -7 -23 -13 -26 -12 -3 0 -26 -12 -52 -28 -48 -31 -65
-60 -65 -111 -1 -17 -1 -35 -2 -40 -5 -22 0 -46 8 -41 5 3 9 26 11 51 4 83 18
103 109 151 28 15 52 32 52 36 0 12 -13 10 -35 -6z"/>
<path d="M915 658 c19 -190 12 -286 -27 -362 -21 -43 -75 -106 -91 -106 -4 0
-16 -7 -24 -16 -23 -22 -109 -11 -142 19 -74 67 -112 125 -106 159 3 13 -3 18
-21 18 -31 0 -31 -17 4 -80 37 -67 82 -114 135 -139 63 -31 111 -27 169 11 26
18 48 37 48 42 0 5 8 16 19 25 27 24 61 88 69 130 7 44 7 267 -1 301 -3 14 -6
33 -6 43 -1 9 -8 17 -17 17 -13 0 -15 -10 -9 -62z"/>
<path d="M859 390 c-7 -22 -18 -45 -26 -51 -7 -6 -13 -17 -13 -23 0 -17 -80
-96 -97 -96 -8 0 -13 -6 -10 -12 10 -30 53 -2 98 62 13 19 32 43 42 53 20 20
37 59 37 88 0 33 -19 21 -31 -21z"/>
<path d="M2144 2976 c-44 -19 -82 -58 -90 -92 -4 -16 -11 -34 -16 -41 -11 -13
-6 -97 10 -183 6 -30 13 -116 16 -191 4 -124 3 -140 -15 -174 -27 -49 -28
-164 -5 -300 21 -118 24 -137 31 -230 3 -38 10 -81 15 -95 4 -14 11 -104 14
-200 4 -96 9 -213 12 -260 3 -47 7 -116 8 -155 1 -38 5 -83 9 -100 7 -31 19
-237 22 -360 1 -38 5 -77 8 -85 3 -8 13 -59 22 -112 27 -165 81 -276 152 -315
54 -29 127 -46 165 -39 18 4 40 8 48 9 47 10 106 60 158 134 30 43 59 160 66
263 6 80 10 128 21 210 3 19 12 96 20 170 9 74 18 142 21 150 8 18 10 32 30
217 8 82 17 159 19 173 2 14 7 52 10 85 4 33 12 98 18 145 14 99 7 250 -18
372 -12 59 -15 100 -10 147 4 36 8 102 9 146 1 71 -2 84 -24 113 -18 25 -31
32 -48 29 -26 -5 -38 8 -23 27 6 7 8 16 4 20 -4 3 -8 16 -10 29 -5 31 -49 74
-84 81 -27 5 -30 9 -28 43 4 73 -51 133 -123 133 -23 0 -28 4 -28 23 0 13 -5
28 -12 35 -7 7 -9 12 -5 12 4 0 -4 23 -18 50 -29 56 -60 75 -111 65 -17 -3
-39 -14 -49 -25 -14 -15 -21 -17 -32 -9 -7 6 -13 17 -13 23 0 22 -75 76 -102
76 -7 -1 -27 -7 -44 -14z m102 -53 c30 -19 47 -89 42 -168 -3 -58 -8 -69 -38
-100 -49 -51 -91 -49 -142 6 -39 42 -43 56 -38 139 5 114 94 176 176 123z
m192 -43 c17 -11 32 -28 32 -38 0 -10 7 -27 15 -38 19 -26 19 -73 -2 -96 -23
-26 -63 -22 -102 10 -26 22 -34 38 -38 74 -6 49 9 88 32 88 8 0 15 5 15 10 0
15 11 12 48 -10z m178 -193 c35 -31 46 -117 19 -147 -23 -26 -46 -25 -79 1
-23 18 -26 27 -26 83 0 88 31 110 86 63z m-193 -34 c13 -7 28 -8 43 -3 16 7
24 5 28 -6 9 -24 7 -110 -3 -137 -8 -22 -14 -24 -49 -20 -25 3 -43 0 -47 -7
-10 -16 13 -30 47 -30 38 0 137 -77 185 -143 20 -28 43 -58 50 -65 7 -8 18
-22 23 -33 14 -26 30 -24 30 4 -1 27 -16 55 -55 99 -33 38 -38 51 -30 79 9 26
22 24 29 -6 4 -16 19 -30 41 -39 30 -13 34 -19 33 -48 -1 -40 19 -131 38 -167
8 -14 14 -36 14 -48 0 -24 25 -32 33 -10 5 12 11 -26 8 -50 -1 -7 3 -13 9 -13
5 0 10 -15 10 -32 0 -18 7 -69 15 -113 12 -60 14 -112 9 -210 -3 -71 -10 -134
-14 -140 -4 -5 -11 -46 -15 -90 -15 -167 -27 -268 -44 -380 -6 -38 -13 -86
-15 -105 -2 -19 -6 -46 -9 -60 -4 -14 -9 -56 -11 -95 -3 -38 -10 -113 -16
-165 -16 -141 -20 -180 -23 -240 -3 -53 -30 -142 -52 -167 -5 -7 -23 -30 -40
-52 -16 -22 -36 -40 -42 -41 -7 0 -13 -4 -13 -8 0 -18 -79 -35 -133 -29 -79 8
-156 54 -160 94 0 12 -5 19 -9 17 -4 -3 -13 7 -18 23 -6 15 -17 40 -26 55 -8
15 -14 33 -13 40 1 7 0 20 -3 28 -25 67 -43 233 -53 490 -2 41 -4 75 -5 75 -2
0 -4 25 -5 55 -13 300 -17 369 -21 398 -3 18 -7 94 -10 170 -2 75 -7 144 -11
152 -3 8 -7 40 -9 70 -4 64 -10 117 -20 180 l-7 45 29 -35 c80 -97 153 -124
257 -95 15 4 27 11 27 16 0 5 6 9 13 9 7 0 24 11 39 25 36 33 55 32 76 -6 9
-17 34 -54 54 -82 20 -29 47 -67 60 -86 13 -18 38 -49 56 -70 18 -20 35 -45
38 -56 9 -31 63 -70 77 -56 8 8 9 14 1 19 -6 4 -30 34 -54 67 -24 33 -46 62
-49 65 -17 15 -91 118 -91 128 0 5 -4 12 -9 14 -11 4 -63 88 -54 88 12 0 53
-43 53 -56 0 -13 108 -157 121 -162 5 -2 18 -21 30 -42 21 -38 49 -60 49 -39
0 15 -52 90 -87 125 -17 17 -39 46 -50 64 -10 18 -23 41 -29 52 -17 28 -94
108 -105 108 -5 0 -9 -5 -9 -10 0 -7 -7 -7 -21 1 -18 9 -25 7 -48 -13 -31 -29
-80 -61 -101 -66 -38 -10 -103 -7 -128 5 -43 22 -121 104 -144 151 -27 57 -33
187 -11 229 9 15 22 39 29 53 19 36 110 119 147 135 18 7 50 20 71 29 l39 16
-22 24 c-24 25 -24 21 -5 138 l6 37 30 -17 c17 -9 40 -22 51 -29z m-135 -85
c-3 -54 -8 -60 -98 -104 -8 -5 -30 -23 -48 -42 -19 -18 -35 -32 -37 -30 -4 4
-14 218 -11 218 2 0 18 -7 35 -16 39 -19 105 -14 130 10 26 26 32 18 29 -36z
m459 -58 c6 0 22 -69 18 -85 -2 -11 -4 -23 -4 -27 -1 -5 -12 -8 -26 -8 -25 0
-46 30 -50 72 -1 9 -5 24 -9 33 -10 27 2 34 37 24 17 -5 33 -9 34 -9z m-155
-21 c25 0 30 -13 22 -54 -6 -34 -34 -51 -34 -20 0 8 -6 15 -13 15 -16 0 -41
27 -51 54 -5 16 -2 18 26 12 18 -4 41 -7 50 -7z m262 -146 c4 -9 9 -41 13 -71
5 -51 5 -54 -17 -50 -22 3 -70 73 -70 101 0 35 62 52 74 20z m-21 -157 c14
-11 16 -20 8 -52 -5 -22 -9 -30 -10 -18 -1 11 -5 24 -10 30 -13 14 -24 54 -14
54 4 0 16 -7 26 -14z"/>
<path d="M2106 2063 c-3 -3 3 -12 14 -20 11 -8 20 -20 20 -27 0 -15 32 -51 74
-84 41 -31 111 -30 182 4 40 19 53 29 45 37 -8 8 -24 4 -57 -12 -71 -36 -109
-38 -153 -7 -42 29 -81 71 -81 86 0 12 -36 31 -44 23z"/>
<path d="M2538 1620 c-2 -6 -1 -40 2 -76 7 -84 -11 -80 -25 7 -11 66 -24 72
-19 9 2 -35 12 -116 17 -155 2 -11 1 -24 -1 -28 -2 -4 -5 -35 -7 -68 -3 -33
-8 -65 -12 -72 -4 -6 -8 -18 -9 -27 -4 -40 -58 -196 -75 -213 -10 -12 -19 -25
-19 -31 0 -5 -7 -18 -17 -28 -9 -10 -13 -21 -9 -26 11 -10 61 52 90 112 14 28
25 44 25 35 2 -34 -43 -113 -86 -155 -39 -38 -47 -42 -68 -32 -27 12 -34 31
-29 84 3 31 15 49 63 98 64 66 90 110 114 197 26 88 9 239 -26 239 -5 0 -27
18 -49 40 -22 22 -46 40 -52 40 -7 0 -21 8 -32 18 -23 20 -35 24 -90 30 -58 5
-72 -14 -55 -76 12 -45 44 -92 63 -92 5 0 15 -6 23 -12 48 -42 75 -69 75 -78
0 -6 4 -18 9 -28 5 -9 15 -43 22 -75 7 -32 17 -61 22 -64 14 -8 27 19 21 43
-3 11 -7 27 -8 35 -2 8 -6 21 -9 29 -3 8 -10 31 -16 50 -13 42 -40 73 -103
120 -47 35 -82 86 -71 103 11 18 118 -14 161 -48 21 -16 76 -75 84 -90 27 -46
8 -196 -29 -237 -10 -11 -17 -21 -15 -22 10 -4 -18 -48 -61 -93 -27 -28 -56
-64 -64 -80 -35 -67 -6 -156 54 -168 18 -3 41 -2 50 4 52 28 136 163 148 239
4 23 10 42 14 42 4 0 8 10 8 23 1 12 9 51 18 87 12 48 16 101 14 205 -1 77 -5
151 -9 164 -7 27 -26 39 -32 21z m6 -312 c-4 -6 -7 -26 -6 -44 1 -18 -3 -36
-8 -39 -11 -7 -12 14 -4 67 4 21 11 35 15 32 5 -3 6 -10 3 -16z m-24 -124 c0
-8 -4 -12 -10 -9 -5 3 -10 10 -10 16 0 5 5 9 10 9 6 0 10 -7 10 -16z m-16 -68
c-6 -25 -24 -37 -24 -15 0 15 21 52 26 46 3 -3 2 -16 -2 -31z"/>
<path d="M2236 1531 c-4 -5 7 -12 23 -16 16 -3 35 -13 42 -21 6 -8 19 -14 28
-14 10 0 28 -11 41 -25 19 -20 25 -40 28 -90 3 -48 8 -65 19 -65 10 0 12 6 8
20 -3 11 -2 20 3 20 11 0 -9 78 -29 117 -12 21 -117 83 -144 83 -7 0 -16 -4
-19 -9z"/>
<path d="M2257 703 c-11 -38 -20 -98 -17 -108 1 -5 2 -17 1 -25 -8 -118 13
-249 48 -299 12 -16 21 -32 21 -35 0 -12 39 -49 82 -78 83 -55 195 -22 264 78
21 30 39 60 41 67 11 43 14 77 7 77 -18 0 -29 -16 -31 -44 -1 -16 -11 -39 -23
-51 -11 -12 -20 -26 -20 -31 0 -21 -57 -63 -105 -76 -37 -11 -59 -12 -84 -4
-50 14 -114 82 -135 141 -10 28 -22 59 -28 71 -12 27 -15 137 -5 247 5 54 4
87 -2 87 -5 0 -12 -8 -14 -17z"/>
<path d="M2307 433 c-3 -5 -2 -22 0 -40 10 -63 169 -231 182 -191 2 7 -1 14
-8 16 -23 8 -73 56 -99 95 -15 22 -35 51 -44 65 -9 13 -14 30 -11 37 5 14 -13
30 -20 18z"/>
<path d="M4057 2874 c-26 -25 -47 -50 -47 -55 0 -6 -7 -6 -18 0 -36 19 -79 10
-114 -26 -18 -19 -32 -37 -32 -41 1 -4 -2 -17 -7 -30 -5 -13 -9 -28 -9 -34 0
-6 -10 -8 -24 -4 -30 7 -74 -8 -99 -35 -10 -10 -15 -19 -11 -19 3 0 2 -6 -3
-12 -5 -7 -8 -27 -6 -45 2 -27 -1 -32 -25 -38 -37 -8 -92 -58 -92 -84 0 -12
-5 -21 -11 -21 -6 0 -9 -8 -6 -19 3 -11 -4 -25 -19 -36 -13 -10 -24 -24 -24
-31 0 -8 -7 -14 -16 -14 -11 0 -15 -6 -11 -20 3 -11 1 -23 -4 -26 -5 -3 -10
-31 -10 -62 -1 -225 -8 -377 -19 -436 -8 -46 -10 -117 -7 -210 6 -134 9 -177
23 -291 10 -86 15 -147 18 -248 2 -54 6 -100 10 -104 3 -3 6 -19 6 -35 0 -15
4 -47 10 -70 36 -165 34 -152 50 -288 5 -47 12 -128 14 -180 2 -56 8 -96 15
-98 13 -4 13 -10 10 148 -3 177 -2 190 18 214 33 39 43 66 44 121 2 60 -1 68
-18 57 -7 -4 -13 -30 -14 -57 -2 -51 -25 -105 -44 -105 -6 0 -11 9 -12 21 -1
12 -12 71 -24 133 -17 86 -22 143 -20 249 0 76 5 146 10 156 11 19 21 102 28
219 4 61 2 72 -11 72 -10 0 -16 -9 -17 -22 -2 -70 -17 -197 -28 -233 -8 -28
-9 -26 -14 25 -18 156 -27 477 -14 503 5 11 10 103 12 205 1 103 6 195 10 205
5 12 16 17 33 15 22 -3 29 -13 49 -78 13 -41 26 -84 28 -95 17 -85 26 -171 31
-298 7 -141 15 -177 35 -146 9 14 3 224 -8 284 -2 17 -9 53 -13 80 -13 79 -39
188 -50 210 -11 24 -30 149 -30 198 0 37 23 67 35 46 4 -6 1 -15 -6 -20 -22
-13 2 -27 39 -22 24 4 32 10 30 22 -2 9 -11 16 -20 16 -29 0 -30 12 -2 19 14
4 29 4 32 1 3 -3 10 -33 14 -68 9 -63 14 -99 17 -106 0 -2 8 2 16 9 8 7 12 23
10 38 -12 74 -17 114 -22 195 l-5 87 51 2 c28 0 56 1 63 2 7 1 12 -11 13 -26
0 -14 3 -30 8 -34 4 -4 7 -42 7 -85 0 -79 6 -94 29 -79 10 6 12 26 8 79 -4 40
-10 77 -13 83 -4 7 -8 32 -8 57 -1 25 -4 51 -7 56 -3 6 -6 28 -5 50 l1 40 70
-4 c39 -2 71 -4 71 -5 1 0 6 -68 12 -149 12 -151 16 -172 33 -161 13 8 2 221
-16 329 -6 37 -5 39 9 21 8 -10 17 -22 18 -25 2 -3 21 -19 43 -36 34 -25 48
-30 95 -29 46 2 57 6 76 30 l22 27 6 -34 c13 -88 16 -131 22 -367 4 -169 3
-261 -4 -275 -6 -12 -18 -95 -28 -185 -16 -140 -20 -161 -31 -146 -8 10 -11
24 -9 31 3 8 -3 13 -15 13 -20 0 -22 -19 -7 -60 6 -15 25 -179 34 -285 7 -91
5 -216 -5 -250 -5 -16 -10 -37 -10 -45 -1 -15 -8 -70 -31 -235 -6 -44 -13 -93
-15 -110 -7 -45 -6 -388 1 -448 5 -49 23 -89 25 -56 2 42 -3 334 -6 339 -3 4
3 59 19 190 2 14 7 61 11 105 9 89 9 93 18 115 7 18 27 195 31 271 2 31 6 61
10 67 3 6 3 13 -2 16 -22 13 -6 443 18 501 43 104 26 890 -21 949 -61 77 -119
116 -173 116 -26 0 -43 -10 -79 -46z m130 -4 c7 0 31 -18 54 -40 39 -37 41
-42 31 -65 -7 -14 -12 -37 -12 -50 0 -29 -31 -40 -92 -32 -51 7 -82 37 -98 93
-11 37 -10 47 3 68 17 25 47 36 82 30 11 -2 25 -4 32 -4z m-201 -94 c15 -12
17 -19 8 -32 -25 -42 -116 -16 -93 27 12 23 57 25 85 5z m-178 -132 c49 -14
15 -44 -50 -44 -32 0 -38 23 -10 39 20 12 29 13 60 5z m-125 -151 c3 -5 1 -17
-4 -28 -4 -11 -8 -16 -8 -11 -1 5 -10 1 -21 -9 -17 -15 -22 -16 -36 -4 -15 12
-13 15 12 36 30 23 49 29 57 16z m-143 -198 c0 -8 -4 -15 -10 -15 -5 0 -10 7
-10 15 0 8 5 15 10 15 6 0 10 -7 10 -15z m15 -66 c-8 -12 -35 -12 -35 0 0 11
22 20 33 14 4 -2 5 -9 2 -14z"/>
<path d="M5343 2908 c-18 -6 -33 -15 -33 -19 0 -5 -6 -9 -12 -9 -16 0 -62 -73
-76 -120 -6 -19 -13 -62 -17 -95 -9 -95 -10 -629 0 -644 9 -16 46 -232 40
-241 -2 -3 4 -30 12 -60 10 -37 16 -118 19 -250 5 -239 10 -302 29 -405 25
-134 37 -216 31 -230 -2 -7 -1 -16 4 -21 17 -17 23 -91 26 -324 3 -203 6 -235
19 -238 14 -3 16 23 12 240 -2 134 -9 266 -15 293 -7 28 -16 84 -21 125 -5 41
-12 86 -15 100 -4 14 -7 45 -7 70 -1 25 -6 48 -12 52 -10 6 -13 274 -4 383 11
129 20 195 27 195 9 0 7 26 -3 36 -8 8 -38 -16 -32 -25 2 -4 0 -21 -5 -37 -8
-28 -8 -28 -10 -4 -1 14 -4 34 -7 45 -2 11 -11 70 -19 130 -8 61 -18 124 -23
140 -19 61 -24 155 -22 360 1 116 4 233 6 260 1 28 3 58 4 68 1 23 22 22 28
-3 7 -26 57 -39 118 -30 41 6 56 15 89 51 l39 44 -7 -75 c-4 -41 -8 -102 -10
-135 -2 -33 -6 -72 -10 -87 -9 -29 10 -76 25 -61 7 7 28 231 29 301 0 8 21 12
70 12 81 0 76 11 60 -135 -17 -147 -18 -214 -3 -226 15 -13 14 -14 19 61 2 30
5 71 8 90 3 19 5 44 5 55 1 19 7 20 69 20 l67 -1 1 -67 c0 -37 -3 -70 -8 -73
-4 -3 -8 -33 -8 -68 0 -34 -3 -66 -7 -70 -13 -12 -11 -35 3 -47 21 -17 24 -9
30 62 3 35 7 65 9 67 1 2 12 -1 24 -7 12 -6 30 -16 41 -21 16 -8 22 -7 27 5 8
23 -8 35 -50 37 -29 1 -37 5 -37 20 0 21 4 22 33 6 12 -6 34 -11 50 -10 22 2
27 -2 28 -20 1 -13 1 -27 0 -32 -1 -4 -4 -46 -6 -93 -2 -47 -8 -90 -13 -97 -5
-6 -15 -40 -21 -76 -7 -36 -16 -72 -19 -80 -8 -20 -12 -52 -16 -135 -2 -38 -7
-103 -10 -143 -8 -85 1 -165 18 -159 7 2 13 59 18 163 7 164 30 327 53 379 7
17 16 43 20 58 5 24 10 28 33 25 19 -2 27 -9 27 -23 1 -11 4 -25 7 -30 3 -6 7
-75 7 -155 1 -85 8 -171 16 -210 11 -47 14 -104 10 -205 -5 -152 -11 -249 -15
-252 -4 -4 -7 -21 -9 -45 -1 -26 -15 -15 -17 15 -1 12 -5 32 -8 45 -3 12 -6
54 -7 92 -1 48 -6 70 -15 70 -15 0 -24 -105 -11 -140 5 -14 12 -59 14 -100 3
-41 10 -78 15 -81 13 -8 16 -278 4 -298 -5 -7 -10 -28 -11 -45 -7 -103 -18
-186 -25 -186 -20 0 -52 80 -54 135 -1 20 -6 30 -16 30 -12 0 -14 -12 -12 -59
4 -68 5 -71 50 -120 26 -29 32 -44 30 -72 -1 -19 -5 -37 -9 -40 -4 -2 -7 -60
-7 -129 0 -95 3 -125 13 -125 10 0 14 36 18 143 7 156 11 203 33 322 8 44 16
98 19 120 2 22 7 51 10 65 3 14 10 95 15 180 6 85 15 216 20 290 11 145 12
360 1 360 -3 0 -7 19 -8 43 -6 159 -14 298 -18 332 -3 22 -8 60 -11 85 -9 86
-25 135 -54 165 -15 17 -31 44 -34 61 -9 39 -56 91 -101 110 -20 8 -34 18 -31
22 8 14 -19 81 -45 108 -20 22 -30 25 -66 21 -41 -4 -48 1 -57 45 0 3 -4 10
-8 14 -5 4 -8 15 -8 24 0 20 -52 60 -79 60 -11 0 -31 -4 -45 -10 -20 -7 -26
-6 -26 4 0 8 -21 33 -46 55 -50 44 -77 49 -141 29z m119 -55 c15 -14 19 -27
15 -62 -2 -25 -9 -47 -16 -49 -6 -2 -11 -9 -11 -16 0 -32 -133 -57 -160 -30
-5 5 -14 31 -19 56 -8 44 -6 49 21 75 56 54 127 65 170 26z m176 -76 c22 -17
13 -36 -24 -46 -26 -7 -41 -7 -55 2 -23 14 -24 25 -4 47 16 18 59 16 83 -3z
m171 -151 c13 -16 12 -18 -35 -31 -6 -2 -23 5 -38 14 -21 14 -24 20 -14 28 31
25 60 21 87 -11z m112 -143 c32 -19 38 -40 13 -50 -17 -6 -77 45 -68 59 8 12
23 10 55 -9z m114 -191 c-8 -9 -35 20 -28 31 4 6 11 3 19 -8 8 -10 12 -21 9
-23z m-5 -56 c0 -11 -19 -15 -25 -6 -3 5 1 10 9 10 9 0 16 -2 16 -4z"/>
<path d="M3905 2670 c-16 -26 44 -46 72 -24 16 12 16 15 3 24 -19 13 -67 13
-75 0z"/>
<path d="M5571 2671 c-20 -13 -4 -31 28 -31 29 0 57 21 44 33 -9 10 -56 8 -72
-2z"/>
<path d="M4147 2577 c-26 -11 -27 -14 -13 -32 12 -16 17 -18 27 -7 7 6 30 12
51 12 39 0 46 8 26 28 -15 15 -55 15 -91 -1z"/>
<path d="M5313 2583 c-7 -2 -13 -11 -13 -19 0 -10 12 -14 39 -14 22 0 43 -4
46 -10 10 -17 35 -11 35 8 0 30 -67 52 -107 35z"/>
<path d="M3761 2514 c-28 -20 -18 -34 25 -34 31 0 56 21 42 36 -13 12 -48 11
-67 -2z"/>
<path d="M5728 2513 c-13 -17 -11 -19 28 -27 23 -5 33 -3 37 8 12 30 -42 46
-65 19z"/>
<path d="M4136 2359 c-3 -8 -10 -79 -16 -159 -6 -80 -14 -162 -18 -183 -7 -39
1 -238 13 -315 5 -28 3 -47 -5 -57 -10 -12 -9 -16 4 -21 26 -10 31 3 28 74 -6
151 -6 330 1 372 9 58 19 205 17 250 -1 38 -16 62 -24 39z"/>
<path d="M5397 2353 c-10 -9 -8 -121 2 -127 7 -5 16 -76 25 -197 2 -20 5 -40
8 -45 3 -5 4 -49 2 -99 -7 -143 -6 -243 1 -255 17 -28 23 3 29 153 7 144 5
182 -19 345 -14 100 -25 188 -24 195 4 33 -7 47 -24 30z"/>
<path d="M3931 2327 c-6 -8 -8 -17 -4 -21 9 -9 13 -279 3 -291 -17 -23 -34
-291 -19 -301 14 -8 31 16 24 35 -3 7 -1 30 4 50 5 20 12 81 17 136 10 137 11
149 13 160 3 12 0 109 -4 145 -1 14 -3 42 -4 63 -1 39 -11 46 -30 24z"/>
<path d="M5599 2338 c-15 -51 -5 -339 16 -424 2 -12 8 -59 11 -105 6 -81 16
-111 31 -95 10 9 5 132 -6 171 -16 53 -34 299 -28 378 4 62 2 77 -9 77 -8 0
-14 -1 -15 -2z"/>
<path d="M3764 2103 c6 -103 8 -288 3 -363 -1 -25 2 -35 13 -35 24 0 32 70 26
230 -8 253 -11 275 -38 275 -7 0 -9 -34 -4 -107z"/>
<path d="M5769 2203 c-13 -105 -14 -427 -2 -467 5 -16 14 -31 20 -33 7 -3 10
24 7 84 -1 48 -3 163 -3 256 -1 104 -5 167 -11 167 -5 0 -10 -3 -11 -7z"/>
<path d="M3785 1280 c-4 -6 -8 -45 -11 -88 -4 -73 -7 -94 -19 -159 -3 -16 -7
-53 -9 -83 -7 -100 -18 -180 -26 -180 -4 0 -7 -16 -6 -36 1 -20 -2 -38 -6 -40
-4 -3 -5 -11 -2 -18 3 -8 1 -17 -5 -21 -16 -10 -13 -35 4 -35 22 0 45 75 61
200 3 19 12 87 20 150 21 150 28 320 15 320 -5 0 -13 -5 -16 -10z"/>
<path d="M5774 1278 c-10 -15 -7 -102 3 -132 4 -12 8 -34 9 -51 2 -16 6 -57 9
-90 4 -33 7 -67 7 -75 1 -8 7 -44 14 -78 7 -35 10 -70 8 -77 -3 -7 -1 -16 5
-20 6 -3 11 -19 11 -35 0 -16 5 -32 10 -35 6 -3 10 -14 10 -23 0 -29 17 -49
31 -35 8 8 7 19 -4 44 -14 31 -35 139 -42 214 -2 17 -4 30 -5 30 -1 0 -3 20
-6 45 -5 62 -11 104 -24 180 -6 36 -11 82 -10 102 1 38 -13 57 -26 36z"/>
</g>
</svg>
