<?xml version="1.0" standalone="no"?>
<!DOCTYPE svg PUBLIC "-//W3C//DTD SVG 20010904//EN"
 "http://www.w3.org/TR/2001/REC-SVG-20010904/DTD/svg10.dtd">
<svg version="1.0" xmlns="http://www.w3.org/2000/svg"
 width="540.000000pt" height="319.000000pt" viewBox="0 0 540.000000 319.000000"
 preserveAspectRatio="xMidYMid meet">

<g transform="translate(0.000000,319.000000) scale(0.100000,-0.100000)"
fill="#000000" stroke="none">
<path d="M91 3030 c0 -71 4 -90 15 -90 9 0 14 11 14 35 0 24 5 35 15 35 8 0
15 -4 15 -8 0 -4 13 -23 29 -42 21 -25 33 -32 40 -24 8 7 1 22 -24 51 -19 23
-35 45 -35 50 0 5 14 22 30 38 17 16 30 32 30 37 0 17 -28 6 -55 -22 -16 -16
-32 -30 -37 -30 -4 0 -8 14 -8 30 0 20 -5 30 -15 30 -12 0 -15 -17 -14 -90z"/>
<path d="M2078 3103 c-2 -4 -2 -45 0 -90 3 -61 7 -83 17 -83 8 0 13 13 13 36
0 19 2 37 5 40 2 2 16 -13 30 -34 23 -35 67 -63 67 -42 0 10 -51 73 -62 78
-16 7 -7 29 22 57 17 16 30 32 30 37 0 18 -30 6 -53 -22 -32 -37 -43 -38 -42
-3 0 25 -19 43 -27 26z"/>
<path d="M2237 3103 c-12 -11 -8 -23 8 -23 8 0 15 7 15 15 0 16 -12 20 -23 8z"/>
<path d="M2397 3103 c-12 -11 -8 -23 8 -23 8 0 15 7 15 15 0 16 -12 20 -23 8z"/>
<path d="M2792 3018 c3 -96 19 -126 28 -51 l5 42 29 -40 c17 -21 38 -39 49
-39 18 0 18 1 -2 28 -11 16 -27 35 -36 42 -22 18 -19 33 15 66 33 32 37 44 15
44 -8 0 -27 -16 -42 -35 l-28 -35 -5 32 c-3 17 -11 33 -18 36 -10 3 -12 -17
-10 -90z"/>
<path d="M2947 3103 c-12 -11 -8 -23 8 -23 8 0 15 7 15 15 0 16 -12 20 -23 8z"/>
<path d="M3104 3099 c-11 -18 11 -32 25 -16 9 12 8 16 -3 20 -9 4 -18 1 -22
-4z"/>
<path d="M4490 3020 c0 -73 3 -90 15 -90 11 0 15 11 15 41 l0 42 45 -48 c25
-27 48 -46 51 -42 4 3 -10 28 -30 56 l-37 50 31 34 c33 38 36 47 17 47 -15 0
-63 -60 -59 -73 1 -5 -2 -6 -8 -2 -5 3 -10 22 -10 41 0 24 -5 34 -15 34 -12 0
-15 -17 -15 -90z"/>
<path d="M262 3045 c-15 -11 -22 -26 -22 -48 1 -49 19 -65 72 -65 l46 1 0 59
c-1 54 -3 58 -24 58 -12 0 -28 2 -36 5 -7 3 -23 -2 -36 -10z m63 -50 c0 -25
-4 -30 -25 -30 -21 0 -26 5 -28 33 -3 31 -2 33 25 30 24 -3 28 -8 28 -33z"/>
<path d="M425 3051 c-29 -6 -30 -8 -30 -61 0 -66 18 -73 25 -10 4 40 8 45 32
48 25 3 27 1 30 -44 2 -27 8 -49 16 -52 19 -6 16 93 -4 112 -16 17 -20 17 -69
7z"/>
<path d="M568 3053 c-21 -5 -38 -52 -28 -78 12 -33 34 -45 76 -41 l39 4 1 56
c2 52 0 56 -21 56 -13 0 -29 2 -37 4 -7 2 -21 2 -30 -1z m60 -55 c2 -18 -3
-30 -15 -37 -23 -12 -40 -3 -43 24 -4 40 0 46 28 43 21 -2 28 -9 30 -30z"/>
<path d="M741 3051 c-7 -5 -21 -7 -30 -4 -13 3 -16 -5 -16 -53 0 -73 22 -87
27 -17 3 44 5 48 28 48 23 0 25 -4 28 -47 2 -34 7 -48 18 -48 10 0 14 13 14
49 0 66 -30 97 -69 72z"/>
<path d="M2244 3042 c-14 -9 -17 -109 -4 -117 15 -9 21 17 18 73 -2 35 -7 49
-14 44z"/>
<path d="M2302 2985 c4 -71 22 -80 26 -12 3 39 6 47 23 47 10 0 19 6 19 14 0
10 -11 14 -35 13 l-36 -2 3 -60z"/>
<path d="M2405 3042 c-15 -10 -12 -105 3 -110 8 -2 12 14 12 57 0 34 -1 61 -2
61 -2 0 -8 -4 -13 -8z"/>
<path d="M3037 3043 c-27 -4 -28 -6 -25 -59 2 -30 7 -53 13 -52 6 2 9 10 8 18
-5 34 9 69 29 72 12 2 23 9 26 16 4 12 0 12 -51 5z"/>
<path d="M4653 3038 c-13 -15 -16 -32 -14 -69 1 -34 35 -51 81 -41 34 8 34 8
31 57 -1 28 -3 51 -4 51 -1 1 -20 5 -43 8 -28 5 -44 3 -51 -6z m65 -50 c-2
-28 -7 -33 -28 -33 -16 0 -26 6 -28 18 -6 30 6 47 33 47 24 0 26 -3 23 -32z"/>
<path d="M4840 3040 c-8 -5 -23 -7 -33 -4 -16 5 -18 0 -15 -50 4 -69 22 -79
26 -14 2 28 8 48 17 52 23 9 43 -20 39 -58 -1 -20 1 -38 6 -41 15 -9 24 18 21
60 -4 59 -25 78 -61 55z"/>
<path d="M4950 3030 c-25 -25 -26 -72 -2 -92 10 -10 34 -15 60 -15 l42 2 0 58
c0 54 -2 59 -20 54 -11 -3 -23 -1 -26 4 -9 15 -33 10 -54 -11z m70 -51 c0 -27
-3 -30 -27 -27 -31 3 -43 38 -23 63 19 23 50 1 50 -36z"/>
<path d="M5135 3040 c-3 -6 -16 -8 -29 -4 -21 5 -22 2 -21 -45 1 -28 6 -56 13
-63 7 -7 12 -8 12 -2 1 13 12 89 14 91 0 0 10 3 21 5 17 2 21 -4 25 -41 7 -65
30 -66 30 -2 0 39 -4 53 -19 61 -25 13 -38 13 -46 0z"/>
<path d="M2942 2985 c2 -30 8 -55 13 -55 6 0 11 25 13 55 2 45 0 55 -13 55
-13 0 -15 -10 -13 -55z"/>
<path d="M3109 3028 c-8 -78 1 -128 19 -101 10 15 2 113 -9 113 -5 0 -10 -6
-10 -12z"/>
<path d="M4167 2824 c-2 -2 -24 -8 -48 -13 -86 -18 -164 -43 -180 -57 -8 -8
-21 -14 -27 -14 -41 0 -207 -152 -267 -245 -25 -39 -55 -104 -55 -120 0 -7 -6
-18 -14 -24 -7 -6 -16 -28 -19 -49 -3 -20 -8 -48 -12 -62 -10 -46 -15 -209 -6
-215 5 -3 6 -17 2 -33 -4 -15 -4 -40 0 -57 4 -16 11 -59 14 -95 4 -36 12 -73
17 -84 8 -15 3 -25 -27 -54 l-36 -36 4 -163 c3 -140 6 -166 22 -183 10 -11 14
-20 10 -20 -5 0 -4 -5 3 -12 7 -7 12 -20 12 -30 0 -10 4 -18 8 -18 5 0 24 -21
42 -47 19 -27 41 -53 49 -59 8 -6 11 -16 8 -21 -4 -6 0 -13 8 -17 8 -3 27 -31
41 -63 15 -32 35 -70 46 -85 10 -15 18 -30 17 -35 -1 -4 1 -15 4 -23 10 -25
19 -168 19 -310 0 -122 -2 -153 -18 -227 -6 -31 -37 -60 -144 -134 -36 -26
-82 -52 -103 -58 -20 -7 -39 -16 -42 -21 -3 -4 -22 -11 -42 -14 -46 -9 -93
-28 -93 -38 0 -13 40 -13 70 -1 8 3 22 7 30 9 16 3 28 9 122 54 37 18 75 41
84 51 9 11 22 19 29 19 14 0 128 115 158 160 54 83 90 181 70 193 -9 6 -28
-13 -28 -28 -1 -28 -18 -75 -31 -86 -8 -6 -14 -20 -14 -30 0 -11 -7 -19 -16
-19 -14 0 -15 7 -10 37 17 88 -1 477 -22 493 -4 3 -29 49 -56 102 -26 54 -59
104 -72 113 -13 8 -24 22 -24 30 0 8 -4 15 -8 15 -5 0 -17 17 -28 37 -10 21
-24 43 -31 50 -20 22 -44 123 -43 181 1 32 -2 76 -5 99 -9 53 8 98 49 134 27
24 29 28 18 55 -13 32 -16 57 -32 219 -14 136 -13 121 -7 180 7 66 25 142 42
180 7 16 25 57 39 89 24 53 44 81 148 200 16 17 32 31 37 31 5 0 20 9 33 20
25 21 109 65 125 65 5 0 23 7 40 15 41 20 78 26 208 32 104 5 267 -10 290 -27
6 -3 42 -17 80 -30 39 -12 76 -27 83 -33 13 -10 63 -40 100 -59 12 -6 22 -17
22 -25 0 -7 6 -13 13 -13 15 0 67 -54 67 -70 0 -5 4 -10 10 -10 5 0 12 -11 16
-25 3 -14 12 -25 18 -25 12 0 66 -98 66 -119 0 -6 5 -11 10 -11 6 0 10 -6 10
-12 0 -7 7 -26 15 -42 16 -29 31 -83 41 -141 3 -16 8 -37 11 -45 9 -23 -3
-142 -22 -220 -3 -14 -7 -30 -9 -37 -1 -7 -5 -16 -9 -19 -4 -4 -7 -18 -7 -30
0 -13 -5 -26 -10 -29 -6 -4 -8 -10 -5 -14 2 -5 -2 -17 -10 -27 -19 -25 -19
-88 0 -104 42 -35 57 -116 31 -173 -23 -52 -29 -71 -32 -92 -19 -153 -41 -203
-100 -225 -13 -5 -28 -20 -33 -32 -19 -46 -24 -64 -28 -88 -2 -13 -8 -29 -12
-35 -4 -5 -16 -32 -26 -60 -15 -41 -18 -74 -17 -185 2 -125 8 -262 12 -285 6
-27 -1 -44 -15 -39 -8 4 -13 10 -10 14 3 4 -2 13 -10 20 -8 7 -15 18 -15 24 0
19 -17 39 -28 32 -11 -6 13 -65 31 -77 5 -3 8 -9 8 -13 -5 -30 112 -162 189
-213 41 -26 101 -57 108 -54 1 1 17 -6 35 -16 44 -23 77 -27 77 -9 0 16 -45
30 -62 20 -6 -4 -8 -3 -5 3 3 5 -11 15 -31 22 -20 8 -45 20 -55 29 -9 8 -25
20 -36 26 -46 27 -106 79 -127 109 -19 28 -23 53 -30 163 -14 215 -10 384 8
419 9 17 18 44 21 60 3 17 12 44 21 60 9 17 16 37 16 46 0 15 20 30 41 33 28
4 87 105 74 126 -3 5 -1 11 5 15 5 3 10 21 10 39 0 34 13 83 33 125 18 37 14
185 -6 205 -8 9 -19 25 -22 36 -5 17 15 99 42 170 8 20 12 39 17 72 3 15 7 32
10 37 15 24 4 264 -13 285 -5 6 -12 26 -16 45 -9 44 -81 195 -100 211 -8 7
-15 17 -15 22 0 6 -22 35 -50 65 -27 30 -50 58 -50 63 0 10 -149 106 -186 120
-16 6 -38 14 -49 19 -32 14 -156 49 -200 57 -45 7 -252 14 -258 8z"/>
<path d="M1329 2775 c-2 -2 -22 -6 -44 -9 -149 -23 -187 -36 -280 -91 -22 -13
-46 -27 -54 -31 -66 -34 -210 -253 -228 -347 -3 -18 -10 -37 -15 -44 -5 -6
-11 -40 -13 -75 -2 -35 -4 -65 -5 -68 -3 -15 0 -181 5 -215 2 -22 8 -62 11
-90 4 -27 8 -61 10 -75 1 -13 6 -45 9 -71 5 -35 3 -50 -9 -62 -31 -30 -37 -66
-24 -124 7 -31 22 -65 33 -78 32 -36 46 -63 50 -103 5 -48 23 -141 30 -151 2
-5 25 -14 50 -21 25 -7 45 -19 45 -26 0 -8 4 -14 8 -14 5 0 17 -32 27 -72 10
-39 25 -84 32 -99 20 -39 21 -474 1 -509 -31 -58 -139 -190 -155 -190 -5 0
-18 -10 -29 -23 -33 -34 -122 -74 -194 -88 -88 -16 -92 -17 -85 -29 8 -13 53
-13 112 1 60 15 90 27 129 56 17 13 35 23 40 23 17 0 159 156 191 211 l33 54
1 168 c0 153 7 194 23 151 3 -9 6 -24 6 -35 0 -10 3 -19 8 -19 4 0 22 -22 40
-49 19 -27 55 -68 81 -91 43 -37 49 -47 55 -93 7 -64 37 -151 82 -240 19 -38
34 -75 34 -82 0 -7 7 -15 15 -19 20 -7 20 37 0 54 -8 7 -15 17 -15 22 0 10
-17 51 -50 123 -10 22 -23 61 -29 86 -6 26 -13 54 -17 63 -9 23 17 21 74 -6
66 -30 230 -38 304 -14 76 25 154 64 188 95 13 13 15 12 18 -3 2 -9 0 -25 -4
-34 -4 -9 -9 -26 -10 -37 -3 -17 -14 -59 -19 -75 -1 -3 -7 -18 -13 -33 -7 -16
-12 -33 -12 -38 0 -6 -8 -24 -17 -42 -9 -18 -16 -36 -15 -40 1 -4 -7 -28 -19
-53 -11 -25 -18 -48 -15 -51 8 -8 36 17 36 32 0 11 20 63 50 130 11 23 34 108
60 218 20 86 40 117 77 117 24 0 23 1 28 -78 1 -15 5 -44 9 -64 5 -26 -1 -63
-18 -125 -27 -95 -48 -253 -36 -267 11 -12 18 16 34 135 14 105 27 149 46 149
6 0 10 -7 10 -15 0 -63 91 -161 176 -190 25 -8 58 -22 74 -30 16 -8 37 -15 47
-15 10 0 31 -7 47 -15 15 -8 38 -15 50 -15 12 0 26 -4 31 -9 11 -9 134 -41
160 -41 18 0 20 19 3 24 -7 2 -53 16 -103 30 -49 15 -108 32 -130 38 -22 7
-44 15 -50 19 -5 4 -26 10 -45 14 -82 17 -189 92 -215 150 -15 35 -27 70 -24
70 1 0 -3 11 -10 23 -14 26 -15 30 -30 142 -16 113 -12 146 20 205 16 29 29
59 29 67 0 8 5 19 12 26 6 6 13 20 14 29 2 9 8 26 13 38 6 11 24 63 39 114 26
90 30 95 60 103 43 11 73 60 71 113 -3 57 16 116 51 160 35 44 44 86 37 165
-5 57 -30 100 -58 100 -8 0 -9 15 -4 46 10 68 8 325 -4 426 -12 108 -67 275
-104 319 -9 10 -17 24 -17 29 0 6 -32 44 -72 86 -59 62 -88 83 -163 120 -50
24 -98 44 -106 44 -8 0 -19 4 -25 9 -16 16 -153 29 -300 29 -78 1 -143 -1
-145 -3z m321 -39 c25 -4 56 -9 70 -10 68 -8 210 -71 258 -116 18 -16 36 -30
39 -30 10 0 53 -43 53 -53 0 -5 8 -16 19 -25 10 -10 28 -35 38 -57 11 -22 30
-59 42 -82 12 -24 19 -43 15 -43 -3 0 -2 -6 4 -13 32 -38 54 -197 55 -392 2
-208 -1 -221 -51 -236 -22 -6 -46 -23 -59 -42 -30 -41 -14 -58 21 -24 14 14
42 29 62 33 29 5 40 2 60 -17 21 -20 24 -31 24 -96 0 -57 -4 -77 -18 -91 -26
-26 -60 -94 -63 -128 -2 -16 -7 -34 -12 -41 -5 -7 -6 -25 -3 -41 9 -38 -30
-82 -72 -82 -27 0 -30 -4 -41 -52 -7 -29 -14 -62 -15 -73 -2 -11 -8 -33 -15
-48 -6 -16 -11 -33 -11 -39 0 -36 -108 -237 -151 -282 -21 -23 -39 -44 -39
-48 0 -5 -7 -8 -15 -8 -8 0 -15 -6 -15 -12 0 -14 -46 -46 -117 -85 -63 -33
-192 -57 -272 -49 -113 11 -194 50 -277 132 -69 69 -97 114 -123 200 -7 21
-16 48 -20 59 -18 44 -28 71 -31 80 -2 6 -14 38 -27 73 -12 35 -25 85 -29 112
-6 43 -8 47 -24 38 -24 -15 -72 3 -87 33 -16 34 -26 136 -13 144 5 3 10 0 10
-8 0 -7 12 -24 26 -38 19 -17 24 -32 22 -56 -1 -18 3 -38 9 -44 21 -21 28 40
10 90 -12 33 -13 50 -5 65 6 11 8 45 5 80 -7 72 -15 96 -31 96 -15 0 -17 -30
-5 -46 5 -6 8 -22 7 -35 -1 -13 2 -33 5 -45 10 -29 -15 -51 -33 -29 -12 15
-16 87 -6 104 8 13 -9 30 -23 22 -7 -5 -13 -27 -13 -55 0 -58 -13 -56 -47 4
-36 65 -33 126 8 162 17 16 39 28 49 28 22 0 58 -32 67 -60 9 -28 31 -19 27
11 -5 41 -50 79 -94 79 -22 0 -41 5 -43 13 -28 82 -49 512 -26 554 9 16 24 74
21 81 0 1 6 15 14 30 8 15 27 52 41 82 14 30 38 72 53 92 43 58 166 159 212
173 14 4 30 11 35 15 12 8 127 35 200 47 61 10 283 9 345 -1z"/>
<path d="M1120 1801 c-82 -24 -114 -45 -149 -97 -35 -54 -39 -74 -13 -74 18 0
60 65 54 84 -2 6 0 8 4 4 4 -4 21 1 38 11 27 17 73 28 142 36 32 4 131 -21
160 -40 14 -9 28 -23 31 -31 5 -14 34 -19 46 -8 3 3 -6 23 -20 44 -22 34 -35
42 -107 64 -93 29 -109 30 -186 7z"/>
<path d="M1770 1817 c-3 -3 -17 -8 -30 -10 -71 -14 -150 -65 -150 -98 0 -27
31 -37 44 -15 6 10 16 24 21 32 18 25 217 56 229 35 4 -6 16 -11 27 -11 35 0
96 -38 119 -75 22 -35 45 -45 53 -22 12 34 -53 105 -126 137 -45 20 -176 39
-187 27z"/>
<path d="M1685 1662 c-3 -3 2 -13 11 -23 9 -10 14 -25 10 -34 -16 -43 26 -115
68 -115 37 0 56 30 56 89 0 45 2 52 18 48 73 -21 122 -13 95 14 -14 14 -246
32 -258 21z"/>
<path d="M1121 1648 c-35 -4 -66 -9 -68 -12 -14 -14 13 -24 57 -22 51 4 54 2
51 -39 -2 -31 36 -85 59 -85 37 0 70 44 70 93 0 32 5 47 16 51 51 20 -59 28
-185 14z"/>
<path d="M1408 1613 c-1 -5 -2 -68 -2 -141 -1 -114 1 -132 14 -130 24 5 23
278 -1 278 -5 0 -10 -3 -11 -7z"/>
<path d="M1570 1479 c0 -129 1 -140 18 -137 10 3 15 10 12 19 -3 8 -4 69 -3
137 1 100 -1 122 -13 122 -11 0 -14 -26 -14 -141z"/>
<path d="M2129 1504 c-8 -10 -13 -53 -14 -133 -1 -64 -5 -123 -9 -129 -9 -15
2 -52 15 -52 5 0 9 15 9 33 0 28 38 101 60 117 14 9 22 71 15 111 -10 58 -29
43 -30 -24 0 -52 -16 -89 -31 -74 -8 8 -7 105 1 118 11 16 14 49 6 49 -5 0
-14 -7 -22 -16z"/>
<path d="M1450 1321 c-14 -4 -25 -13 -25 -21 0 -10 9 -14 25 -12 52 5 86 5
108 -3 16 -5 22 -3 22 8 0 28 -74 44 -130 28z"/>
<path d="M1350 1251 c-17 -33 -21 -85 -6 -103 16 -21 58 -38 96 -38 16 0 32
-4 35 -10 8 -12 47 -13 61 -1 5 4 32 14 59 21 28 8 55 20 60 27 17 22 12 117
-5 121 -12 2 -14 -8 -11 -49 4 -58 -5 -69 -56 -69 -17 0 -34 -4 -37 -9 -3 -5
-21 -7 -38 -5 -18 1 -55 5 -81 7 -67 4 -75 21 -51 105 8 27 -11 30 -26 3z"/>
<path d="M1395 965 c-16 -6 -45 -17 -62 -24 -18 -7 -33 -17 -33 -23 0 -5 -9
-6 -20 -3 -31 10 -25 -19 8 -35 15 -8 34 -20 42 -26 8 -7 42 -20 75 -29 70
-21 185 -15 243 12 45 20 102 61 102 72 0 5 -20 12 -45 15 -24 4 -48 13 -52
20 -5 7 -25 19 -45 25 -30 10 -45 10 -73 0 -28 -11 -40 -11 -55 -1 -24 14 -45
14 -85 -3z"/>
<path d="M3597 1653 c-3 -5 -3 -24 -2 -43 8 -79 15 -136 20 -160 3 -14 6 -46
6 -72 0 -27 4 -48 8 -48 4 0 6 -13 3 -30 -3 -18 0 -30 7 -30 6 0 11 -8 11 -17
1 -27 28 -59 40 -47 6 6 4 19 -5 37 -8 16 -16 40 -19 55 -2 15 -5 29 -7 32 -1
3 -3 16 -4 30 -11 122 -27 268 -31 283 -6 18 -19 23 -27 10z"/>
<path d="M4952 1553 c-37 -110 -52 -189 -40 -209 4 -5 1 -23 -7 -39 -15 -35
-35 -94 -35 -106 0 -5 5 -9 11 -9 12 0 36 53 43 96 2 16 5 31 6 34 1 3 2 21 2
40 -1 19 3 46 7 60 5 14 14 45 22 70 7 25 16 49 21 55 12 14 10 45 -5 45 -6 0
-18 -17 -25 -37z"/>
<path d="M1084 408 c4 -35 7 -102 9 -150 1 -49 5 -88 10 -88 4 0 7 -9 7 -20 0
-24 39 -110 49 -110 18 0 18 15 0 48 -10 20 -19 44 -19 53 0 8 -3 19 -7 23 -4
3 -8 21 -9 39 -16 199 -25 267 -36 267 -6 0 -7 -26 -4 -62z"/>
</g>
</svg>
