<?xml version="1.0" standalone="no"?>
<!DOCTYPE svg PUBLIC "-//W3C//DTD SVG 20010904//EN"
 "http://www.w3.org/TR/2001/REC-SVG-20010904/DTD/svg10.dtd">
<svg version="1.0" xmlns="http://www.w3.org/2000/svg"
 width="488.000000pt" height="310.000000pt" viewBox="0 0 488.000000 310.000000"
 preserveAspectRatio="xMidYMid meet">

<g transform="translate(0.000000,310.000000) scale(0.100000,-0.100000)"
fill="#000000" stroke="none">
<path d="M750 2975 c0 -78 3 -95 15 -95 11 0 15 11 15 40 0 22 4 40 9 40 4 0
20 -18 35 -40 16 -24 34 -40 46 -40 19 0 28 15 13 22 -5 2 -23 20 -41 42 l-34
39 36 36 c20 20 36 40 36 44 0 17 -27 4 -62 -30 l-38 -37 0 37 c0 26 -4 37
-15 37 -12 0 -15 -17 -15 -95z"/>
<path d="M905 3060 c-8 -13 4 -32 16 -25 12 8 12 35 0 35 -6 0 -13 -4 -16 -10z"/>
<path d="M1066 3062 c-2 -4 -1 -14 4 -22 7 -11 12 -12 21 -3 6 6 8 16 5 22 -8
13 -23 14 -30 3z"/>
<path d="M3449 3058 c-3 -47 -1 -170 4 -174 13 -13 27 10 27 44 l0 37 36 -42
c20 -25 44 -43 56 -43 17 0 14 7 -21 49 -23 27 -41 51 -41 54 0 3 14 21 30 39
17 18 30 36 30 39 0 18 -35 -1 -61 -32 l-28 -34 -1 38 c0 26 -4 37 -15 37 -8
0 -15 -6 -16 -12z"/>
<path d="M1003 3003 l-33 -4 0 -60 c0 -46 3 -59 15 -59 11 0 15 12 15 45 0 40
3 47 26 55 14 6 22 14 19 20 -3 5 -7 9 -8 8 -1 0 -17 -3 -34 -5z"/>
<path d="M900 2940 c0 -47 3 -60 15 -60 12 0 15 13 15 60 0 47 -3 60 -15 60
-12 0 -15 -13 -15 -60z"/>
<path d="M1069 2998 c-4 -20 -3 -102 3 -111 12 -19 18 -3 21 56 2 42 0 57 -10
57 -7 0 -13 -1 -14 -2z"/>
<path d="M3606 2981 c-23 -25 -20 -58 9 -87 18 -18 29 -23 41 -16 9 5 25 7 35
5 17 -5 19 1 19 55 l0 59 -44 1 c-30 1 -49 -4 -60 -17z m72 -38 c2 -24 -1 -33
-17 -38 -26 -8 -41 1 -41 25 0 34 12 51 34 48 15 -2 22 -11 24 -35z"/>
<path d="M3746 2990 c-1 -3 -3 -29 -5 -57 -2 -47 0 -53 18 -53 17 0 20 8 23
48 3 39 6 47 23 47 17 0 20 -8 23 -47 2 -34 7 -48 18 -48 18 0 20 93 1 108
-13 11 -96 13 -101 2z"/>
<path d="M3902 2988 c-17 -17 -15 -83 2 -97 8 -7 25 -12 38 -12 13 0 33 1 46
1 20 0 22 4 21 59 l-2 58 -46 2 c-26 0 -53 -5 -59 -11z m68 -23 c18 -21 4 -65
-20 -65 -28 0 -44 34 -28 60 15 24 31 26 48 5z"/>
<path d="M4040 2938 c0 -44 4 -58 14 -58 10 0 16 13 18 41 2 27 9 46 21 53 23
15 37 -6 37 -56 0 -27 4 -38 15 -38 19 0 21 92 3 108 -7 6 -34 10 -60 10 l-48
-1 0 -59z"/>
<path d="M1026 2353 c-106 -15 -242 -52 -271 -73 -5 -4 -23 -10 -39 -14 -26
-7 -106 -61 -114 -77 -1 -3 -16 -21 -33 -40 -37 -42 -75 -119 -89 -184 -33
-146 -44 -234 -47 -370 -3 -107 -8 -154 -18 -165 -7 -8 -20 -32 -29 -53 -8
-21 -22 -45 -31 -53 -8 -9 -15 -21 -15 -28 0 -7 -10 -24 -23 -38 -27 -29 -55
-84 -63 -126 -8 -41 51 -102 99 -102 l33 0 1 -68 c0 -37 3 -77 7 -89 4 -11 2
-32 -3 -45 -7 -19 -6 -31 5 -47 11 -15 15 -44 14 -99 -3 -162 -4 -157 42 -202
23 -22 48 -40 55 -40 7 0 13 -4 13 -10 0 -5 11 -10 24 -10 14 0 28 -4 31 -10
3 -6 39 -10 79 -10 64 0 75 -3 96 -25 13 -14 19 -25 14 -25 -5 0 -2 -6 7 -13
18 -14 39 -153 33 -220 -3 -32 -1 -38 14 -35 14 3 17 15 16 83 -2 115 -18 179
-57 222 l-20 22 29 6 c98 20 199 53 199 66 0 17 -12 16 -90 -6 -93 -27 -143
-34 -235 -34 -90 0 -124 10 -188 58 l-32 25 1 132 c1 89 5 134 13 137 6 2 36
3 66 2 30 -2 59 0 63 2 10 6 -22 43 -37 43 -6 0 -39 26 -72 58 -54 50 -61 61
-60 92 1 34 3 35 40 36 31 1 46 8 68 33 28 31 39 76 16 69 -7 -3 -19 -18 -28
-34 -12 -21 -24 -29 -43 -28 -131 3 -144 5 -165 24 -25 23 -28 52 -10 72 7 7
20 27 28 43 8 17 18 32 21 35 6 4 63 104 114 197 7 13 10 42 8 66 -4 39 -1 47
24 67 22 17 36 21 68 17 22 -3 41 -11 43 -16 2 -6 9 -11 16 -11 6 0 36 -25 66
-55 54 -53 80 -67 80 -43 0 23 -140 145 -178 154 -25 7 -77 1 -106 -11 -17 -7
-18 -3 -13 81 2 49 7 100 11 114 3 14 11 54 17 90 6 36 18 81 26 100 26 62 57
120 65 120 5 0 8 6 8 13 0 7 17 29 38 48 117 111 408 181 647 154 44 -5 83 -9
87 -9 3 -1 10 -4 14 -8 4 -5 17 -8 29 -8 11 0 25 -4 30 -9 6 -5 28 -14 50 -21
65 -20 155 -79 228 -149 37 -35 67 -69 67 -74 0 -5 11 -23 25 -41 14 -17 29
-36 33 -41 10 -14 62 -121 62 -128 0 -3 5 -18 12 -34 6 -15 13 -39 15 -53 2
-14 11 -39 20 -57 8 -18 12 -36 9 -42 -4 -5 -2 -12 4 -16 17 -10 6 -279 -14
-355 -22 -83 -66 -211 -79 -227 -5 -7 -6 -13 -3 -13 4 0 -2 -13 -13 -29 -12
-16 -21 -32 -21 -35 0 -3 -15 -28 -33 -54 -32 -45 -42 -76 -54 -167 -7 -50 -7
-58 7 -125 6 -30 22 -72 36 -92 13 -21 24 -44 24 -51 0 -24 26 -51 43 -44 14
5 11 15 -18 63 -19 32 -35 65 -35 74 0 9 -6 22 -12 29 -9 8 -13 44 -12 109 1
100 15 166 38 175 16 6 79 127 112 214 22 57 48 157 58 221 2 15 8 47 12 72
13 80 7 183 -15 275 -12 50 -25 97 -28 105 -3 8 -7 17 -8 20 -16 46 -81 175
-107 213 -11 15 -16 27 -12 27 15 0 -163 172 -206 200 -25 15 -88 44 -140 63
-153 56 -301 73 -454 50z m-536 -1512 c0 -11 -50 -24 -58 -16 -8 8 19 25 41
25 9 0 17 -4 17 -9z"/>
<path d="M3675 2350 c-44 -11 -89 -24 -100 -29 -11 -6 -49 -23 -85 -39 -106
-48 -184 -129 -251 -259 -15 -29 -25 -53 -22 -53 4 0 -2 -9 -11 -19 -9 -10
-19 -29 -20 -42 -4 -31 -17 -81 -25 -94 -6 -12 -8 -20 -14 -86 -3 -26 -8 -53
-12 -58 -11 -19 -8 -292 4 -304 6 -6 11 -23 11 -38 0 -40 22 -129 32 -129 4 0
8 -8 8 -17 0 -36 103 -243 140 -281 31 -33 32 -35 31 -129 -1 -89 -23 -214
-43 -239 -5 -7 -11 -41 -15 -78 -5 -57 -4 -66 11 -66 12 0 16 10 16 45 0 25 4
53 9 63 36 70 67 259 55 333 -6 38 -13 51 -49 93 -48 56 -172 346 -148 346 3
0 -1 8 -10 18 -10 10 -15 21 -12 23 2 3 0 21 -6 40 -15 51 -12 314 5 379 8 30
17 74 21 97 4 24 10 45 15 48 4 3 11 20 14 38 8 44 91 203 121 232 133 132
320 197 560 194 88 -1 152 -7 198 -19 37 -10 67 -15 67 -13 0 3 6 0 14 -6 8
-6 18 -11 22 -9 5 1 25 -5 45 -14 20 -9 46 -19 59 -23 44 -14 120 -79 160
-136 22 -32 40 -62 40 -68 0 -6 9 -26 20 -46 11 -20 20 -50 20 -68 0 -18 4
-37 9 -43 5 -5 12 -31 15 -59 3 -27 8 -61 11 -75 3 -14 8 -53 11 -87 6 -68 -1
-77 -41 -50 -18 12 -36 13 -86 9 -8 -1 -40 -25 -70 -53 -30 -28 -64 -57 -76
-66 -22 -14 -32 -53 -15 -53 4 0 39 32 77 70 66 67 72 70 116 70 65 0 93 -29
94 -100 1 -28 5 -54 11 -58 5 -4 25 -36 43 -72 19 -36 42 -74 51 -85 38 -44
73 -112 76 -146 3 -43 -10 -51 -88 -54 -26 -1 -51 -4 -55 -8 -19 -19 -59 -5
-81 29 -25 39 -47 38 -32 -2 16 -40 37 -55 82 -59 23 -2 45 -9 49 -18 11 -20
-19 -107 -37 -107 -8 0 -14 -4 -14 -10 0 -5 -5 -10 -11 -10 -6 0 -23 -13 -38
-29 -15 -16 -35 -30 -46 -32 -10 -2 -20 -9 -22 -16 -3 -9 17 -13 69 -15 l73
-3 1 -60 c0 -33 4 -81 8 -107 13 -76 2 -101 -62 -144 l-57 -39 -122 0 c-67 1
-132 6 -145 11 -37 17 -124 44 -142 44 -26 0 -18 -24 12 -36 28 -11 99 -29
165 -40 41 -7 47 -18 18 -33 -11 -6 -24 -33 -33 -69 -18 -72 -24 -232 -9 -232
6 0 14 0 18 0 3 0 7 48 8 107 1 93 4 114 24 148 32 55 48 64 112 65 110 0 201
45 238 117 12 24 15 106 4 117 -13 13 -15 117 -3 131 10 13 14 60 19 228 1 25
5 37 14 35 23 -4 72 13 95 34 39 37 28 89 -33 168 -19 25 -42 61 -51 80 -9 19
-26 48 -38 65 -41 57 -44 71 -44 202 0 141 -5 198 -21 217 -6 7 -8 15 -5 19 7
7 -35 178 -48 195 -6 6 -7 12 -3 12 4 0 2 6 -4 14 -7 8 -24 38 -39 67 -48 96
-175 173 -362 221 -117 30 -360 34 -465 8z m963 -1501 c-2 -6 -7 -10 -11 -10
-4 1 -16 1 -27 1 -11 0 -20 5 -20 10 0 6 14 10 31 10 17 0 29 -5 27 -11z"/>
<path d="M3639 1511 c-38 -40 -47 -57 -52 -97 -6 -52 9 -144 23 -144 5 0 12
-14 15 -32 9 -39 41 -102 61 -119 8 -6 14 -20 14 -30 0 -11 5 -19 10 -19 6 0
10 -6 10 -14 0 -18 60 -56 87 -56 33 0 73 48 73 87 0 23 -4 33 -12 31 -7 -3
-13 -13 -13 -24 0 -27 -27 -64 -47 -64 -34 0 -81 60 -133 170 -47 97 -58 128
-50 139 3 6 1 11 -6 11 -8 0 -10 15 -5 53 15 114 143 171 193 86 21 -36 33
-37 33 -4 0 43 -44 75 -104 75 -48 0 -54 -3 -97 -49z"/>
<path d="M1293 1510 c-12 -5 -34 -27 -48 -49 -29 -46 -30 -51 -12 -51 29 0 23
-162 -10 -246 -3 -8 0 -14 6 -14 11 0 38 57 45 96 9 48 18 64 35 64 43 0 63
-109 25 -137 -12 -9 -15 -16 -8 -23 8 -8 18 -5 33 7 18 15 22 28 22 75 0 69
-22 107 -62 108 -21 0 -31 9 -47 41 -20 40 -20 43 -4 65 24 33 65 45 104 32
41 -15 78 -47 78 -69 0 -10 5 -21 10 -24 20 -13 1 -165 -21 -165 -5 0 -9 -6
-9 -12 0 -15 -39 -94 -63 -128 -9 -13 -14 -27 -12 -31 7 -11 -57 -69 -76 -69
-21 0 -46 37 -51 74 -3 25 -5 26 -23 13 -19 -14 -19 -16 -1 -56 11 -22 27 -43
37 -46 11 -4 19 -11 19 -16 0 -5 10 -9 22 -9 24 0 69 46 93 96 8 18 20 36 25
39 12 7 40 65 40 82 0 7 5 13 10 13 6 0 10 6 10 14 0 8 5 27 12 43 6 15 10 33
9 40 -1 6 3 14 9 18 26 16 -1 136 -40 175 -53 53 -107 70 -157 50z"/>
<path d="M4435 1479 c-46 -17 -75 -41 -75 -61 0 -15 27 -8 45 12 26 29 33 25
37 -22 2 -29 8 -44 18 -45 28 -5 43 15 50 67 8 66 -6 75 -75 49z"/>
<path d="M547 1473 c-4 -3 -7 -24 -7 -45 0 -29 7 -46 26 -65 l26 -26 21 22
c18 18 20 24 10 41 -17 26 2 37 26 16 26 -23 50 -21 44 4 -3 12 -10 19 -16 17
-5 -1 -20 7 -33 20 -22 22 -82 32 -97 16z"/>
<path d="M3809 1433 c-1 -5 -1 -11 -1 -15 2 -11 -22 -26 -47 -30 -13 -1 -33
-15 -44 -30 -37 -50 -17 -158 33 -171 26 -7 25 11 -1 39 -27 29 -29 102 -3
121 23 16 54 17 55 1 1 -30 12 -82 22 -108 3 -8 8 -23 11 -32 3 -10 10 -18 16
-18 13 0 13 33 0 46 -6 6 -12 31 -15 55 -2 24 -5 46 -6 49 -1 3 -1 26 0 53 2
28 -2 47 -8 47 -6 0 -12 -3 -12 -7z"/>
</g>
</svg>
