<?xml version="1.0" standalone="no"?>
<!DOCTYPE svg PUBLIC "-//W3C//DTD SVG 20010904//EN"
 "http://www.w3.org/TR/2001/REC-SVG-20010904/DTD/svg10.dtd">
<svg version="1.0" xmlns="http://www.w3.org/2000/svg"
 width="537.000000pt" height="313.000000pt" viewBox="0 0 537.000000 313.000000"
 preserveAspectRatio="xMidYMid meet">

<g transform="translate(0.000000,313.000000) scale(0.100000,-0.100000)"
fill="#000000" stroke="none">
<path d="M2012 2875 c1 -70 5 -95 15 -95 10 0 12 23 11 95 -1 71 -5 95 -15 95
-10 0 -13 -22 -11 -95z"/>
<path d="M2642 2942 c-21 -54 -24 -74 -17 -130 6 -52 28 -102 39 -91 3 3 -1
24 -9 47 -15 43 -13 120 5 166 5 14 5 28 1 31 -5 2 -13 -8 -19 -23z"/>
<path d="M80 2870 c0 -73 3 -90 15 -90 10 0 15 11 15 35 0 19 3 35 8 35 4 0
20 -16 35 -35 15 -19 34 -35 42 -35 20 0 19 12 -2 32 -37 35 -53 55 -53 63 0
5 17 26 37 47 32 33 34 38 17 38 -11 0 -33 -13 -49 -30 -16 -16 -32 -30 -35
-30 -4 0 -5 14 -2 30 3 23 0 30 -12 30 -14 0 -16 -14 -16 -90z"/>
<path d="M230 2945 c0 -8 7 -15 15 -15 8 0 15 7 15 15 0 8 -7 15 -15 15 -8 0
-15 -7 -15 -15z"/>
<path d="M397 2954 c-9 -10 2 -24 19 -24 8 0 14 7 14 15 0 15 -21 21 -33 9z"/>
<path d="M3312 2944 c4 -21 22 -23 26 -1 2 10 -3 17 -13 17 -10 0 -15 -6 -13
-16z"/>
<path d="M3610 2954 c0 -3 5 -14 10 -24 14 -27 14 -153 0 -179 -6 -13 -9 -25
-6 -29 12 -11 26 15 38 71 10 48 9 64 -6 112 -9 30 -21 55 -27 55 -5 0 -9 -3
-9 -6z"/>
<path d="M4580 2953 c-8 -2 -26 -20 -39 -40 -25 -38 -42 -32 -33 13 3 17 0 24
-12 24 -14 0 -16 -14 -16 -90 0 -73 3 -90 15 -90 11 0 15 11 15 43 l0 42 36
-42 c20 -24 42 -43 50 -43 18 0 18 14 -1 30 -9 7 -25 26 -36 42 l-21 28 32 41
c34 42 35 48 10 42z"/>
<path d="M3000 2916 c0 -13 -6 -26 -12 -29 -10 -3 -10 -7 -1 -18 6 -8 13 -32
15 -54 4 -50 22 -48 26 2 2 21 9 44 15 51 8 11 7 16 -5 23 -10 5 -14 17 -11
29 4 14 0 20 -11 20 -10 0 -16 -9 -16 -24z"/>
<path d="M240 2840 c0 -46 3 -60 14 -60 19 0 33 23 18 28 -7 2 -12 23 -12 48
0 24 -4 44 -10 44 -6 0 -10 -27 -10 -60z"/>
<path d="M328 2893 c-27 -4 -28 -7 -28 -59 0 -46 3 -54 19 -54 24 0 35 27 15
38 -20 11 -8 41 22 53 13 4 24 13 24 19 0 10 -3 10 -52 3z"/>
<path d="M400 2840 c0 -45 4 -60 14 -60 19 0 18 107 -1 114 -10 4 -13 -10 -13
-54z"/>
<path d="M1739 2891 c-25 -6 -25 -8 -26 -88 0 -63 3 -83 14 -83 8 0 13 12 13
30 0 28 2 30 25 24 54 -14 90 70 47 109 -19 18 -30 19 -73 8z m63 -38 c8 -36
-3 -54 -31 -51 -26 3 -38 26 -27 54 8 20 54 18 58 -3z"/>
<path d="M1876 2885 c-21 -22 -21 -78 2 -98 13 -12 28 -15 55 -10 l37 6 0 53
c0 45 -3 54 -17 54 -10 0 -27 3 -39 6 -13 3 -28 -1 -38 -11z m69 -50 c0 -27
-3 -30 -30 -30 -21 0 -31 5 -33 18 -6 33 6 49 35 45 24 -3 28 -8 28 -33z"/>
<path d="M2103 2893 c-21 -4 -23 -10 -23 -59 0 -42 3 -54 15 -54 12 0 15 9 12
34 -5 42 4 59 29 54 14 -2 20 -13 22 -46 4 -50 22 -57 22 -8 0 37 21 62 45 52
10 -3 15 -19 15 -46 0 -22 5 -40 10 -40 6 0 10 24 10 54 0 46 -3 56 -20 61
-10 3 -29 1 -41 -5 -15 -9 -24 -9 -32 -1 -11 11 -23 12 -64 4z"/>
<path d="M2311 2879 c-26 -28 -27 -70 -2 -93 15 -14 29 -16 60 -11 l41 7 0 54
c0 45 -3 54 -17 54 -10 0 -28 3 -39 6 -15 4 -28 -2 -43 -17z m68 -18 c9 -6 11
-18 7 -36 -5 -21 -12 -26 -34 -23 -20 2 -28 9 -30 27 -5 34 26 51 57 32z"/>
<path d="M2478 2893 c-27 -4 -28 -7 -28 -59 0 -41 4 -54 15 -54 11 0 15 11 15
41 0 32 4 42 20 46 18 5 30 35 13 32 -5 -1 -20 -4 -35 -6z"/>
<path d="M2719 2887 c-31 -16 -38 -70 -13 -98 13 -14 27 -18 58 -15 l41 4 3
57 c3 53 1 57 -16 53 -11 -3 -26 -2 -34 3 -8 4 -25 3 -39 -4z m56 -52 c0 -25
-4 -30 -28 -33 -32 -4 -44 16 -27 48 18 33 55 23 55 -15z"/>
<path d="M2895 2890 c-11 -4 -26 -5 -32 -3 -9 4 -14 -8 -15 -36 -1 -23 -2 -48
-2 -58 -1 -9 4 -18 11 -20 8 -3 13 11 15 38 2 26 9 46 20 53 24 15 37 -1 40
-48 5 -60 28 -59 28 1 0 66 -20 89 -65 73z"/>
<path d="M3248 2892 c-27 -3 -28 -5 -28 -65 0 -67 17 -69 22 -2 2 33 7 41 26
43 21 3 30 17 15 24 -5 2 -20 2 -35 0z"/>
<path d="M3082 2878 c-18 -18 -15 -79 6 -94 23 -18 67 -17 82 1 17 21 8 28
-22 16 -15 -5 -30 -5 -41 0 -31 18 -18 29 33 29 54 0 58 4 34 38 -17 25 -71
31 -92 10z m73 -17 c9 -15 -12 -22 -40 -15 -20 5 -23 9 -13 15 17 12 45 11 53
0z"/>
<path d="M3310 2829 c0 -44 3 -60 13 -57 7 3 13 27 15 61 2 45 -1 57 -13 57
-12 0 -15 -13 -15 -61z"/>
<path d="M3387 2872 c-37 -41 -9 -102 47 -102 61 0 83 78 32 112 -20 14 -63 8
-79 -10z m64 -12 c37 -21 13 -78 -27 -63 -35 13 -42 34 -18 57 18 19 20 19 45
6z"/>
<path d="M3528 2840 c-3 -55 -1 -70 13 -70 5 0 9 15 9 34 0 47 9 66 31 66 10
0 19 5 19 10 0 6 -15 10 -34 10 -34 0 -34 0 -38 -50z"/>
<path d="M4636 2868 c-37 -52 -7 -98 63 -98 l42 0 -3 56 -3 56 -42 4 c-34 3
-45 0 -57 -18z m72 -42 c-2 -26 -7 -31 -28 -31 -21 0 -26 5 -28 32 -2 24 1 32
15 35 32 7 44 -3 41 -36z"/>
<path d="M4780 2829 c0 -44 3 -60 13 -56 7 2 11 18 9 40 -3 26 1 38 15 45 31
16 43 3 43 -44 0 -35 3 -44 18 -44 14 0 17 8 14 55 -4 49 -6 56 -29 62 -15 3
-34 1 -45 -6 -11 -7 -18 -7 -18 -1 0 5 -4 10 -10 10 -6 0 -10 -27 -10 -61z"/>
<path d="M4936 2871 c-18 -20 -21 -54 -6 -81 8 -16 21 -19 60 -19 l50 2 0 56
0 56 -44 2 c-31 1 -49 -4 -60 -16z m64 -15 c17 -21 8 -60 -14 -64 -18 -4 -46
21 -46 39 0 10 29 39 39 39 5 0 14 -7 21 -14z"/>
<path d="M5075 2875 c-2 -5 -3 -30 -2 -54 2 -53 27 -71 27 -19 0 40 9 55 35
60 17 3 20 -3 23 -44 2 -34 7 -48 18 -48 10 0 14 12 14 41 0 65 -13 80 -67 77
-25 -2 -47 -7 -48 -13z"/>
<path d="M1308 2764 c-16 -8 -28 -23 -28 -33 0 -11 -5 -21 -11 -23 -5 -2 -11
-10 -13 -18 -3 -15 -24 -93 -33 -120 -8 -23 -12 -64 -18 -190 -3 -63 -10 -130
-15 -149 -6 -23 -6 -39 1 -47 6 -7 6 -15 1 -18 -5 -3 -10 -31 -11 -63 -1 -32
-7 -76 -13 -98 -9 -34 -12 -37 -19 -20 -4 11 -8 36 -8 56 -1 19 -5 39 -10 45
-8 8 -17 63 -37 229 -3 22 -8 47 -11 55 -4 8 -8 24 -9 35 -7 49 -11 65 -17 71
-4 4 -7 20 -7 35 0 15 -4 31 -10 34 -5 3 -10 12 -10 20 0 8 -11 25 -24 39 -26
29 -79 35 -106 13 -40 -32 -45 -64 -44 -261 1 -105 4 -222 8 -261 11 -108 16
-495 7 -495 -7 0 -14 25 -43 161 -12 59 -74 122 -136 139 -41 11 -45 10 -67
-15 -36 -38 -46 -90 -44 -237 1 -178 2 -202 13 -210 5 -3 11 -30 13 -60 3 -64
10 -136 19 -203 3 -27 7 -66 8 -85 0 -19 4 -37 7 -40 4 -3 11 -30 17 -60 19
-97 44 -195 53 -204 5 -6 9 -18 9 -28 0 -10 4 -26 9 -36 32 -61 81 -172 81
-181 0 -6 3 -11 8 -11 4 0 16 -17 27 -37 11 -21 31 -51 45 -68 44 -54 107
-176 108 -210 0 -11 3 -33 7 -50 3 -16 8 -56 10 -89 6 -63 10 -76 26 -76 10 0
10 11 -7 154 -7 56 -6 59 12 51 86 -36 263 2 264 56 0 9 6 22 14 28 13 11 27
113 28 211 2 67 -13 148 -28 161 -8 6 -14 17 -14 24 0 7 -7 19 -17 26 -23 20
-93 116 -93 129 0 5 -7 10 -15 10 -8 0 -15 -6 -15 -14 0 -14 64 -105 81 -116
4 -3 25 -39 46 -80 32 -63 38 -84 37 -130 -2 -74 -21 -178 -40 -217 -21 -46
-47 -56 -144 -57 -75 -1 -88 2 -110 22 -13 12 -27 22 -32 22 -4 0 -8 11 -8 24
0 13 -7 29 -15 36 -8 7 -15 17 -15 22 0 6 -22 38 -49 72 -27 34 -52 72 -55 84
-4 12 -12 22 -17 22 -5 0 -9 8 -9 17 0 9 -6 24 -13 32 -8 9 -28 52 -46 96 -18
44 -37 89 -42 100 -5 11 -11 30 -14 43 -2 13 -7 33 -11 45 -5 12 -8 27 -9 32
-1 6 -4 17 -7 25 -3 8 -11 42 -18 75 -7 33 -16 80 -21 105 -5 25 -12 72 -14
105 -3 33 -9 98 -15 145 -8 71 -19 167 -22 189 -2 25 6 38 32 49 48 22 72 64
72 129 1 41 -3 58 -16 65 -9 5 -16 15 -16 22 0 8 -7 19 -15 26 -23 19 -18 30
13 30 62 0 142 -105 142 -186 0 -23 3 -44 8 -48 9 -10 12 -102 5 -178 -5 -53
-7 -58 -29 -58 -15 0 -24 -6 -24 -15 0 -8 8 -15 18 -15 28 0 138 -132 126
-152 -3 -5 -2 -14 4 -21 5 -7 10 -34 11 -61 1 -27 2 -52 3 -55 3 -32 -6 -65
-22 -81 -22 -22 -19 -40 6 -40 8 0 14 8 14 18 0 10 4 22 10 28 19 19 18 122
-4 224 -7 32 -28 72 -44 85 -9 7 -10 31 -5 89 6 71 10 83 37 111 17 18 40 43
51 56 11 13 32 31 48 38 28 15 37 41 13 41 -8 0 -38 -21 -67 -47 -28 -27 -56
-48 -62 -48 -6 0 -11 72 -13 183 -2 101 -6 188 -9 192 -3 5 -1 11 4 14 5 4 6
19 0 39 -12 42 -26 358 -16 364 4 2 35 7 70 10 71 6 68 5 58 21 -8 14 -63 18
-109 7 l-33 -8 6 79 c8 92 18 125 45 142 28 17 70 -6 92 -50 16 -32 43 -144
52 -218 10 -75 17 -117 27 -157 7 -23 9 -52 6 -63 -3 -11 -1 -20 4 -20 5 0 9
-18 9 -41 0 -23 7 -55 15 -72 15 -32 37 -170 38 -239 1 -30 5 -38 20 -38 13 0
17 5 13 18 -13 45 -16 166 -6 247 6 50 11 105 11 124 -1 18 3 39 9 46 5 6 9
29 8 51 -2 41 8 209 18 309 8 79 43 194 68 223 31 35 62 29 93 -20 l28 -43 -2
-205 c-1 -113 -5 -218 -9 -235 -4 -16 -9 -137 -11 -267 -4 -212 -3 -238 11
-238 9 0 16 3 17 8 4 42 13 73 30 108 10 22 19 50 19 62 0 11 4 23 9 26 4 3
12 38 16 78 3 40 18 122 31 182 14 60 28 128 30 150 3 23 10 59 16 81 5 22 12
50 15 62 13 55 92 89 131 56 19 -16 22 -29 23 -113 1 -52 -6 -138 -15 -190 -9
-52 -19 -120 -22 -150 -2 -30 -8 -57 -13 -60 -5 -3 -11 -31 -15 -62 -4 -32
-12 -60 -17 -63 -5 -4 -9 -19 -9 -34 0 -15 -5 -32 -10 -37 -6 -6 -13 -40 -17
-77 -3 -37 -10 -67 -15 -67 -4 0 -6 -11 -4 -23 8 -43 -7 -53 -51 -35 -36 15
-104 36 -148 46 -11 2 -49 5 -85 6 -50 1 -65 -2 -65 -13 0 -10 15 -15 53 -18
30 -1 91 -12 135 -24 45 -11 92 -23 105 -26 12 -3 22 -9 22 -14 0 -5 3 -8 8
-7 11 4 123 -52 162 -81 52 -38 90 -82 91 -105 1 -12 0 -46 -1 -76 -1 -30 -2
-81 -3 -112 0 -32 -5 -58 -10 -58 -5 0 -21 9 -36 19 -47 34 -133 48 -258 43
-40 -1 -53 -6 -53 -17 0 -11 11 -15 37 -15 34 0 35 -1 21 -17 -9 -10 -22 -35
-29 -56 -12 -33 -16 -37 -38 -32 -14 4 -37 15 -52 26 -15 10 -31 19 -37 19
-13 0 -29 45 -36 103 -5 46 0 56 20 38 19 -18 62 -21 68 -6 5 15 -28 35 -58
35 -7 0 -61 25 -121 55 -59 30 -114 55 -122 55 -34 0 -2 -28 82 -72 66 -34 93
-54 102 -75 11 -27 18 -93 9 -93 -4 0 -82 37 -144 68 -18 9 -47 32 -64 50 -30
30 -58 42 -58 24 0 -5 38 -47 85 -94 87 -90 145 -188 147 -249 1 -16 5 -29 10
-29 4 0 8 -6 8 -14 0 -7 7 -27 15 -42 8 -16 15 -39 15 -51 0 -12 6 -37 14 -55
15 -35 39 -137 39 -165 0 -9 8 -18 18 -20 18 -5 34 -43 18 -43 -4 0 -6 -6 -4
-13 2 -6 9 -55 14 -107 14 -132 21 -160 41 -160 13 0 21 31 12 44 -34 42 -48
330 -21 421 4 17 11 68 15 115 10 132 10 136 18 148 12 20 33 14 63 -18 32
-34 48 -38 57 -14 4 9 5 17 4 18 -38 19 -108 75 -108 88 0 9 14 39 31 67 30
48 35 51 72 51 51 0 142 -28 165 -51 36 -37 40 -48 42 -95 1 -27 1 -51 0 -54
-1 -3 -3 -59 -5 -125 -5 -153 -13 -222 -30 -260 -7 -16 -16 -40 -20 -52 -7
-25 -84 -143 -124 -189 -14 -17 -41 -39 -58 -48 -18 -9 -33 -21 -33 -27 0 -15
33 -24 38 -11 2 7 9 12 16 12 8 0 25 12 39 26 24 24 60 28 55 7 -1 -4 2 -28 6
-53 10 -64 12 -73 19 -90 3 -8 8 -39 12 -69 6 -51 22 -81 43 -81 5 0 4 16 -4
38 -7 20 -13 53 -14 73 0 19 -4 39 -9 45 -5 5 -11 32 -14 59 -2 28 -8 61 -12
75 -18 61 -17 82 2 108 40 56 85 157 98 221 9 41 16 177 20 365 3 165 9 304
12 309 3 6 7 42 8 81 2 86 30 249 50 293 8 17 15 36 15 43 0 6 8 30 18 53 40
91 52 123 55 142 2 11 10 34 17 50 9 19 14 71 14 142 1 105 0 113 -23 137 -16
17 -35 26 -56 26 -48 0 -79 -41 -126 -165 -13 -33 -27 -64 -31 -69 -4 -6 -8
-17 -8 -25 0 -9 -10 -32 -22 -51 -12 -19 -23 -39 -24 -45 -1 -5 -18 -39 -39
-73 -27 -46 -40 -61 -48 -53 -8 8 -8 14 1 23 7 7 12 18 12 24 0 7 5 25 12 41
14 35 12 26 27 113 7 41 17 82 21 91 5 8 10 42 11 75 2 32 6 64 10 69 8 13 21
133 22 206 0 112 -23 149 -93 149 -77 0 -117 -58 -144 -210 -9 -47 -18 -96
-21 -110 -3 -14 -10 -52 -15 -85 -6 -33 -15 -71 -20 -85 -6 -14 -11 -49 -13
-77 -2 -29 -6 -56 -10 -60 -4 -3 -7 -16 -7 -29 0 -33 -10 -54 -26 -54 -16 0
-15 19 7 452 7 119 9 238 6 265 -14 105 -18 128 -27 131 -6 2 -10 10 -10 18 0
12 -55 55 -70 54 -3 -1 -17 -8 -32 -16z m702 -576 c14 -32 18 -56 14 -93 -3
-27 -6 -63 -7 -80 -3 -35 -15 -35 -53 0 -30 28 -84 35 -84 10 0 -9 9 -15 23
-15 13 0 33 -9 45 -20 12 -11 30 -20 42 -20 21 0 26 -10 12 -25 -5 -6 -19 -39
-32 -75 -13 -36 -31 -83 -40 -105 -10 -22 -23 -64 -31 -92 -7 -29 -16 -53 -20
-53 -4 0 -10 -33 -13 -73 -8 -75 -20 -110 -33 -92 -16 20 -91 74 -141 100 -50
26 -67 54 -42 70 6 3 10 12 10 20 0 19 58 143 70 150 9 6 35 57 93 187 10 20
17 41 17 47 0 6 5 11 10 11 6 0 10 9 10 21 0 23 46 124 69 151 28 32 59 23 81
-24z m-1346 -401 c19 -25 26 -46 26 -78 0 -39 -4 -47 -29 -62 -53 -31 -61 -24
-61 47 0 128 18 154 64 93z m216 -267 c0 -11 -4 -20 -8 -20 -4 0 -8 9 -9 20
-1 11 2 20 8 20 5 0 9 -9 9 -20z m0 -55 c0 -14 -4 -25 -8 -25 -4 0 -9 11 -10
25 -1 14 3 25 8 25 6 0 10 -11 10 -25z m403 -339 c48 -20 76 -56 92 -121 9
-31 19 -63 22 -69 4 -6 6 -23 4 -38 -1 -14 2 -29 7 -32 6 -3 8 -22 6 -41 -3
-31 0 -35 20 -35 22 0 22 -2 15 -47 -4 -27 -8 -67 -8 -90 -1 -66 -27 -57 -36
12 -3 30 -11 57 -16 61 -6 3 -8 12 -5 20 3 7 1 16 -4 19 -6 4 -10 17 -10 29 0
13 -7 37 -15 52 -8 16 -15 38 -15 50 0 11 -3 24 -7 28 -4 4 -8 13 -8 19 -1 14
-16 49 -56 130 -39 77 -39 76 14 53z m157 -93 c33 -14 40 -23 40 -45 0 -15 -4
-29 -9 -33 -6 -3 -6 -17 -1 -35 5 -18 5 -32 -1 -35 -5 -4 -9 -18 -9 -32 0 -44
-26 -9 -29 38 -1 23 -11 67 -22 98 -10 30 -19 57 -19 58 0 6 10 3 50 -14z"/>
<path d="M1804 1765 c-4 -9 3 -23 17 -34 20 -16 25 -17 32 -5 10 17 3 30 -24
44 -15 9 -21 7 -25 -5z"/>
<path d="M4192 2748 c-32 -36 -34 -47 -34 -183 0 -111 4 -159 16 -205 3 -14 8
-59 10 -100 2 -41 6 -91 9 -110 3 -19 9 -84 12 -145 4 -60 8 -132 10 -158 5
-72 -17 -53 -32 29 -8 38 -16 81 -18 97 -2 15 -7 33 -11 39 -4 7 -9 21 -10 32
-2 19 -19 105 -54 276 -6 30 -15 64 -21 75 -6 12 -11 27 -12 35 -2 8 -6 21
-10 28 -5 6 -5 12 -2 12 4 0 -3 13 -14 29 -12 16 -21 32 -21 35 0 3 -8 15 -17
26 -21 25 -98 28 -130 5 -43 -30 -57 -118 -33 -210 13 -53 41 -228 45 -287 1
-25 6 -51 9 -57 4 -6 5 -11 1 -11 -3 0 -1 -9 5 -20 6 -11 7 -20 3 -20 -10 0
-28 27 -65 97 -91 174 -105 195 -152 224 -38 23 -77 10 -97 -35 -14 -31 -14
-43 1 -128 10 -51 23 -106 30 -123 7 -16 15 -46 16 -65 4 -38 8 -56 17 -82 16
-42 19 -55 24 -98 3 -25 9 -48 14 -51 6 -3 17 -35 24 -70 8 -35 22 -76 31 -91
8 -16 13 -28 10 -28 -3 0 3 -15 13 -32 16 -29 17 -52 14 -192 -4 -125 -2 -161
9 -167 9 -6 9 -9 1 -9 -12 0 -11 -28 3 -125 3 -22 6 -58 5 -79 0 -22 3 -44 8
-50 5 -6 12 -33 15 -59 16 -105 26 -147 36 -147 5 0 7 -6 4 -13 -2 -7 5 -35
18 -63 12 -27 23 -55 24 -62 1 -6 13 -34 27 -62 22 -43 23 -52 11 -74 -7 -14
-11 -37 -8 -50 2 -14 0 -28 -6 -31 -5 -3 -10 -21 -10 -39 0 -18 -3 -35 -6 -39
-7 -6 -13 -69 -18 -159 -1 -40 1 -58 10 -58 15 0 20 21 23 94 1 33 4 63 7 68
3 4 8 29 11 55 6 51 10 75 14 83 1 3 2 12 3 20 1 9 11 15 26 15 17 0 24 5 21
15 -2 8 -4 20 -5 27 -1 7 -10 20 -19 31 -9 10 -17 26 -17 35 0 9 -4 17 -10 17
-5 0 -10 9 -10 20 0 11 -8 39 -19 63 -20 46 -65 191 -75 244 -2 10 -7 29 -10
43 -6 24 -12 69 -21 179 -2 30 -6 56 -9 58 -5 5 22 40 66 85 22 24 35 28 78
28 55 0 48 7 85 -85 4 -11 9 -26 11 -34 1 -7 7 -18 13 -24 16 -16 14 -19 -24
-62 -24 -27 -31 -43 -24 -50 7 -7 15 -3 27 11 28 35 47 35 61 0 6 -17 18 -44
26 -61 11 -26 24 -56 30 -75 1 -3 5 -13 10 -23 4 -10 8 -31 9 -47 1 -16 5 -32
9 -36 10 -10 8 -183 -4 -274 -5 -41 -9 -90 -9 -107 1 -27 -4 -34 -25 -39 -15
-4 -32 -1 -40 6 -8 7 -15 9 -15 6 0 -4 -18 3 -40 15 -29 17 -43 20 -51 12 -30
-30 74 -77 154 -71 l42 3 3 45 c1 25 7 83 13 130 6 47 11 95 10 108 0 12 10
39 23 60 12 20 31 62 40 92 9 30 21 63 27 73 5 10 7 22 4 27 -3 5 -1 11 4 15
6 3 8 12 5 19 -3 8 2 28 10 45 9 17 17 33 17 36 0 2 25 54 55 114 36 72 57
128 61 162 5 39 13 58 35 79 27 26 37 50 20 50 -4 0 -30 -22 -57 -50 -27 -27
-54 -50 -61 -50 -6 0 -24 -11 -40 -25 -47 -41 -56 -34 -51 41 5 79 24 105 105
141 48 21 54 26 38 35 -14 8 -32 3 -82 -22 -35 -18 -64 -39 -64 -46 0 -7 -5
-14 -11 -16 -7 -2 -14 -42 -17 -100 l-5 -96 -38 -11 c-21 -6 -41 -16 -44 -21
-4 -6 -27 -19 -52 -31 -45 -20 -46 -20 -57 -2 -6 10 -12 29 -14 43 -2 14 -7
29 -13 34 -5 6 -9 19 -9 29 0 16 5 19 30 14 25 -5 30 -3 30 12 0 14 -11 20
-47 26 -75 12 -173 15 -173 4 0 -5 -6 -9 -13 -9 -7 0 -26 -14 -42 -30 -16 -17
-33 -30 -38 -30 -9 0 -4 137 8 200 6 31 43 80 61 80 3 0 21 7 40 16 32 15 47
44 24 44 -16 0 -94 -41 -102 -54 -8 -13 -10 -11 -30 34 -36 79 -94 276 -127
425 -10 44 -21 88 -25 97 -4 9 -9 22 -10 30 -2 7 -5 20 -8 28 -40 117 -34 220
14 220 16 0 78 -58 78 -73 0 -4 11 -23 24 -40 14 -18 28 -44 31 -59 4 -16 11
-28 16 -28 5 0 9 -9 9 -19 0 -11 4 -22 8 -25 15 -9 99 -188 107 -230 3 -10 9
-24 16 -32 6 -8 8 -14 4 -14 -4 0 -3 -6 2 -12 9 -12 25 -57 28 -83 1 -5 7 -23
13 -38 7 -16 12 -37 12 -48 0 -10 7 -19 15 -19 16 0 21 45 6 54 -8 5 -20 66
-26 126 -1 8 -4 22 -7 30 -7 18 -29 99 -32 120 -1 8 -7 24 -13 35 -6 11 -14
56 -18 100 -4 44 -11 85 -16 91 -5 7 -9 16 -7 20 1 5 -2 32 -6 59 -3 28 -9 67
-11 87 -3 21 -9 57 -15 80 -23 102 -4 199 42 211 47 13 79 -19 117 -115 6 -16
16 -38 21 -50 6 -13 12 -39 14 -58 2 -19 6 -42 10 -50 14 -36 45 -174 40 -182
-3 -5 -1 -14 4 -21 5 -7 12 -30 16 -52 4 -22 10 -51 12 -65 3 -14 6 -39 7 -55
2 -17 6 -35 9 -40 3 -6 11 -36 18 -67 6 -32 16 -60 21 -64 6 -3 8 -12 5 -20
-3 -7 -1 -16 4 -19 16 -10 12 -35 -5 -35 -24 0 -95 -24 -95 -32 0 -5 -5 -8
-11 -8 -6 0 -22 -8 -35 -19 -21 -16 -22 -20 -9 -31 13 -11 20 -9 38 6 90 79
346 111 482 60 35 -14 67 -21 70 -16 7 12 -28 34 -80 51 -22 7 -46 17 -52 22
-15 11 -18 163 -4 171 5 4 8 14 6 24 -1 9 2 22 7 28 5 7 8 16 6 20 -2 9 10
108 18 149 9 43 26 151 29 175 3 34 14 109 21 142 3 15 7 49 9 75 6 70 41 133
75 133 9 0 27 -15 41 -32 l24 -33 -1 -355 c-1 -227 -5 -382 -13 -430 -7 -41
-12 -86 -12 -99 1 -13 -3 -29 -8 -35 -10 -13 -8 -146 3 -164 8 -13 10 -336 3
-367 -3 -11 -6 -23 -6 -27 -1 -5 -6 -8 -12 -8 -16 0 -109 -91 -109 -107 0 -7
9 -13 20 -13 11 0 20 4 20 9 0 6 13 24 29 42 35 37 85 44 107 14 9 -11 19 -15
31 -10 16 6 12 12 -24 44 -39 35 -41 39 -29 62 7 14 13 45 13 69 1 25 3 61 6
80 8 46 46 133 63 143 20 12 17 38 -3 35 -16 -3 -18 7 -17 97 2 125 7 214 14
212 3 -1 7 3 9 8 22 62 101 152 123 139 10 -6 11 -38 1 -48 -14 -14 -11 -116
4 -127 7 -6 13 -18 13 -25 0 -7 13 -20 29 -28 32 -17 43 -37 31 -56 -5 -8 -6
-18 -4 -22 13 -21 -1 -324 -16 -343 -4 -5 -6 -19 -4 -29 11 -69 3 -156 -16
-181 -4 -5 -10 -35 -13 -65 -2 -30 -9 -73 -15 -95 -6 -22 -21 -79 -33 -128
-13 -48 -27 -87 -31 -87 -4 0 -8 -10 -8 -22 0 -27 -56 -136 -87 -173 -13 -14
-23 -29 -23 -33 0 -11 -47 -52 -59 -52 -5 0 -15 -7 -22 -17 -20 -23 -85 -51
-139 -58 -14 -2 -27 -4 -30 -5 -15 -6 -69 4 -95 16 -32 15 -65 60 -65 88 0 9
-4 16 -10 16 -6 0 -10 41 -10 104 0 81 3 106 15 116 9 7 14 18 12 24 -2 6 12
30 30 55 44 56 67 111 53 125 -5 5 -11 8 -12 5 -2 -2 -14 -26 -28 -52 -14 -27
-33 -57 -43 -68 -10 -10 -15 -19 -11 -19 4 0 1 -8 -7 -17 -39 -47 -50 -179
-24 -279 19 -75 48 -110 115 -140 43 -19 139 -11 189 16 14 7 21 7 22 0 2 -17
1 -50 -1 -52 -5 -7 -4 -211 1 -220 4 -6 12 -7 18 -3 8 5 9 11 2 19 -6 7 -8 16
-4 19 5 6 9 58 16 199 1 21 5 38 10 38 4 0 7 7 7 16 0 9 32 47 70 85 39 37 70
74 70 82 0 7 9 23 21 35 11 12 18 26 15 31 -3 5 1 14 9 21 8 7 15 23 15 35 0
12 7 28 15 35 9 7 13 15 10 18 -3 3 -1 10 4 16 5 6 12 29 15 51 4 22 11 56 16
76 6 20 17 74 25 120 20 116 23 128 31 140 3 6 8 52 10 102 2 51 9 128 14 172
12 100 12 442 1 483 -5 17 -7 32 -5 34 2 3 -14 23 -36 46 -32 33 -45 40 -67
36 -16 -3 -29 -9 -31 -15 -2 -5 -9 -9 -16 -9 -20 0 -88 -100 -83 -121 3 -10 2
-17 -3 -14 -10 6 -20 -30 -20 -72 0 -17 -4 -34 -9 -38 -6 -3 -8 -14 -6 -25 2
-11 -1 -22 -6 -26 -6 -4 -6 -11 2 -20 9 -11 9 -14 0 -14 -9 0 -9 -5 0 -22 9
-17 9 -23 0 -26 -6 -2 -8 -8 -5 -13 10 -17 7 -143 -3 -146 -22 -8 -32 211 -14
317 17 102 21 154 26 325 3 88 6 165 6 170 5 69 -4 336 -12 340 -5 4 -7 10 -4
15 3 5 1 19 -4 32 -5 12 -9 28 -10 33 -4 22 -46 55 -69 55 -22 0 -76 -33 -78
-48 0 -4 -4 -15 -7 -24 -14 -37 -17 -51 -32 -175 -9 -70 -20 -132 -26 -139 -7
-8 -7 -14 1 -19 6 -3 7 -11 3 -17 -3 -7 -8 -30 -9 -52 -2 -23 -8 -63 -14 -91
-6 -27 -14 -71 -17 -97 -10 -84 -28 -55 -39 63 -3 35 -9 80 -14 99 -11 42 -30
184 -35 258 -2 30 -8 59 -14 65 -5 7 -9 28 -8 47 1 51 -14 149 -24 156 -5 3
-9 14 -9 24 0 11 -15 34 -34 52 -46 44 -89 46 -124 6z m114 -30 c20 -18 30
-47 38 -108 2 -14 6 -32 10 -40 3 -9 5 -27 3 -40 -3 -14 -1 -32 4 -40 4 -9 9
-46 11 -84 1 -37 5 -69 8 -71 3 -2 7 -20 8 -41 2 -20 6 -42 10 -48 4 -6 8 -29
8 -51 1 -22 4 -53 7 -70 3 -16 8 -64 12 -105 4 -41 10 -79 15 -85 4 -5 10 -54
14 -109 3 -54 9 -102 11 -106 8 -14 -6 -18 -85 -24 -41 -4 -90 -9 -107 -12
-36 -7 -37 -4 -35 71 4 136 -4 299 -22 445 -2 19 -7 78 -11 130 -4 52 -8 97
-10 100 -2 3 -6 50 -10 105 -3 54 -7 102 -7 105 0 3 1 8 2 13 5 14 8 27 9 42
0 8 11 23 23 34 25 24 61 19 94 -11z m710 -975 c1 -34 -1 -63 -5 -63 -19 0
-45 56 -46 99 -1 106 47 72 51 -36z m-582 -594 c-4 -7 -9 -24 -10 -38 -2 -13
-7 -27 -12 -30 -5 -3 -13 -17 -17 -31 -4 -14 -15 -30 -24 -37 -9 -7 -12 -13
-8 -13 5 0 0 -12 -11 -27 -10 -16 -22 -40 -26 -55 -3 -15 -11 -40 -18 -55 -6
-15 -12 -35 -12 -45 -1 -9 -4 -19 -8 -23 -4 -4 -4 -13 -2 -20 3 -7 1 -16 -5
-20 -6 -3 -11 -14 -11 -23 0 -9 -10 -37 -22 -62 l-21 -45 -8 40 c-17 86 -8
157 29 222 7 12 12 29 12 37 0 9 4 24 10 34 5 9 19 45 29 80 19 59 51 101 77
102 6 0 19 9 29 20 20 22 44 12 29 -11z m-154 -87 c0 -5 -7 -17 -15 -28 -8
-10 -15 -24 -15 -31 0 -6 -5 -24 -12 -40 -6 -15 -13 -35 -15 -43 -2 -8 -5 -22
-8 -30 -2 -8 -4 -20 -4 -27 -1 -6 -9 -19 -18 -28 -16 -16 -18 -14 -33 31 -9
27 -25 66 -35 87 -19 38 -19 39 0 50 97 56 155 78 155 59z"/>
<path d="M4253 2464 c-21 -10 -30 -21 -26 -30 3 -10 12 -13 22 -8 9 4 28 9 44
12 33 5 45 21 26 33 -19 12 -29 11 -66 -7z"/>
<path d="M4297 2152 c-54 -5 -42 -26 16 -30 36 -2 47 0 47 11 0 19 -15 23 -63
19z"/>
<path d="M1291 2419 c-38 -15 -12 -28 47 -22 33 4 51 10 49 17 -5 14 -65 18
-96 5z"/>
<path d="M4610 2391 c-15 -29 -13 -32 15 -25 14 3 31 1 38 -4 7 -6 18 -8 25
-3 9 5 8 12 -4 29 -19 27 -60 29 -74 3z"/>
<path d="M3951 2296 c-13 -13 -21 -32 -19 -41 2 -13 11 -9 41 18 20 19 37 37
37 41 0 15 -39 4 -59 -18z"/>
<path d="M1614 2276 c-21 -16 -12 -22 49 -30 39 -6 47 -5 47 8 0 9 -12 18 -27
22 -16 3 -33 7 -40 9 -6 2 -19 -2 -29 -9z"/>
<path d="M1251 2106 c-26 -28 -13 -43 20 -25 13 6 38 9 60 5 31 -5 39 -3 39 9
0 39 -85 47 -119 11z"/>
<path d="M1542 2053 c2 -12 14 -19 36 -21 21 -2 38 -12 48 -28 18 -26 34 -32
34 -11 0 28 -46 69 -84 74 -33 4 -37 2 -34 -14z"/>
<path d="M4004 2059 c-18 -5 -39 -20 -48 -34 -16 -24 -15 -25 3 -25 10 0 24 6
31 14 6 8 24 16 38 18 15 2 27 9 27 17 0 19 -13 21 -51 10z"/>
<path d="M3663 2034 c-8 -21 13 -42 28 -27 6 6 17 9 24 7 7 -3 15 4 18 15 4
18 1 21 -29 21 -22 0 -37 -6 -41 -16z"/>
<path d="M4567 2033 c-13 -12 -7 -23 13 -23 11 0 29 -9 41 -21 12 -12 27 -18
36 -14 14 5 11 11 -12 35 -27 28 -63 39 -78 23z"/>
<path d="M988 1990 c-45 -8 -69 -26 -61 -46 5 -13 8 -13 28 0 12 8 37 16 56
18 21 2 34 8 34 17 0 18 -11 20 -57 11z"/>
<path d="M3782 1778 c-5 -7 -13 -23 -16 -35 -10 -30 8 -30 44 1 21 17 26 26
17 35 -15 15 -32 14 -45 -1z"/>
<path d="M4046 152 c-25 -25 27 -55 123 -74 30 -5 80 -19 110 -31 72 -27 79
-29 120 -31 58 -2 47 21 -15 34 -32 7 -65 16 -73 20 -52 28 -89 40 -135 46
-28 4 -68 15 -88 24 -20 10 -39 15 -42 12z"/>
<path d="M1553 128 c-20 -32 -71 -48 -152 -48 -55 0 -92 -5 -116 -17 -40 -19
-50 -50 -12 -39 46 14 134 26 183 26 73 0 141 40 128 74 -7 19 -20 21 -31 4z"/>
</g>
</svg>
