<?xml version="1.0" standalone="no"?>
<!DOCTYPE svg PUBLIC "-//W3C//DTD SVG 20010904//EN"
 "http://www.w3.org/TR/2001/REC-SVG-20010904/DTD/svg10.dtd">
<svg version="1.0" xmlns="http://www.w3.org/2000/svg"
 width="528.000000pt" height="319.000000pt" viewBox="0 0 528.000000 319.000000"
 preserveAspectRatio="xMidYMid meet">

<g transform="translate(0.000000,319.000000) scale(0.100000,-0.100000)"
fill="#000000" stroke="none">
<path d="M1787 3094 c-4 -4 -7 -25 -7 -46 0 -34 -2 -38 -17 -30 -53 27 -100
-61 -54 -102 13 -12 30 -16 57 -13 l39 4 3 88 c3 82 -5 115 -21 99z m-7 -114
c8 -15 6 -24 -10 -40 -25 -25 -50 -16 -50 20 0 41 41 55 60 20z"/>
<path d="M2350 2994 c0 -72 3 -95 13 -92 8 3 13 34 15 96 2 77 0 92 -13 92
-12 0 -15 -16 -15 -96z"/>
<path d="M2509 3063 c-21 -55 -23 -121 -5 -168 19 -49 41 -63 29 -17 -10 36
-10 161 0 190 5 14 5 22 -3 22 -6 0 -15 -12 -21 -27z"/>
<path d="M3598 3085 c-3 -3 1 -27 9 -53 14 -45 13 -102 -3 -162 -6 -23 -6 -24
11 -9 11 11 18 36 20 78 4 78 -18 165 -37 146z"/>
<path d="M3292 3068 c6 -18 28 -21 28 -4 0 9 -7 16 -16 16 -9 0 -14 -5 -12
-12z"/>
<path d="M60 2980 c0 -73 3 -90 15 -90 10 0 15 11 15 35 0 19 3 35 7 35 3 0
21 -18 40 -40 19 -22 41 -40 49 -40 21 0 18 7 -27 59 l-40 48 37 39 c28 30 33
40 20 42 -9 2 -28 -10 -42 -27 -32 -39 -44 -39 -44 -1 0 20 -5 30 -15 30 -12
0 -15 -17 -15 -90z"/>
<path d="M215 3060 c-3 -6 1 -13 10 -16 19 -8 30 0 20 15 -8 14 -22 14 -30 1z"/>
<path d="M380 3055 c0 -8 7 -15 15 -15 8 0 15 7 15 15 0 8 -7 15 -15 15 -8 0
-15 -7 -15 -15z"/>
<path d="M2980 3040 c0 -11 -4 -20 -10 -20 -5 0 -10 -7 -10 -15 0 -8 6 -15 13
-15 8 0 11 -14 9 -45 -3 -36 -1 -45 12 -45 12 0 16 10 16 45 0 25 5 45 10 45
6 0 10 7 10 15 0 8 -4 15 -10 15 -5 0 -10 9 -10 20 0 11 -7 20 -15 20 -8 0
-15 -9 -15 -20z"/>
<path d="M4467 3053 c-4 -7 -4 -33 2 -145 2 -44 21 -33 21 12 0 22 3 40 8 40
4 0 20 -18 36 -39 16 -22 37 -42 47 -44 27 -7 24 0 -16 44 -19 22 -35 45 -35
52 0 6 14 26 30 44 33 36 36 43 16 43 -7 0 -30 -19 -50 -42 l-36 -43 0 43 c0
38 -11 55 -23 35z"/>
<path d="M2028 3022 c-27 -3 -28 -5 -28 -63 0 -71 23 -79 28 -10 3 34 8 44 28
51 13 5 24 11 24 14 0 8 -25 12 -52 8z"/>
<path d="M1856 2998 c-9 -12 -16 -30 -16 -40 0 -26 36 -58 65 -58 30 0 65 32
65 60 0 53 -84 81 -114 38z m74 -13 c20 -25 8 -50 -25 -50 -21 0 -31 5 -33 18
-4 21 14 47 33 47 7 0 18 -7 25 -15z"/>
<path d="M2097 3013 c-16 -15 -5 -44 23 -58 42 -22 39 -39 -5 -31 -35 7 -49
-6 -19 -18 29 -11 62 -6 68 10 11 30 6 42 -24 54 -36 15 -40 34 -5 28 17 -4
25 -1 25 8 0 14 -51 20 -63 7z"/>
<path d="M2204 2995 c-16 -24 -12 -56 8 -82 12 -15 95 -17 100 -3 2 5 1 32 0
59 l-4 48 -44 1 c-36 1 -47 -3 -60 -23z m74 -31 c2 -22 -2 -33 -14 -38 -34
-13 -59 35 -32 62 21 21 43 9 46 -24z"/>
<path d="M2570 2933 c0 -68 3 -83 15 -83 11 0 15 8 13 28 -3 24 0 27 25 24 36
-5 67 22 67 58 0 39 -28 59 -78 57 l-42 -1 0 -83z m84 44 c8 -12 8 -22 0 -34
-18 -29 -42 -27 -56 2 -11 24 -10 29 7 41 22 17 34 14 49 -9z"/>
<path d="M2727 3002 c-37 -41 -7 -104 50 -104 30 0 63 33 63 63 0 49 -80 78
-113 41z m80 -28 c8 -22 -10 -49 -32 -49 -10 0 -22 7 -28 16 -15 24 -1 49 28
49 15 0 28 -7 32 -16z"/>
<path d="M2871 3006 c-17 -21 -7 -44 24 -56 40 -15 31 -33 -12 -25 -32 6 -35
5 -25 -8 17 -20 43 -26 71 -16 31 12 25 50 -11 67 -36 17 -37 36 -2 28 19 -5
25 -3 22 6 -7 19 -53 21 -67 4z"/>
<path d="M3066 3004 c-19 -18 -21 -75 -4 -92 23 -23 98 -12 98 14 0 17 -5 17
-29 2 -20 -12 -51 -5 -51 12 0 5 18 10 39 10 48 0 58 13 37 45 -19 29 -66 34
-90 9z m64 -19 c11 -13 8 -15 -19 -15 -31 0 -42 14 -18 23 20 9 24 8 37 -8z"/>
<path d="M3199 2995 c-1 -11 -2 -37 -3 -57 -2 -31 1 -38 16 -38 15 0 18 8 18
45 0 38 3 45 20 45 11 0 20 6 20 14 0 10 -10 14 -35 13 -27 -2 -35 -6 -36 -22z"/>
<path d="M3297 3013 c-4 -3 -7 -30 -7 -60 0 -40 4 -53 15 -53 12 0 15 13 15
60 0 55 -6 70 -23 53z"/>
<path d="M3370 3000 c-28 -28 -25 -64 6 -89 15 -12 32 -21 39 -21 23 0 65 41
65 64 0 28 -39 66 -68 66 -12 0 -31 -9 -42 -20z m78 -41 c2 -18 -3 -29 -14
-33 -27 -11 -54 3 -54 28 0 30 9 38 40 34 19 -2 26 -10 28 -29z"/>
<path d="M3510 2958 c0 -44 4 -58 14 -58 10 0 13 8 10 26 -7 37 4 62 28 66 12
2 23 9 25 15 3 9 -8 12 -36 10 l-41 -2 0 -57z"/>
<path d="M310 3001 c-22 -6 -24 -12 -24 -61 1 -69 22 -79 26 -13 3 41 6 48 26
51 13 2 21 9 19 15 -4 14 -17 16 -47 8z"/>
<path d="M222 2945 c4 -70 23 -68 23 3 1 37 -3 52 -13 52 -10 0 -12 -14 -10
-55z"/>
<path d="M380 2946 c0 -43 3 -56 15 -56 11 0 14 11 12 52 -3 74 -27 78 -27 4z"/>
<path d="M4617 2970 c-33 -47 7 -103 66 -93 l37 6 0 52 0 52 -44 1 c-35 2 -48
-2 -59 -18z m82 -22 c11 -28 -3 -48 -34 -48 -25 0 -39 23 -30 51 9 28 53 25
64 -3z"/>
<path d="M4765 2945 c1 -22 3 -46 4 -52 3 -31 20 -9 23 30 3 37 6 42 28 42 22
0 26 -5 30 -45 6 -51 24 -56 27 -7 3 70 -4 77 -62 75 l-53 -2 3 -41z"/>
<path d="M4922 2978 c-14 -18 -17 -39 -9 -69 8 -32 25 -40 71 -32 l36 6 0 53
0 54 -44 0 c-24 0 -48 -6 -54 -12z m68 -23 c20 -25 8 -50 -25 -50 -31 0 -43
20 -31 51 7 18 40 18 56 -1z"/>
<path d="M5060 2934 c0 -40 4 -54 14 -54 10 0 16 14 18 43 3 37 6 42 30 45 26
3 27 1 30 -47 2 -34 7 -48 14 -43 7 4 9 26 5 57 l-6 50 -52 2 -53 1 0 -54z"/>
<path d="M1086 2821 c-10 -11 -15 -24 -11 -30 3 -6 0 -9 -8 -5 -48 18 -49
-295 -1 -506 3 -14 8 -79 10 -145 2 -66 6 -144 10 -172 4 -33 2 -53 -4 -53
-10 0 -24 44 -27 85 -1 11 -4 27 -7 35 -4 8 -9 26 -12 40 -16 80 -37 168 -45
190 -5 14 -19 61 -32 105 -13 44 -33 97 -46 117 -13 21 -23 42 -23 47 0 19
-71 71 -99 71 -30 0 -64 -31 -76 -68 -9 -30 -8 -149 1 -164 4 -6 8 -25 10 -41
1 -16 6 -39 11 -51 21 -45 32 -88 26 -102 -3 -8 -1 -14 4 -14 9 0 15 -47 38
-270 2 -19 11 -52 19 -72 19 -43 19 -48 7 -48 -8 0 -61 124 -61 142 0 4 -5 19
-12 35 -6 15 -12 30 -12 33 -1 3 -6 19 -12 35 -7 17 -17 50 -25 75 -7 25 -15
50 -18 55 -3 6 -7 21 -9 35 -2 14 -12 40 -23 58 -10 18 -19 37 -19 43 0 23
-81 79 -114 79 -8 0 -25 -10 -36 -22 -17 -19 -21 -34 -19 -83 1 -33 6 -73 12
-90 5 -16 9 -38 9 -47 -1 -10 3 -20 9 -23 5 -4 9 -19 9 -34 0 -16 7 -47 15
-70 8 -22 12 -41 8 -41 -3 0 0 -7 7 -15 7 -8 10 -24 7 -35 -3 -11 -1 -23 4
-26 5 -3 9 -16 9 -29 0 -13 4 -26 9 -30 5 -3 13 -36 16 -73 4 -37 10 -71 13
-77 3 -5 7 -25 8 -45 22 -344 25 -379 38 -455 4 -22 9 -58 11 -80 8 -79 16
-119 23 -125 5 -3 9 -22 10 -43 2 -21 13 -61 27 -90 13 -29 27 -65 30 -80 4
-15 10 -27 14 -27 11 0 47 -77 65 -137 14 -49 16 -194 4 -233 -3 -8 -7 -22
-10 -30 -11 -28 -28 -172 -22 -181 11 -18 23 2 29 49 4 26 10 56 15 67 11 25
19 77 26 183 7 95 -6 156 -59 261 -18 36 -31 68 -29 73 1 4 -2 8 -8 8 -5 0
-10 9 -10 19 0 11 -4 22 -8 25 -5 3 -14 31 -21 63 -8 31 -17 64 -22 73 -7 14
-28 159 -34 237 -2 17 -6 55 -10 85 -4 29 -9 89 -11 133 -2 44 -5 98 -8 120
-3 22 -8 76 -11 120 -4 44 -11 85 -17 92 -6 7 -8 13 -6 13 3 0 2 18 -2 40 -5
28 -3 45 6 57 7 10 14 14 14 10 0 -4 9 -3 20 3 30 16 14 32 -29 28 -35 -3 -36
-2 -48 44 -6 26 -14 52 -18 57 -3 6 6 21 21 34 30 26 25 52 -7 44 -12 -3 -23
2 -29 13 -12 22 -13 40 -2 39 25 -4 40 5 56 35 18 33 18 48 1 89 -4 10 -3 17
4 17 7 0 14 -8 17 -17 3 -10 12 -31 19 -48 7 -16 19 -50 26 -75 7 -25 17 -51
22 -57 5 -7 7 -13 3 -13 -3 0 8 -36 24 -81 17 -44 28 -85 24 -90 -3 -5 0 -9 5
-9 6 0 11 -9 11 -19 0 -11 5 -23 10 -26 6 -3 10 -15 10 -26 0 -10 5 -19 10
-19 6 0 10 -6 10 -13 0 -22 27 -71 53 -95 21 -20 24 -21 46 -6 20 14 21 18 7
33 -8 9 -18 30 -22 46 -4 17 -9 35 -13 40 -3 6 -7 19 -8 30 -1 11 -5 34 -8 50
-3 17 -14 96 -25 176 -11 81 -24 159 -30 173 -14 37 -14 36 24 36 45 0 96 19
96 35 0 20 -20 29 -33 16 -6 -6 -28 -11 -49 -11 -27 0 -38 -4 -38 -15 0 -8 -4
-15 -9 -15 -10 0 -25 48 -22 72 1 9 -3 19 -9 23 -24 15 -6 25 44 25 46 0 58 4
74 25 11 14 22 25 25 25 5 0 31 -66 32 -82 0 -3 3 -10 8 -14 4 -4 7 -18 7 -30
0 -13 4 -25 9 -28 8 -6 19 -46 27 -100 2 -16 8 -34 13 -40 5 -6 12 -33 16 -61
4 -27 9 -54 12 -59 3 -5 7 -23 9 -40 2 -17 6 -44 9 -61 3 -16 8 -54 12 -82 3
-35 10 -53 19 -53 7 0 18 -9 24 -20 26 -49 32 -7 26 182 -4 104 -7 193 -7 196
-1 4 -1 18 0 31 1 20 3 21 16 11 12 -10 18 -10 30 0 9 7 26 9 46 5 26 -6 30
-4 27 11 -5 28 -62 41 -84 20 -9 -9 -21 -15 -28 -13 -14 4 -38 168 -52 350 -7
84 0 93 39 56 28 -25 83 -23 114 5 13 10 25 17 28 14 4 -3 8 -43 11 -89 2 -46
7 -100 10 -119 3 -19 8 -69 11 -110 2 -41 7 -82 10 -90 3 -8 7 -62 9 -120 2
-58 5 -153 7 -211 4 -109 9 -129 32 -129 12 0 22 36 31 105 1 11 7 58 13 105
6 47 16 135 22 195 5 61 12 117 15 125 6 17 20 150 23 223 1 12 5 16 14 11 9
-6 9 -4 1 7 -8 10 -7 21 2 39 l14 25 0 -26 c0 -32 24 -91 42 -106 7 -6 24 -13
38 -15 l25 -3 0 -623 c0 -342 3 -622 8 -622 7 0 29 44 32 65 2 9 15 44 32 85
3 8 5 19 4 24 -1 4 4 14 10 22 7 8 13 46 15 84 2 39 5 74 8 78 2 4 6 48 7 97
2 59 11 111 24 150 27 76 53 125 65 125 13 0 13 -27 0 -35 -10 -6 -11 -52 -1
-69 2 -6 6 -21 8 -35 5 -48 6 -51 20 -51 7 0 13 -4 13 -10 0 -5 7 -10 15 -10
24 0 52 -35 49 -61 -1 -13 -3 -32 -3 -41 -1 -20 -31 -24 -48 -7 -7 7 -19 9
-29 5 -16 -6 -16 -8 1 -26 10 -11 26 -20 36 -20 32 0 38 -29 23 -110 -2 -14
-9 -60 -15 -102 -6 -43 -16 -78 -21 -78 -5 0 -7 -4 -4 -8 3 -5 -1 -35 -8 -68
-8 -32 -17 -84 -21 -114 -4 -30 -10 -59 -13 -65 -4 -5 -8 -23 -9 -40 -6 -72
-9 -91 -16 -102 -10 -16 -19 -53 -19 -75 1 -9 -6 -22 -14 -29 -8 -6 -14 -17
-14 -24 0 -6 -9 -20 -20 -30 -11 -10 -20 -23 -20 -30 0 -6 -11 -22 -25 -35
-14 -13 -25 -28 -25 -35 0 -6 -13 -26 -30 -45 -16 -19 -29 -40 -30 -46 0 -5
-6 -18 -13 -28 -12 -16 -16 -17 -35 -5 -31 19 -37 5 -17 -38 29 -60 46 -178
39 -266 -5 -50 -3 -77 3 -77 23 0 29 31 26 150 -2 69 -3 140 -3 158 0 34 46
128 84 172 67 77 121 174 137 248 5 26 12 56 14 67 2 11 9 47 14 80 19 119 23
140 28 149 7 10 38 173 47 246 2 14 6 41 10 60 16 82 31 263 31 367 0 102 -2
114 -21 134 -32 32 -92 35 -137 9 -20 -12 -37 -28 -37 -35 0 -7 -6 -18 -14
-24 -8 -7 -18 -31 -21 -54 -4 -23 -14 -51 -22 -63 -9 -15 -14 -52 -14 -119 0
-53 -4 -107 -9 -120 -5 -13 -5 -26 1 -32 6 -6 6 -20 -2 -39 -6 -16 -12 -38
-14 -49 -1 -11 -9 -36 -17 -55 -15 -33 -16 -22 -12 170 5 267 8 718 6 845 -2
55 0 120 3 145 3 25 6 54 7 65 9 83 -38 129 -110 107 -44 -14 -76 -59 -87
-123 -4 -24 -11 -48 -15 -54 -7 -9 -12 -62 -24 -251 -2 -16 -6 -35 -9 -41 -4
-6 -1 -14 5 -16 10 -4 10 -6 1 -6 -9 -1 -13 -20 -13 -61 0 -33 -3 -60 -7 -60
-5 0 -9 -28 -9 -63 -1 -34 -7 -73 -12 -87 -8 -19 -11 4 -11 101 -1 69 -5 150
-11 180 -5 30 -11 86 -14 124 -3 39 -8 88 -11 110 -3 21 -9 75 -14 120 -18
173 -130 308 -195 236z m103 -66 c36 -41 39 -63 13 -95 -27 -33 -79 -22 -110
23 -26 40 -24 67 7 101 28 30 42 25 90 -29z m383 -82 c17 -20 31 -103 17 -103
-5 0 -9 -18 -9 -40 0 -46 -13 -51 -47 -18 -20 19 -23 31 -23 93 0 39 3 75 7
78 12 13 40 7 55 -10z m-731 -142 c30 -31 31 -49 0 -84 -11 -13 -23 -16 -41
-12 -42 11 -62 36 -56 69 13 63 50 73 97 27z m-277 -278 c6 -47 6 -67 -4 -78
-17 -20 -38 -19 -43 3 -24 85 -17 145 17 140 18 -3 22 -13 30 -65z m1304 -309
c13 -9 21 -22 18 -29 -3 -8 0 -15 5 -17 11 -4 15 -121 4 -138 -10 -17 -41 -11
-61 11 -21 23 -27 103 -12 157 10 37 15 38 46 16z m-783 -55 c11 -17 -1 -21
-15 -4 -8 9 -8 15 -2 15 6 0 14 -5 17 -11z"/>
<path d="M4345 2823 c-20 -5 -64 -50 -66 -68 -1 -5 -2 -21 -4 -35 -1 -14 -7
-50 -13 -80 -11 -49 -15 -84 -27 -210 -2 -19 -7 -46 -10 -60 -3 -14 -8 -50
-11 -80 -7 -76 -9 -88 -17 -96 -4 -4 -4 -18 0 -32 4 -18 2 -23 -8 -20 -8 3
-15 15 -17 29 -2 13 -6 31 -9 39 -3 8 -6 24 -7 35 -1 11 -4 25 -7 30 -4 6 -10
33 -14 60 -4 28 -10 55 -13 60 -4 6 -7 15 -8 22 -9 60 -29 127 -54 179 -24 48
-37 64 -61 73 -41 14 -76 5 -83 -22 -3 -12 -4 -22 -3 -23 1 0 -3 -7 -9 -15 -6
-8 -9 -32 -7 -54 9 -104 14 -189 17 -291 2 -62 6 -116 9 -120 2 -5 5 -31 5
-57 1 -26 4 -52 7 -57 3 -5 1 -12 -5 -15 -8 -5 -7 -11 1 -21 6 -8 11 -50 11
-106 -1 -51 -1 -151 -1 -222 -1 -87 3 -132 11 -137 7 -4 8 -14 3 -25 -5 -11
-7 -23 -5 -29 2 -5 5 -35 6 -67 2 -42 -1 -58 -12 -62 -9 -3 -14 1 -14 14 0 10
-6 25 -12 32 -7 7 -14 29 -14 48 -6 143 -18 262 -31 300 -8 25 -16 50 -17 55
-5 18 -17 50 -24 61 -62 100 -101 130 -153 119 -24 -5 -35 -17 -49 -49 -10
-23 -16 -55 -14 -72 3 -16 4 -64 4 -108 0 -47 4 -84 12 -93 9 -11 9 -16 -2
-23 -11 -7 -11 -12 -2 -23 7 -8 14 -76 18 -178 8 -226 10 -265 19 -279 4 -7 9
-31 11 -55 3 -44 27 -114 68 -200 14 -27 30 -68 38 -90 7 -22 19 -46 26 -53 7
-8 10 -17 7 -22 -3 -4 2 -10 10 -14 8 -3 15 -15 15 -27 0 -14 5 -19 14 -16 10
4 17 -4 21 -24 4 -16 11 -29 16 -29 5 0 9 -6 9 -12 0 -14 29 -54 71 -99 24
-25 27 -37 29 -116 4 -149 3 -207 -4 -240 -6 -26 -4 -33 7 -33 22 0 30 57 28
208 -1 102 2 132 11 130 25 -5 12 21 -24 49 -45 37 -80 78 -103 123 -10 19
-34 57 -53 85 -32 47 -53 88 -57 110 -2 16 -14 46 -41 100 -13 28 -26 59 -27
70 -2 11 -7 29 -11 40 -35 93 -40 133 -51 397 l-7 158 24 10 c29 14 51 57 33
64 -7 2 -21 -4 -31 -15 -19 -22 -32 -15 -39 21 -3 18 5 31 34 57 54 46 79 91
70 126 -5 19 -4 27 6 27 16 0 65 -95 65 -126 0 -12 4 -24 9 -26 8 -3 12 -37
27 -213 3 -38 10 -75 15 -81 5 -6 7 -20 4 -32 -2 -12 0 -24 6 -27 5 -4 9 -12
9 -20 0 -8 5 -26 12 -42 6 -15 12 -30 13 -33 1 -3 9 -22 18 -42 20 -48 42 -51
31 -6 -4 18 -6 51 -4 73 3 42 3 52 -2 520 l-3 300 38 17 c20 10 37 25 37 33 0
17 -35 21 -45 5 -3 -5 -15 -10 -26 -10 -15 0 -19 8 -20 40 -3 88 -3 90 19 90
24 0 49 40 31 51 -8 5 -20 2 -30 -7 -22 -20 -28 -9 -27 54 0 48 2 52 24 52 13
0 24 6 24 13 0 8 9 22 20 32 11 10 20 25 20 32 0 8 5 13 11 11 17 -6 61 -165
63 -224 0 -29 4 -50 8 -48 4 3 10 -5 12 -18 3 -13 10 -45 15 -73 6 -27 12 -62
14 -77 2 -15 6 -30 10 -34 4 -4 2 -13 -4 -20 -6 -7 -7 -19 -3 -26 5 -7 10 -49
11 -94 5 -108 15 -166 32 -172 12 -4 13 10 6 79 -9 99 -6 203 6 224 4 6 5 19
3 29 -1 11 0 25 4 30 3 6 7 20 8 31 1 11 9 70 18 130 15 100 26 197 27 235 0
8 5 36 10 61 l10 46 52 -5 c40 -3 56 0 66 12 20 24 28 19 29 -16 0 -18 0 -58
1 -88 0 -30 -3 -95 -7 -145 -10 -114 -9 -602 1 -612 16 -15 27 23 27 92 0 42
5 76 12 83 7 7 8 12 3 12 -4 0 -1 8 7 18 9 9 18 31 22 47 9 44 11 49 18 60 3
6 9 28 13 50 13 71 55 229 70 260 7 17 19 43 24 58 12 32 31 32 46 0 10 -24
45 -43 76 -43 15 0 19 -5 15 -17 -2 -10 -10 -52 -16 -93 -7 -41 -15 -79 -18
-85 -4 -5 -7 -19 -7 -30 0 -11 -3 -25 -7 -31 -4 -5 -6 -19 -4 -29 2 -11 -2
-37 -9 -60 -6 -22 -10 -50 -9 -63 1 -12 -3 -25 -7 -28 -5 -3 -9 -23 -9 -45 0
-21 -4 -39 -9 -39 -5 0 -11 -19 -14 -42 -2 -24 -8 -56 -12 -73 -7 -29 -9 -52
-6 -89 2 -37 28 3 33 52 4 41 35 118 71 177 45 73 57 97 57 115 0 11 5 20 11
20 6 0 9 6 6 13 -2 6 13 39 33 72 20 33 39 69 43 79 7 17 21 15 23 -2 4 -29
19 -42 49 -42 21 0 32 -5 31 -12 -10 -49 -30 -109 -37 -114 -5 -2 -21 2 -37
10 -16 8 -32 13 -35 9 -9 -9 22 -50 42 -56 18 -4 18 -7 -2 -76 -20 -67 -40
-90 -53 -58 -6 16 -32 18 -37 3 -4 -10 33 -54 50 -59 10 -3 9 -15 -11 -152
-24 -171 -28 -216 -28 -277 1 -32 -3 -58 -8 -58 -4 0 -8 -78 -8 -172 0 -95 -2
-190 -5 -210 -14 -89 -29 -164 -36 -173 -5 -5 -11 -23 -15 -40 -10 -41 -40
-102 -76 -150 -16 -22 -36 -55 -46 -73 -9 -17 -20 -32 -25 -32 -5 0 -9 -7 -9
-15 0 -8 9 -15 20 -15 13 0 20 -7 21 -20 1 -11 2 -29 3 -39 0 -11 4 -23 9 -27
4 -4 7 -19 7 -34 0 -15 3 -30 7 -33 7 -8 15 -67 9 -67 -2 0 -19 15 -37 33 -19
17 -47 41 -63 52 -34 24 -89 67 -96 76 -3 3 -15 9 -27 13 -39 12 -27 -18 20
-47 23 -15 56 -40 74 -57 18 -16 35 -30 39 -30 11 0 53 -52 69 -86 13 -27 38
-43 68 -44 5 0 5 15 2 32 -4 18 -8 38 -9 43 0 6 -4 12 -8 15 -4 3 -12 46 -18
95 -6 50 -16 98 -21 107 -15 28 -11 78 7 85 8 3 13 11 10 18 -2 6 4 18 15 26
10 7 19 17 19 22 0 5 8 21 18 35 10 15 24 46 32 69 7 24 16 43 19 43 4 0 8 12
9 26 1 15 7 33 13 40 6 8 13 53 16 101 2 49 7 95 11 103 3 8 7 87 8 175 4 213
13 342 30 415 3 14 8 49 10 78 5 72 43 254 57 271 7 8 11 17 11 20 -2 8 5 29
18 61 12 27 28 93 31 125 1 11 5 25 9 31 16 24 11 74 -11 128 -10 26 -15 28
-48 23 -39 -7 -83 -50 -116 -117 -23 -45 -40 -74 -54 -92 -7 -7 -13 -25 -15
-40 -2 -14 -10 -33 -17 -42 -7 -9 -11 -16 -7 -16 4 0 0 -10 -9 -23 -8 -13 -13
-26 -10 -29 3 -3 -1 -8 -10 -11 -18 -8 -19 16 -4 83 6 25 13 61 15 80 7 62 23
140 30 152 4 7 9 28 11 48 3 35 10 90 13 100 11 32 -10 132 -35 164 -19 25
-58 23 -93 -5 -28 -23 -62 -73 -63 -94 -1 -5 -6 -19 -12 -30 -6 -11 -11 -23
-12 -27 0 -3 -3 -10 -7 -14 -5 -4 -8 -14 -8 -23 0 -9 -6 -28 -14 -43 -8 -15
-17 -46 -20 -70 -10 -67 -11 -72 -19 -86 -9 -14 -14 -38 -19 -92 -2 -19 -9
-40 -17 -46 -8 -6 -12 -20 -9 -32 4 -13 2 -19 -6 -16 -9 4 -12 54 -9 201 2
108 7 201 11 207 5 6 7 25 6 41 -2 17 -5 87 -7 157 -6 155 -16 191 -61 212
-19 9 -36 15 -38 15 -1 -1 -12 -4 -23 -6z m60 -70 c0 -17 3 -34 7 -38 4 -4 -1
-22 -10 -41 -14 -27 -23 -34 -49 -34 -42 0 -65 39 -47 80 4 8 8 18 8 22 3 23
39 49 64 46 23 -3 27 -8 27 -35z m-408 -127 c25 -24 26 -25 10 -57 -8 -18 -14
-36 -12 -40 8 -12 -34 -42 -50 -36 -21 9 -21 105 1 135 19 27 19 27 51 -2z
m750 -78 c5 -7 14 -29 20 -50 8 -29 8 -39 -4 -51 -30 -29 -91 27 -84 78 5 34
49 48 68 23z m259 -293 c7 -42 -8 -65 -42 -65 -20 0 -24 5 -24 31 0 71 54 99
66 34z m-1288 -317 c26 -26 8 -148 -25 -174 -35 -26 -41 -17 -42 62 0 99 29
150 67 112z"/>
<path d="M1165 2511 c-32 -7 -37 -20 -12 -35 18 -12 70 11 64 28 -4 13 -16 15
-52 7z"/>
<path d="M4310 2511 c0 -26 15 -41 40 -41 34 0 61 27 40 40 -9 5 -17 5 -21 -2
-4 -7 -13 -7 -27 1 -25 13 -32 14 -32 2z"/>
<path d="M1487 2375 c-7 -17 26 -35 64 -35 38 0 15 33 -32 45 -19 5 -28 2 -32
-10z"/>
<path d="M4630 2295 c0 -9 7 -18 15 -21 23 -9 45 3 39 21 -8 20 -54 20 -54 0z"/>
<path d="M4272 2204 c1 -9 19 -23 40 -30 30 -10 40 -10 55 1 21 15 16 24 -18
30 -13 3 -37 7 -52 11 -24 5 -28 3 -25 -12z"/>
<path d="M1452 2164 c2 -13 67 -42 96 -44 1 0 2 8 2 18 0 11 -13 21 -40 30
-52 16 -62 15 -58 -4z"/>
<path d="M867 2114 c-9 -10 -9 -54 1 -53 15 1 65 35 66 44 1 12 -56 19 -67 9z"/>
<path d="M4576 2091 c-8 -13 30 -43 51 -39 10 2 19 11 21 21 2 11 -1 15 -11
11 -8 -3 -18 -1 -22 5 -8 13 -32 14 -39 2z"/>
<path d="M4012 1770 c-32 -20 -41 -43 -22 -55 6 -4 19 4 30 17 16 20 22 21 38
11 16 -10 23 -9 32 2 9 11 6 17 -18 29 -26 14 -31 13 -60 -4z"/>
<path d="M1190 1756 c-35 -14 -34 -14 -20 -31 9 -11 16 -12 25 -5 13 11 42 10
60 -2 6 -4 16 2 22 12 10 16 7 19 -25 27 -25 7 -46 6 -62 -1z"/>
<path d="M1433 1762 c-33 -5 -29 -32 4 -32 14 0 35 -8 45 -17 14 -13 21 -14
30 -5 9 9 6 17 -10 35 -23 24 -28 25 -69 19z"/>
<path d="M4297 1763 c-3 -2 -13 -6 -23 -7 -26 -4 -43 -34 -25 -45 10 -6 20 -3
31 11 16 20 18 20 50 5 41 -21 60 -21 60 -2 0 12 -39 42 -47 37 -2 -1 -4 -2
-5 -1 -17 5 -38 6 -41 2z"/>
<path d="M953 1679 c-25 -25 -3 -38 50 -32 62 7 64 8 47 28 -15 18 -81 20 -97
4z"/>
<path d="M4470 1675 c0 -8 3 -15 8 -16 15 -1 40 -7 60 -13 27 -9 39 12 16 29
-26 20 -84 19 -84 0z"/>
<path d="M1726 1523 c-4 -27 -8 -57 -11 -68 -2 -11 -9 -53 -15 -93 -14 -85
-33 -137 -63 -169 -11 -13 -17 -23 -13 -23 4 0 1 -7 -6 -15 -7 -8 -18 -21 -25
-28 -15 -18 -62 -154 -56 -161 11 -11 33 8 33 28 0 22 26 78 58 127 9 14 29
44 44 66 14 22 32 60 39 84 7 24 15 46 19 49 5 5 6 9 14 110 3 36 8 82 12 103
5 29 3 37 -8 37 -11 0 -17 -15 -22 -47z"/>
<path d="M4750 1563 c0 -5 11 -21 24 -38 19 -23 27 -27 36 -18 10 9 7 17 -13
37 -25 25 -47 34 -47 19z"/>
<path d="M3785 1503 c4 -63 20 -146 34 -178 5 -11 13 -38 19 -60 15 -59 77
-214 91 -228 6 -6 11 -24 11 -39 0 -15 5 -28 10 -28 6 0 10 -8 10 -18 0 -22
38 -65 50 -57 11 7 3 30 -27 74 -13 19 -23 41 -23 51 0 9 -3 20 -7 24 -5 4 -8
11 -9 14 0 4 -6 21 -13 37 -7 17 -15 39 -17 50 -2 11 -22 73 -44 137 -23 65
-43 140 -46 166 -9 91 -15 112 -29 112 -12 0 -14 -12 -10 -57z"/>
<path d="M4083 1539 c-7 -7 -8 -20 -2 -38 5 -14 7 -39 6 -56 -2 -16 0 -43 5
-60 4 -16 11 -64 14 -105 3 -41 10 -81 16 -88 6 -7 8 -15 6 -18 -3 -3 -1 -24
4 -47 5 -23 11 -59 12 -80 2 -21 6 -41 10 -44 12 -12 26 21 20 47 -3 14 -9 50
-14 80 -4 30 -11 71 -15 90 -23 128 -33 203 -34 255 -2 63 -10 82 -28 64z"/>
<path d="M4279 1543 c-1 -10 0 -38 8 -143 10 -124 9 -390 -1 -429 l-8 -34 24
18 c24 19 26 25 30 140 1 51 -6 191 -17 325 -5 63 -17 120 -26 126 -5 3 -9 2
-10 -3z"/>
<path d="M693 1533 c-13 -5 -18 -35 -7 -46 7 -7 64 33 64 45 0 9 -37 10 -57 1z"/>
<path d="M1239 1518 c-1 -13 -3 -115 -5 -228 -3 -218 -8 -323 -17 -337 -3 -5
-2 -15 3 -23 29 -46 42 74 44 393 1 170 -1 217 -11 217 -7 0 -14 -10 -14 -22z"/>
<path d="M1416 1498 c-5 -16 -15 -79 -21 -128 -6 -63 -25 -184 -36 -230 -5
-25 -12 -78 -15 -117 -5 -62 -3 -73 10 -73 9 0 16 1 16 3 5 97 15 175 23 185
5 6 7 12 5 12 -3 0 -1 19 4 43 18 79 24 157 13 157 -5 0 -5 4 2 8 17 11 29
137 14 146 -6 4 -13 1 -15 -6z"/>
<path d="M1030 1438 c0 -19 3 -38 7 -42 4 -3 7 -19 8 -34 1 -15 5 -40 9 -57 3
-16 11 -77 17 -135 5 -58 11 -116 13 -130 2 -14 4 -37 4 -51 1 -15 11 -37 22
-50 l21 -24 -6 55 c-3 30 -10 78 -15 105 -5 28 -11 91 -15 140 -3 50 -9 106
-13 125 -5 19 -9 37 -10 40 0 3 -3 12 -6 20 -3 8 -6 26 -8 39 -5 39 -28 38
-28 -1z"/>
<path d="M4465 1403 c-6 -16 -15 -91 -29 -258 -7 -81 -12 -112 -26 -164 -7
-31 -8 -47 0 -55 15 -15 27 3 33 49 3 22 8 51 11 65 4 14 8 59 10 100 3 41 7
82 10 90 2 8 6 54 9 103 3 83 -3 107 -18 70z"/>
<path d="M862 1358 c-11 -11 -2 -34 27 -70 13 -17 38 -102 48 -165 5 -35 32
-67 34 -42 2 26 -3 64 -10 74 -4 6 -8 26 -10 45 -2 32 -55 155 -71 165 -4 2
-12 -1 -18 -7z"/>
<path d="M4652 1313 c-5 -10 -9 -34 -10 -53 -3 -56 -23 -140 -33 -140 -5 0 -9
-7 -9 -15 0 -19 17 -19 35 -1 10 10 45 183 45 223 0 11 -21 0 -28 -14z"/>
<path d="M1013 363 c-13 -8 -23 -21 -23 -27 0 -6 -13 -25 -29 -42 -37 -40 -66
-134 -41 -134 5 0 20 21 32 47 11 27 38 71 60 100 51 69 51 91 1 56z"/>
</g>
</svg>
